<svg width="383" height="282" viewBox="0 0 383 282" fill="none" xmlns="http://www.w3.org/2000/svg">
<g filter="url(#filter0_d_106_212)">
<rect width="370" height="274" rx="20" fill="#FDF4D4"/>
</g>
<path d="M87.1087 56.3C84.4287 56.3 82.4987 55.66 81.3187 54.38C80.1387 53.08 79.5487 51.27 79.5487 48.95V39.56C79.5487 39.36 79.6087 39.2 79.7287 39.08C79.8687 38.94 80.0387 38.87 80.2387 38.87H81.4687C81.6887 38.87 81.8587 38.94 81.9787 39.08C82.0987 39.2 82.1587 39.36 82.1587 39.56V48.8C82.1587 50.42 82.5687 51.67 83.3887 52.55C84.2087 53.41 85.4487 53.84 87.1087 53.84C88.7687 53.84 89.9787 53.44 90.7387 52.64C91.5187 51.84 91.9287 50.64 91.9687 49.04C91.9887 48.84 91.9887 48.54 91.9687 48.14C91.9687 47.72 91.9687 47.3 91.9687 46.88C91.9687 46.46 91.9687 46.15 91.9687 45.95C91.9287 44.29 91.5687 43.08 90.8887 42.32C90.2287 41.56 89.3587 41.18 88.2787 41.18C87.9387 41.18 87.5487 41.24 87.1087 41.36C86.6687 41.48 86.2987 41.64 85.9987 41.84C85.8187 41.94 85.6287 41.95 85.4287 41.87C85.2287 41.77 85.1287 41.61 85.1287 41.39V40.46C85.1287 40.26 85.1487 40.09 85.1887 39.95C85.2287 39.79 85.3387 39.65 85.5187 39.53C85.9187 39.29 86.3487 39.1 86.8087 38.96C87.2687 38.8 87.8787 38.72 88.6387 38.72C89.9387 38.72 91.0287 38.97 91.9087 39.47C92.7887 39.95 93.4587 40.7 93.9187 41.72C94.3787 42.74 94.6287 44.05 94.6687 45.65C94.6887 45.85 94.6987 46.19 94.6987 46.67C94.6987 47.15 94.6987 47.64 94.6987 48.14C94.6987 48.64 94.6887 48.99 94.6687 49.19C94.6287 50.71 94.3487 52.01 93.8287 53.09C93.3287 54.15 92.5287 54.95 91.4287 55.49C90.3487 56.03 88.9087 56.3 87.1087 56.3ZM99.3145 56C99.1145 56 98.9445 55.94 98.8045 55.82C98.6845 55.68 98.6245 55.51 98.6245 55.31V39.56C98.6245 39.36 98.6845 39.2 98.8045 39.08C98.9445 38.94 99.1145 38.87 99.3145 38.87H100.724C100.944 38.87 101.114 38.94 101.234 39.08C101.354 39.2 101.414 39.36 101.414 39.56V55.31C101.414 55.51 101.354 55.68 101.234 55.82C101.114 55.94 100.944 56 100.724 56H99.3145ZM113.537 41.33H106.247C106.027 41.33 105.857 41.27 105.737 41.15C105.617 41.01 105.557 40.84 105.557 40.64V39.56C105.557 39.36 105.617 39.2 105.737 39.08C105.857 38.94 106.027 38.87 106.247 38.87H113.867C115.107 38.87 116.207 39.16 117.167 39.74C118.147 40.32 118.907 41.16 119.447 42.26C120.007 43.34 120.287 44.65 120.287 46.19V55.31C120.287 55.51 120.217 55.68 120.077 55.82C119.957 55.94 119.797 56 119.597 56H111.857C111.657 56 111.487 55.94 111.347 55.82C111.227 55.68 111.167 55.51 111.167 55.31V54.29C111.167 54.09 111.227 53.93 111.347 53.81C111.487 53.67 111.657 53.6 111.857 53.6H117.557V46.37C117.557 45.35 117.377 44.46 117.017 43.7C116.677 42.94 116.197 42.36 115.577 41.96C114.977 41.54 114.297 41.33 113.537 41.33ZM105.947 56C105.767 56 105.617 55.93 105.497 55.79C105.377 55.65 105.327 55.48 105.347 55.28L107.897 40.58C107.937 40.38 108.027 40.23 108.167 40.13C108.307 40.01 108.477 39.97 108.677 40.01L109.877 40.07C110.077 40.09 110.237 40.18 110.357 40.34C110.477 40.48 110.507 40.65 110.447 40.85L108.077 55.28C108.057 55.48 107.967 55.65 107.807 55.79C107.667 55.93 107.497 56 107.297 56H105.947ZM133.281 41.27C133.081 41.27 132.911 41.21 132.771 41.09C132.651 40.95 132.591 40.78 132.591 40.58V39.56C132.591 39.36 132.651 39.2 132.771 39.08C132.911 38.94 133.081 38.87 133.281 38.87H139.791C141.511 38.87 142.931 39.15 144.051 39.71C145.191 40.25 146.041 41.07 146.601 42.17C147.161 43.25 147.441 44.59 147.441 46.19V55.31C147.441 55.51 147.371 55.68 147.231 55.82C147.111 55.94 146.951 56 146.751 56H145.401C145.181 56 145.011 55.94 144.891 55.82C144.771 55.68 144.711 55.51 144.711 55.31V46.34C144.711 44.74 144.301 43.5 143.481 42.62C142.681 41.72 141.391 41.27 139.611 41.27H133.281ZM135.981 39.8H136.731C137.031 39.8 137.251 39.88 137.391 40.04C137.551 40.18 137.621 40.36 137.601 40.58C137.441 41.42 137.301 42.18 137.181 42.86C137.081 43.54 137.011 44.22 136.971 44.9C136.931 45.56 136.911 46.31 136.911 47.15L136.971 55.31C136.971 55.51 136.911 55.68 136.791 55.82C136.671 55.94 136.511 56 136.311 56L132.051 55.94C131.851 55.94 131.681 55.88 131.541 55.76C131.421 55.64 131.361 55.47 131.361 55.25V54.29C131.361 54.09 131.421 53.93 131.541 53.81C131.681 53.67 131.851 53.6 132.051 53.6L134.361 53.63V47.27C134.361 46.45 134.371 45.7 134.391 45.02C134.411 44.32 134.471 43.62 134.571 42.92C134.671 42.22 134.831 41.43 135.051 40.55C135.111 40.33 135.201 40.15 135.321 40.01C135.461 39.87 135.681 39.8 135.981 39.8ZM163.556 56C163.336 56 163.166 55.94 163.046 55.82C162.926 55.7 162.816 55.6 162.716 55.52L151.706 40.04C151.566 39.82 151.496 39.63 151.496 39.47C151.496 39.31 151.556 39.17 151.676 39.05C151.816 38.93 151.966 38.87 152.126 38.87H153.506C153.746 38.87 153.926 38.93 154.046 39.05C154.186 39.17 154.296 39.28 154.376 39.38L165.416 54.83C165.496 54.97 165.546 55.08 165.566 55.16C165.606 55.24 165.626 55.32 165.626 55.4C165.626 55.56 165.566 55.7 165.446 55.82C165.326 55.94 165.176 56 164.996 56H163.556ZM151.856 56C151.656 56 151.486 55.94 151.346 55.82C151.226 55.68 151.166 55.51 151.166 55.31V50.81C151.166 49.89 151.256 49.02 151.436 48.2C151.616 47.36 151.966 46.57 152.486 45.83C153.026 45.07 153.826 44.36 154.886 43.7L156.266 45.71C155.546 46.17 155.006 46.7 154.646 47.3C154.286 47.88 154.046 48.49 153.926 49.13C153.806 49.75 153.746 50.35 153.746 50.93V55.31C153.746 55.51 153.676 55.68 153.536 55.82C153.416 55.94 153.256 56 153.056 56H151.856ZM161.156 50.51L159.926 48.44C160.906 47.98 161.596 47.5 161.996 47C162.416 46.5 162.666 45.98 162.746 45.44C162.826 44.88 162.866 44.3 162.866 43.7V39.56C162.866 39.36 162.926 39.2 163.046 39.08C163.186 38.94 163.356 38.87 163.556 38.87H164.816C165.016 38.87 165.176 38.94 165.296 39.08C165.436 39.2 165.506 39.36 165.506 39.56V43.85C165.506 44.69 165.406 45.5 165.206 46.28C165.006 47.06 164.596 47.8 163.976 48.5C163.376 49.2 162.436 49.87 161.156 50.51ZM184.286 56.3C181.606 56.3 179.676 55.66 178.496 54.38C177.316 53.08 176.726 51.27 176.726 48.95V39.56C176.726 39.36 176.786 39.2 176.906 39.08C177.046 38.94 177.216 38.87 177.416 38.87H178.646C178.866 38.87 179.036 38.94 179.156 39.08C179.276 39.2 179.336 39.36 179.336 39.56V48.8C179.336 50.42 179.746 51.67 180.566 52.55C181.386 53.41 182.626 53.84 184.286 53.84C185.946 53.84 187.156 53.44 187.916 52.64C188.696 51.84 189.106 50.64 189.146 49.04C189.166 48.84 189.166 48.54 189.146 48.14C189.146 47.72 189.146 47.3 189.146 46.88C189.146 46.46 189.146 46.15 189.146 45.95C189.106 44.29 188.746 43.08 188.066 42.32C187.406 41.56 186.536 41.18 185.456 41.18C185.116 41.18 184.726 41.24 184.286 41.36C183.846 41.48 183.476 41.64 183.176 41.84C182.996 41.94 182.806 41.95 182.606 41.87C182.406 41.77 182.306 41.61 182.306 41.39V40.46C182.306 40.26 182.326 40.09 182.366 39.95C182.406 39.79 182.516 39.65 182.696 39.53C183.096 39.29 183.526 39.1 183.986 38.96C184.446 38.8 185.056 38.72 185.816 38.72C187.116 38.72 188.206 38.97 189.086 39.47C189.966 39.95 190.636 40.7 191.096 41.72C191.556 42.74 191.806 44.05 191.846 45.65C191.866 45.85 191.876 46.19 191.876 46.67C191.876 47.15 191.876 47.64 191.876 48.14C191.876 48.64 191.866 48.99 191.846 49.19C191.806 50.71 191.526 52.01 191.006 53.09C190.506 54.15 189.706 54.95 188.606 55.49C187.526 56.03 186.086 56.3 184.286 56.3ZM195.506 57.65C195.306 57.73 195.116 57.71 194.936 57.59C194.756 57.49 194.666 57.34 194.666 57.14V56.12C194.666 55.94 194.706 55.77 194.786 55.61C194.866 55.45 194.996 55.35 195.176 55.31L201.506 53.21C202.646 52.83 203.526 52.34 204.146 51.74C204.766 51.14 205.196 50.44 205.436 49.64C205.696 48.84 205.826 47.97 205.826 47.03V39.56C205.826 39.36 205.886 39.2 206.006 39.08C206.146 38.94 206.316 38.87 206.516 38.87H207.866C208.066 38.87 208.226 38.94 208.346 39.08C208.486 39.2 208.556 39.36 208.556 39.56V47.87C208.556 49.03 208.286 50.13 207.746 51.17C207.226 52.19 206.486 53.09 205.526 53.87C204.566 54.63 203.426 55.21 202.106 55.61L195.506 57.65ZM199.436 55.28L195.206 40.07C195.166 39.91 195.126 39.79 195.086 39.71C195.066 39.63 195.056 39.55 195.056 39.47C195.056 39.31 195.116 39.17 195.236 39.05C195.356 38.93 195.496 38.87 195.656 38.87H197.126C197.506 38.87 197.736 39.02 197.816 39.32L201.986 54.59L199.436 55.28ZM220.499 41.33H213.209C212.989 41.33 212.819 41.27 212.699 41.15C212.579 41.01 212.519 40.84 212.519 40.64V39.56C212.519 39.36 212.579 39.2 212.699 39.08C212.819 38.94 212.989 38.87 213.209 38.87H220.829C222.069 38.87 223.169 39.16 224.129 39.74C225.109 40.32 225.869 41.16 226.409 42.26C226.969 43.34 227.249 44.65 227.249 46.19V55.31C227.249 55.51 227.179 55.68 227.039 55.82C226.919 55.94 226.759 56 226.559 56H218.819C218.619 56 218.449 55.94 218.309 55.82C218.189 55.68 218.129 55.51 218.129 55.31V54.29C218.129 54.09 218.189 53.93 218.309 53.81C218.449 53.67 218.619 53.6 218.819 53.6H224.519V46.37C224.519 45.35 224.339 44.46 223.979 43.7C223.639 42.94 223.159 42.36 222.539 41.96C221.939 41.54 221.259 41.33 220.499 41.33ZM212.909 56C212.729 56 212.579 55.93 212.459 55.79C212.339 55.65 212.289 55.48 212.309 55.28L214.859 40.58C214.899 40.38 214.989 40.23 215.129 40.13C215.269 40.01 215.439 39.97 215.639 40.01L216.839 40.07C217.039 40.09 217.199 40.18 217.319 40.34C217.439 40.48 217.469 40.65 217.409 40.85L215.039 55.28C215.019 55.48 214.929 55.65 214.769 55.79C214.629 55.93 214.459 56 214.259 56H212.909ZM239.734 56C239.534 56 239.364 55.94 239.224 55.82C239.104 55.68 239.044 55.51 239.044 55.31V39.56C239.044 39.36 239.104 39.2 239.224 39.08C239.364 38.94 239.534 38.87 239.734 38.87H245.464C247.184 38.87 248.604 39.15 249.724 39.71C250.844 40.25 251.674 41.06 252.214 42.14C252.774 43.22 253.054 44.57 253.054 46.19V55.31C253.054 55.51 252.994 55.68 252.874 55.82C252.754 55.94 252.584 56 252.364 56H239.734ZM241.624 53.6H250.384V46.34C250.384 44.74 249.984 43.5 249.184 42.62C248.384 41.72 247.094 41.27 245.314 41.27H241.624V53.6ZM257.981 49.04C257.781 49.04 257.611 48.98 257.471 48.86C257.351 48.72 257.291 48.55 257.291 48.35V39.56C257.291 39.36 257.351 39.2 257.471 39.08C257.611 38.94 257.781 38.87 257.981 38.87H259.391C259.611 38.87 259.781 38.94 259.901 39.08C260.021 39.2 260.081 39.36 260.081 39.56V48.35C260.081 48.55 260.021 48.72 259.901 48.86C259.781 48.98 259.611 49.04 259.391 49.04H257.981ZM274.223 56C274.023 56 273.853 55.94 273.713 55.82C273.593 55.68 273.533 55.51 273.533 55.31V46.34C273.533 44.74 273.133 43.5 272.333 42.62C271.533 41.72 270.243 41.27 268.463 41.27H264.533C264.333 41.27 264.163 41.21 264.023 41.09C263.903 40.95 263.843 40.78 263.843 40.58V39.56C263.843 39.36 263.903 39.2 264.023 39.08C264.163 38.94 264.333 38.87 264.533 38.87H268.613C270.333 38.87 271.753 39.14 272.873 39.68C274.013 40.22 274.863 41.04 275.423 42.14C275.983 43.22 276.263 44.57 276.263 46.19V55.31C276.263 55.51 276.193 55.68 276.053 55.82C275.933 55.94 275.773 56 275.573 56H274.223ZM280.435 56C280.235 56 280.065 55.94 279.925 55.82C279.805 55.68 279.745 55.51 279.745 55.31V54.29C279.745 54.09 279.805 53.93 279.925 53.81C280.065 53.67 280.235 53.6 280.435 53.6H288.895V55.43C288.895 55.63 288.825 55.78 288.685 55.88C288.565 55.96 288.405 56 288.205 56H280.435ZM287.065 56C286.865 56 286.705 55.94 286.585 55.82C286.485 55.68 286.415 55.51 286.375 55.31L285.805 46.04C285.765 45.06 285.685 44.21 285.565 43.49C285.465 42.77 285.225 42.21 284.845 41.81C284.485 41.41 283.875 41.21 283.015 41.21H281.785C281.585 41.21 281.415 41.15 281.275 41.03C281.155 40.89 281.095 40.72 281.095 40.52V39.5C281.095 39.3 281.155 39.14 281.275 39.02C281.415 38.88 281.585 38.81 281.785 38.81H283.045C284.185 38.81 285.105 38.98 285.805 39.32C286.505 39.64 287.045 40.12 287.425 40.76C287.805 41.4 288.085 42.16 288.265 43.04C288.445 43.9 288.565 44.87 288.625 45.95L289.165 55.31C289.205 55.51 289.155 55.68 289.015 55.82C288.875 55.94 288.705 56 288.505 56H287.065ZM313.128 49.94C312.548 49.94 312.008 49.8 311.508 49.52C311.008 49.22 310.608 48.83 310.308 48.35C310.028 47.85 309.888 47.31 309.888 46.73C309.888 46.13 310.028 45.59 310.308 45.11C310.608 44.61 311.008 44.22 311.508 43.94C312.008 43.64 312.548 43.49 313.128 43.49C313.728 43.49 314.268 43.64 314.748 43.94C315.228 44.22 315.608 44.61 315.888 45.11C316.188 45.59 316.338 46.13 316.338 46.73C316.338 47.31 316.188 47.85 315.888 48.35C315.608 48.83 315.228 49.22 314.748 49.52C314.268 49.8 313.728 49.94 313.128 49.94ZM53.8723 81.27C53.6723 81.27 53.5023 81.21 53.3623 81.09C53.2423 80.95 53.1823 80.78 53.1823 80.58V79.56C53.1823 79.36 53.2423 79.2 53.3623 79.08C53.5023 78.94 53.6723 78.87 53.8723 78.87H60.3823C62.1023 78.87 63.5223 79.15 64.6423 79.71C65.7823 80.25 66.6323 81.07 67.1923 82.17C67.7523 83.25 68.0323 84.59 68.0323 86.19V95.31C68.0323 95.51 67.9623 95.68 67.8223 95.82C67.7023 95.94 67.5423 96 67.3423 96H65.9923C65.7723 96 65.6023 95.94 65.4823 95.82C65.3623 95.68 65.3023 95.51 65.3023 95.31V86.34C65.3023 84.74 64.8923 83.5 64.0723 82.62C63.2723 81.72 61.9823 81.27 60.2023 81.27H53.8723ZM56.5723 79.8H57.3223C57.6223 79.8 57.8423 79.88 57.9823 80.04C58.1423 80.18 58.2123 80.36 58.1923 80.58C58.0323 81.42 57.8923 82.18 57.7723 82.86C57.6723 83.54 57.6023 84.22 57.5623 84.9C57.5223 85.56 57.5023 86.31 57.5023 87.15L57.5623 95.31C57.5623 95.51 57.5023 95.68 57.3823 95.82C57.2623 95.94 57.1023 96 56.9023 96L52.6423 95.94C52.4423 95.94 52.2723 95.88 52.1323 95.76C52.0123 95.64 51.9523 95.47 51.9523 95.25V94.29C51.9523 94.09 52.0123 93.93 52.1323 93.81C52.2723 93.67 52.4423 93.6 52.6423 93.6L54.9523 93.63V87.27C54.9523 86.45 54.9623 85.7 54.9823 85.02C55.0023 84.32 55.0623 83.62 55.1623 82.92C55.2623 82.22 55.4223 81.43 55.6423 80.55C55.7023 80.33 55.7923 80.15 55.9123 80.01C56.0523 79.87 56.2723 79.8 56.5723 79.8ZM84.147 96C83.927 96 83.757 95.94 83.637 95.82C83.517 95.7 83.407 95.6 83.307 95.52L72.297 80.04C72.157 79.82 72.087 79.63 72.087 79.47C72.087 79.31 72.147 79.17 72.267 79.05C72.407 78.93 72.557 78.87 72.717 78.87H74.097C74.337 78.87 74.517 78.93 74.637 79.05C74.777 79.17 74.887 79.28 74.967 79.38L86.007 94.83C86.087 94.97 86.137 95.08 86.157 95.16C86.197 95.24 86.217 95.32 86.217 95.4C86.217 95.56 86.157 95.7 86.037 95.82C85.917 95.94 85.767 96 85.587 96H84.147ZM72.447 96C72.247 96 72.077 95.94 71.937 95.82C71.817 95.68 71.757 95.51 71.757 95.31V90.81C71.757 89.89 71.847 89.02 72.027 88.2C72.207 87.36 72.557 86.57 73.077 85.83C73.617 85.07 74.417 84.36 75.477 83.7L76.857 85.71C76.137 86.17 75.597 86.7 75.237 87.3C74.877 87.88 74.637 88.49 74.517 89.13C74.397 89.75 74.337 90.35 74.337 90.93V95.31C74.337 95.51 74.267 95.68 74.127 95.82C74.007 95.94 73.847 96 73.647 96H72.447ZM81.747 90.51L80.517 88.44C81.497 87.98 82.187 87.5 82.587 87C83.007 86.5 83.257 85.98 83.337 85.44C83.417 84.88 83.457 84.3 83.457 83.7V79.56C83.457 79.36 83.517 79.2 83.637 79.08C83.777 78.94 83.947 78.87 84.147 78.87H85.407C85.607 78.87 85.767 78.94 85.887 79.08C86.027 79.2 86.097 79.36 86.097 79.56V83.85C86.097 84.69 85.997 85.5 85.797 86.28C85.597 87.06 85.187 87.8 84.567 88.5C83.967 89.2 83.027 89.87 81.747 90.51ZM98.1572 96C97.9572 96 97.7872 95.94 97.6472 95.82C97.5272 95.68 97.4672 95.51 97.4672 95.31V79.56C97.4672 79.36 97.5272 79.2 97.6472 79.08C97.7872 78.94 97.9572 78.87 98.1572 78.87H99.5672C99.7872 78.87 99.9572 78.94 100.077 79.08C100.197 79.2 100.257 79.36 100.257 79.56V95.31C100.257 95.51 100.197 95.68 100.077 95.82C99.9572 95.94 99.7872 96 99.5672 96H98.1572ZM105.359 89.04C105.159 89.04 104.989 88.98 104.849 88.86C104.729 88.72 104.669 88.55 104.669 88.35V79.56C104.669 79.36 104.729 79.2 104.849 79.08C104.989 78.94 105.159 78.87 105.359 78.87H106.769C106.989 78.87 107.159 78.94 107.279 79.08C107.399 79.2 107.459 79.36 107.459 79.56V88.35C107.459 88.55 107.399 88.72 107.279 88.86C107.159 88.98 106.989 89.04 106.769 89.04H105.359ZM115.601 96.27C115.421 96.33 115.251 96.3 115.091 96.18C114.931 96.08 114.851 95.93 114.851 95.73V94.35C114.851 94.17 114.901 94.01 115.001 93.87C115.121 93.73 115.291 93.62 115.511 93.54L116.681 93.09C117.461 92.77 118.171 92.37 118.811 91.89C119.471 91.39 119.981 90.72 120.341 89.88C120.721 89.04 120.911 87.94 120.911 86.58C120.911 85.28 120.751 84.25 120.431 83.49C120.131 82.71 119.611 82.16 118.871 81.84C118.151 81.5 117.161 81.33 115.901 81.33H115.001C114.801 81.33 114.631 81.27 114.491 81.15C114.371 81.01 114.311 80.84 114.311 80.64V79.56C114.311 79.36 114.371 79.2 114.491 79.08C114.631 78.94 114.801 78.87 115.001 78.87H116.321C118.141 78.87 119.591 79.13 120.671 79.65C121.751 80.17 122.521 81.01 122.981 82.17C123.461 83.31 123.701 84.81 123.701 86.67C123.701 88.07 123.511 89.28 123.131 90.3C122.751 91.32 122.231 92.19 121.571 92.91C120.931 93.63 120.201 94.23 119.381 94.71C118.561 95.17 117.711 95.55 116.831 95.85L115.601 96.27ZM115.661 81.33L112.091 81.3C111.891 81.3 111.721 81.24 111.581 81.12C111.461 81 111.401 80.84 111.401 80.64V75.39C111.401 75.19 111.461 75.03 111.581 74.91C111.721 74.77 111.891 74.7 112.091 74.7H113.351C113.551 74.7 113.711 74.77 113.831 74.91C113.971 75.03 114.041 75.19 114.041 75.39V78.87H115.721L115.661 81.33ZM139.313 96C139.093 96 138.923 95.94 138.803 95.82C138.683 95.7 138.573 95.6 138.473 95.52L127.463 80.04C127.323 79.82 127.253 79.63 127.253 79.47C127.253 79.31 127.313 79.17 127.433 79.05C127.573 78.93 127.723 78.87 127.883 78.87H129.263C129.503 78.87 129.683 78.93 129.803 79.05C129.943 79.17 130.053 79.28 130.133 79.38L141.173 94.83C141.253 94.97 141.303 95.08 141.323 95.16C141.363 95.24 141.383 95.32 141.383 95.4C141.383 95.56 141.323 95.7 141.203 95.82C141.083 95.94 140.933 96 140.753 96H139.313ZM127.613 96C127.413 96 127.243 95.94 127.103 95.82C126.983 95.68 126.923 95.51 126.923 95.31V90.81C126.923 89.89 127.013 89.02 127.193 88.2C127.373 87.36 127.723 86.57 128.243 85.83C128.783 85.07 129.583 84.36 130.643 83.7L132.023 85.71C131.303 86.17 130.763 86.7 130.403 87.3C130.043 87.88 129.803 88.49 129.683 89.13C129.563 89.75 129.503 90.35 129.503 90.93V95.31C129.503 95.51 129.433 95.68 129.293 95.82C129.173 95.94 129.013 96 128.813 96H127.613ZM136.913 90.51L135.683 88.44C136.663 87.98 137.353 87.5 137.753 87C138.173 86.5 138.423 85.98 138.503 85.44C138.583 84.88 138.623 84.3 138.623 83.7V79.56C138.623 79.36 138.683 79.2 138.803 79.08C138.943 78.94 139.113 78.87 139.313 78.87H140.573C140.773 78.87 140.933 78.94 141.053 79.08C141.193 79.2 141.263 79.36 141.263 79.56V83.85C141.263 84.69 141.163 85.5 140.963 86.28C140.763 87.06 140.353 87.8 139.733 88.5C139.133 89.2 138.193 89.87 136.913 90.51ZM161.591 96C161.391 96 161.221 95.94 161.081 95.82C160.961 95.68 160.901 95.51 160.901 95.31V86.34C160.901 84.74 160.501 83.5 159.701 82.62C158.901 81.72 157.611 81.27 155.831 81.27H151.901C151.701 81.27 151.531 81.21 151.391 81.09C151.271 80.95 151.211 80.78 151.211 80.58V79.56C151.211 79.36 151.271 79.2 151.391 79.08C151.531 78.94 151.701 78.87 151.901 78.87H155.981C157.701 78.87 159.121 79.14 160.241 79.68C161.381 80.22 162.231 81.04 162.791 82.14C163.351 83.22 163.631 84.57 163.631 86.19V95.31C163.631 95.51 163.561 95.68 163.421 95.82C163.301 95.94 163.141 96 162.941 96H161.591ZM168.043 96C167.843 96 167.673 95.94 167.533 95.82C167.413 95.68 167.353 95.51 167.353 95.31V94.29C167.353 94.09 167.413 93.93 167.533 93.81C167.673 93.67 167.843 93.6 168.043 93.6H176.653V86.34C176.653 84.74 176.253 83.5 175.453 82.62C174.653 81.72 173.363 81.27 171.583 81.27H168.343C168.143 81.27 167.973 81.21 167.833 81.09C167.713 80.95 167.653 80.78 167.653 80.58V79.56C167.653 79.36 167.713 79.2 167.833 79.08C167.973 78.94 168.143 78.87 168.343 78.87H171.733C173.453 78.87 174.883 79.15 176.023 79.71C177.163 80.27 178.013 81.1 178.573 82.2C179.153 83.28 179.443 84.63 179.443 86.25V93.6H180.553C180.753 93.6 180.913 93.67 181.033 93.81C181.173 93.93 181.243 94.09 181.243 94.29V95.31C181.243 95.51 181.173 95.68 181.033 95.82C180.913 95.94 180.753 96 180.553 96H168.043ZM185.11 96C184.91 96 184.74 95.94 184.6 95.82C184.48 95.68 184.42 95.51 184.42 95.31V79.56C184.42 79.36 184.48 79.2 184.6 79.08C184.74 78.94 184.91 78.87 185.11 78.87H190.93C192.67 78.87 194.1 79.15 195.22 79.71C196.36 80.25 197.21 81.07 197.77 82.17C198.33 83.25 198.61 84.61 198.61 86.25V95.31C198.61 95.51 198.54 95.68 198.4 95.82C198.28 95.94 198.12 96 197.92 96H196.57C196.35 96 196.18 95.94 196.06 95.82C195.94 95.68 195.88 95.51 195.88 95.31V86.34C195.88 84.74 195.48 83.5 194.68 82.62C193.88 81.72 192.58 81.27 190.78 81.27H187.15V95.31C187.15 95.51 187.09 95.68 186.97 95.82C186.85 95.94 186.68 96 186.46 96H185.11ZM202.783 96C202.583 96 202.413 95.94 202.273 95.82C202.153 95.68 202.093 95.51 202.093 95.31V94.29C202.093 94.09 202.153 93.93 202.273 93.81C202.413 93.67 202.583 93.6 202.783 93.6H211.243V95.43C211.243 95.63 211.173 95.78 211.033 95.88C210.913 95.96 210.753 96 210.553 96H202.783ZM209.413 96C209.213 96 209.053 95.94 208.933 95.82C208.833 95.68 208.763 95.51 208.723 95.31L208.153 86.04C208.113 85.06 208.033 84.21 207.913 83.49C207.813 82.77 207.573 82.21 207.193 81.81C206.833 81.41 206.223 81.21 205.363 81.21H204.133C203.933 81.21 203.763 81.15 203.623 81.03C203.503 80.89 203.443 80.72 203.443 80.52V79.5C203.443 79.3 203.503 79.14 203.623 79.02C203.763 78.88 203.933 78.81 204.133 78.81H205.393C206.533 78.81 207.453 78.98 208.153 79.32C208.853 79.64 209.393 80.12 209.773 80.76C210.153 81.4 210.433 82.16 210.613 83.04C210.793 83.9 210.913 84.87 210.973 85.95L211.513 95.31C211.553 95.51 211.503 95.68 211.363 95.82C211.223 95.94 211.053 96 210.853 96H209.413ZM215.96 96C215.76 96 215.59 95.94 215.45 95.82C215.33 95.68 215.27 95.51 215.27 95.31V79.56C215.27 79.36 215.33 79.2 215.45 79.08C215.59 78.94 215.76 78.87 215.96 78.87H217.37C217.59 78.87 217.76 78.94 217.88 79.08C218 79.2 218.06 79.36 218.06 79.56V95.31C218.06 95.51 218 95.68 217.88 95.82C217.76 95.94 217.59 96 217.37 96H215.96ZM242.126 96C241.926 96 241.756 95.94 241.616 95.82C241.496 95.68 241.436 95.51 241.436 95.31V86.34C241.436 84.74 241.036 83.5 240.236 82.62C239.436 81.72 238.146 81.27 236.366 81.27H230.726C230.526 81.27 230.356 81.21 230.216 81.09C230.096 80.95 230.036 80.78 230.036 80.58V79.56C230.036 79.36 230.096 79.2 230.216 79.08C230.356 78.94 230.526 78.87 230.726 78.87H236.516C239.116 78.87 241.036 79.5 242.276 80.76C243.536 82.02 244.166 83.85 244.166 86.25V95.31C244.166 95.51 244.096 95.68 243.956 95.82C243.836 95.94 243.676 96 243.476 96H242.126ZM230.726 96C230.526 96 230.356 95.94 230.216 95.82C230.096 95.68 230.036 95.51 230.036 95.31V85.29C230.036 85.09 230.096 84.93 230.216 84.81C230.356 84.67 230.526 84.6 230.726 84.6H232.076C232.296 84.6 232.466 84.67 232.586 84.81C232.706 84.93 232.766 85.09 232.766 85.29V95.31C232.766 95.51 232.706 95.68 232.586 95.82C232.466 95.94 232.296 96 232.076 96H230.726ZM256.11 81.33H248.82C248.6 81.33 248.43 81.27 248.31 81.15C248.19 81.01 248.13 80.84 248.13 80.64V79.56C248.13 79.36 248.19 79.2 248.31 79.08C248.43 78.94 248.6 78.87 248.82 78.87H256.44C257.68 78.87 258.78 79.16 259.74 79.74C260.72 80.32 261.48 81.16 262.02 82.26C262.58 83.34 262.86 84.65 262.86 86.19V95.31C262.86 95.51 262.79 95.68 262.65 95.82C262.53 95.94 262.37 96 262.17 96H254.43C254.23 96 254.06 95.94 253.92 95.82C253.8 95.68 253.74 95.51 253.74 95.31V94.29C253.74 94.09 253.8 93.93 253.92 93.81C254.06 93.67 254.23 93.6 254.43 93.6H260.13V86.37C260.13 85.35 259.95 84.46 259.59 83.7C259.25 82.94 258.77 82.36 258.15 81.96C257.55 81.54 256.87 81.33 256.11 81.33ZM248.52 96C248.34 96 248.19 95.93 248.07 95.79C247.95 95.65 247.9 95.48 247.92 95.28L250.47 80.58C250.51 80.38 250.6 80.23 250.74 80.13C250.88 80.01 251.05 79.97 251.25 80.01L252.45 80.07C252.65 80.09 252.81 80.18 252.93 80.34C253.05 80.48 253.08 80.65 253.02 80.85L250.65 95.28C250.63 95.48 250.54 95.65 250.38 95.79C250.24 95.93 250.07 96 249.87 96H248.52ZM276.317 96C276.117 96 275.947 95.94 275.807 95.82C275.687 95.68 275.627 95.51 275.627 95.31V86.34C275.627 84.74 275.227 83.5 274.427 82.62C273.627 81.72 272.337 81.27 270.557 81.27H266.627C266.427 81.27 266.257 81.21 266.117 81.09C265.997 80.95 265.937 80.78 265.937 80.58V79.56C265.937 79.36 265.997 79.2 266.117 79.08C266.257 78.94 266.427 78.87 266.627 78.87H270.707C272.427 78.87 273.847 79.14 274.967 79.68C276.107 80.22 276.957 81.04 277.517 82.14C278.077 83.22 278.357 84.57 278.357 86.19V95.31C278.357 95.51 278.287 95.68 278.147 95.82C278.027 95.94 277.867 96 277.667 96H276.317ZM294.889 96C294.689 96 294.519 95.94 294.379 95.82C294.259 95.68 294.199 95.51 294.199 95.31V86.34C294.199 84.74 293.799 83.5 292.999 82.62C292.199 81.72 290.909 81.27 289.129 81.27H283.489C283.289 81.27 283.119 81.21 282.979 81.09C282.859 80.95 282.799 80.78 282.799 80.58V79.56C282.799 79.36 282.859 79.2 282.979 79.08C283.119 78.94 283.289 78.87 283.489 78.87H289.279C291.879 78.87 293.799 79.5 295.039 80.76C296.299 82.02 296.929 83.85 296.929 86.25V95.31C296.929 95.51 296.859 95.68 296.719 95.82C296.599 95.94 296.439 96 296.239 96H294.889ZM283.489 96C283.289 96 283.119 95.94 282.979 95.82C282.859 95.68 282.799 95.51 282.799 95.31V85.29C282.799 85.09 282.859 84.93 282.979 84.81C283.119 84.67 283.289 84.6 283.489 84.6H284.839C285.059 84.6 285.229 84.67 285.349 84.81C285.469 84.93 285.529 85.09 285.529 85.29V95.31C285.529 95.51 285.469 95.68 285.349 95.82C285.229 95.94 285.059 96 284.839 96H283.489ZM313.463 96C313.263 96 313.093 95.94 312.953 95.82C312.833 95.68 312.773 95.51 312.773 95.31V86.34C312.773 84.74 312.373 83.5 311.573 82.62C310.773 81.72 309.483 81.27 307.703 81.27H302.063C301.863 81.27 301.693 81.21 301.553 81.09C301.433 80.95 301.373 80.78 301.373 80.58V79.56C301.373 79.36 301.433 79.2 301.553 79.08C301.693 78.94 301.863 78.87 302.063 78.87H307.853C310.453 78.87 312.373 79.5 313.613 80.76C314.873 82.02 315.503 83.85 315.503 86.25V95.31C315.503 95.51 315.433 95.68 315.293 95.82C315.173 95.94 315.013 96 314.813 96H313.463ZM302.063 96C301.863 96 301.693 95.94 301.553 95.82C301.433 95.68 301.373 95.51 301.373 95.31V85.29C301.373 85.09 301.433 84.93 301.553 84.81C301.693 84.67 301.863 84.6 302.063 84.6H303.413C303.633 84.6 303.803 84.67 303.923 84.81C304.043 84.93 304.103 85.09 304.103 85.29V95.31C304.103 95.51 304.043 95.68 303.923 95.82C303.803 95.94 303.633 96 303.413 96H302.063ZM56.4358 121.27C56.2358 121.27 56.0658 121.21 55.9258 121.09C55.8058 120.95 55.7458 120.78 55.7458 120.58V119.56C55.7458 119.36 55.8058 119.2 55.9258 119.08C56.0658 118.94 56.2358 118.87 56.4358 118.87H62.9458C64.6658 118.87 66.0858 119.15 67.2058 119.71C68.3458 120.25 69.1958 121.07 69.7558 122.17C70.3158 123.25 70.5958 124.59 70.5958 126.19V135.31C70.5958 135.51 70.5258 135.68 70.3858 135.82C70.2658 135.94 70.1058 136 69.9058 136H68.5558C68.3358 136 68.1658 135.94 68.0458 135.82C67.9258 135.68 67.8658 135.51 67.8658 135.31V126.34C67.8658 124.74 67.4558 123.5 66.6358 122.62C65.8358 121.72 64.5458 121.27 62.7658 121.27H56.4358ZM59.1358 119.8H59.8858C60.1858 119.8 60.4058 119.88 60.5458 120.04C60.7058 120.18 60.7758 120.36 60.7558 120.58C60.5958 121.42 60.4558 122.18 60.3358 122.86C60.2358 123.54 60.1658 124.22 60.1258 124.9C60.0858 125.56 60.0658 126.31 60.0658 127.15L60.1258 135.31C60.1258 135.51 60.0658 135.68 59.9458 135.82C59.8258 135.94 59.6658 136 59.4658 136L55.2058 135.94C55.0058 135.94 54.8358 135.88 54.6958 135.76C54.5758 135.64 54.5158 135.47 54.5158 135.25V134.29C54.5158 134.09 54.5758 133.93 54.6958 133.81C54.8358 133.67 55.0058 133.6 55.2058 133.6L57.5158 133.63V127.27C57.5158 126.45 57.5258 125.7 57.5458 125.02C57.5658 124.32 57.6258 123.62 57.7258 122.92C57.8258 122.22 57.9858 121.43 58.2058 120.55C58.2658 120.33 58.3558 120.15 58.4758 120.01C58.6158 119.87 58.8358 119.8 59.1358 119.8ZM86.7105 136C86.4905 136 86.3205 135.94 86.2005 135.82C86.0805 135.7 85.9705 135.6 85.8705 135.52L74.8605 120.04C74.7205 119.82 74.6505 119.63 74.6505 119.47C74.6505 119.31 74.7105 119.17 74.8305 119.05C74.9705 118.93 75.1205 118.87 75.2805 118.87H76.6605C76.9005 118.87 77.0805 118.93 77.2005 119.05C77.3405 119.17 77.4505 119.28 77.5305 119.38L88.5705 134.83C88.6505 134.97 88.7005 135.08 88.7205 135.16C88.7605 135.24 88.7805 135.32 88.7805 135.4C88.7805 135.56 88.7205 135.7 88.6005 135.82C88.4805 135.94 88.3305 136 88.1505 136H86.7105ZM75.0105 136C74.8105 136 74.6405 135.94 74.5005 135.82C74.3805 135.68 74.3205 135.51 74.3205 135.31V130.81C74.3205 129.89 74.4105 129.02 74.5905 128.2C74.7705 127.36 75.1205 126.57 75.6405 125.83C76.1805 125.07 76.9805 124.36 78.0405 123.7L79.4205 125.71C78.7005 126.17 78.1605 126.7 77.8005 127.3C77.4405 127.88 77.2005 128.49 77.0805 129.13C76.9605 129.75 76.9005 130.35 76.9005 130.93V135.31C76.9005 135.51 76.8305 135.68 76.6905 135.82C76.5705 135.94 76.4105 136 76.2105 136H75.0105ZM84.3105 130.51L83.0805 128.44C84.0605 127.98 84.7505 127.5 85.1505 127C85.5705 126.5 85.8205 125.98 85.9005 125.44C85.9805 124.88 86.0205 124.3 86.0205 123.7V119.56C86.0205 119.36 86.0805 119.2 86.2005 119.08C86.3405 118.94 86.5105 118.87 86.7105 118.87H87.9705C88.1705 118.87 88.3305 118.94 88.4505 119.08C88.5905 119.2 88.6605 119.36 88.6605 119.56V123.85C88.6605 124.69 88.5605 125.5 88.3605 126.28C88.1605 127.06 87.7505 127.8 87.1305 128.5C86.5305 129.2 85.5905 129.87 84.3105 130.51ZM100.721 139.72C100.521 139.72 100.351 139.65 100.211 139.51C100.091 139.39 100.031 139.23 100.031 139.03V119.56C100.031 119.36 100.091 119.2 100.211 119.08C100.351 118.94 100.521 118.87 100.721 118.87H102.071C102.291 118.87 102.461 118.94 102.581 119.08C102.701 119.2 102.761 119.36 102.761 119.56V139.03C102.761 139.23 102.701 139.39 102.581 139.51C102.461 139.65 102.291 139.72 102.071 139.72H100.721ZM108.074 136C107.874 136 107.704 135.94 107.564 135.82C107.444 135.68 107.384 135.51 107.384 135.31V119.56C107.384 119.36 107.444 119.2 107.564 119.08C107.704 118.94 107.874 118.87 108.074 118.87H109.484C109.704 118.87 109.874 118.94 109.994 119.08C110.114 119.2 110.174 119.36 110.174 119.56V135.31C110.174 135.51 110.114 135.68 109.994 135.82C109.874 135.94 109.704 136 109.484 136H108.074ZM115.486 136C115.286 136 115.116 135.94 114.976 135.82C114.856 135.68 114.796 135.51 114.796 135.31V119.56C114.796 119.36 114.856 119.2 114.976 119.08C115.116 118.94 115.286 118.87 115.486 118.87H116.896C117.116 118.87 117.286 118.94 117.406 119.08C117.526 119.2 117.586 119.36 117.586 119.56V135.31C117.586 135.51 117.526 135.68 117.406 135.82C117.286 135.94 117.116 136 116.896 136H115.486ZM122.898 136C122.698 136 122.528 135.94 122.388 135.82C122.268 135.68 122.208 135.51 122.208 135.31V134.23C122.208 134.03 122.268 133.87 122.388 133.75C122.528 133.61 122.698 133.54 122.898 133.54H127.188C128.968 133.54 130.248 133.1 131.028 132.22C131.808 131.32 132.238 130.07 132.318 128.47C132.338 128.03 132.348 127.68 132.348 127.42C132.348 127.16 132.338 126.82 132.318 126.4C132.258 124.8 131.828 123.56 131.028 122.68C130.248 121.78 128.968 121.33 127.188 121.33H122.898C122.698 121.33 122.528 121.27 122.388 121.15C122.268 121.01 122.208 120.84 122.208 120.64V119.56C122.208 119.36 122.268 119.2 122.388 119.08C122.528 118.94 122.698 118.87 122.898 118.87H127.338C129.098 118.87 130.528 119.17 131.628 119.77C132.728 120.35 133.548 121.2 134.088 122.32C134.648 123.42 134.948 124.75 134.988 126.31C135.008 126.71 135.018 127.08 135.018 127.42C135.018 127.76 135.008 128.14 134.988 128.56C134.948 130.1 134.648 131.43 134.088 132.55C133.548 133.67 132.728 134.53 131.628 135.13C130.528 135.71 129.098 136 127.338 136H122.898ZM138.374 136C138.174 136 138.004 135.94 137.864 135.82C137.744 135.68 137.684 135.51 137.684 135.31V134.29C137.684 134.09 137.744 133.93 137.864 133.81C138.004 133.67 138.174 133.6 138.374 133.6H146.834V135.43C146.834 135.63 146.764 135.78 146.624 135.88C146.504 135.96 146.344 136 146.144 136H138.374ZM145.004 136C144.804 136 144.644 135.94 144.524 135.82C144.424 135.68 144.354 135.51 144.314 135.31L143.744 126.04C143.704 125.06 143.624 124.21 143.504 123.49C143.404 122.77 143.164 122.21 142.784 121.81C142.424 121.41 141.814 121.21 140.954 121.21H139.724C139.524 121.21 139.354 121.15 139.214 121.03C139.094 120.89 139.034 120.72 139.034 120.52V119.5C139.034 119.3 139.094 119.14 139.214 119.02C139.354 118.88 139.524 118.81 139.724 118.81H140.984C142.124 118.81 143.044 118.98 143.744 119.32C144.444 119.64 144.984 120.12 145.364 120.76C145.744 121.4 146.024 122.16 146.204 123.04C146.384 123.9 146.504 124.87 146.564 125.95L147.104 135.31C147.144 135.51 147.094 135.68 146.954 135.82C146.814 135.94 146.644 136 146.444 136H145.004ZM157.914 138.25C157.754 138.25 157.624 138.19 157.524 138.07C157.444 137.95 157.414 137.8 157.434 137.62L158.124 133.33C158.164 133.09 158.244 132.89 158.364 132.73C158.504 132.55 158.704 132.46 158.964 132.46H160.974C161.114 132.46 161.224 132.51 161.304 132.61C161.404 132.71 161.454 132.83 161.454 132.97C161.454 133.13 161.414 133.29 161.334 133.45L159.774 137.56C159.694 137.76 159.584 137.92 159.444 138.04C159.324 138.18 159.144 138.25 158.904 138.25H157.914ZM177.775 136C177.575 136 177.405 135.94 177.265 135.82C177.145 135.68 177.085 135.51 177.085 135.31V126.34C177.085 124.74 176.685 123.5 175.885 122.62C175.085 121.72 173.795 121.27 172.015 121.27H166.375C166.175 121.27 166.005 121.21 165.865 121.09C165.745 120.95 165.685 120.78 165.685 120.58V119.56C165.685 119.36 165.745 119.2 165.865 119.08C166.005 118.94 166.175 118.87 166.375 118.87H172.165C174.765 118.87 176.685 119.5 177.925 120.76C179.185 122.02 179.815 123.85 179.815 126.25V135.31C179.815 135.51 179.745 135.68 179.605 135.82C179.485 135.94 179.325 136 179.125 136H177.775ZM166.375 136C166.175 136 166.005 135.94 165.865 135.82C165.745 135.68 165.685 135.51 165.685 135.31V125.29C165.685 125.09 165.745 124.93 165.865 124.81C166.005 124.67 166.175 124.6 166.375 124.6H167.725C167.945 124.6 168.115 124.67 168.235 124.81C168.355 124.93 168.415 125.09 168.415 125.29V135.31C168.415 135.51 168.355 135.68 168.235 135.82C168.115 135.94 167.945 136 167.725 136H166.375ZM193.275 136C193.075 136 192.905 135.94 192.765 135.82C192.645 135.68 192.585 135.51 192.585 135.31V126.34C192.585 124.74 192.185 123.5 191.385 122.62C190.585 121.72 189.295 121.27 187.515 121.27H183.585C183.385 121.27 183.215 121.21 183.075 121.09C182.955 120.95 182.895 120.78 182.895 120.58V119.56C182.895 119.36 182.955 119.2 183.075 119.08C183.215 118.94 183.385 118.87 183.585 118.87H187.665C189.385 118.87 190.805 119.14 191.925 119.68C193.065 120.22 193.915 121.04 194.475 122.14C195.035 123.22 195.315 124.57 195.315 126.19V135.31C195.315 135.51 195.245 135.68 195.105 135.82C194.985 135.94 194.825 136 194.625 136H193.275ZM200.447 136C200.247 136 200.077 135.94 199.937 135.82C199.817 135.68 199.757 135.51 199.757 135.31V119.56C199.757 119.36 199.817 119.2 199.937 119.08C200.077 118.94 200.247 118.87 200.447 118.87H201.857C202.077 118.87 202.247 118.94 202.367 119.08C202.487 119.2 202.547 119.36 202.547 119.56V135.31C202.547 135.51 202.487 135.68 202.367 135.82C202.247 135.94 202.077 136 201.857 136H200.447ZM218.839 136C218.619 136 218.449 135.94 218.329 135.82C218.209 135.7 218.099 135.6 217.999 135.52L206.989 120.04C206.849 119.82 206.779 119.63 206.779 119.47C206.779 119.31 206.839 119.17 206.959 119.05C207.099 118.93 207.249 118.87 207.409 118.87H208.789C209.029 118.87 209.209 118.93 209.329 119.05C209.469 119.17 209.579 119.28 209.659 119.38L220.699 134.83C220.779 134.97 220.829 135.08 220.849 135.16C220.889 135.24 220.909 135.32 220.909 135.4C220.909 135.56 220.849 135.7 220.729 135.82C220.609 135.94 220.459 136 220.279 136H218.839ZM207.139 136C206.939 136 206.769 135.94 206.629 135.82C206.509 135.68 206.449 135.51 206.449 135.31V130.81C206.449 129.89 206.539 129.02 206.719 128.2C206.899 127.36 207.249 126.57 207.769 125.83C208.309 125.07 209.109 124.36 210.169 123.7L211.549 125.71C210.829 126.17 210.289 126.7 209.929 127.3C209.569 127.88 209.329 128.49 209.209 129.13C209.089 129.75 209.029 130.35 209.029 130.93V135.31C209.029 135.51 208.959 135.68 208.819 135.82C208.699 135.94 208.539 136 208.339 136H207.139ZM216.439 130.51L215.209 128.44C216.189 127.98 216.879 127.5 217.279 127C217.699 126.5 217.949 125.98 218.029 125.44C218.109 124.88 218.149 124.3 218.149 123.7V119.56C218.149 119.36 218.209 119.2 218.329 119.08C218.469 118.94 218.639 118.87 218.839 118.87H220.099C220.299 118.87 220.459 118.94 220.579 119.08C220.719 119.2 220.789 119.36 220.789 119.56V123.85C220.789 124.69 220.689 125.5 220.489 126.28C220.289 127.06 219.879 127.8 219.259 128.5C218.659 129.2 217.719 129.87 216.439 130.51ZM226.006 121.27C225.806 121.27 225.636 121.21 225.496 121.09C225.376 120.95 225.316 120.78 225.316 120.58V119.56C225.316 119.36 225.376 119.2 225.496 119.08C225.636 118.94 225.806 118.87 226.006 118.87H232.516C234.236 118.87 235.656 119.15 236.776 119.71C237.916 120.25 238.766 121.07 239.326 122.17C239.886 123.25 240.166 124.59 240.166 126.19V135.31C240.166 135.51 240.096 135.68 239.956 135.82C239.836 135.94 239.676 136 239.476 136H238.126C237.906 136 237.736 135.94 237.616 135.82C237.496 135.68 237.436 135.51 237.436 135.31V126.34C237.436 124.74 237.026 123.5 236.206 122.62C235.406 121.72 234.116 121.27 232.336 121.27H226.006ZM228.706 119.8H229.456C229.756 119.8 229.976 119.88 230.116 120.04C230.276 120.18 230.346 120.36 230.326 120.58C230.166 121.42 230.026 122.18 229.906 122.86C229.806 123.54 229.736 124.22 229.696 124.9C229.656 125.56 229.636 126.31 229.636 127.15L229.696 135.31C229.696 135.51 229.636 135.68 229.516 135.82C229.396 135.94 229.236 136 229.036 136L224.776 135.94C224.576 135.94 224.406 135.88 224.266 135.76C224.146 135.64 224.086 135.47 224.086 135.25V134.29C224.086 134.09 224.146 133.93 224.266 133.81C224.406 133.67 224.576 133.6 224.776 133.6L227.086 133.63V127.27C227.086 126.45 227.096 125.7 227.116 125.02C227.136 124.32 227.196 123.62 227.296 122.92C227.396 122.22 227.556 121.43 227.776 120.55C227.836 120.33 227.926 120.15 228.046 120.01C228.186 119.87 228.406 119.8 228.706 119.8ZM256.701 136C256.501 136 256.331 135.94 256.191 135.82C256.071 135.68 256.011 135.51 256.011 135.31V126.34C256.011 124.74 255.611 123.5 254.811 122.62C254.011 121.72 252.721 121.27 250.941 121.27H245.301C245.101 121.27 244.931 121.21 244.791 121.09C244.671 120.95 244.611 120.78 244.611 120.58V119.56C244.611 119.36 244.671 119.2 244.791 119.08C244.931 118.94 245.101 118.87 245.301 118.87H251.091C253.691 118.87 255.611 119.5 256.851 120.76C258.111 122.02 258.741 123.85 258.741 126.25V135.31C258.741 135.51 258.671 135.68 258.531 135.82C258.411 135.94 258.251 136 258.051 136H256.701ZM245.301 136C245.101 136 244.931 135.94 244.791 135.82C244.671 135.68 244.611 135.51 244.611 135.31V125.29C244.611 125.09 244.671 124.93 244.791 124.81C244.931 124.67 245.101 124.6 245.301 124.6H246.651C246.871 124.6 247.041 124.67 247.161 124.81C247.281 124.93 247.341 125.09 247.341 125.29V135.31C247.341 135.51 247.281 135.68 247.161 135.82C247.041 135.94 246.871 136 246.651 136H245.301ZM271.229 139.72C271.029 139.72 270.859 139.65 270.719 139.51C270.599 139.39 270.539 139.23 270.539 139.03V119.56C270.539 119.36 270.599 119.2 270.719 119.08C270.859 118.94 271.029 118.87 271.229 118.87H272.579C272.799 118.87 272.969 118.94 273.089 119.08C273.209 119.2 273.269 119.36 273.269 119.56V139.03C273.269 139.23 273.209 139.39 273.089 139.51C272.969 139.65 272.799 139.72 272.579 139.72H271.229ZM278.582 136C278.382 136 278.212 135.94 278.072 135.82C277.952 135.68 277.892 135.51 277.892 135.31V119.56C277.892 119.36 277.952 119.2 278.072 119.08C278.212 118.94 278.382 118.87 278.582 118.87H279.992C280.212 118.87 280.382 118.94 280.502 119.08C280.622 119.2 280.682 119.36 280.682 119.56V135.31C280.682 135.51 280.622 135.68 280.502 135.82C280.382 135.94 280.212 136 279.992 136H278.582ZM288.994 136.27C288.814 136.33 288.644 136.3 288.484 136.18C288.324 136.08 288.244 135.93 288.244 135.73V134.35C288.244 134.17 288.294 134.01 288.394 133.87C288.514 133.73 288.684 133.62 288.904 133.54L290.074 133.09C290.854 132.77 291.564 132.37 292.204 131.89C292.864 131.39 293.374 130.72 293.734 129.88C294.114 129.04 294.304 127.94 294.304 126.58C294.304 125.28 294.144 124.25 293.824 123.49C293.524 122.71 293.004 122.16 292.264 121.84C291.544 121.5 290.554 121.33 289.294 121.33H288.394C288.194 121.33 288.024 121.27 287.884 121.15C287.764 121.01 287.704 120.84 287.704 120.64V119.56C287.704 119.36 287.764 119.2 287.884 119.08C288.024 118.94 288.194 118.87 288.394 118.87H289.714C291.534 118.87 292.984 119.13 294.064 119.65C295.144 120.17 295.914 121.01 296.374 122.17C296.854 123.31 297.094 124.81 297.094 126.67C297.094 128.07 296.904 129.28 296.524 130.3C296.144 131.32 295.624 132.19 294.964 132.91C294.324 133.63 293.594 134.23 292.774 134.71C291.954 135.17 291.104 135.55 290.224 135.85L288.994 136.27ZM289.054 121.33L285.484 121.3C285.284 121.3 285.114 121.24 284.974 121.12C284.854 121 284.794 120.84 284.794 120.64V115.39C284.794 115.19 284.854 115.03 284.974 114.91C285.114 114.77 285.284 114.7 285.484 114.7H286.744C286.944 114.7 287.104 114.77 287.224 114.91C287.364 115.03 287.434 115.19 287.434 115.39V118.87H289.114L289.054 121.33ZM301.007 136C300.807 136 300.637 135.94 300.497 135.82C300.377 135.68 300.317 135.51 300.317 135.31V134.29C300.317 134.09 300.377 133.93 300.497 133.81C300.637 133.67 300.807 133.6 301.007 133.6H309.617V126.34C309.617 124.74 309.217 123.5 308.417 122.62C307.617 121.72 306.327 121.27 304.547 121.27H301.307C301.107 121.27 300.937 121.21 300.797 121.09C300.677 120.95 300.617 120.78 300.617 120.58V119.56C300.617 119.36 300.677 119.2 300.797 119.08C300.937 118.94 301.107 118.87 301.307 118.87H304.697C306.417 118.87 307.847 119.15 308.987 119.71C310.127 120.27 310.977 121.1 311.537 122.2C312.117 123.28 312.407 124.63 312.407 126.25V133.6H313.517C313.717 133.6 313.877 133.67 313.997 133.81C314.137 133.93 314.207 134.09 314.207 134.29V135.31C314.207 135.51 314.137 135.68 313.997 135.82C313.877 135.94 313.717 136 313.517 136H301.007ZM74.583 169.04C74.383 169.04 74.213 168.98 74.073 168.86C73.953 168.72 73.893 168.55 73.893 168.35V159.56C73.893 159.36 73.953 159.2 74.073 159.08C74.213 158.94 74.383 158.87 74.583 158.87H75.993C76.213 158.87 76.383 158.94 76.503 159.08C76.623 159.2 76.683 159.36 76.683 159.56V168.35C76.683 168.55 76.623 168.72 76.503 168.86C76.383 168.98 76.213 169.04 75.993 169.04H74.583ZM81.8242 176C81.6242 176 81.4542 175.94 81.3142 175.82C81.1942 175.68 81.1342 175.51 81.1342 175.31V159.56C81.1342 159.36 81.1942 159.2 81.3142 159.08C81.4542 158.94 81.6242 158.87 81.8242 158.87H83.2342C83.4542 158.87 83.6242 158.94 83.7442 159.08C83.8642 159.2 83.9242 159.36 83.9242 159.56V175.31C83.9242 175.51 83.8642 175.68 83.7442 175.82C83.6242 175.94 83.4542 176 83.2342 176H81.8242ZM88.6063 176C88.4063 176 88.2363 175.94 88.0963 175.82C87.9763 175.68 87.9163 175.51 87.9163 175.31V174.26C87.9163 174.06 87.9763 173.9 88.0963 173.78C88.2363 173.64 88.4063 173.57 88.6063 173.57H96.7363L87.3463 160.04C87.2863 159.92 87.2363 159.82 87.1963 159.74C87.1563 159.64 87.1363 159.55 87.1363 159.47C87.1363 159.31 87.1963 159.17 87.3163 159.05C87.4563 158.93 87.6063 158.87 87.7663 158.87H89.2063C89.4063 158.87 89.5663 158.93 89.6863 159.05C89.8263 159.15 89.9363 159.26 90.0163 159.38L99.7963 173.39C99.8963 173.53 99.9763 173.68 100.036 173.84C100.116 173.98 100.156 174.14 100.156 174.32V175.31C100.156 175.51 100.086 175.68 99.9463 175.82C99.8263 175.94 99.6663 176 99.4663 176H88.6063ZM96.1963 169.16L94.8763 167.21C95.9163 166.83 96.6663 166.21 97.1263 165.35C97.6063 164.47 97.8463 163.4 97.8463 162.14V159.56C97.8463 159.36 97.9063 159.2 98.0263 159.08C98.1663 158.94 98.3363 158.87 98.5363 158.87H99.7663C99.9863 158.87 100.156 158.94 100.276 159.08C100.396 159.2 100.456 159.36 100.456 159.56V162.5C100.456 164.12 100.096 165.5 99.3763 166.64C98.6563 167.78 97.5963 168.62 96.1963 169.16ZM114.232 176C114.032 176 113.862 175.94 113.722 175.82C113.602 175.68 113.542 175.51 113.542 175.31V166.34C113.542 164.74 113.142 163.5 112.342 162.62C111.542 161.72 110.252 161.27 108.472 161.27H104.542C104.342 161.27 104.172 161.21 104.032 161.09C103.912 160.95 103.852 160.78 103.852 160.58V159.56C103.852 159.36 103.912 159.2 104.032 159.08C104.172 158.94 104.342 158.87 104.542 158.87H108.622C110.342 158.87 111.762 159.14 112.882 159.68C114.022 160.22 114.872 161.04 115.432 162.14C115.992 163.22 116.272 164.57 116.272 166.19V175.31C116.272 175.51 116.202 175.68 116.062 175.82C115.942 175.94 115.782 176 115.582 176H114.232ZM132.804 176C132.604 176 132.434 175.94 132.294 175.82C132.174 175.68 132.114 175.51 132.114 175.31V166.34C132.114 164.74 131.714 163.5 130.914 162.62C130.114 161.72 128.824 161.27 127.044 161.27H121.404C121.204 161.27 121.034 161.21 120.894 161.09C120.774 160.95 120.714 160.78 120.714 160.58V159.56C120.714 159.36 120.774 159.2 120.894 159.08C121.034 158.94 121.204 158.87 121.404 158.87H127.194C129.794 158.87 131.714 159.5 132.954 160.76C134.214 162.02 134.844 163.85 134.844 166.25V175.31C134.844 175.51 134.774 175.68 134.634 175.82C134.514 175.94 134.354 176 134.154 176H132.804ZM121.404 176C121.204 176 121.034 175.94 120.894 175.82C120.774 175.68 120.714 175.51 120.714 175.31V165.29C120.714 165.09 120.774 164.93 120.894 164.81C121.034 164.67 121.204 164.6 121.404 164.6H122.754C122.974 164.6 123.144 164.67 123.264 164.81C123.384 164.93 123.444 165.09 123.444 165.29V175.31C123.444 175.51 123.384 175.68 123.264 175.82C123.144 175.94 122.974 176 122.754 176H121.404ZM158.732 176C158.532 176 158.362 175.94 158.222 175.82C158.102 175.68 158.042 175.51 158.042 175.31V166.34C158.042 164.74 157.642 163.5 156.842 162.62C156.042 161.72 154.752 161.27 152.972 161.27H147.332C147.132 161.27 146.962 161.21 146.822 161.09C146.702 160.95 146.642 160.78 146.642 160.58V159.56C146.642 159.36 146.702 159.2 146.822 159.08C146.962 158.94 147.132 158.87 147.332 158.87H153.122C155.722 158.87 157.642 159.5 158.882 160.76C160.142 162.02 160.772 163.85 160.772 166.25V175.31C160.772 175.51 160.702 175.68 160.562 175.82C160.442 175.94 160.282 176 160.082 176H158.732ZM147.332 176C147.132 176 146.962 175.94 146.822 175.82C146.702 175.68 146.642 175.51 146.642 175.31V165.29C146.642 165.09 146.702 164.93 146.822 164.81C146.962 164.67 147.132 164.6 147.332 164.6H148.682C148.902 164.6 149.072 164.67 149.192 164.81C149.312 164.93 149.372 165.09 149.372 165.29V175.31C149.372 175.51 149.312 175.68 149.192 175.82C149.072 175.94 148.902 176 148.682 176H147.332ZM165.186 176C164.986 176 164.816 175.94 164.676 175.82C164.556 175.68 164.496 175.51 164.496 175.31V174.29C164.496 174.09 164.556 173.93 164.676 173.81C164.816 173.67 164.986 173.6 165.186 173.6H173.796V166.34C173.796 164.74 173.396 163.5 172.596 162.62C171.796 161.72 170.506 161.27 168.726 161.27H165.486C165.286 161.27 165.116 161.21 164.976 161.09C164.856 160.95 164.796 160.78 164.796 160.58V159.56C164.796 159.36 164.856 159.2 164.976 159.08C165.116 158.94 165.286 158.87 165.486 158.87H168.876C170.596 158.87 172.026 159.15 173.166 159.71C174.306 160.27 175.156 161.1 175.716 162.2C176.296 163.28 176.586 164.63 176.586 166.25V173.6H177.696C177.896 173.6 178.056 173.67 178.176 173.81C178.316 173.93 178.386 174.09 178.386 174.29V175.31C178.386 175.51 178.316 175.68 178.176 175.82C178.056 175.94 177.896 176 177.696 176H165.186ZM182.254 176C182.054 176 181.884 175.94 181.744 175.82C181.624 175.68 181.564 175.51 181.564 175.31V159.56C181.564 159.36 181.624 159.2 181.744 159.08C181.884 158.94 182.054 158.87 182.254 158.87H183.664C183.884 158.87 184.054 158.94 184.174 159.08C184.294 159.2 184.354 159.36 184.354 159.56V175.31C184.354 175.51 184.294 175.68 184.174 175.82C184.054 175.94 183.884 176 183.664 176H182.254ZM196.836 176C196.636 176 196.476 175.94 196.356 175.82C196.256 175.68 196.186 175.51 196.146 175.31L194.316 166.1C194.116 165.04 193.876 164.16 193.596 163.46C193.336 162.74 192.976 162.2 192.516 161.84C192.076 161.46 191.466 161.27 190.686 161.27H189.606C189.406 161.27 189.236 161.21 189.096 161.09C188.976 160.95 188.916 160.78 188.916 160.58V159.5C188.916 159.3 188.976 159.14 189.096 159.02C189.236 158.88 189.406 158.81 189.606 158.81H190.716C192.056 158.81 193.136 159.08 193.956 159.62C194.776 160.14 195.426 160.93 195.906 161.99C196.406 163.05 196.816 164.37 197.136 165.95L198.936 175.31C198.976 175.51 198.926 175.68 198.786 175.82C198.646 175.94 198.476 176 198.276 176H196.836ZM192.966 174.47C192.226 174.97 191.526 175.36 190.866 175.64C190.226 175.9 189.556 176.1 188.856 176.24C188.656 176.26 188.486 176.24 188.346 176.18C188.206 176.12 188.136 175.99 188.136 175.79V174.29C188.136 173.95 188.346 173.7 188.766 173.54C188.906 173.48 189.166 173.39 189.546 173.27C189.926 173.15 190.336 173 190.776 172.82C191.216 172.62 191.596 172.42 191.916 172.22C192.416 171.9 192.906 171.49 193.386 170.99C193.866 170.47 194.266 169.94 194.586 169.4C194.926 168.84 195.096 168.35 195.096 167.93L196.836 167.72C196.816 168.58 196.626 169.45 196.266 170.33C195.906 171.21 195.436 172.01 194.856 172.73C194.276 173.45 193.646 174.03 192.966 174.47ZM204.824 176.27C204.644 176.33 204.474 176.3 204.314 176.18C204.154 176.08 204.074 175.93 204.074 175.73V174.35C204.074 174.17 204.124 174.01 204.224 173.87C204.344 173.73 204.514 173.62 204.734 173.54L205.904 173.09C206.684 172.77 207.394 172.37 208.034 171.89C208.694 171.39 209.204 170.72 209.564 169.88C209.944 169.04 210.134 167.94 210.134 166.58C210.134 165.28 209.974 164.25 209.654 163.49C209.354 162.71 208.834 162.16 208.094 161.84C207.374 161.5 206.384 161.33 205.124 161.33H204.224C204.024 161.33 203.854 161.27 203.714 161.15C203.594 161.01 203.534 160.84 203.534 160.64V159.56C203.534 159.36 203.594 159.2 203.714 159.08C203.854 158.94 204.024 158.87 204.224 158.87H205.544C207.364 158.87 208.814 159.13 209.894 159.65C210.974 160.17 211.744 161.01 212.204 162.17C212.684 163.31 212.924 164.81 212.924 166.67C212.924 168.07 212.734 169.28 212.354 170.3C211.974 171.32 211.454 172.19 210.794 172.91C210.154 173.63 209.424 174.23 208.604 174.71C207.784 175.17 206.934 175.55 206.054 175.85L204.824 176.27ZM204.884 161.33L201.314 161.3C201.114 161.3 200.944 161.24 200.804 161.12C200.684 161 200.624 160.84 200.624 160.64V155.39C200.624 155.19 200.684 155.03 200.804 154.91C200.944 154.77 201.114 154.7 201.314 154.7H202.574C202.774 154.7 202.934 154.77 203.054 154.91C203.194 155.03 203.264 155.19 203.264 155.39V158.87H204.944L204.884 161.33ZM236.31 176C236.11 176 235.94 175.94 235.8 175.82C235.68 175.68 235.62 175.51 235.62 175.31V166.34C235.62 164.74 235.22 163.5 234.42 162.62C233.62 161.72 232.33 161.27 230.55 161.27H224.91C224.71 161.27 224.54 161.21 224.4 161.09C224.28 160.95 224.22 160.78 224.22 160.58V159.56C224.22 159.36 224.28 159.2 224.4 159.08C224.54 158.94 224.71 158.87 224.91 158.87H230.7C233.3 158.87 235.22 159.5 236.46 160.76C237.72 162.02 238.35 163.85 238.35 166.25V175.31C238.35 175.51 238.28 175.68 238.14 175.82C238.02 175.94 237.86 176 237.66 176H236.31ZM224.91 176C224.71 176 224.54 175.94 224.4 175.82C224.28 175.68 224.22 175.51 224.22 175.31V165.29C224.22 165.09 224.28 164.93 224.4 164.81C224.54 164.67 224.71 164.6 224.91 164.6H226.26C226.48 164.6 226.65 164.67 226.77 164.81C226.89 164.93 226.95 165.09 226.95 165.29V175.31C226.95 175.51 226.89 175.68 226.77 175.82C226.65 175.94 226.48 176 226.26 176H224.91ZM242.764 176C242.564 176 242.394 175.94 242.254 175.82C242.134 175.68 242.074 175.51 242.074 175.31V174.29C242.074 174.09 242.134 173.93 242.254 173.81C242.394 173.67 242.564 173.6 242.764 173.6H251.374V166.34C251.374 164.74 250.974 163.5 250.174 162.62C249.374 161.72 248.084 161.27 246.304 161.27H243.064C242.864 161.27 242.694 161.21 242.554 161.09C242.434 160.95 242.374 160.78 242.374 160.58V159.56C242.374 159.36 242.434 159.2 242.554 159.08C242.694 158.94 242.864 158.87 243.064 158.87H246.454C248.174 158.87 249.604 159.15 250.744 159.71C251.884 160.27 252.734 161.1 253.294 162.2C253.874 163.28 254.164 164.63 254.164 166.25V173.6H255.274C255.474 173.6 255.634 173.67 255.754 173.81C255.894 173.93 255.964 174.09 255.964 174.29V175.31C255.964 175.51 255.894 175.68 255.754 175.82C255.634 175.94 255.474 176 255.274 176H242.764ZM259.832 176C259.632 176 259.462 175.94 259.322 175.82C259.202 175.68 259.142 175.51 259.142 175.31V159.56C259.142 159.36 259.202 159.2 259.322 159.08C259.462 158.94 259.632 158.87 259.832 158.87H261.242C261.462 158.87 261.632 158.94 261.752 159.08C261.872 159.2 261.932 159.36 261.932 159.56V175.31C261.932 175.51 261.872 175.68 261.752 175.82C261.632 175.94 261.462 176 261.242 176H259.832ZM274.414 176C274.214 176 274.054 175.94 273.934 175.82C273.834 175.68 273.764 175.51 273.724 175.31L271.894 166.1C271.694 165.04 271.454 164.16 271.174 163.46C270.914 162.74 270.554 162.2 270.094 161.84C269.654 161.46 269.044 161.27 268.264 161.27H267.184C266.984 161.27 266.814 161.21 266.674 161.09C266.554 160.95 266.494 160.78 266.494 160.58V159.5C266.494 159.3 266.554 159.14 266.674 159.02C266.814 158.88 266.984 158.81 267.184 158.81H268.294C269.634 158.81 270.714 159.08 271.534 159.62C272.354 160.14 273.004 160.93 273.484 161.99C273.984 163.05 274.394 164.37 274.714 165.95L276.514 175.31C276.554 175.51 276.504 175.68 276.364 175.82C276.224 175.94 276.054 176 275.854 176H274.414ZM270.544 174.47C269.804 174.97 269.104 175.36 268.444 175.64C267.804 175.9 267.134 176.1 266.434 176.24C266.234 176.26 266.064 176.24 265.924 176.18C265.784 176.12 265.714 175.99 265.714 175.79V174.29C265.714 173.95 265.924 173.7 266.344 173.54C266.484 173.48 266.744 173.39 267.124 173.27C267.504 173.15 267.914 173 268.354 172.82C268.794 172.62 269.174 172.42 269.494 172.22C269.994 171.9 270.484 171.49 270.964 170.99C271.444 170.47 271.844 169.94 272.164 169.4C272.504 168.84 272.674 168.35 272.674 167.93L274.414 167.72C274.394 168.58 274.204 169.45 273.844 170.33C273.484 171.21 273.014 172.01 272.434 172.73C271.854 173.45 271.224 174.03 270.544 174.47ZM292.033 176C291.833 176 291.663 175.94 291.523 175.82C291.403 175.68 291.343 175.51 291.343 175.31V166.34C291.343 164.74 290.943 163.5 290.143 162.62C289.343 161.72 288.053 161.27 286.273 161.27H280.633C280.433 161.27 280.263 161.21 280.123 161.09C280.003 160.95 279.943 160.78 279.943 160.58V159.56C279.943 159.36 280.003 159.2 280.123 159.08C280.263 158.94 280.433 158.87 280.633 158.87H286.423C289.023 158.87 290.943 159.5 292.183 160.76C293.443 162.02 294.073 163.85 294.073 166.25V175.31C294.073 175.51 294.003 175.68 293.863 175.82C293.743 175.94 293.583 176 293.383 176H292.033ZM280.633 176C280.433 176 280.263 175.94 280.123 175.82C280.003 175.68 279.943 175.51 279.943 175.31V165.29C279.943 165.09 280.003 164.93 280.123 164.81C280.263 164.67 280.433 164.6 280.633 164.6H281.983C282.203 164.6 282.373 164.67 282.493 164.81C282.613 164.93 282.673 165.09 282.673 165.29V175.31C282.673 175.51 282.613 175.68 282.493 175.82C282.373 175.94 282.203 176 281.983 176H280.633Z" fill="black"/>
<defs>
<filter id="filter0_d_106_212" x="0" y="0" width="378" height="282" filterUnits="userSpaceOnUse" color-interpolation-filters="sRGB">
<feFlood flood-opacity="0" result="BackgroundImageFix"/>
<feColorMatrix in="SourceAlpha" type="matrix" values="0 0 0 0 0 0 0 0 0 0 0 0 0 0 0 0 0 0 127 0" result="hardAlpha"/>
<feOffset dx="4" dy="4"/>
<feGaussianBlur stdDeviation="2"/>
<feComposite in2="hardAlpha" operator="out"/>
<feColorMatrix type="matrix" values="0 0 0 0 0 0 0 0 0 0 0 0 0 0 0 0 0 0 0.25 0"/>
<feBlend mode="normal" in2="BackgroundImageFix" result="effect1_dropShadow_106_212"/>
<feBlend mode="normal" in="SourceGraphic" in2="effect1_dropShadow_106_212" result="shape"/>
</filter>
</defs>
</svg>
