<svg width="378" height="148" viewBox="0 0 378 148" fill="none" xmlns="http://www.w3.org/2000/svg">
<g filter="url(#filter0_d_106_211)">
<rect width="370" height="140" rx="20" fill="#FDF4D4"/>
</g>
<path d="M32.9922 42.27C32.8122 42.33 32.6422 42.3 32.4822 42.18C32.3222 42.08 32.2422 41.93 32.2422 41.73V40.35C32.2422 40.17 32.2922 40.01 32.3922 39.87C32.5122 39.73 32.6822 39.62 32.9022 39.54L34.0722 39.09C34.8522 38.77 35.5622 38.37 36.2022 37.89C36.8622 37.39 37.3722 36.72 37.7322 35.88C38.1122 35.04 38.3022 33.94 38.3022 32.58C38.3022 31.28 38.1422 30.25 37.8222 29.49C37.5222 28.71 37.0022 28.16 36.2622 27.84C35.5422 27.5 34.5522 27.33 33.2922 27.33H32.3922C32.1922 27.33 32.0222 27.27 31.8822 27.15C31.7622 27.01 31.7022 26.84 31.7022 26.64V25.56C31.7022 25.36 31.7622 25.2 31.8822 25.08C32.0222 24.94 32.1922 24.87 32.3922 24.87H33.7122C35.5322 24.87 36.9822 25.13 38.0622 25.65C39.1422 26.17 39.9122 27.01 40.3722 28.17C40.8522 29.31 41.0922 30.81 41.0922 32.67C41.0922 34.07 40.9022 35.28 40.5222 36.3C40.1422 37.32 39.6222 38.19 38.9622 38.91C38.3222 39.63 37.5922 40.23 36.7722 40.71C35.9522 41.17 35.1022 41.55 34.2222 41.85L32.9922 42.27ZM33.0522 27.33L29.4822 27.3C29.2822 27.3 29.1122 27.24 28.9722 27.12C28.8522 27 28.7922 26.84 28.7922 26.64V21.39C28.7922 21.19 28.8522 21.03 28.9722 20.91C29.1122 20.77 29.2822 20.7 29.4822 20.7H30.7422C30.9422 20.7 31.1022 20.77 31.2222 20.91C31.3622 21.03 31.4322 21.19 31.4322 21.39V24.87H33.1122L33.0522 27.33ZM45.7246 42C45.5246 42 45.3546 41.94 45.2146 41.82C45.0946 41.68 45.0346 41.51 45.0346 41.31V40.23C45.0346 40.03 45.0946 39.87 45.2146 39.75C45.3546 39.61 45.5246 39.54 45.7246 39.54H50.0146C51.7946 39.54 53.0746 39.1 53.8546 38.22C54.6346 37.32 55.0646 36.07 55.1446 34.47C55.1646 34.03 55.1746 33.68 55.1746 33.42C55.1746 33.16 55.1646 32.82 55.1446 32.4C55.0846 30.8 54.6546 29.56 53.8546 28.68C53.0746 27.78 51.7946 27.33 50.0146 27.33H45.7246C45.5246 27.33 45.3546 27.27 45.2146 27.15C45.0946 27.01 45.0346 26.84 45.0346 26.64V25.56C45.0346 25.36 45.0946 25.2 45.2146 25.08C45.3546 24.94 45.5246 24.87 45.7246 24.87H50.1646C51.9246 24.87 53.3546 25.17 54.4546 25.77C55.5546 26.35 56.3746 27.2 56.9146 28.32C57.4746 29.42 57.7746 30.75 57.8146 32.31C57.8346 32.71 57.8446 33.08 57.8446 33.42C57.8446 33.76 57.8346 34.14 57.8146 34.56C57.7746 36.1 57.4746 37.43 56.9146 38.55C56.3746 39.67 55.5546 40.53 54.4546 41.13C53.3546 41.71 51.9246 42 50.1646 42H45.7246ZM68.8166 44.25C68.6566 44.25 68.5266 44.19 68.4266 44.07C68.3466 43.95 68.3166 43.8 68.3366 43.62L69.0266 39.33C69.0666 39.09 69.1466 38.89 69.2666 38.73C69.4066 38.55 69.6066 38.46 69.8666 38.46H71.8766C72.0166 38.46 72.1266 38.51 72.2066 38.61C72.3066 38.71 72.3566 38.83 72.3566 38.97C72.3566 39.13 72.3166 39.29 72.2366 39.45L70.6766 43.56C70.5966 43.76 70.4866 43.92 70.3466 44.04C70.2266 44.18 70.0466 44.25 69.8066 44.25H68.8166ZM77.7873 27.27C77.5873 27.27 77.4173 27.21 77.2773 27.09C77.1573 26.95 77.0973 26.78 77.0973 26.58V25.56C77.0973 25.36 77.1573 25.2 77.2773 25.08C77.4173 24.94 77.5873 24.87 77.7873 24.87H84.2973C86.0173 24.87 87.4373 25.15 88.5573 25.71C89.6973 26.25 90.5473 27.07 91.1073 28.17C91.6673 29.25 91.9473 30.59 91.9473 32.19V41.31C91.9473 41.51 91.8773 41.68 91.7373 41.82C91.6173 41.94 91.4573 42 91.2573 42H89.9073C89.6873 42 89.5173 41.94 89.3973 41.82C89.2773 41.68 89.2173 41.51 89.2173 41.31V32.34C89.2173 30.74 88.8073 29.5 87.9873 28.62C87.1873 27.72 85.8973 27.27 84.1173 27.27H77.7873ZM80.4873 25.8H81.2373C81.5373 25.8 81.7573 25.88 81.8973 26.04C82.0573 26.18 82.1273 26.36 82.1073 26.58C81.9473 27.42 81.8073 28.18 81.6873 28.86C81.5873 29.54 81.5173 30.22 81.4773 30.9C81.4373 31.56 81.4173 32.31 81.4173 33.15L81.4773 41.31C81.4773 41.51 81.4173 41.68 81.2973 41.82C81.1773 41.94 81.0173 42 80.8173 42L76.5573 41.94C76.3573 41.94 76.1873 41.88 76.0473 41.76C75.9273 41.64 75.8673 41.47 75.8673 41.25V40.29C75.8673 40.09 75.9273 39.93 76.0473 39.81C76.1873 39.67 76.3573 39.6 76.5573 39.6L78.8673 39.63V33.27C78.8673 32.45 78.8773 31.7 78.8973 31.02C78.9173 30.32 78.9773 29.62 79.0773 28.92C79.1773 28.22 79.3373 27.43 79.5573 26.55C79.6173 26.33 79.7073 26.15 79.8273 26.01C79.9673 25.87 80.1873 25.8 80.4873 25.8ZM97.082 42C96.882 42 96.712 41.94 96.572 41.82C96.452 41.68 96.392 41.51 96.392 41.31V25.56C96.392 25.36 96.452 25.2 96.572 25.08C96.712 24.94 96.882 24.87 97.082 24.87H98.492C98.712 24.87 98.882 24.94 99.002 25.08C99.122 25.2 99.182 25.36 99.182 25.56V41.31C99.182 41.51 99.122 41.68 99.002 41.82C98.882 41.94 98.712 42 98.492 42H97.082ZM107.494 42.27C107.314 42.33 107.144 42.3 106.984 42.18C106.824 42.08 106.744 41.93 106.744 41.73V40.35C106.744 40.17 106.794 40.01 106.894 39.87C107.014 39.73 107.184 39.62 107.404 39.54L108.574 39.09C109.354 38.77 110.064 38.37 110.704 37.89C111.364 37.39 111.874 36.72 112.234 35.88C112.614 35.04 112.804 33.94 112.804 32.58C112.804 31.28 112.644 30.25 112.324 29.49C112.024 28.71 111.504 28.16 110.764 27.84C110.044 27.5 109.054 27.33 107.794 27.33H106.894C106.694 27.33 106.524 27.27 106.384 27.15C106.264 27.01 106.204 26.84 106.204 26.64V25.56C106.204 25.36 106.264 25.2 106.384 25.08C106.524 24.94 106.694 24.87 106.894 24.87H108.214C110.034 24.87 111.484 25.13 112.564 25.65C113.644 26.17 114.414 27.01 114.874 28.17C115.354 29.31 115.594 30.81 115.594 32.67C115.594 34.07 115.404 35.28 115.024 36.3C114.644 37.32 114.124 38.19 113.464 38.91C112.824 39.63 112.094 40.23 111.274 40.71C110.454 41.17 109.604 41.55 108.724 41.85L107.494 42.27ZM107.554 27.33L103.984 27.3C103.784 27.3 103.614 27.24 103.474 27.12C103.354 27 103.294 26.84 103.294 26.64V21.39C103.294 21.19 103.354 21.03 103.474 20.91C103.614 20.77 103.784 20.7 103.984 20.7H105.244C105.444 20.7 105.604 20.77 105.724 20.91C105.864 21.03 105.934 21.19 105.934 21.39V24.87H107.614L107.554 27.33ZM120.227 42C120.027 42 119.857 41.94 119.717 41.82C119.597 41.68 119.537 41.51 119.537 41.31V25.56C119.537 25.36 119.597 25.2 119.717 25.08C119.857 24.94 120.027 24.87 120.227 24.87H121.637C121.857 24.87 122.027 24.94 122.147 25.08C122.267 25.2 122.327 25.36 122.327 25.56V41.31C122.327 41.51 122.267 41.68 122.147 41.82C122.027 41.94 121.857 42 121.637 42H120.227ZM127.639 47.73C127.439 47.73 127.269 47.66 127.129 47.52C127.009 47.4 126.949 47.24 126.949 47.04V31.29C126.949 31.09 127.009 30.93 127.129 30.81C127.269 30.67 127.439 30.6 127.639 30.6H128.959C129.179 30.6 129.349 30.67 129.469 30.81C129.589 30.93 129.649 31.09 129.649 31.29V47.04C129.649 47.24 129.589 47.4 129.469 47.52C129.349 47.66 129.179 47.73 128.959 47.73H127.639ZM133.399 42.27C133.219 42.33 133.049 42.3 132.889 42.18C132.749 42.08 132.679 41.93 132.679 41.73V40.35C132.679 40.17 132.729 40.01 132.829 39.87C132.949 39.73 133.119 39.62 133.339 39.54L134.479 39.09C135.279 38.77 135.999 38.37 136.639 37.89C137.299 37.39 137.809 36.72 138.169 35.88C138.549 35.04 138.739 33.94 138.739 32.58C138.739 31.28 138.579 30.25 138.259 29.49C137.939 28.71 137.409 28.16 136.669 27.84C135.949 27.5 134.969 27.33 133.729 27.33H127.639C127.439 27.33 127.269 27.27 127.129 27.15C127.009 27.01 126.949 26.84 126.949 26.64V25.56C126.949 25.36 127.009 25.2 127.129 25.08C127.269 24.94 127.439 24.87 127.639 24.87H134.119C135.959 24.87 137.409 25.13 138.469 25.65C139.549 26.17 140.319 27.01 140.779 28.17C141.259 29.31 141.499 30.81 141.499 32.67C141.499 34.07 141.309 35.28 140.929 36.3C140.549 37.32 140.029 38.19 139.369 38.91C138.729 39.63 137.999 40.23 137.179 40.71C136.379 41.17 135.539 41.55 134.659 41.85L133.399 42.27ZM154.248 39.75C155.548 39.77 156.638 39.53 157.518 39.03C158.418 38.53 159.098 37.82 159.558 36.9C160.038 35.96 160.278 34.89 160.278 33.69V25.56C160.278 25.36 160.338 25.2 160.458 25.08C160.598 24.94 160.768 24.87 160.968 24.87H162.198C162.418 24.87 162.588 24.94 162.708 25.08C162.828 25.2 162.888 25.36 162.888 25.56V33.9C162.888 35.18 162.688 36.34 162.288 37.38C161.888 38.4 161.318 39.28 160.578 40.02C159.838 40.74 158.958 41.29 157.938 41.67C156.938 42.05 155.828 42.22 154.608 42.18H152.358C151.058 42.18 149.888 41.88 148.848 41.28C147.808 40.68 146.988 39.84 146.388 38.76C145.788 37.68 145.488 36.43 145.488 35.01V25.56C145.488 25.36 145.548 25.2 145.668 25.08C145.808 24.94 145.978 24.87 146.178 24.87H147.438C147.638 24.87 147.798 24.94 147.918 25.08C148.058 25.2 148.128 25.36 148.128 25.56L148.218 34.41C148.218 36.13 148.698 37.45 149.658 38.37C150.618 39.29 151.838 39.75 153.318 39.75H154.248ZM147.588 36.24L147.528 34.05C149.008 34.03 150.138 33.81 150.918 33.39C151.698 32.95 152.238 32.37 152.538 31.65C152.858 30.93 153.018 30.14 153.018 29.28V25.56C153.018 25.36 153.078 25.2 153.198 25.08C153.318 24.94 153.488 24.87 153.708 24.87H154.938C155.138 24.87 155.298 24.94 155.418 25.08C155.558 25.2 155.628 25.36 155.628 25.56V29.4C155.628 30.7 155.338 31.87 154.758 32.91C154.178 33.95 153.288 34.77 152.088 35.37C150.908 35.97 149.408 36.26 147.588 36.24ZM174.585 27.33H167.295C167.075 27.33 166.905 27.27 166.785 27.15C166.665 27.01 166.605 26.84 166.605 26.64V25.56C166.605 25.36 166.665 25.2 166.785 25.08C166.905 24.94 167.075 24.87 167.295 24.87H174.915C176.155 24.87 177.255 25.16 178.215 25.74C179.195 26.32 179.955 27.16 180.495 28.26C181.055 29.34 181.335 30.65 181.335 32.19V41.31C181.335 41.51 181.265 41.68 181.125 41.82C181.005 41.94 180.845 42 180.645 42H172.905C172.705 42 172.535 41.94 172.395 41.82C172.275 41.68 172.215 41.51 172.215 41.31V40.29C172.215 40.09 172.275 39.93 172.395 39.81C172.535 39.67 172.705 39.6 172.905 39.6H178.605V32.37C178.605 31.35 178.425 30.46 178.065 29.7C177.725 28.94 177.245 28.36 176.625 27.96C176.025 27.54 175.345 27.33 174.585 27.33ZM166.995 42C166.815 42 166.665 41.93 166.545 41.79C166.425 41.65 166.375 41.48 166.395 41.28L168.945 26.58C168.985 26.38 169.075 26.23 169.215 26.13C169.355 26.01 169.525 25.97 169.725 26.01L170.925 26.07C171.125 26.09 171.285 26.18 171.405 26.34C171.525 26.48 171.555 26.65 171.495 26.85L169.125 41.28C169.105 41.48 169.015 41.65 168.855 41.79C168.715 41.93 168.545 42 168.345 42H166.995ZM197.867 42C197.667 42 197.497 41.94 197.357 41.82C197.237 41.68 197.177 41.51 197.177 41.31V32.34C197.177 30.74 196.777 29.5 195.977 28.62C195.177 27.72 193.887 27.27 192.107 27.27H186.467C186.267 27.27 186.097 27.21 185.957 27.09C185.837 26.95 185.777 26.78 185.777 26.58V25.56C185.777 25.36 185.837 25.2 185.957 25.08C186.097 24.94 186.267 24.87 186.467 24.87H192.257C194.857 24.87 196.777 25.5 198.017 26.76C199.277 28.02 199.907 29.85 199.907 32.25V41.31C199.907 41.51 199.837 41.68 199.697 41.82C199.577 41.94 199.417 42 199.217 42H197.867ZM186.467 42C186.267 42 186.097 41.94 185.957 41.82C185.837 41.68 185.777 41.51 185.777 41.31V31.29C185.777 31.09 185.837 30.93 185.957 30.81C186.097 30.67 186.267 30.6 186.467 30.6H187.817C188.037 30.6 188.207 30.67 188.327 30.81C188.447 30.93 188.507 31.09 188.507 31.29V41.31C188.507 41.51 188.447 41.68 188.327 41.82C188.207 41.94 188.037 42 187.817 42H186.467ZM212.905 27.27C212.705 27.27 212.535 27.21 212.395 27.09C212.275 26.95 212.215 26.78 212.215 26.58V25.56C212.215 25.36 212.275 25.2 212.395 25.08C212.535 24.94 212.705 24.87 212.905 24.87H219.415C221.135 24.87 222.555 25.15 223.675 25.71C224.815 26.25 225.665 27.07 226.225 28.17C226.785 29.25 227.065 30.59 227.065 32.19V41.31C227.065 41.51 226.995 41.68 226.855 41.82C226.735 41.94 226.575 42 226.375 42H225.025C224.805 42 224.635 41.94 224.515 41.82C224.395 41.68 224.335 41.51 224.335 41.31V32.34C224.335 30.74 223.925 29.5 223.105 28.62C222.305 27.72 221.015 27.27 219.235 27.27H212.905ZM215.605 25.8H216.355C216.655 25.8 216.875 25.88 217.015 26.04C217.175 26.18 217.245 26.36 217.225 26.58C217.065 27.42 216.925 28.18 216.805 28.86C216.705 29.54 216.635 30.22 216.595 30.9C216.555 31.56 216.535 32.31 216.535 33.15L216.595 41.31C216.595 41.51 216.535 41.68 216.415 41.82C216.295 41.94 216.135 42 215.935 42L211.675 41.94C211.475 41.94 211.305 41.88 211.165 41.76C211.045 41.64 210.985 41.47 210.985 41.25V40.29C210.985 40.09 211.045 39.93 211.165 39.81C211.305 39.67 211.475 39.6 211.675 39.6L213.985 39.63V33.27C213.985 32.45 213.995 31.7 214.015 31.02C214.035 30.32 214.095 29.62 214.195 28.92C214.295 28.22 214.455 27.43 214.675 26.55C214.735 26.33 214.825 26.15 214.945 26.01C215.085 25.87 215.305 25.8 215.605 25.8ZM243.179 42C242.959 42 242.789 41.94 242.669 41.82C242.549 41.7 242.439 41.6 242.339 41.52L231.329 26.04C231.189 25.82 231.119 25.63 231.119 25.47C231.119 25.31 231.179 25.17 231.299 25.05C231.439 24.93 231.589 24.87 231.749 24.87H233.129C233.369 24.87 233.549 24.93 233.669 25.05C233.809 25.17 233.919 25.28 233.999 25.38L245.039 40.83C245.119 40.97 245.169 41.08 245.189 41.16C245.229 41.24 245.249 41.32 245.249 41.4C245.249 41.56 245.189 41.7 245.069 41.82C244.949 41.94 244.799 42 244.619 42H243.179ZM231.479 42C231.279 42 231.109 41.94 230.969 41.82C230.849 41.68 230.789 41.51 230.789 41.31V36.81C230.789 35.89 230.879 35.02 231.059 34.2C231.239 33.36 231.589 32.57 232.109 31.83C232.649 31.07 233.449 30.36 234.509 29.7L235.889 31.71C235.169 32.17 234.629 32.7 234.269 33.3C233.909 33.88 233.669 34.49 233.549 35.13C233.429 35.75 233.369 36.35 233.369 36.93V41.31C233.369 41.51 233.299 41.68 233.159 41.82C233.039 41.94 232.879 42 232.679 42H231.479ZM240.779 36.51L239.549 34.44C240.529 33.98 241.219 33.5 241.619 33C242.039 32.5 242.289 31.98 242.369 31.44C242.449 30.88 242.489 30.3 242.489 29.7V25.56C242.489 25.36 242.549 25.2 242.669 25.08C242.809 24.94 242.979 24.87 243.179 24.87H244.439C244.639 24.87 244.799 24.94 244.919 25.08C245.059 25.2 245.129 25.36 245.129 25.56V29.85C245.129 30.69 245.029 31.5 244.829 32.28C244.629 33.06 244.219 33.8 243.599 34.5C242.999 35.2 242.059 35.87 240.779 36.51ZM257.189 42C256.989 42 256.819 41.94 256.679 41.82C256.559 41.68 256.499 41.51 256.499 41.31V25.56C256.499 25.36 256.559 25.2 256.679 25.08C256.819 24.94 256.989 24.87 257.189 24.87H262.919C264.639 24.87 266.059 25.15 267.179 25.71C268.299 26.25 269.129 27.06 269.669 28.14C270.229 29.22 270.509 30.57 270.509 32.19V41.31C270.509 41.51 270.449 41.68 270.329 41.82C270.209 41.94 270.039 42 269.819 42H257.189ZM259.079 39.6H267.839V32.34C267.839 30.74 267.439 29.5 266.639 28.62C265.839 27.72 264.549 27.27 262.769 27.27H259.079V39.6ZM275.646 47.73C275.446 47.73 275.276 47.66 275.136 47.52C275.016 47.4 274.956 47.24 274.956 47.04V31.29C274.956 31.09 275.016 30.93 275.136 30.81C275.276 30.67 275.446 30.6 275.646 30.6H276.966C277.186 30.6 277.356 30.67 277.476 30.81C277.596 30.93 277.656 31.09 277.656 31.29V47.04C277.656 47.24 277.596 47.4 277.476 47.52C277.356 47.66 277.186 47.73 276.966 47.73H275.646ZM281.406 42.27C281.226 42.33 281.056 42.3 280.896 42.18C280.756 42.08 280.686 41.93 280.686 41.73V40.35C280.686 40.17 280.736 40.01 280.836 39.87C280.956 39.73 281.126 39.62 281.346 39.54L282.486 39.09C283.286 38.77 284.006 38.37 284.646 37.89C285.306 37.39 285.816 36.72 286.176 35.88C286.556 35.04 286.746 33.94 286.746 32.58C286.746 31.28 286.586 30.25 286.266 29.49C285.946 28.71 285.416 28.16 284.676 27.84C283.956 27.5 282.976 27.33 281.736 27.33H275.646C275.446 27.33 275.276 27.27 275.136 27.15C275.016 27.01 274.956 26.84 274.956 26.64V25.56C274.956 25.36 275.016 25.2 275.136 25.08C275.276 24.94 275.446 24.87 275.646 24.87H282.126C283.966 24.87 285.416 25.13 286.476 25.65C287.556 26.17 288.326 27.01 288.786 28.17C289.266 29.31 289.506 30.81 289.506 32.67C289.506 34.07 289.316 35.28 288.936 36.3C288.556 37.32 288.036 38.19 287.376 38.91C286.736 39.63 286.006 40.23 285.186 40.71C284.386 41.17 283.546 41.55 282.666 41.85L281.406 42.27ZM301.236 27.33H293.946C293.726 27.33 293.556 27.27 293.436 27.15C293.316 27.01 293.256 26.84 293.256 26.64V25.56C293.256 25.36 293.316 25.2 293.436 25.08C293.556 24.94 293.726 24.87 293.946 24.87H301.566C302.806 24.87 303.906 25.16 304.866 25.74C305.846 26.32 306.606 27.16 307.146 28.26C307.706 29.34 307.986 30.65 307.986 32.19V41.31C307.986 41.51 307.916 41.68 307.776 41.82C307.656 41.94 307.496 42 307.296 42H299.556C299.356 42 299.186 41.94 299.046 41.82C298.926 41.68 298.866 41.51 298.866 41.31V40.29C298.866 40.09 298.926 39.93 299.046 39.81C299.186 39.67 299.356 39.6 299.556 39.6H305.256V32.37C305.256 31.35 305.076 30.46 304.716 29.7C304.376 28.94 303.896 28.36 303.276 27.96C302.676 27.54 301.996 27.33 301.236 27.33ZM293.646 42C293.466 42 293.316 41.93 293.196 41.79C293.076 41.65 293.026 41.48 293.046 41.28L295.596 26.58C295.636 26.38 295.726 26.23 295.866 26.13C296.006 26.01 296.176 25.97 296.376 26.01L297.576 26.07C297.776 26.09 297.936 26.18 298.056 26.34C298.176 26.48 298.206 26.65 298.146 26.85L295.776 41.28C295.756 41.48 295.666 41.65 295.506 41.79C295.366 41.93 295.196 42 294.996 42H293.646ZM312.157 42C311.957 42 311.787 41.94 311.647 41.82C311.527 41.68 311.467 41.51 311.467 41.31V40.29C311.467 40.09 311.527 39.93 311.647 39.81C311.787 39.67 311.957 39.6 312.157 39.6H320.617V41.43C320.617 41.63 320.547 41.78 320.407 41.88C320.287 41.96 320.127 42 319.927 42H312.157ZM318.787 42C318.587 42 318.427 41.94 318.307 41.82C318.207 41.68 318.137 41.51 318.097 41.31L317.527 32.04C317.487 31.06 317.407 30.21 317.287 29.49C317.187 28.77 316.947 28.21 316.567 27.81C316.207 27.41 315.597 27.21 314.737 27.21H313.507C313.307 27.21 313.137 27.15 312.997 27.03C312.877 26.89 312.817 26.72 312.817 26.52V25.5C312.817 25.3 312.877 25.14 312.997 25.02C313.137 24.88 313.307 24.81 313.507 24.81H314.767C315.907 24.81 316.827 24.98 317.527 25.32C318.227 25.64 318.767 26.12 319.147 26.76C319.527 27.4 319.807 28.16 319.987 29.04C320.167 29.9 320.287 30.87 320.347 31.95L320.887 41.31C320.927 41.51 320.877 41.68 320.737 41.82C320.597 41.94 320.427 42 320.227 42H318.787ZM344.851 35.94C344.271 35.94 343.731 35.8 343.231 35.52C342.731 35.22 342.331 34.83 342.031 34.35C341.751 33.85 341.611 33.31 341.611 32.73C341.611 32.13 341.751 31.59 342.031 31.11C342.331 30.61 342.731 30.22 343.231 29.94C343.731 29.64 344.271 29.49 344.851 29.49C345.451 29.49 345.991 29.64 346.471 29.94C346.951 30.22 347.331 30.61 347.611 31.11C347.911 31.59 348.061 32.13 348.061 32.73C348.061 33.31 347.911 33.85 347.611 34.35C347.331 34.83 346.951 35.22 346.471 35.52C345.991 35.8 345.451 35.94 344.851 35.94ZM28.6543 75.04C28.4543 75.04 28.2843 74.98 28.1443 74.86C28.0243 74.72 27.9643 74.55 27.9643 74.35V65.56C27.9643 65.36 28.0243 65.2 28.1443 65.08C28.2843 64.94 28.4543 64.87 28.6543 64.87H30.0643C30.2843 64.87 30.4543 64.94 30.5743 65.08C30.6943 65.2 30.7543 65.36 30.7543 65.56V74.35C30.7543 74.55 30.6943 74.72 30.5743 74.86C30.4543 74.98 30.2843 75.04 30.0643 75.04H28.6543ZM35.6855 75.04C35.4855 75.04 35.3155 74.98 35.1755 74.86C35.0555 74.72 34.9955 74.55 34.9955 74.35V65.56C34.9955 65.36 35.0555 65.2 35.1755 65.08C35.3155 64.94 35.4855 64.87 35.6855 64.87H37.0955C37.3155 64.87 37.4855 64.94 37.6055 65.08C37.7255 65.2 37.7855 65.36 37.7855 65.56V74.35C37.7855 74.55 37.7255 74.72 37.6055 74.86C37.4855 74.98 37.3155 75.04 37.0955 75.04H35.6855ZM45.9268 82.27C45.7468 82.33 45.5768 82.3 45.4168 82.18C45.2568 82.08 45.1768 81.93 45.1768 81.73V80.35C45.1768 80.17 45.2268 80.01 45.3268 79.87C45.4468 79.73 45.6168 79.62 45.8368 79.54L47.0068 79.09C47.7868 78.77 48.4968 78.37 49.1368 77.89C49.7968 77.39 50.3068 76.72 50.6668 75.88C51.0468 75.04 51.2368 73.94 51.2368 72.58C51.2368 71.28 51.0768 70.25 50.7568 69.49C50.4568 68.71 49.9368 68.16 49.1968 67.84C48.4768 67.5 47.4868 67.33 46.2268 67.33H45.3268C45.1268 67.33 44.9568 67.27 44.8168 67.15C44.6968 67.01 44.6368 66.84 44.6368 66.64V65.56C44.6368 65.36 44.6968 65.2 44.8168 65.08C44.9568 64.94 45.1268 64.87 45.3268 64.87H46.6468C48.4668 64.87 49.9168 65.13 50.9968 65.65C52.0768 66.17 52.8468 67.01 53.3068 68.17C53.7868 69.31 54.0268 70.81 54.0268 72.67C54.0268 74.07 53.8368 75.28 53.4568 76.3C53.0768 77.32 52.5568 78.19 51.8968 78.91C51.2568 79.63 50.5268 80.23 49.7068 80.71C48.8868 81.17 48.0368 81.55 47.1568 81.85L45.9268 82.27ZM45.9868 67.33L42.4168 67.3C42.2168 67.3 42.0468 67.24 41.9068 67.12C41.7868 67 41.7268 66.84 41.7268 66.64V61.39C41.7268 61.19 41.7868 61.03 41.9068 60.91C42.0468 60.77 42.2168 60.7 42.4168 60.7H43.6768C43.8768 60.7 44.0368 60.77 44.1568 60.91C44.2968 61.03 44.3668 61.19 44.3668 61.39V64.87H46.0468L45.9868 67.33ZM65.7999 82C65.5999 82 65.4399 81.94 65.3199 81.82C65.2199 81.68 65.1499 81.51 65.1099 81.31L63.2799 72.1C63.0799 71.04 62.8399 70.16 62.5599 69.46C62.2999 68.74 61.9399 68.2 61.4799 67.84C61.0399 67.46 60.4299 67.27 59.6499 67.27H58.5699C58.3699 67.27 58.1999 67.21 58.0599 67.09C57.9399 66.95 57.8799 66.78 57.8799 66.58V65.5C57.8799 65.3 57.9399 65.14 58.0599 65.02C58.1999 64.88 58.3699 64.81 58.5699 64.81H59.6799C61.0199 64.81 62.0999 65.08 62.9199 65.62C63.7399 66.14 64.3899 66.93 64.8699 67.99C65.3699 69.05 65.7799 70.37 66.0999 71.95L67.8999 81.31C67.9399 81.51 67.8899 81.68 67.7499 81.82C67.6099 81.94 67.4399 82 67.2399 82H65.7999ZM61.9299 80.47C61.1899 80.97 60.4899 81.36 59.8299 81.64C59.1899 81.9 58.5199 82.1 57.8199 82.24C57.6199 82.26 57.4499 82.24 57.3099 82.18C57.1699 82.12 57.0999 81.99 57.0999 81.79V80.29C57.0999 79.95 57.3099 79.7 57.7299 79.54C57.8699 79.48 58.1299 79.39 58.5099 79.27C58.8899 79.15 59.2999 79 59.7399 78.82C60.1799 78.62 60.5599 78.42 60.8799 78.22C61.3799 77.9 61.8699 77.49 62.3499 76.99C62.8299 76.47 63.2299 75.94 63.5499 75.4C63.8899 74.84 64.0599 74.35 64.0599 73.93L65.7999 73.72C65.7799 74.58 65.5899 75.45 65.2299 76.33C64.8699 77.21 64.3999 78.01 63.8199 78.73C63.2399 79.45 62.6099 80.03 61.9299 80.47ZM79.4951 82C79.2951 82 79.1251 81.94 78.9851 81.82C78.8651 81.68 78.8051 81.51 78.8051 81.31V72.34C78.8051 70.74 78.4051 69.5 77.6051 68.62C76.8051 67.72 75.5151 67.27 73.7351 67.27H69.8051C69.6051 67.27 69.4351 67.21 69.2951 67.09C69.1751 66.95 69.1151 66.78 69.1151 66.58V65.56C69.1151 65.36 69.1751 65.2 69.2951 65.08C69.4351 64.94 69.6051 64.87 69.8051 64.87H73.8851C75.6051 64.87 77.0251 65.14 78.1451 65.68C79.2851 66.22 80.1351 67.04 80.6951 68.14C81.2551 69.22 81.5351 70.57 81.5351 72.19V81.31C81.5351 81.51 81.4651 81.68 81.3251 81.82C81.2051 81.94 81.0451 82 80.8451 82H79.4951ZM96.3467 82.27C96.1667 82.33 95.9967 82.3 95.8367 82.18C95.6767 82.08 95.5967 81.93 95.5967 81.73V80.35C95.5967 80.17 95.6467 80.01 95.7467 79.87C95.8667 79.73 96.0367 79.62 96.2567 79.54L97.4267 79.09C98.2067 78.77 98.9167 78.37 99.5567 77.89C100.217 77.39 100.727 76.72 101.087 75.88C101.467 75.04 101.657 73.94 101.657 72.58C101.657 71.28 101.497 70.25 101.177 69.49C100.877 68.71 100.357 68.16 99.6167 67.84C98.8967 67.5 97.9067 67.33 96.6467 67.33H95.7467C95.5467 67.33 95.3767 67.27 95.2367 67.15C95.1167 67.01 95.0567 66.84 95.0567 66.64V65.56C95.0567 65.36 95.1167 65.2 95.2367 65.08C95.3767 64.94 95.5467 64.87 95.7467 64.87H97.0667C98.8867 64.87 100.337 65.13 101.417 65.65C102.497 66.17 103.267 67.01 103.727 68.17C104.207 69.31 104.447 70.81 104.447 72.67C104.447 74.07 104.257 75.28 103.877 76.3C103.497 77.32 102.977 78.19 102.317 78.91C101.677 79.63 100.947 80.23 100.127 80.71C99.3067 81.17 98.4567 81.55 97.5767 81.85L96.3467 82.27ZM96.4067 67.33L92.8367 67.3C92.6367 67.3 92.4667 67.24 92.3267 67.12C92.2067 67 92.1467 66.84 92.1467 66.64V61.39C92.1467 61.19 92.2067 61.03 92.3267 60.91C92.4667 60.77 92.6367 60.7 92.8367 60.7H94.0967C94.2967 60.7 94.4567 60.77 94.5767 60.91C94.7167 61.03 94.7867 61.19 94.7867 61.39V64.87H96.4667L96.4067 67.33ZM108.21 83.65C108.01 83.73 107.82 83.71 107.64 83.59C107.46 83.49 107.37 83.34 107.37 83.14V82.12C107.37 81.94 107.41 81.77 107.49 81.61C107.57 81.45 107.7 81.35 107.88 81.31L114.21 79.21C115.35 78.83 116.23 78.34 116.85 77.74C117.47 77.14 117.9 76.44 118.14 75.64C118.4 74.84 118.53 73.97 118.53 73.03V65.56C118.53 65.36 118.59 65.2 118.71 65.08C118.85 64.94 119.02 64.87 119.22 64.87H120.57C120.77 64.87 120.93 64.94 121.05 65.08C121.19 65.2 121.26 65.36 121.26 65.56V73.87C121.26 75.03 120.99 76.13 120.45 77.17C119.93 78.19 119.19 79.09 118.23 79.87C117.27 80.63 116.13 81.21 114.81 81.61L108.21 83.65ZM112.14 81.28L107.91 66.07C107.87 65.91 107.83 65.79 107.79 65.71C107.77 65.63 107.76 65.55 107.76 65.47C107.76 65.31 107.82 65.17 107.94 65.05C108.06 64.93 108.2 64.87 108.36 64.87H109.83C110.21 64.87 110.44 65.02 110.52 65.32L114.69 80.59L112.14 81.28ZM140.917 82C140.717 82 140.557 81.94 140.437 81.82C140.337 81.68 140.267 81.51 140.227 81.31L138.397 72.1C138.197 71.04 137.957 70.16 137.677 69.46C137.417 68.74 137.057 68.2 136.597 67.84C136.157 67.46 135.547 67.27 134.767 67.27H133.687C133.487 67.27 133.317 67.21 133.177 67.09C133.057 66.95 132.997 66.78 132.997 66.58V65.5C132.997 65.3 133.057 65.14 133.177 65.02C133.317 64.88 133.487 64.81 133.687 64.81H134.797C136.137 64.81 137.217 65.08 138.037 65.62C138.857 66.14 139.507 66.93 139.987 67.99C140.487 69.05 140.897 70.37 141.217 71.95L143.017 81.31C143.057 81.51 143.007 81.68 142.867 81.82C142.727 81.94 142.557 82 142.357 82H140.917ZM137.047 80.47C136.307 80.97 135.607 81.36 134.947 81.64C134.307 81.9 133.637 82.1 132.937 82.24C132.737 82.26 132.567 82.24 132.427 82.18C132.287 82.12 132.217 81.99 132.217 81.79V80.29C132.217 79.95 132.427 79.7 132.847 79.54C132.987 79.48 133.247 79.39 133.627 79.27C134.007 79.15 134.417 79 134.857 78.82C135.297 78.62 135.677 78.42 135.997 78.22C136.497 77.9 136.987 77.49 137.467 76.99C137.947 76.47 138.347 75.94 138.667 75.4C139.007 74.84 139.177 74.35 139.177 73.93L140.917 73.72C140.897 74.58 140.707 75.45 140.347 76.33C139.987 77.21 139.517 78.01 138.937 78.73C138.357 79.45 137.727 80.03 137.047 80.47ZM150.405 67.33C150.205 67.33 150.055 67.27 149.955 67.15C149.875 67.01 149.825 66.85 149.805 66.67L149.295 61.39C149.255 61.17 149.295 61 149.415 60.88C149.535 60.76 149.695 60.7 149.895 60.7H151.845C152.045 60.7 152.205 60.76 152.325 60.88C152.445 61 152.495 61.17 152.475 61.39L151.935 66.67C151.915 66.85 151.855 67.01 151.755 67.15C151.675 67.27 151.535 67.33 151.335 67.33H150.405ZM145.725 67.33C145.525 67.33 145.375 67.27 145.275 67.15C145.195 67.01 145.145 66.85 145.125 66.67L144.615 61.39C144.595 61.17 144.635 61 144.735 60.88C144.855 60.76 145.015 60.7 145.215 60.7H147.165C147.365 60.7 147.525 60.76 147.645 60.88C147.765 61 147.815 61.17 147.795 61.39L147.285 66.67C147.265 66.85 147.205 67.01 147.105 67.15C147.005 67.27 146.855 67.33 146.655 67.33H145.725ZM157.155 87.73C156.955 87.73 156.785 87.66 156.645 87.52C156.525 87.4 156.465 87.24 156.465 87.04V71.29C156.465 71.09 156.525 70.93 156.645 70.81C156.785 70.67 156.955 70.6 157.155 70.6H158.475C158.695 70.6 158.865 70.67 158.985 70.81C159.105 70.93 159.165 71.09 159.165 71.29V87.04C159.165 87.24 159.105 87.4 158.985 87.52C158.865 87.66 158.695 87.73 158.475 87.73H157.155ZM162.915 82.27C162.735 82.33 162.565 82.3 162.405 82.18C162.265 82.08 162.195 81.93 162.195 81.73V80.35C162.195 80.17 162.245 80.01 162.345 79.87C162.465 79.73 162.635 79.62 162.855 79.54L163.995 79.09C164.795 78.77 165.515 78.37 166.155 77.89C166.815 77.39 167.325 76.72 167.685 75.88C168.065 75.04 168.255 73.94 168.255 72.58C168.255 71.28 168.095 70.25 167.775 69.49C167.455 68.71 166.925 68.16 166.185 67.84C165.465 67.5 164.485 67.33 163.245 67.33H157.155C156.955 67.33 156.785 67.27 156.645 67.15C156.525 67.01 156.465 66.84 156.465 66.64V65.56C156.465 65.36 156.525 65.2 156.645 65.08C156.785 64.94 156.955 64.87 157.155 64.87H163.635C165.475 64.87 166.925 65.13 167.985 65.65C169.065 66.17 169.835 67.01 170.295 68.17C170.775 69.31 171.015 70.81 171.015 72.67C171.015 74.07 170.825 75.28 170.445 76.3C170.065 77.32 169.545 78.19 168.885 78.91C168.245 79.63 167.515 80.23 166.695 80.71C165.895 81.17 165.055 81.55 164.175 81.85L162.915 82.27ZM182.448 82C182.248 82 182.078 81.94 181.938 81.82C181.818 81.68 181.758 81.51 181.758 81.31V80.35C181.758 80.17 181.808 79.97 181.908 79.75C182.008 79.53 182.208 79.29 182.508 79.03L188.868 72.67C189.888 71.81 190.688 71.08 191.268 70.48C191.868 69.86 192.288 69.27 192.528 68.71C192.788 68.15 192.918 67.57 192.918 66.97C192.918 65.83 192.598 64.93 191.958 64.27C191.318 63.59 190.368 63.25 189.108 63.25C188.308 63.25 187.618 63.42 187.038 63.76C186.458 64.08 185.998 64.53 185.658 65.11C185.338 65.67 185.128 66.31 185.028 67.03C184.988 67.29 184.878 67.47 184.698 67.57C184.538 67.67 184.388 67.72 184.248 67.72H182.688C182.508 67.72 182.358 67.67 182.238 67.57C182.118 67.45 182.058 67.31 182.058 67.15C182.078 66.39 182.238 65.63 182.538 64.87C182.838 64.09 183.278 63.39 183.858 62.77C184.458 62.15 185.188 61.65 186.048 61.27C186.928 60.87 187.948 60.67 189.108 60.67C190.688 60.67 191.978 60.96 192.978 61.54C193.998 62.1 194.748 62.85 195.228 63.79C195.708 64.73 195.948 65.76 195.948 66.88C195.948 67.76 195.798 68.57 195.498 69.31C195.198 70.03 194.758 70.74 194.178 71.44C193.618 72.12 192.918 72.82 192.078 73.54L186.318 79.39H195.678C195.898 79.39 196.068 79.45 196.188 79.57C196.328 79.69 196.398 79.86 196.398 80.08V81.31C196.398 81.51 196.328 81.68 196.188 81.82C196.068 81.94 195.898 82 195.678 82H182.448ZM207.406 82.3C206.026 82.3 204.856 82.09 203.896 81.67C202.956 81.23 202.186 80.63 201.586 79.87C200.986 79.11 200.546 78.24 200.266 77.26C200.006 76.28 199.856 75.24 199.816 74.14C199.796 73.6 199.776 73.03 199.756 72.43C199.756 71.83 199.756 71.23 199.756 70.63C199.776 70.01 199.796 69.42 199.816 68.86C199.836 67.76 199.986 66.72 200.266 65.74C200.566 64.74 201.006 63.87 201.586 63.13C202.186 62.37 202.966 61.78 203.926 61.36C204.886 60.92 206.046 60.7 207.406 60.7C208.786 60.7 209.946 60.92 210.886 61.36C211.846 61.78 212.626 62.37 213.226 63.13C213.826 63.87 214.266 64.74 214.546 65.74C214.846 66.72 215.006 67.76 215.026 68.86C215.046 69.42 215.056 70.01 215.056 70.63C215.076 71.23 215.076 71.83 215.056 72.43C215.056 73.03 215.046 73.6 215.026 74.14C215.006 75.24 214.846 76.28 214.546 77.26C214.266 78.24 213.826 79.11 213.226 79.87C212.646 80.63 211.876 81.23 210.916 81.67C209.976 82.09 208.806 82.3 207.406 82.3ZM207.406 79.75C208.966 79.75 210.116 79.24 210.856 78.22C211.616 77.18 212.006 75.77 212.026 73.99C212.066 73.41 212.086 72.85 212.086 72.31C212.086 71.75 212.086 71.2 212.086 70.66C212.086 70.1 212.066 69.55 212.026 69.01C212.006 67.27 211.616 65.88 210.856 64.84C210.116 63.78 208.966 63.25 207.406 63.25C205.866 63.25 204.716 63.78 203.956 64.84C203.216 65.88 202.826 67.27 202.786 69.01C202.786 69.55 202.776 70.1 202.756 70.66C202.756 71.2 202.756 71.75 202.756 72.31C202.776 72.85 202.786 73.41 202.786 73.99C202.826 75.77 203.226 77.18 203.986 78.22C204.746 79.24 205.886 79.75 207.406 79.75ZM229.618 82.27C229.438 82.33 229.268 82.3 229.108 82.18C228.948 82.08 228.868 81.93 228.868 81.73V80.35C228.868 80.17 228.918 80.01 229.018 79.87C229.138 79.73 229.308 79.62 229.528 79.54L230.698 79.09C231.478 78.77 232.188 78.37 232.828 77.89C233.488 77.39 233.998 76.72 234.358 75.88C234.738 75.04 234.928 73.94 234.928 72.58C234.928 71.28 234.768 70.25 234.448 69.49C234.148 68.71 233.628 68.16 232.888 67.84C232.168 67.5 231.178 67.33 229.918 67.33H229.018C228.818 67.33 228.648 67.27 228.508 67.15C228.388 67.01 228.328 66.84 228.328 66.64V65.56C228.328 65.36 228.388 65.2 228.508 65.08C228.648 64.94 228.818 64.87 229.018 64.87H230.338C232.158 64.87 233.608 65.13 234.688 65.65C235.768 66.17 236.538 67.01 236.998 68.17C237.478 69.31 237.718 70.81 237.718 72.67C237.718 74.07 237.528 75.28 237.148 76.3C236.768 77.32 236.248 78.19 235.588 78.91C234.948 79.63 234.218 80.23 233.398 80.71C232.578 81.17 231.728 81.55 230.848 81.85L229.618 82.27ZM229.678 67.33L226.108 67.3C225.908 67.3 225.738 67.24 225.598 67.12C225.478 67 225.418 66.84 225.418 66.64V61.39C225.418 61.19 225.478 61.03 225.598 60.91C225.738 60.77 225.908 60.7 226.108 60.7H227.368C227.568 60.7 227.728 60.77 227.848 60.91C227.988 61.03 228.058 61.19 228.058 61.39V64.87H229.738L229.678 67.33ZM250.181 79.75C251.481 79.77 252.571 79.53 253.451 79.03C254.351 78.53 255.031 77.82 255.491 76.9C255.971 75.96 256.211 74.89 256.211 73.69V65.56C256.211 65.36 256.271 65.2 256.391 65.08C256.531 64.94 256.701 64.87 256.901 64.87H258.131C258.351 64.87 258.521 64.94 258.641 65.08C258.761 65.2 258.821 65.36 258.821 65.56V73.9C258.821 75.18 258.621 76.34 258.221 77.38C257.821 78.4 257.251 79.28 256.511 80.02C255.771 80.74 254.891 81.29 253.871 81.67C252.871 82.05 251.761 82.22 250.541 82.18H248.291C246.991 82.18 245.821 81.88 244.781 81.28C243.741 80.68 242.921 79.84 242.321 78.76C241.721 77.68 241.421 76.43 241.421 75.01V65.56C241.421 65.36 241.481 65.2 241.601 65.08C241.741 64.94 241.911 64.87 242.111 64.87H243.371C243.571 64.87 243.731 64.94 243.851 65.08C243.991 65.2 244.061 65.36 244.061 65.56L244.151 74.41C244.151 76.13 244.631 77.45 245.591 78.37C246.551 79.29 247.771 79.75 249.251 79.75H250.181ZM243.521 76.24L243.461 74.05C244.941 74.03 246.071 73.81 246.851 73.39C247.631 72.95 248.171 72.37 248.471 71.65C248.791 70.93 248.951 70.14 248.951 69.28V65.56C248.951 65.36 249.011 65.2 249.131 65.08C249.251 64.94 249.421 64.87 249.641 64.87H250.871C251.071 64.87 251.231 64.94 251.351 65.08C251.491 65.2 251.561 65.36 251.561 65.56V69.4C251.561 70.7 251.271 71.87 250.691 72.91C250.111 73.95 249.221 74.77 248.021 75.37C246.841 75.97 245.341 76.26 243.521 76.24ZM271.572 67.27C271.372 67.27 271.202 67.21 271.062 67.09C270.942 66.95 270.882 66.78 270.882 66.58V65.56C270.882 65.36 270.942 65.2 271.062 65.08C271.202 64.94 271.372 64.87 271.572 64.87H278.082C279.802 64.87 281.222 65.15 282.342 65.71C283.482 66.25 284.332 67.07 284.892 68.17C285.452 69.25 285.732 70.59 285.732 72.19V81.31C285.732 81.51 285.662 81.68 285.522 81.82C285.402 81.94 285.242 82 285.042 82H283.692C283.472 82 283.302 81.94 283.182 81.82C283.062 81.68 283.002 81.51 283.002 81.31V72.34C283.002 70.74 282.592 69.5 281.772 68.62C280.972 67.72 279.682 67.27 277.902 67.27H271.572ZM274.272 65.8H275.022C275.322 65.8 275.542 65.88 275.682 66.04C275.842 66.18 275.912 66.36 275.892 66.58C275.732 67.42 275.592 68.18 275.472 68.86C275.372 69.54 275.302 70.22 275.262 70.9C275.222 71.56 275.202 72.31 275.202 73.15L275.262 81.31C275.262 81.51 275.202 81.68 275.082 81.82C274.962 81.94 274.802 82 274.602 82L270.342 81.94C270.142 81.94 269.972 81.88 269.832 81.76C269.712 81.64 269.652 81.47 269.652 81.25V80.29C269.652 80.09 269.712 79.93 269.832 79.81C269.972 79.67 270.142 79.6 270.342 79.6L272.652 79.63V73.27C272.652 72.45 272.662 71.7 272.682 71.02C272.702 70.32 272.762 69.62 272.862 68.92C272.962 68.22 273.122 67.43 273.342 66.55C273.402 66.33 273.492 66.15 273.612 66.01C273.752 65.87 273.972 65.8 274.272 65.8ZM290.866 82C290.666 82 290.496 81.94 290.356 81.82C290.236 81.68 290.176 81.51 290.176 81.31V65.56C290.176 65.36 290.236 65.2 290.356 65.08C290.496 64.94 290.666 64.87 290.866 64.87H296.686C298.426 64.87 299.856 65.15 300.976 65.71C302.116 66.25 302.966 67.07 303.526 68.17C304.086 69.25 304.366 70.61 304.366 72.25V81.31C304.366 81.51 304.296 81.68 304.156 81.82C304.036 81.94 303.876 82 303.676 82H302.326C302.106 82 301.936 81.94 301.816 81.82C301.696 81.68 301.636 81.51 301.636 81.31V72.34C301.636 70.74 301.236 69.5 300.436 68.62C299.636 67.72 298.336 67.27 296.536 67.27H292.906V81.31C292.906 81.51 292.846 81.68 292.726 81.82C292.606 81.94 292.436 82 292.216 82H290.866ZM320.479 82C320.259 82 320.089 81.94 319.969 81.82C319.849 81.7 319.739 81.6 319.639 81.52L308.629 66.04C308.489 65.82 308.419 65.63 308.419 65.47C308.419 65.31 308.479 65.17 308.599 65.05C308.739 64.93 308.889 64.87 309.049 64.87H310.429C310.669 64.87 310.849 64.93 310.969 65.05C311.109 65.17 311.219 65.28 311.299 65.38L322.339 80.83C322.419 80.97 322.469 81.08 322.489 81.16C322.529 81.24 322.549 81.32 322.549 81.4C322.549 81.56 322.489 81.7 322.369 81.82C322.249 81.94 322.099 82 321.919 82H320.479ZM308.779 82C308.579 82 308.409 81.94 308.269 81.82C308.149 81.68 308.089 81.51 308.089 81.31V76.81C308.089 75.89 308.179 75.02 308.359 74.2C308.539 73.36 308.889 72.57 309.409 71.83C309.949 71.07 310.749 70.36 311.809 69.7L313.189 71.71C312.469 72.17 311.929 72.7 311.569 73.3C311.209 73.88 310.969 74.49 310.849 75.13C310.729 75.75 310.669 76.35 310.669 76.93V81.31C310.669 81.51 310.599 81.68 310.459 81.82C310.339 81.94 310.179 82 309.979 82H308.779ZM318.079 76.51L316.849 74.44C317.829 73.98 318.519 73.5 318.919 73C319.339 72.5 319.589 71.98 319.669 71.44C319.749 70.88 319.789 70.3 319.789 69.7V65.56C319.789 65.36 319.849 65.2 319.969 65.08C320.109 64.94 320.279 64.87 320.479 64.87H321.739C321.939 64.87 322.099 64.94 322.219 65.08C322.359 65.2 322.429 65.36 322.429 65.56V69.85C322.429 70.69 322.329 71.5 322.129 72.28C321.929 73.06 321.519 73.8 320.899 74.5C320.299 75.2 319.359 75.87 318.079 76.51ZM45.2969 122.27C45.1169 122.33 44.9469 122.3 44.7869 122.18C44.6269 122.08 44.5469 121.93 44.5469 121.73V120.35C44.5469 120.17 44.5969 120.01 44.6969 119.87C44.8169 119.73 44.9869 119.62 45.2069 119.54L46.3769 119.09C47.1569 118.77 47.8669 118.37 48.5069 117.89C49.1669 117.39 49.6769 116.72 50.0369 115.88C50.4169 115.04 50.6069 113.94 50.6069 112.58C50.6069 111.28 50.4469 110.25 50.1269 109.49C49.8269 108.71 49.3069 108.16 48.5669 107.84C47.8469 107.5 46.8569 107.33 45.5969 107.33H44.6969C44.4969 107.33 44.3269 107.27 44.1869 107.15C44.0669 107.01 44.0069 106.84 44.0069 106.64V105.56C44.0069 105.36 44.0669 105.2 44.1869 105.08C44.3269 104.94 44.4969 104.87 44.6969 104.87H46.0169C47.8369 104.87 49.2869 105.13 50.3669 105.65C51.4469 106.17 52.2169 107.01 52.6769 108.17C53.1569 109.31 53.3969 110.81 53.3969 112.67C53.3969 114.07 53.2069 115.28 52.8269 116.3C52.4469 117.32 51.9269 118.19 51.2669 118.91C50.6269 119.63 49.8969 120.23 49.0769 120.71C48.2569 121.17 47.4069 121.55 46.5269 121.85L45.2969 122.27ZM45.3569 107.33L41.7869 107.3C41.5869 107.3 41.4169 107.24 41.2769 107.12C41.1569 107 41.0969 106.84 41.0969 106.64V101.39C41.0969 101.19 41.1569 101.03 41.2769 100.91C41.4169 100.77 41.5869 100.7 41.7869 100.7H43.0469C43.2469 100.7 43.4069 100.77 43.5269 100.91C43.6669 101.03 43.7369 101.19 43.7369 101.39V104.87H45.4169L45.3569 107.33ZM65.17 122C64.97 122 64.81 121.94 64.69 121.82C64.59 121.68 64.52 121.51 64.48 121.31L62.65 112.1C62.45 111.04 62.21 110.16 61.93 109.46C61.67 108.74 61.31 108.2 60.85 107.84C60.41 107.46 59.8 107.27 59.02 107.27H57.94C57.74 107.27 57.57 107.21 57.43 107.09C57.31 106.95 57.25 106.78 57.25 106.58V105.5C57.25 105.3 57.31 105.14 57.43 105.02C57.57 104.88 57.74 104.81 57.94 104.81H59.05C60.39 104.81 61.47 105.08 62.29 105.62C63.11 106.14 63.76 106.93 64.24 107.99C64.74 109.05 65.15 110.37 65.47 111.95L67.27 121.31C67.31 121.51 67.26 121.68 67.12 121.82C66.98 121.94 66.81 122 66.61 122H65.17ZM61.3 120.47C60.56 120.97 59.86 121.36 59.2 121.64C58.56 121.9 57.89 122.1 57.19 122.24C56.99 122.26 56.82 122.24 56.68 122.18C56.54 122.12 56.47 121.99 56.47 121.79V120.29C56.47 119.95 56.68 119.7 57.1 119.54C57.24 119.48 57.5 119.39 57.88 119.27C58.26 119.15 58.67 119 59.11 118.82C59.55 118.62 59.93 118.42 60.25 118.22C60.75 117.9 61.24 117.49 61.72 116.99C62.2 116.47 62.6 115.94 62.92 115.4C63.26 114.84 63.43 114.35 63.43 113.93L65.17 113.72C65.15 114.58 64.96 115.45 64.6 116.33C64.24 117.21 63.77 118.01 63.19 118.73C62.61 119.45 61.98 120.03 61.3 120.47ZM78.8652 122C78.6652 122 78.4952 121.94 78.3552 121.82C78.2352 121.68 78.1752 121.51 78.1752 121.31V112.34C78.1752 110.74 77.7752 109.5 76.9752 108.62C76.1752 107.72 74.8852 107.27 73.1052 107.27H69.1752C68.9752 107.27 68.8052 107.21 68.6652 107.09C68.5452 106.95 68.4852 106.78 68.4852 106.58V105.56C68.4852 105.36 68.5452 105.2 68.6652 105.08C68.8052 104.94 68.9752 104.87 69.1752 104.87H73.2552C74.9752 104.87 76.3952 105.14 77.5152 105.68C78.6552 106.22 79.5052 107.04 80.0652 108.14C80.6252 109.22 80.9052 110.57 80.9052 112.19V121.31C80.9052 121.51 80.8352 121.68 80.6952 121.82C80.5752 121.94 80.4152 122 80.2152 122H78.8652ZM97.4371 122C97.2371 122 97.0671 121.94 96.9271 121.82C96.8071 121.68 96.7471 121.51 96.7471 121.31V112.34C96.7471 110.74 96.3471 109.5 95.5471 108.62C94.7471 107.72 93.4571 107.27 91.6771 107.27H86.0371C85.8371 107.27 85.6671 107.21 85.5271 107.09C85.4071 106.95 85.3471 106.78 85.3471 106.58V105.56C85.3471 105.36 85.4071 105.2 85.5271 105.08C85.6671 104.94 85.8371 104.87 86.0371 104.87H91.8271C94.4271 104.87 96.3471 105.5 97.5871 106.76C98.8471 108.02 99.4771 109.85 99.4771 112.25V121.31C99.4771 121.51 99.4071 121.68 99.2671 121.82C99.1471 121.94 98.9871 122 98.7871 122H97.4371ZM86.0371 122C85.8371 122 85.6671 121.94 85.5271 121.82C85.4071 121.68 85.3471 121.51 85.3471 121.31V111.29C85.3471 111.09 85.4071 110.93 85.5271 110.81C85.6671 110.67 85.8371 110.6 86.0371 110.6H87.3871C87.6071 110.6 87.7771 110.67 87.8971 110.81C88.0171 110.93 88.0771 111.09 88.0771 111.29V121.31C88.0771 121.51 88.0171 121.68 87.8971 121.82C87.7771 121.94 87.6071 122 87.3871 122H86.0371ZM123.365 122C123.165 122 122.995 121.94 122.855 121.82C122.735 121.68 122.675 121.51 122.675 121.31V112.34C122.675 110.74 122.275 109.5 121.475 108.62C120.675 107.72 119.385 107.27 117.605 107.27H111.965C111.765 107.27 111.595 107.21 111.455 107.09C111.335 106.95 111.275 106.78 111.275 106.58V105.56C111.275 105.36 111.335 105.2 111.455 105.08C111.595 104.94 111.765 104.87 111.965 104.87H117.755C120.355 104.87 122.275 105.5 123.515 106.76C124.775 108.02 125.405 109.85 125.405 112.25V121.31C125.405 121.51 125.335 121.68 125.195 121.82C125.075 121.94 124.915 122 124.715 122H123.365ZM111.965 122C111.765 122 111.595 121.94 111.455 121.82C111.335 121.68 111.275 121.51 111.275 121.31V111.29C111.275 111.09 111.335 110.93 111.455 110.81C111.595 110.67 111.765 110.6 111.965 110.6H113.315C113.535 110.6 113.705 110.67 113.825 110.81C113.945 110.93 114.005 111.09 114.005 111.29V121.31C114.005 121.51 113.945 121.68 113.825 121.82C113.705 121.94 113.535 122 113.315 122H111.965ZM129.909 122C129.709 122 129.539 121.94 129.399 121.82C129.279 121.68 129.219 121.51 129.219 121.31V120.26C129.219 120.06 129.279 119.9 129.399 119.78C129.539 119.64 129.709 119.57 129.909 119.57H138.039L128.649 106.04C128.589 105.92 128.539 105.82 128.499 105.74C128.459 105.64 128.439 105.55 128.439 105.47C128.439 105.31 128.499 105.17 128.619 105.05C128.759 104.93 128.909 104.87 129.069 104.87H130.509C130.709 104.87 130.869 104.93 130.989 105.05C131.129 105.15 131.239 105.26 131.319 105.38L141.099 119.39C141.199 119.53 141.279 119.68 141.339 119.84C141.419 119.98 141.459 120.14 141.459 120.32V121.31C141.459 121.51 141.389 121.68 141.249 121.82C141.129 121.94 140.969 122 140.769 122H129.909ZM137.499 115.16L136.179 113.21C137.219 112.83 137.969 112.21 138.429 111.35C138.909 110.47 139.149 109.4 139.149 108.14V105.56C139.149 105.36 139.209 105.2 139.329 105.08C139.469 104.94 139.639 104.87 139.839 104.87H141.069C141.289 104.87 141.459 104.94 141.579 105.08C141.699 105.2 141.759 105.36 141.759 105.56V108.5C141.759 110.12 141.399 111.5 140.679 112.64C139.959 113.78 138.899 114.62 137.499 115.16ZM146.535 127.73C146.335 127.73 146.165 127.66 146.025 127.52C145.905 127.4 145.845 127.24 145.845 127.04V111.29C145.845 111.09 145.905 110.93 146.025 110.81C146.165 110.67 146.335 110.6 146.535 110.6H147.855C148.075 110.6 148.245 110.67 148.365 110.81C148.485 110.93 148.545 111.09 148.545 111.29V127.04C148.545 127.24 148.485 127.4 148.365 127.52C148.245 127.66 148.075 127.73 147.855 127.73H146.535ZM152.295 122.27C152.115 122.33 151.945 122.3 151.785 122.18C151.645 122.08 151.575 121.93 151.575 121.73V120.35C151.575 120.17 151.625 120.01 151.725 119.87C151.845 119.73 152.015 119.62 152.235 119.54L153.375 119.09C154.175 118.77 154.895 118.37 155.535 117.89C156.195 117.39 156.705 116.72 157.065 115.88C157.445 115.04 157.635 113.94 157.635 112.58C157.635 111.28 157.475 110.25 157.155 109.49C156.835 108.71 156.305 108.16 155.565 107.84C154.845 107.5 153.865 107.33 152.625 107.33H146.535C146.335 107.33 146.165 107.27 146.025 107.15C145.905 107.01 145.845 106.84 145.845 106.64V105.56C145.845 105.36 145.905 105.2 146.025 105.08C146.165 104.94 146.335 104.87 146.535 104.87H153.015C154.855 104.87 156.305 105.13 157.365 105.65C158.445 106.17 159.215 107.01 159.675 108.17C160.155 109.31 160.395 110.81 160.395 112.67C160.395 114.07 160.205 115.28 159.825 116.3C159.445 117.32 158.925 118.19 158.265 118.91C157.625 119.63 156.895 120.23 156.075 120.71C155.275 121.17 154.435 121.55 153.555 121.85L152.295 122.27ZM172.668 125.72C172.468 125.72 172.298 125.65 172.158 125.51C172.038 125.39 171.978 125.23 171.978 125.03V105.56C171.978 105.36 172.038 105.2 172.158 105.08C172.298 104.94 172.468 104.87 172.668 104.87H174.018C174.238 104.87 174.408 104.94 174.528 105.08C174.648 105.2 174.708 105.36 174.708 105.56V125.03C174.708 125.23 174.648 125.39 174.528 125.51C174.408 125.65 174.238 125.72 174.018 125.72H172.668ZM180.021 122C179.821 122 179.651 121.94 179.511 121.82C179.391 121.68 179.331 121.51 179.331 121.31V105.56C179.331 105.36 179.391 105.2 179.511 105.08C179.651 104.94 179.821 104.87 180.021 104.87H181.431C181.651 104.87 181.821 104.94 181.941 105.08C182.061 105.2 182.121 105.36 182.121 105.56V121.31C182.121 121.51 182.061 121.68 181.941 121.82C181.821 121.94 181.651 122 181.431 122H180.021ZM187.434 122C187.234 122 187.064 121.94 186.924 121.82C186.804 121.68 186.744 121.51 186.744 121.31V105.56C186.744 105.36 186.804 105.2 186.924 105.08C187.064 104.94 187.234 104.87 187.434 104.87H188.844C189.064 104.87 189.234 104.94 189.354 105.08C189.474 105.2 189.534 105.36 189.534 105.56V121.31C189.534 121.51 189.474 121.68 189.354 121.82C189.234 121.94 189.064 122 188.844 122H187.434ZM194.636 115.04C194.436 115.04 194.266 114.98 194.126 114.86C194.006 114.72 193.946 114.55 193.946 114.35V105.56C193.946 105.36 194.006 105.2 194.126 105.08C194.266 104.94 194.436 104.87 194.636 104.87H196.046C196.266 104.87 196.436 104.94 196.556 105.08C196.676 105.2 196.736 105.36 196.736 105.56V114.35C196.736 114.55 196.676 114.72 196.556 114.86C196.436 114.98 196.266 115.04 196.046 115.04H194.636ZM201.877 122C201.677 122 201.507 121.94 201.367 121.82C201.247 121.68 201.187 121.51 201.187 121.31V120.23C201.187 120.03 201.247 119.87 201.367 119.75C201.507 119.61 201.677 119.54 201.877 119.54H206.167C207.947 119.54 209.227 119.1 210.007 118.22C210.787 117.32 211.217 116.07 211.297 114.47C211.317 114.03 211.327 113.68 211.327 113.42C211.327 113.16 211.317 112.82 211.297 112.4C211.237 110.8 210.807 109.56 210.007 108.68C209.227 107.78 207.947 107.33 206.167 107.33H201.877C201.677 107.33 201.507 107.27 201.367 107.15C201.247 107.01 201.187 106.84 201.187 106.64V105.56C201.187 105.36 201.247 105.2 201.367 105.08C201.507 104.94 201.677 104.87 201.877 104.87H206.317C208.077 104.87 209.507 105.17 210.607 105.77C211.707 106.35 212.527 107.2 213.067 108.32C213.627 109.42 213.927 110.75 213.967 112.31C213.987 112.71 213.997 113.08 213.997 113.42C213.997 113.76 213.987 114.14 213.967 114.56C213.927 116.1 213.627 117.43 213.067 118.55C212.527 119.67 211.707 120.53 210.607 121.13C209.507 121.71 208.077 122 206.317 122H201.877ZM221.225 122.27C221.045 122.33 220.875 122.3 220.715 122.18C220.555 122.08 220.475 121.93 220.475 121.73V120.35C220.475 120.17 220.525 120.01 220.625 119.87C220.745 119.73 220.915 119.62 221.135 119.54L222.305 119.09C223.085 118.77 223.795 118.37 224.435 117.89C225.095 117.39 225.605 116.72 225.965 115.88C226.345 115.04 226.535 113.94 226.535 112.58C226.535 111.28 226.375 110.25 226.055 109.49C225.755 108.71 225.235 108.16 224.495 107.84C223.775 107.5 222.785 107.33 221.525 107.33H220.625C220.425 107.33 220.255 107.27 220.115 107.15C219.995 107.01 219.935 106.84 219.935 106.64V105.56C219.935 105.36 219.995 105.2 220.115 105.08C220.255 104.94 220.425 104.87 220.625 104.87H221.945C223.765 104.87 225.215 105.13 226.295 105.65C227.375 106.17 228.145 107.01 228.605 108.17C229.085 109.31 229.325 110.81 229.325 112.67C229.325 114.07 229.135 115.28 228.755 116.3C228.375 117.32 227.855 118.19 227.195 118.91C226.555 119.63 225.825 120.23 225.005 120.71C224.185 121.17 223.335 121.55 222.455 121.85L221.225 122.27ZM221.285 107.33L217.715 107.3C217.515 107.3 217.345 107.24 217.205 107.12C217.085 107 217.025 106.84 217.025 106.64V101.39C217.025 101.19 217.085 101.03 217.205 100.91C217.345 100.77 217.515 100.7 217.715 100.7H218.975C219.175 100.7 219.335 100.77 219.455 100.91C219.595 101.03 219.665 101.19 219.665 101.39V104.87H221.345L221.285 107.33ZM240.591 122C240.391 122 240.221 121.94 240.081 121.82C239.961 121.68 239.901 121.51 239.901 121.31V120.29C239.901 120.09 239.961 119.93 240.081 119.81C240.221 119.67 240.391 119.6 240.591 119.6H249.201V112.34C249.201 110.74 248.801 109.5 248.001 108.62C247.201 107.72 245.911 107.27 244.131 107.27H240.891C240.691 107.27 240.521 107.21 240.381 107.09C240.261 106.95 240.201 106.78 240.201 106.58V105.56C240.201 105.36 240.261 105.2 240.381 105.08C240.521 104.94 240.691 104.87 240.891 104.87H244.281C246.001 104.87 247.431 105.15 248.571 105.71C249.711 106.27 250.561 107.1 251.121 108.2C251.701 109.28 251.991 110.63 251.991 112.25V119.6H253.101C253.301 119.6 253.461 119.67 253.581 119.81C253.721 119.93 253.791 120.09 253.791 120.29V121.31C253.791 121.51 253.721 121.68 253.581 121.82C253.461 121.94 253.301 122 253.101 122H240.591ZM257.658 122C257.458 122 257.288 121.94 257.148 121.82C257.028 121.68 256.968 121.51 256.968 121.31V105.56C256.968 105.36 257.028 105.2 257.148 105.08C257.288 104.94 257.458 104.87 257.658 104.87H259.068C259.288 104.87 259.458 104.94 259.578 105.08C259.698 105.2 259.758 105.36 259.758 105.56V121.31C259.758 121.51 259.698 121.68 259.578 121.82C259.458 121.94 259.288 122 259.068 122H257.658ZM264.44 122C264.24 122 264.07 121.94 263.93 121.82C263.81 121.68 263.75 121.51 263.75 121.31V120.26C263.75 120.06 263.81 119.9 263.93 119.78C264.07 119.64 264.24 119.57 264.44 119.57H272.57L263.18 106.04C263.12 105.92 263.07 105.82 263.03 105.74C262.99 105.64 262.97 105.55 262.97 105.47C262.97 105.31 263.03 105.17 263.15 105.05C263.29 104.93 263.44 104.87 263.6 104.87H265.04C265.24 104.87 265.4 104.93 265.52 105.05C265.66 105.15 265.77 105.26 265.85 105.38L275.63 119.39C275.73 119.53 275.81 119.68 275.87 119.84C275.95 119.98 275.99 120.14 275.99 120.32V121.31C275.99 121.51 275.92 121.68 275.78 121.82C275.66 121.94 275.5 122 275.3 122H264.44ZM272.03 115.16L270.71 113.21C271.75 112.83 272.5 112.21 272.96 111.35C273.44 110.47 273.68 109.4 273.68 108.14V105.56C273.68 105.36 273.74 105.2 273.86 105.08C274 104.94 274.17 104.87 274.37 104.87H275.6C275.82 104.87 275.99 104.94 276.11 105.08C276.23 105.2 276.29 105.36 276.29 105.56V108.5C276.29 110.12 275.93 111.5 275.21 112.64C274.49 113.78 273.43 114.62 272.03 115.16ZM280.856 115.04C280.656 115.04 280.486 114.98 280.346 114.86C280.226 114.72 280.166 114.55 280.166 114.35V105.56C280.166 105.36 280.226 105.2 280.346 105.08C280.486 104.94 280.656 104.87 280.856 104.87H282.266C282.486 104.87 282.656 104.94 282.776 105.08C282.896 105.2 282.956 105.36 282.956 105.56V114.35C282.956 114.55 282.896 114.72 282.776 114.86C282.656 114.98 282.486 115.04 282.266 115.04H280.856ZM287.888 115.04C287.688 115.04 287.518 114.98 287.378 114.86C287.258 114.72 287.198 114.55 287.198 114.35V105.56C287.198 105.36 287.258 105.2 287.378 105.08C287.518 104.94 287.688 104.87 287.888 104.87H289.298C289.518 104.87 289.688 104.94 289.808 105.08C289.928 105.2 289.988 105.36 289.988 105.56V114.35C289.988 114.55 289.928 114.72 289.808 114.86C289.688 114.98 289.518 115.04 289.298 115.04H287.888ZM306.529 122C306.329 122 306.159 121.94 306.019 121.82C305.899 121.68 305.839 121.51 305.839 121.31V112.34C305.839 110.74 305.439 109.5 304.639 108.62C303.839 107.72 302.549 107.27 300.769 107.27H295.129C294.929 107.27 294.759 107.21 294.619 107.09C294.499 106.95 294.439 106.78 294.439 106.58V105.56C294.439 105.36 294.499 105.2 294.619 105.08C294.759 104.94 294.929 104.87 295.129 104.87H300.919C303.519 104.87 305.439 105.5 306.679 106.76C307.939 108.02 308.569 109.85 308.569 112.25V121.31C308.569 121.51 308.499 121.68 308.359 121.82C308.239 121.94 308.079 122 307.879 122H306.529ZM295.129 122C294.929 122 294.759 121.94 294.619 121.82C294.499 121.68 294.439 121.51 294.439 121.31V111.29C294.439 111.09 294.499 110.93 294.619 110.81C294.759 110.67 294.929 110.6 295.129 110.6H296.479C296.699 110.6 296.869 110.67 296.989 110.81C297.109 110.93 297.169 111.09 297.169 111.29V121.31C297.169 121.51 297.109 121.68 296.989 121.82C296.869 121.94 296.699 122 296.479 122H295.129Z" fill="black"/>
<defs>
<filter id="filter0_d_106_211" x="0" y="0" width="378" height="148" filterUnits="userSpaceOnUse" color-interpolation-filters="sRGB">
<feFlood flood-opacity="0" result="BackgroundImageFix"/>
<feColorMatrix in="SourceAlpha" type="matrix" values="0 0 0 0 0 0 0 0 0 0 0 0 0 0 0 0 0 0 127 0" result="hardAlpha"/>
<feOffset dx="4" dy="4"/>
<feGaussianBlur stdDeviation="2"/>
<feComposite in2="hardAlpha" operator="out"/>
<feColorMatrix type="matrix" values="0 0 0 0 0 0 0 0 0 0 0 0 0 0 0 0 0 0 0.25 0"/>
<feBlend mode="normal" in2="BackgroundImageFix" result="effect1_dropShadow_106_211"/>
<feBlend mode="normal" in="SourceGraphic" in2="effect1_dropShadow_106_211" result="shape"/>
</filter>
</defs>
</svg>
