<svg width="378" height="148" viewBox="0 0 378 148" fill="none" xmlns="http://www.w3.org/2000/svg">
<g filter="url(#filter0_d_106_209)">
<rect width="370" height="140" rx="20" fill="#FDF4D4"/>
</g>
<path d="M56.8398 42.27C56.6598 42.33 56.4898 42.3 56.3298 42.18C56.1698 42.08 56.0898 41.93 56.0898 41.73V40.35C56.0898 40.17 56.1398 40.01 56.2398 39.87C56.3598 39.73 56.5298 39.62 56.7498 39.54L57.9198 39.09C58.6998 38.77 59.4098 38.37 60.0498 37.89C60.7098 37.39 61.2198 36.72 61.5798 35.88C61.9598 35.04 62.1498 33.94 62.1498 32.58C62.1498 31.28 61.9898 30.25 61.6698 29.49C61.3698 28.71 60.8498 28.16 60.1098 27.84C59.3898 27.5 58.3998 27.33 57.1398 27.33H56.2398C56.0398 27.33 55.8698 27.27 55.7298 27.15C55.6098 27.01 55.5498 26.84 55.5498 26.64V25.56C55.5498 25.36 55.6098 25.2 55.7298 25.08C55.8698 24.94 56.0398 24.87 56.2398 24.87H57.5598C59.3798 24.87 60.8298 25.13 61.9098 25.65C62.9898 26.17 63.7598 27.01 64.2198 28.17C64.6998 29.31 64.9398 30.81 64.9398 32.67C64.9398 34.07 64.7498 35.28 64.3698 36.3C63.9898 37.32 63.4698 38.19 62.8098 38.91C62.1698 39.63 61.4398 40.23 60.6198 40.71C59.7998 41.17 58.9498 41.55 58.0698 41.85L56.8398 42.27ZM56.8998 27.33L53.3298 27.3C53.1298 27.3 52.9598 27.24 52.8198 27.12C52.6998 27 52.6398 26.84 52.6398 26.64V21.39C52.6398 21.19 52.6998 21.03 52.8198 20.91C52.9598 20.77 53.1298 20.7 53.3298 20.7H54.5898C54.7898 20.7 54.9498 20.77 55.0698 20.91C55.2098 21.03 55.2798 21.19 55.2798 21.39V24.87H56.9598L56.8998 27.33ZM68.703 43.65C68.503 43.73 68.313 43.71 68.133 43.59C67.953 43.49 67.863 43.34 67.863 43.14V42.12C67.863 41.94 67.903 41.77 67.983 41.61C68.063 41.45 68.193 41.35 68.373 41.31L74.703 39.21C75.843 38.83 76.723 38.34 77.343 37.74C77.963 37.14 78.393 36.44 78.633 35.64C78.893 34.84 79.023 33.97 79.023 33.03V25.56C79.023 25.36 79.083 25.2 79.203 25.08C79.343 24.94 79.513 24.87 79.713 24.87H81.063C81.263 24.87 81.423 24.94 81.543 25.08C81.683 25.2 81.753 25.36 81.753 25.56V33.87C81.753 35.03 81.483 36.13 80.943 37.17C80.423 38.19 79.683 39.09 78.723 39.87C77.763 40.63 76.623 41.21 75.303 41.61L68.703 43.65ZM72.633 41.28L68.403 26.07C68.363 25.91 68.323 25.79 68.283 25.71C68.263 25.63 68.253 25.55 68.253 25.47C68.253 25.31 68.313 25.17 68.433 25.05C68.553 24.93 68.693 24.87 68.853 24.87H70.323C70.703 24.87 70.933 25.02 71.013 25.32L75.183 40.59L72.633 41.28ZM105.64 42C105.44 42 105.27 41.94 105.13 41.82C105.01 41.68 104.95 41.51 104.95 41.31V32.34C104.95 30.74 104.55 29.5 103.75 28.62C102.95 27.72 101.66 27.27 99.8802 27.27H94.2402C94.0402 27.27 93.8702 27.21 93.7302 27.09C93.6102 26.95 93.5502 26.78 93.5502 26.58V25.56C93.5502 25.36 93.6102 25.2 93.7302 25.08C93.8702 24.94 94.0402 24.87 94.2402 24.87H100.03C102.63 24.87 104.55 25.5 105.79 26.76C107.05 28.02 107.68 29.85 107.68 32.25V41.31C107.68 41.51 107.61 41.68 107.47 41.82C107.35 41.94 107.19 42 106.99 42H105.64ZM94.2402 42C94.0402 42 93.8702 41.94 93.7302 41.82C93.6102 41.68 93.5502 41.51 93.5502 41.31V31.29C93.5502 31.09 93.6102 30.93 93.7302 30.81C93.8702 30.67 94.0402 30.6 94.2402 30.6H95.5902C95.8102 30.6 95.9802 30.67 96.1002 30.81C96.2202 30.93 96.2802 31.09 96.2802 31.29V41.31C96.2802 41.51 96.2202 41.68 96.1002 41.82C95.9802 41.94 95.8102 42 95.5902 42H94.2402ZM112.814 42C112.614 42 112.444 41.94 112.304 41.82C112.184 41.68 112.124 41.51 112.124 41.31V40.23C112.124 40.03 112.184 39.87 112.304 39.75C112.444 39.61 112.614 39.54 112.814 39.54H117.104C118.884 39.54 120.164 39.1 120.944 38.22C121.724 37.32 122.154 36.07 122.234 34.47C122.254 34.03 122.264 33.68 122.264 33.42C122.264 33.16 122.254 32.82 122.234 32.4C122.174 30.8 121.744 29.56 120.944 28.68C120.164 27.78 118.884 27.33 117.104 27.33H112.814C112.614 27.33 112.444 27.27 112.304 27.15C112.184 27.01 112.124 26.84 112.124 26.64V25.56C112.124 25.36 112.184 25.2 112.304 25.08C112.444 24.94 112.614 24.87 112.814 24.87H117.254C119.014 24.87 120.444 25.17 121.544 25.77C122.644 26.35 123.464 27.2 124.004 28.32C124.564 29.42 124.864 30.75 124.904 32.31C124.924 32.71 124.934 33.08 124.934 33.42C124.934 33.76 124.924 34.14 124.904 34.56C124.864 36.1 124.564 37.43 124.004 38.55C123.464 39.67 122.644 40.53 121.544 41.13C120.444 41.71 119.014 42 117.254 42H112.814ZM138.104 42C137.904 42 137.734 41.94 137.594 41.82C137.474 41.68 137.414 41.51 137.414 41.31V32.34C137.414 30.74 137.014 29.5 136.214 28.62C135.414 27.72 134.124 27.27 132.344 27.27H128.414C128.214 27.27 128.044 27.21 127.904 27.09C127.784 26.95 127.724 26.78 127.724 26.58V25.56C127.724 25.36 127.784 25.2 127.904 25.08C128.044 24.94 128.214 24.87 128.414 24.87H132.494C134.214 24.87 135.634 25.14 136.754 25.68C137.894 26.22 138.744 27.04 139.304 28.14C139.864 29.22 140.144 30.57 140.144 32.19V41.31C140.144 41.51 140.074 41.68 139.934 41.82C139.814 41.94 139.654 42 139.454 42H138.104ZM144.435 43.65C144.235 43.73 144.045 43.71 143.865 43.59C143.685 43.49 143.595 43.34 143.595 43.14V42.12C143.595 41.94 143.635 41.77 143.715 41.61C143.795 41.45 143.925 41.35 144.105 41.31L150.435 39.21C151.575 38.83 152.455 38.34 153.075 37.74C153.695 37.14 154.125 36.44 154.365 35.64C154.625 34.84 154.755 33.97 154.755 33.03V25.56C154.755 25.36 154.815 25.2 154.935 25.08C155.075 24.94 155.245 24.87 155.445 24.87H156.795C156.995 24.87 157.155 24.94 157.275 25.08C157.415 25.2 157.485 25.36 157.485 25.56V33.87C157.485 35.03 157.215 36.13 156.675 37.17C156.155 38.19 155.415 39.09 154.455 39.87C153.495 40.63 152.355 41.21 151.035 41.61L144.435 43.65ZM148.365 41.28L144.135 26.07C144.095 25.91 144.055 25.79 144.015 25.71C143.995 25.63 143.985 25.55 143.985 25.47C143.985 25.31 144.045 25.17 144.165 25.05C144.285 24.93 144.425 24.87 144.585 24.87H146.055C146.435 24.87 146.665 25.02 146.745 25.32L150.915 40.59L148.365 41.28ZM174.019 42C173.819 42 173.649 41.94 173.509 41.82C173.389 41.68 173.329 41.51 173.329 41.31V32.34C173.329 30.74 172.929 29.5 172.129 28.62C171.329 27.72 170.039 27.27 168.259 27.27H162.619C162.419 27.27 162.249 27.21 162.109 27.09C161.989 26.95 161.929 26.78 161.929 26.58V25.56C161.929 25.36 161.989 25.2 162.109 25.08C162.249 24.94 162.419 24.87 162.619 24.87H168.409C171.009 24.87 172.929 25.5 174.169 26.76C175.429 28.02 176.059 29.85 176.059 32.25V41.31C176.059 41.51 175.989 41.68 175.849 41.82C175.729 41.94 175.569 42 175.369 42H174.019ZM162.619 42C162.419 42 162.249 41.94 162.109 41.82C161.989 41.68 161.929 41.51 161.929 41.31V31.29C161.929 31.09 161.989 30.93 162.109 30.81C162.249 30.67 162.419 30.6 162.619 30.6H163.969C164.189 30.6 164.359 30.67 164.479 30.81C164.599 30.93 164.659 31.09 164.659 31.29V41.31C164.659 41.51 164.599 41.68 164.479 41.82C164.359 41.94 164.189 42 163.969 42H162.619ZM189.057 27.27C188.857 27.27 188.687 27.21 188.547 27.09C188.427 26.95 188.367 26.78 188.367 26.58V25.56C188.367 25.36 188.427 25.2 188.547 25.08C188.687 24.94 188.857 24.87 189.057 24.87H195.567C197.287 24.87 198.707 25.15 199.827 25.71C200.967 26.25 201.817 27.07 202.377 28.17C202.937 29.25 203.217 30.59 203.217 32.19V41.31C203.217 41.51 203.147 41.68 203.007 41.82C202.887 41.94 202.727 42 202.527 42H201.177C200.957 42 200.787 41.94 200.667 41.82C200.547 41.68 200.487 41.51 200.487 41.31V32.34C200.487 30.74 200.077 29.5 199.257 28.62C198.457 27.72 197.167 27.27 195.387 27.27H189.057ZM191.757 25.8H192.507C192.807 25.8 193.027 25.88 193.167 26.04C193.327 26.18 193.397 26.36 193.377 26.58C193.217 27.42 193.077 28.18 192.957 28.86C192.857 29.54 192.787 30.22 192.747 30.9C192.707 31.56 192.687 32.31 192.687 33.15L192.747 41.31C192.747 41.51 192.687 41.68 192.567 41.82C192.447 41.94 192.287 42 192.087 42L187.827 41.94C187.627 41.94 187.457 41.88 187.317 41.76C187.197 41.64 187.137 41.47 187.137 41.25V40.29C187.137 40.09 187.197 39.93 187.317 39.81C187.457 39.67 187.627 39.6 187.827 39.6L190.137 39.63V33.27C190.137 32.45 190.147 31.7 190.167 31.02C190.187 30.32 190.247 29.62 190.347 28.92C190.447 28.22 190.607 27.43 190.827 26.55C190.887 26.33 190.977 26.15 191.097 26.01C191.237 25.87 191.457 25.8 191.757 25.8ZM219.332 42C219.112 42 218.942 41.94 218.822 41.82C218.702 41.7 218.592 41.6 218.492 41.52L207.482 26.04C207.342 25.82 207.272 25.63 207.272 25.47C207.272 25.31 207.332 25.17 207.452 25.05C207.592 24.93 207.742 24.87 207.902 24.87H209.282C209.522 24.87 209.702 24.93 209.822 25.05C209.962 25.17 210.072 25.28 210.152 25.38L221.192 40.83C221.272 40.97 221.322 41.08 221.342 41.16C221.382 41.24 221.402 41.32 221.402 41.4C221.402 41.56 221.342 41.7 221.222 41.82C221.102 41.94 220.952 42 220.772 42H219.332ZM207.632 42C207.432 42 207.262 41.94 207.122 41.82C207.002 41.68 206.942 41.51 206.942 41.31V36.81C206.942 35.89 207.032 35.02 207.212 34.2C207.392 33.36 207.742 32.57 208.262 31.83C208.802 31.07 209.602 30.36 210.662 29.7L212.042 31.71C211.322 32.17 210.782 32.7 210.422 33.3C210.062 33.88 209.822 34.49 209.702 35.13C209.582 35.75 209.522 36.35 209.522 36.93V41.31C209.522 41.51 209.452 41.68 209.312 41.82C209.192 41.94 209.032 42 208.832 42H207.632ZM216.932 36.51L215.702 34.44C216.682 33.98 217.372 33.5 217.772 33C218.192 32.5 218.442 31.98 218.522 31.44C218.602 30.88 218.642 30.3 218.642 29.7V25.56C218.642 25.36 218.702 25.2 218.822 25.08C218.962 24.94 219.132 24.87 219.332 24.87H220.592C220.792 24.87 220.952 24.94 221.072 25.08C221.212 25.2 221.282 25.36 221.282 25.56V29.85C221.282 30.69 221.182 31.5 220.982 32.28C220.782 33.06 220.372 33.8 219.752 34.5C219.152 35.2 218.212 35.87 216.932 36.51ZM233.342 42C233.142 42 232.972 41.94 232.832 41.82C232.712 41.68 232.652 41.51 232.652 41.31V25.56C232.652 25.36 232.712 25.2 232.832 25.08C232.972 24.94 233.142 24.87 233.342 24.87H239.072C240.792 24.87 242.212 25.15 243.332 25.71C244.452 26.25 245.282 27.06 245.822 28.14C246.382 29.22 246.662 30.57 246.662 32.19V41.31C246.662 41.51 246.602 41.68 246.482 41.82C246.362 41.94 246.192 42 245.972 42H233.342ZM235.232 39.6H243.992V32.34C243.992 30.74 243.592 29.5 242.792 28.62C241.992 27.72 240.702 27.27 238.922 27.27H235.232V39.6ZM251.799 47.73C251.599 47.73 251.429 47.66 251.289 47.52C251.169 47.4 251.109 47.24 251.109 47.04V31.29C251.109 31.09 251.169 30.93 251.289 30.81C251.429 30.67 251.599 30.6 251.799 30.6H253.119C253.339 30.6 253.509 30.67 253.629 30.81C253.749 30.93 253.809 31.09 253.809 31.29V47.04C253.809 47.24 253.749 47.4 253.629 47.52C253.509 47.66 253.339 47.73 253.119 47.73H251.799ZM257.559 42.27C257.379 42.33 257.209 42.3 257.049 42.18C256.909 42.08 256.839 41.93 256.839 41.73V40.35C256.839 40.17 256.889 40.01 256.989 39.87C257.109 39.73 257.279 39.62 257.499 39.54L258.639 39.09C259.439 38.77 260.159 38.37 260.799 37.89C261.459 37.39 261.969 36.72 262.329 35.88C262.709 35.04 262.899 33.94 262.899 32.58C262.899 31.28 262.739 30.25 262.419 29.49C262.099 28.71 261.569 28.16 260.829 27.84C260.109 27.5 259.129 27.33 257.889 27.33H251.799C251.599 27.33 251.429 27.27 251.289 27.15C251.169 27.01 251.109 26.84 251.109 26.64V25.56C251.109 25.36 251.169 25.2 251.289 25.08C251.429 24.94 251.599 24.87 251.799 24.87H258.279C260.119 24.87 261.569 25.13 262.629 25.65C263.709 26.17 264.479 27.01 264.939 28.17C265.419 29.31 265.659 30.81 265.659 32.67C265.659 34.07 265.469 35.28 265.089 36.3C264.709 37.32 264.189 38.19 263.529 38.91C262.889 39.63 262.159 40.23 261.339 40.71C260.539 41.17 259.699 41.55 258.819 41.85L257.559 42.27ZM277.388 27.33H270.098C269.878 27.33 269.708 27.27 269.588 27.15C269.468 27.01 269.408 26.84 269.408 26.64V25.56C269.408 25.36 269.468 25.2 269.588 25.08C269.708 24.94 269.878 24.87 270.098 24.87H277.718C278.958 24.87 280.058 25.16 281.018 25.74C281.998 26.32 282.758 27.16 283.298 28.26C283.858 29.34 284.138 30.65 284.138 32.19V41.31C284.138 41.51 284.068 41.68 283.928 41.82C283.808 41.94 283.648 42 283.448 42H275.708C275.508 42 275.338 41.94 275.198 41.82C275.078 41.68 275.018 41.51 275.018 41.31V40.29C275.018 40.09 275.078 39.93 275.198 39.81C275.338 39.67 275.508 39.6 275.708 39.6H281.408V32.37C281.408 31.35 281.228 30.46 280.868 29.7C280.528 28.94 280.048 28.36 279.428 27.96C278.828 27.54 278.148 27.33 277.388 27.33ZM269.798 42C269.618 42 269.468 41.93 269.348 41.79C269.228 41.65 269.178 41.48 269.198 41.28L271.748 26.58C271.788 26.38 271.878 26.23 272.018 26.13C272.158 26.01 272.328 25.97 272.528 26.01L273.728 26.07C273.928 26.09 274.088 26.18 274.208 26.34C274.328 26.48 274.358 26.65 274.298 26.85L271.928 41.28C271.908 41.48 271.818 41.65 271.658 41.79C271.518 41.93 271.348 42 271.148 42H269.798ZM288.31 42C288.11 42 287.94 41.94 287.8 41.82C287.68 41.68 287.62 41.51 287.62 41.31V40.29C287.62 40.09 287.68 39.93 287.8 39.81C287.94 39.67 288.11 39.6 288.31 39.6H296.77V41.43C296.77 41.63 296.7 41.78 296.56 41.88C296.44 41.96 296.28 42 296.08 42H288.31ZM294.94 42C294.74 42 294.58 41.94 294.46 41.82C294.36 41.68 294.29 41.51 294.25 41.31L293.68 32.04C293.64 31.06 293.56 30.21 293.44 29.49C293.34 28.77 293.1 28.21 292.72 27.81C292.36 27.41 291.75 27.21 290.89 27.21H289.66C289.46 27.21 289.29 27.15 289.15 27.03C289.03 26.89 288.97 26.72 288.97 26.52V25.5C288.97 25.3 289.03 25.14 289.15 25.02C289.29 24.88 289.46 24.81 289.66 24.81H290.92C292.06 24.81 292.98 24.98 293.68 25.32C294.38 25.64 294.92 26.12 295.3 26.76C295.68 27.4 295.96 28.16 296.14 29.04C296.32 29.9 296.44 30.87 296.5 31.95L297.04 41.31C297.08 41.51 297.03 41.68 296.89 41.82C296.75 41.94 296.58 42 296.38 42H294.94ZM321.003 35.94C320.423 35.94 319.883 35.8 319.383 35.52C318.883 35.22 318.483 34.83 318.183 34.35C317.903 33.85 317.763 33.31 317.763 32.73C317.763 32.13 317.903 31.59 318.183 31.11C318.483 30.61 318.883 30.22 319.383 29.94C319.883 29.64 320.423 29.49 321.003 29.49C321.603 29.49 322.143 29.64 322.623 29.94C323.103 30.22 323.483 30.61 323.763 31.11C324.063 31.59 324.213 32.13 324.213 32.73C324.213 33.31 324.063 33.85 323.763 34.35C323.483 34.83 323.103 35.22 322.623 35.52C322.143 35.8 321.603 35.94 321.003 35.94ZM71.2539 82.27C71.0739 82.33 70.9039 82.3 70.7439 82.18C70.5839 82.08 70.5039 81.93 70.5039 81.73V80.35C70.5039 80.17 70.5539 80.01 70.6539 79.87C70.7739 79.73 70.9439 79.62 71.1639 79.54L72.3339 79.09C73.1139 78.77 73.8239 78.37 74.4639 77.89C75.1239 77.39 75.6339 76.72 75.9939 75.88C76.3739 75.04 76.5639 73.94 76.5639 72.58C76.5639 71.28 76.4039 70.25 76.0839 69.49C75.7839 68.71 75.2639 68.16 74.5239 67.84C73.8039 67.5 72.8139 67.33 71.5539 67.33H70.6539C70.4539 67.33 70.2839 67.27 70.1439 67.15C70.0239 67.01 69.9639 66.84 69.9639 66.64V65.56C69.9639 65.36 70.0239 65.2 70.1439 65.08C70.2839 64.94 70.4539 64.87 70.6539 64.87H71.9739C73.7939 64.87 75.2439 65.13 76.3239 65.65C77.4039 66.17 78.1739 67.01 78.6339 68.17C79.1139 69.31 79.3539 70.81 79.3539 72.67C79.3539 74.07 79.1639 75.28 78.7839 76.3C78.4039 77.32 77.8839 78.19 77.2239 78.91C76.5839 79.63 75.8539 80.23 75.0339 80.71C74.2139 81.17 73.3639 81.55 72.4839 81.85L71.2539 82.27ZM71.3139 67.33L67.7439 67.3C67.5439 67.3 67.3739 67.24 67.2339 67.12C67.1139 67 67.0539 66.84 67.0539 66.64V61.39C67.0539 61.19 67.1139 61.03 67.2339 60.91C67.3739 60.77 67.5439 60.7 67.7439 60.7H69.0039C69.2039 60.7 69.3639 60.77 69.4839 60.91C69.6239 61.03 69.6939 61.19 69.6939 61.39V64.87H71.3739L71.3139 67.33ZM83.9863 82C83.7863 82 83.6163 81.94 83.4763 81.82C83.3563 81.68 83.2963 81.51 83.2963 81.31V80.23C83.2963 80.03 83.3563 79.87 83.4763 79.75C83.6163 79.61 83.7863 79.54 83.9863 79.54H88.2763C90.0563 79.54 91.3363 79.1 92.1163 78.22C92.8963 77.32 93.3263 76.07 93.4063 74.47C93.4263 74.03 93.4363 73.68 93.4363 73.42C93.4363 73.16 93.4263 72.82 93.4063 72.4C93.3463 70.8 92.9163 69.56 92.1163 68.68C91.3363 67.78 90.0563 67.33 88.2763 67.33H83.9863C83.7863 67.33 83.6163 67.27 83.4763 67.15C83.3563 67.01 83.2963 66.84 83.2963 66.64V65.56C83.2963 65.36 83.3563 65.2 83.4763 65.08C83.6163 64.94 83.7863 64.87 83.9863 64.87H88.4263C90.1863 64.87 91.6163 65.17 92.7163 65.77C93.8163 66.35 94.6363 67.2 95.1763 68.32C95.7363 69.42 96.0363 70.75 96.0763 72.31C96.0963 72.71 96.1063 73.08 96.1063 73.42C96.1063 73.76 96.0963 74.14 96.0763 74.56C96.0363 76.1 95.7363 77.43 95.1763 78.55C94.6363 79.67 93.8163 80.53 92.7163 81.13C91.6163 81.71 90.1863 82 88.4263 82H83.9863ZM100.334 82C100.134 82 99.964 81.94 99.824 81.82C99.704 81.68 99.644 81.51 99.644 81.31V80.23C99.644 80.03 99.704 79.87 99.824 79.75C99.964 79.61 100.134 79.54 100.334 79.54H104.624C106.404 79.54 107.684 79.1 108.464 78.22C109.244 77.32 109.674 76.07 109.754 74.47C109.774 74.03 109.784 73.68 109.784 73.42C109.784 73.16 109.774 72.82 109.754 72.4C109.694 70.8 109.264 69.56 108.464 68.68C107.684 67.78 106.404 67.33 104.624 67.33H100.334C100.134 67.33 99.964 67.27 99.824 67.15C99.704 67.01 99.644 66.84 99.644 66.64V65.56C99.644 65.36 99.704 65.2 99.824 65.08C99.964 64.94 100.134 64.87 100.334 64.87H104.774C106.534 64.87 107.964 65.17 109.064 65.77C110.164 66.35 110.984 67.2 111.524 68.32C112.084 69.42 112.384 70.75 112.424 72.31C112.444 72.71 112.454 73.08 112.454 73.42C112.454 73.76 112.444 74.14 112.424 74.56C112.384 76.1 112.084 77.43 111.524 78.55C110.984 79.67 110.164 80.53 109.064 81.13C107.964 81.71 106.534 82 104.774 82H100.334ZM124.206 75.04C124.006 75.04 123.836 74.98 123.696 74.86C123.576 74.72 123.516 74.55 123.516 74.35V65.56C123.516 65.36 123.576 65.2 123.696 65.08C123.836 64.94 124.006 64.87 124.206 64.87H125.616C125.836 64.87 126.006 64.94 126.126 65.08C126.246 65.2 126.306 65.36 126.306 65.56V74.35C126.306 74.55 126.246 74.72 126.126 74.86C126.006 74.98 125.836 75.04 125.616 75.04H124.206ZM140.447 82C140.247 82 140.077 81.94 139.937 81.82C139.817 81.68 139.757 81.51 139.757 81.31V72.34C139.757 70.74 139.357 69.5 138.557 68.62C137.757 67.72 136.467 67.27 134.687 67.27H130.757C130.557 67.27 130.387 67.21 130.247 67.09C130.127 66.95 130.067 66.78 130.067 66.58V65.56C130.067 65.36 130.127 65.2 130.247 65.08C130.387 64.94 130.557 64.87 130.757 64.87H134.837C136.557 64.87 137.977 65.14 139.097 65.68C140.237 66.22 141.087 67.04 141.647 68.14C142.207 69.22 142.487 70.57 142.487 72.19V81.31C142.487 81.51 142.417 81.68 142.277 81.82C142.157 81.94 141.997 82 141.797 82H140.447ZM147.619 82C147.419 82 147.249 81.94 147.109 81.82C146.989 81.68 146.929 81.51 146.929 81.31V65.56C146.929 65.36 146.989 65.2 147.109 65.08C147.249 64.94 147.419 64.87 147.619 64.87H149.029C149.249 64.87 149.419 64.94 149.539 65.08C149.659 65.2 149.719 65.36 149.719 65.56V81.31C149.719 81.51 149.659 81.68 149.539 81.82C149.419 81.94 149.249 82 149.029 82H147.619ZM162.861 79.75C164.161 79.77 165.251 79.53 166.131 79.03C167.031 78.53 167.711 77.82 168.171 76.9C168.651 75.96 168.891 74.89 168.891 73.69V65.56C168.891 65.36 168.951 65.2 169.071 65.08C169.211 64.94 169.381 64.87 169.581 64.87H170.811C171.031 64.87 171.201 64.94 171.321 65.08C171.441 65.2 171.501 65.36 171.501 65.56V73.9C171.501 75.18 171.301 76.34 170.901 77.38C170.501 78.4 169.931 79.28 169.191 80.02C168.451 80.74 167.571 81.29 166.551 81.67C165.551 82.05 164.441 82.22 163.221 82.18H160.971C159.671 82.18 158.501 81.88 157.461 81.28C156.421 80.68 155.601 79.84 155.001 78.76C154.401 77.68 154.101 76.43 154.101 75.01V65.56C154.101 65.36 154.161 65.2 154.281 65.08C154.421 64.94 154.591 64.87 154.791 64.87H156.051C156.251 64.87 156.411 64.94 156.531 65.08C156.671 65.2 156.741 65.36 156.741 65.56L156.831 74.41C156.831 76.13 157.311 77.45 158.271 78.37C159.231 79.29 160.451 79.75 161.931 79.75H162.861ZM156.201 76.24L156.141 74.05C157.621 74.03 158.751 73.81 159.531 73.39C160.311 72.95 160.851 72.37 161.151 71.65C161.471 70.93 161.631 70.14 161.631 69.28V65.56C161.631 65.36 161.691 65.2 161.811 65.08C161.931 64.94 162.101 64.87 162.321 64.87H163.551C163.751 64.87 163.911 64.94 164.031 65.08C164.171 65.2 164.241 65.36 164.241 65.56V69.4C164.241 70.7 163.951 71.87 163.371 72.91C162.791 73.95 161.901 74.77 160.701 75.37C159.521 75.97 158.021 76.26 156.201 76.24ZM176.179 75.04C175.979 75.04 175.809 74.98 175.669 74.86C175.549 74.72 175.489 74.55 175.489 74.35V65.56C175.489 65.36 175.549 65.2 175.669 65.08C175.809 64.94 175.979 64.87 176.179 64.87H177.589C177.809 64.87 177.979 64.94 178.099 65.08C178.219 65.2 178.279 65.36 178.279 65.56V74.35C178.279 74.55 178.219 74.72 178.099 74.86C177.979 74.98 177.809 75.04 177.589 75.04H176.179ZM190.23 67.33H182.94C182.72 67.33 182.55 67.27 182.43 67.15C182.31 67.01 182.25 66.84 182.25 66.64V65.56C182.25 65.36 182.31 65.2 182.43 65.08C182.55 64.94 182.72 64.87 182.94 64.87H190.56C191.8 64.87 192.9 65.16 193.86 65.74C194.84 66.32 195.6 67.16 196.14 68.26C196.7 69.34 196.98 70.65 196.98 72.19V81.31C196.98 81.51 196.91 81.68 196.77 81.82C196.65 81.94 196.49 82 196.29 82H188.55C188.35 82 188.18 81.94 188.04 81.82C187.92 81.68 187.86 81.51 187.86 81.31V80.29C187.86 80.09 187.92 79.93 188.04 79.81C188.18 79.67 188.35 79.6 188.55 79.6H194.25V72.37C194.25 71.35 194.07 70.46 193.71 69.7C193.37 68.94 192.89 68.36 192.27 67.96C191.67 67.54 190.99 67.33 190.23 67.33ZM182.64 82C182.46 82 182.31 81.93 182.19 81.79C182.07 81.65 182.02 81.48 182.04 81.28L184.59 66.58C184.63 66.38 184.72 66.23 184.86 66.13C185 66.01 185.17 65.97 185.37 66.01L186.57 66.07C186.77 66.09 186.93 66.18 187.05 66.34C187.17 66.48 187.2 66.65 187.14 66.85L184.77 81.28C184.75 81.48 184.66 81.65 184.5 81.79C184.36 81.93 184.19 82 183.99 82H182.64ZM209.465 82C209.265 82 209.095 81.94 208.955 81.82C208.835 81.68 208.775 81.51 208.775 81.31V65.56C208.775 65.36 208.835 65.2 208.955 65.08C209.095 64.94 209.265 64.87 209.465 64.87H215.285C217.025 64.87 218.455 65.15 219.575 65.71C220.715 66.25 221.565 67.07 222.125 68.17C222.685 69.25 222.965 70.61 222.965 72.25V81.31C222.965 81.51 222.895 81.68 222.755 81.82C222.635 81.94 222.475 82 222.275 82H220.925C220.705 82 220.535 81.94 220.415 81.82C220.295 81.68 220.235 81.51 220.235 81.31V72.34C220.235 70.74 219.835 69.5 219.035 68.62C218.235 67.72 216.935 67.27 215.135 67.27H211.505V81.31C211.505 81.51 211.445 81.68 211.325 81.82C211.205 81.94 211.035 82 210.815 82H209.465ZM234.818 82.3C232.138 82.3 230.208 81.66 229.028 80.38C227.848 79.08 227.258 77.27 227.258 74.95V65.56C227.258 65.36 227.318 65.2 227.438 65.08C227.578 64.94 227.748 64.87 227.948 64.87H229.178C229.398 64.87 229.568 64.94 229.688 65.08C229.808 65.2 229.868 65.36 229.868 65.56V74.8C229.868 76.42 230.278 77.67 231.098 78.55C231.918 79.41 233.158 79.84 234.818 79.84C236.478 79.84 237.688 79.44 238.448 78.64C239.228 77.84 239.638 76.64 239.678 75.04C239.698 74.84 239.698 74.54 239.678 74.14C239.678 73.72 239.678 73.3 239.678 72.88C239.678 72.46 239.678 72.15 239.678 71.95C239.638 70.29 239.278 69.08 238.598 68.32C237.938 67.56 237.068 67.18 235.988 67.18C235.648 67.18 235.258 67.24 234.818 67.36C234.378 67.48 234.008 67.64 233.708 67.84C233.528 67.94 233.338 67.95 233.138 67.87C232.938 67.77 232.838 67.61 232.838 67.39V66.46C232.838 66.26 232.858 66.09 232.898 65.95C232.938 65.79 233.048 65.65 233.228 65.53C233.628 65.29 234.058 65.1 234.518 64.96C234.978 64.8 235.588 64.72 236.348 64.72C237.648 64.72 238.738 64.97 239.618 65.47C240.498 65.95 241.168 66.7 241.628 67.72C242.088 68.74 242.338 70.05 242.378 71.65C242.398 71.85 242.408 72.19 242.408 72.67C242.408 73.15 242.408 73.64 242.408 74.14C242.408 74.64 242.398 74.99 242.378 75.19C242.338 76.71 242.058 78.01 241.538 79.09C241.038 80.15 240.238 80.95 239.138 81.49C238.058 82.03 236.618 82.3 234.818 82.3ZM254.853 79.75C256.153 79.77 257.243 79.53 258.123 79.03C259.023 78.53 259.703 77.82 260.163 76.9C260.643 75.96 260.883 74.89 260.883 73.69V65.56C260.883 65.36 260.943 65.2 261.063 65.08C261.203 64.94 261.373 64.87 261.573 64.87H262.803C263.023 64.87 263.193 64.94 263.313 65.08C263.433 65.2 263.493 65.36 263.493 65.56V73.9C263.493 75.18 263.293 76.34 262.893 77.38C262.493 78.4 261.923 79.28 261.183 80.02C260.443 80.74 259.563 81.29 258.543 81.67C257.543 82.05 256.433 82.22 255.213 82.18H252.963C251.663 82.18 250.493 81.88 249.453 81.28C248.413 80.68 247.593 79.84 246.993 78.76C246.393 77.68 246.093 76.43 246.093 75.01V65.56C246.093 65.36 246.153 65.2 246.273 65.08C246.413 64.94 246.583 64.87 246.783 64.87H248.043C248.243 64.87 248.403 64.94 248.523 65.08C248.663 65.2 248.733 65.36 248.733 65.56L248.823 74.41C248.823 76.13 249.303 77.45 250.263 78.37C251.223 79.29 252.443 79.75 253.923 79.75H254.853ZM248.193 76.24L248.133 74.05C249.613 74.03 250.743 73.81 251.523 73.39C252.303 72.95 252.843 72.37 253.143 71.65C253.463 70.93 253.623 70.14 253.623 69.28V65.56C253.623 65.36 253.683 65.2 253.803 65.08C253.923 64.94 254.093 64.87 254.313 64.87H255.543C255.743 64.87 255.903 64.94 256.023 65.08C256.163 65.2 256.233 65.36 256.233 65.56V69.4C256.233 70.7 255.943 71.87 255.363 72.91C254.783 73.95 253.893 74.77 252.693 75.37C251.513 75.97 250.013 76.26 248.193 76.24ZM275.191 67.33H267.901C267.681 67.33 267.511 67.27 267.391 67.15C267.271 67.01 267.211 66.84 267.211 66.64V65.56C267.211 65.36 267.271 65.2 267.391 65.08C267.511 64.94 267.681 64.87 267.901 64.87H275.521C276.761 64.87 277.861 65.16 278.821 65.74C279.801 66.32 280.561 67.16 281.101 68.26C281.661 69.34 281.941 70.65 281.941 72.19V81.31C281.941 81.51 281.871 81.68 281.731 81.82C281.611 81.94 281.451 82 281.251 82H273.511C273.311 82 273.141 81.94 273.001 81.82C272.881 81.68 272.821 81.51 272.821 81.31V80.29C272.821 80.09 272.881 79.93 273.001 79.81C273.141 79.67 273.311 79.6 273.511 79.6H279.211V72.37C279.211 71.35 279.031 70.46 278.671 69.7C278.331 68.94 277.851 68.36 277.231 67.96C276.631 67.54 275.951 67.33 275.191 67.33ZM267.601 82C267.421 82 267.271 81.93 267.151 81.79C267.031 81.65 266.981 81.48 267.001 81.28L269.551 66.58C269.591 66.38 269.681 66.23 269.821 66.13C269.961 66.01 270.131 65.97 270.331 66.01L271.531 66.07C271.731 66.09 271.891 66.18 272.011 66.34C272.131 66.48 272.161 66.65 272.101 66.85L269.731 81.28C269.711 81.48 269.621 81.65 269.461 81.79C269.321 81.93 269.151 82 268.951 82H267.601ZM141.604 122C141.404 122 141.234 121.94 141.094 121.82C140.974 121.68 140.914 121.51 140.914 121.31V112.34C140.914 110.74 140.514 109.5 139.714 108.62C138.914 107.72 137.624 107.27 135.844 107.27H131.914C131.714 107.27 131.544 107.21 131.404 107.09C131.284 106.95 131.224 106.78 131.224 106.58V105.56C131.224 105.36 131.284 105.2 131.404 105.08C131.544 104.94 131.714 104.87 131.914 104.87H135.994C137.714 104.87 139.134 105.14 140.254 105.68C141.394 106.22 142.244 107.04 142.804 108.14C143.364 109.22 143.644 110.57 143.644 112.19V121.31C143.644 121.51 143.574 121.68 143.434 121.82C143.314 121.94 143.154 122 142.954 122H141.604ZM156.606 119.75C157.906 119.77 158.996 119.53 159.876 119.03C160.776 118.53 161.456 117.82 161.916 116.9C162.396 115.96 162.636 114.89 162.636 113.69V105.56C162.636 105.36 162.696 105.2 162.816 105.08C162.956 104.94 163.126 104.87 163.326 104.87H164.556C164.776 104.87 164.946 104.94 165.066 105.08C165.186 105.2 165.246 105.36 165.246 105.56V113.9C165.246 115.18 165.046 116.34 164.646 117.38C164.246 118.4 163.676 119.28 162.936 120.02C162.196 120.74 161.316 121.29 160.296 121.67C159.296 122.05 158.186 122.22 156.966 122.18H154.716C153.416 122.18 152.246 121.88 151.206 121.28C150.166 120.68 149.346 119.84 148.746 118.76C148.146 117.68 147.846 116.43 147.846 115.01V105.56C147.846 105.36 147.906 105.2 148.026 105.08C148.166 104.94 148.336 104.87 148.536 104.87H149.796C149.996 104.87 150.156 104.94 150.276 105.08C150.416 105.2 150.486 105.36 150.486 105.56L150.576 114.41C150.576 116.13 151.056 117.45 152.016 118.37C152.976 119.29 154.196 119.75 155.676 119.75H156.606ZM149.946 116.24L149.886 114.05C151.366 114.03 152.496 113.81 153.276 113.39C154.056 112.95 154.596 112.37 154.896 111.65C155.216 110.93 155.376 110.14 155.376 109.28V105.56C155.376 105.36 155.436 105.2 155.556 105.08C155.676 104.94 155.846 104.87 156.066 104.87H157.296C157.496 104.87 157.656 104.94 157.776 105.08C157.916 105.2 157.986 105.36 157.986 105.56V109.4C157.986 110.7 157.696 111.87 157.116 112.91C156.536 113.95 155.646 114.77 154.446 115.37C153.266 115.97 151.766 116.26 149.946 116.24ZM171.874 107.33V109.67C171.894 110.39 171.984 110.99 172.144 111.47C172.304 111.95 172.614 112.25 173.074 112.37L174.184 112.67C174.344 112.71 174.464 112.82 174.544 113C174.644 113.16 174.694 113.36 174.694 113.6V114.35C174.694 114.57 174.584 114.73 174.364 114.83C174.144 114.93 173.904 114.96 173.644 114.92L172.474 114.68C171.834 114.52 171.284 114.24 170.824 113.84C170.364 113.42 170.014 112.86 169.774 112.16C169.554 111.44 169.444 110.58 169.444 109.58V105.56C169.444 105.36 169.504 105.2 169.624 105.08C169.744 104.94 169.914 104.87 170.134 104.87H175.684C177.184 104.87 178.434 105.17 179.434 105.77C180.434 106.35 181.194 107.2 181.714 108.32C182.234 109.42 182.514 110.75 182.554 112.31C182.574 112.61 182.584 112.99 182.584 113.45C182.584 113.89 182.574 114.26 182.554 114.56C182.514 116.1 182.234 117.43 181.714 118.55C181.194 119.67 180.434 120.53 179.434 121.13C178.434 121.71 177.184 122 175.684 122H170.494C170.294 122 170.124 121.94 169.984 121.82C169.864 121.68 169.804 121.51 169.804 121.31V120.23C169.804 120.03 169.864 119.87 169.984 119.75C170.124 119.61 170.294 119.54 170.494 119.54H175.534C176.914 119.54 177.974 119.1 178.714 118.22C179.474 117.32 179.894 116.07 179.974 114.47C179.994 114.17 180.004 113.83 180.004 113.45C180.004 113.05 179.994 112.7 179.974 112.4C179.934 110.8 179.524 109.56 178.744 108.68C177.984 107.78 176.914 107.33 175.534 107.33H171.874ZM198.165 122C197.945 122 197.775 121.94 197.655 121.82C197.535 121.7 197.425 121.6 197.325 121.52L186.315 106.04C186.175 105.82 186.105 105.63 186.105 105.47C186.105 105.31 186.165 105.17 186.285 105.05C186.425 104.93 186.575 104.87 186.735 104.87H188.115C188.355 104.87 188.535 104.93 188.655 105.05C188.795 105.17 188.905 105.28 188.985 105.38L200.025 120.83C200.105 120.97 200.155 121.08 200.175 121.16C200.215 121.24 200.235 121.32 200.235 121.4C200.235 121.56 200.175 121.7 200.055 121.82C199.935 121.94 199.785 122 199.605 122H198.165ZM186.465 122C186.265 122 186.095 121.94 185.955 121.82C185.835 121.68 185.775 121.51 185.775 121.31V116.81C185.775 115.89 185.865 115.02 186.045 114.2C186.225 113.36 186.575 112.57 187.095 111.83C187.635 111.07 188.435 110.36 189.495 109.7L190.875 111.71C190.155 112.17 189.615 112.7 189.255 113.3C188.895 113.88 188.655 114.49 188.535 115.13C188.415 115.75 188.355 116.35 188.355 116.93V121.31C188.355 121.51 188.285 121.68 188.145 121.82C188.025 121.94 187.865 122 187.665 122H186.465ZM195.765 116.51L194.535 114.44C195.515 113.98 196.205 113.5 196.605 113C197.025 112.5 197.275 111.98 197.355 111.44C197.435 110.88 197.475 110.3 197.475 109.7V105.56C197.475 105.36 197.535 105.2 197.655 105.08C197.795 104.94 197.965 104.87 198.165 104.87H199.425C199.625 104.87 199.785 104.94 199.905 105.08C200.045 105.2 200.115 105.36 200.115 105.56V109.85C200.115 110.69 200.015 111.5 199.815 112.28C199.615 113.06 199.205 113.8 198.585 114.5C197.985 115.2 197.045 115.87 195.765 116.51ZM216.221 122C216.021 122 215.851 121.94 215.711 121.82C215.591 121.68 215.531 121.51 215.531 121.31V112.34C215.531 110.74 215.131 109.5 214.331 108.62C213.531 107.72 212.241 107.27 210.461 107.27H204.821C204.621 107.27 204.451 107.21 204.311 107.09C204.191 106.95 204.131 106.78 204.131 106.58V105.56C204.131 105.36 204.191 105.2 204.311 105.08C204.451 104.94 204.621 104.87 204.821 104.87H210.611C213.211 104.87 215.131 105.5 216.371 106.76C217.631 108.02 218.261 109.85 218.261 112.25V121.31C218.261 121.51 218.191 121.68 218.051 121.82C217.931 121.94 217.771 122 217.571 122H216.221ZM204.821 122C204.621 122 204.451 121.94 204.311 121.82C204.191 121.68 204.131 121.51 204.131 121.31V111.29C204.131 111.09 204.191 110.93 204.311 110.81C204.451 110.67 204.621 110.6 204.821 110.6H206.171C206.391 110.6 206.561 110.67 206.681 110.81C206.801 110.93 206.861 111.09 206.861 111.29V121.31C206.861 121.51 206.801 121.68 206.681 121.82C206.561 121.94 206.391 122 206.171 122H204.821Z" fill="black"/>
<defs>
<filter id="filter0_d_106_209" x="0" y="0" width="378" height="148" filterUnits="userSpaceOnUse" color-interpolation-filters="sRGB">
<feFlood flood-opacity="0" result="BackgroundImageFix"/>
<feColorMatrix in="SourceAlpha" type="matrix" values="0 0 0 0 0 0 0 0 0 0 0 0 0 0 0 0 0 0 127 0" result="hardAlpha"/>
<feOffset dx="4" dy="4"/>
<feGaussianBlur stdDeviation="2"/>
<feComposite in2="hardAlpha" operator="out"/>
<feColorMatrix type="matrix" values="0 0 0 0 0 0 0 0 0 0 0 0 0 0 0 0 0 0 0.25 0"/>
<feBlend mode="normal" in2="BackgroundImageFix" result="effect1_dropShadow_106_209"/>
<feBlend mode="normal" in="SourceGraphic" in2="effect1_dropShadow_106_209" result="shape"/>
</filter>
</defs>
</svg>
