<svg width="378" height="148" viewBox="0 0 378 148" fill="none" xmlns="http://www.w3.org/2000/svg">
<g filter="url(#filter0_d_106_213)">
<rect width="370" height="140" rx="20" fill="#FDF4D4"/>
</g>
<path d="M55.1406 42.27C54.9606 42.33 54.7906 42.3 54.6306 42.18C54.4706 42.08 54.3906 41.93 54.3906 41.73V40.35C54.3906 40.17 54.4406 40.01 54.5406 39.87C54.6606 39.73 54.8306 39.62 55.0506 39.54L56.2206 39.09C57.0006 38.77 57.7106 38.37 58.3506 37.89C59.0106 37.39 59.5206 36.72 59.8806 35.88C60.2606 35.04 60.4506 33.94 60.4506 32.58C60.4506 31.28 60.2906 30.25 59.9706 29.49C59.6706 28.71 59.1506 28.16 58.4106 27.84C57.6906 27.5 56.7006 27.33 55.4406 27.33H54.5406C54.3406 27.33 54.1706 27.27 54.0306 27.15C53.9106 27.01 53.8506 26.84 53.8506 26.64V25.56C53.8506 25.36 53.9106 25.2 54.0306 25.08C54.1706 24.94 54.3406 24.87 54.5406 24.87H55.8606C57.6806 24.87 59.1306 25.13 60.2106 25.65C61.2906 26.17 62.0606 27.01 62.5206 28.17C63.0006 29.31 63.2406 30.81 63.2406 32.67C63.2406 34.07 63.0506 35.28 62.6706 36.3C62.2906 37.32 61.7706 38.19 61.1106 38.91C60.4706 39.63 59.7406 40.23 58.9206 40.71C58.1006 41.17 57.2506 41.55 56.3706 41.85L55.1406 42.27ZM55.2006 27.33L51.6306 27.3C51.4306 27.3 51.2606 27.24 51.1206 27.12C51.0006 27 50.9406 26.84 50.9406 26.64V21.39C50.9406 21.19 51.0006 21.03 51.1206 20.91C51.2606 20.77 51.4306 20.7 51.6306 20.7H52.8906C53.0906 20.7 53.2506 20.77 53.3706 20.91C53.5106 21.03 53.5806 21.19 53.5806 21.39V24.87H55.2606L55.2006 27.33ZM74.683 27.33H67.393C67.173 27.33 67.003 27.27 66.883 27.15C66.763 27.01 66.703 26.84 66.703 26.64V25.56C66.703 25.36 66.763 25.2 66.883 25.08C67.003 24.94 67.173 24.87 67.393 24.87H75.013C76.253 24.87 77.353 25.16 78.313 25.74C79.293 26.32 80.053 27.16 80.593 28.26C81.153 29.34 81.433 30.65 81.433 32.19V41.31C81.433 41.51 81.363 41.68 81.223 41.82C81.103 41.94 80.943 42 80.743 42H73.003C72.803 42 72.633 41.94 72.493 41.82C72.373 41.68 72.313 41.51 72.313 41.31V40.29C72.313 40.09 72.373 39.93 72.493 39.81C72.633 39.67 72.803 39.6 73.003 39.6H78.703V32.37C78.703 31.35 78.523 30.46 78.163 29.7C77.823 28.94 77.343 28.36 76.723 27.96C76.123 27.54 75.443 27.33 74.683 27.33ZM67.093 42C66.913 42 66.763 41.93 66.643 41.79C66.523 41.65 66.473 41.48 66.493 41.28L69.043 26.58C69.083 26.38 69.173 26.23 69.313 26.13C69.453 26.01 69.623 25.97 69.823 26.01L71.023 26.07C71.223 26.09 71.383 26.18 71.503 26.34C71.623 26.48 71.653 26.65 71.593 26.85L69.223 41.28C69.203 41.48 69.113 41.65 68.953 41.79C68.813 41.93 68.643 42 68.443 42H67.093ZM94.3945 39.75C95.6945 39.77 96.7845 39.53 97.6645 39.03C98.5645 38.53 99.2445 37.82 99.7045 36.9C100.184 35.96 100.424 34.89 100.424 33.69V25.56C100.424 25.36 100.484 25.2 100.604 25.08C100.744 24.94 100.914 24.87 101.114 24.87H102.344C102.564 24.87 102.734 24.94 102.854 25.08C102.974 25.2 103.034 25.36 103.034 25.56V33.9C103.034 35.18 102.834 36.34 102.434 37.38C102.034 38.4 101.464 39.28 100.724 40.02C99.9845 40.74 99.1045 41.29 98.0845 41.67C97.0845 42.05 95.9745 42.22 94.7545 42.18H92.5045C91.2045 42.18 90.0345 41.88 88.9945 41.28C87.9545 40.68 87.1345 39.84 86.5345 38.76C85.9345 37.68 85.6345 36.43 85.6345 35.01V25.56C85.6345 25.36 85.6945 25.2 85.8145 25.08C85.9545 24.94 86.1245 24.87 86.3245 24.87H87.5845C87.7845 24.87 87.9445 24.94 88.0645 25.08C88.2045 25.2 88.2745 25.36 88.2745 25.56L88.3645 34.41C88.3645 36.13 88.8445 37.45 89.8045 38.37C90.7645 39.29 91.9845 39.75 93.4645 39.75H94.3945ZM87.7345 36.24L87.6745 34.05C89.1545 34.03 90.2845 33.81 91.0645 33.39C91.8445 32.95 92.3845 32.37 92.6845 31.65C93.0045 30.93 93.1645 30.14 93.1645 29.28V25.56C93.1645 25.36 93.2245 25.2 93.3445 25.08C93.4645 24.94 93.6345 24.87 93.8545 24.87H95.0845C95.2845 24.87 95.4445 24.94 95.5645 25.08C95.7045 25.2 95.7745 25.36 95.7745 25.56V29.4C95.7745 30.7 95.4845 31.87 94.9045 32.91C94.3245 33.95 93.4345 34.77 92.2345 35.37C91.0545 35.97 89.5545 36.26 87.7345 36.24ZM107.922 42C107.722 42 107.552 41.94 107.412 41.82C107.292 41.68 107.232 41.51 107.232 41.31V25.56C107.232 25.36 107.292 25.2 107.412 25.08C107.552 24.94 107.722 24.87 107.922 24.87H113.742C115.482 24.87 116.912 25.15 118.032 25.71C119.172 26.25 120.022 27.07 120.582 28.17C121.142 29.25 121.422 30.61 121.422 32.25V41.31C121.422 41.51 121.352 41.68 121.212 41.82C121.092 41.94 120.932 42 120.732 42H119.382C119.162 42 118.992 41.94 118.872 41.82C118.752 41.68 118.692 41.51 118.692 41.31V32.34C118.692 30.74 118.292 29.5 117.492 28.62C116.692 27.72 115.392 27.27 113.592 27.27H109.962V41.31C109.962 41.51 109.902 41.68 109.782 41.82C109.662 41.94 109.492 42 109.272 42H107.922ZM137.955 42C137.755 42 137.585 41.94 137.445 41.82C137.325 41.68 137.265 41.51 137.265 41.31V32.34C137.265 30.74 136.865 29.5 136.065 28.62C135.265 27.72 133.975 27.27 132.195 27.27H126.555C126.355 27.27 126.185 27.21 126.045 27.09C125.925 26.95 125.865 26.78 125.865 26.58V25.56C125.865 25.36 125.925 25.2 126.045 25.08C126.185 24.94 126.355 24.87 126.555 24.87H132.345C134.945 24.87 136.865 25.5 138.105 26.76C139.365 28.02 139.995 29.85 139.995 32.25V41.31C139.995 41.51 139.925 41.68 139.785 41.82C139.665 41.94 139.505 42 139.305 42H137.955ZM126.555 42C126.355 42 126.185 41.94 126.045 41.82C125.925 41.68 125.865 41.51 125.865 41.31V31.29C125.865 31.09 125.925 30.93 126.045 30.81C126.185 30.67 126.355 30.6 126.555 30.6H127.905C128.125 30.6 128.295 30.67 128.415 30.81C128.535 30.93 128.595 31.09 128.595 31.29V41.31C128.595 41.51 128.535 41.68 128.415 41.82C128.295 41.94 128.125 42 127.905 42H126.555ZM154.809 42.27C154.629 42.33 154.459 42.3 154.299 42.18C154.139 42.08 154.059 41.93 154.059 41.73V40.35C154.059 40.17 154.109 40.01 154.209 39.87C154.329 39.73 154.499 39.62 154.719 39.54L155.889 39.09C156.669 38.77 157.379 38.37 158.019 37.89C158.679 37.39 159.189 36.72 159.549 35.88C159.929 35.04 160.119 33.94 160.119 32.58C160.119 31.28 159.959 30.25 159.639 29.49C159.339 28.71 158.819 28.16 158.079 27.84C157.359 27.5 156.369 27.33 155.109 27.33H154.209C154.009 27.33 153.839 27.27 153.699 27.15C153.579 27.01 153.519 26.84 153.519 26.64V25.56C153.519 25.36 153.579 25.2 153.699 25.08C153.839 24.94 154.009 24.87 154.209 24.87H155.529C157.349 24.87 158.799 25.13 159.879 25.65C160.959 26.17 161.729 27.01 162.189 28.17C162.669 29.31 162.909 30.81 162.909 32.67C162.909 34.07 162.719 35.28 162.339 36.3C161.959 37.32 161.439 38.19 160.779 38.91C160.139 39.63 159.409 40.23 158.589 40.71C157.769 41.17 156.919 41.55 156.039 41.85L154.809 42.27ZM154.869 27.33L151.299 27.3C151.099 27.3 150.929 27.24 150.789 27.12C150.669 27 150.609 26.84 150.609 26.64V21.39C150.609 21.19 150.669 21.03 150.789 20.91C150.929 20.77 151.099 20.7 151.299 20.7H152.559C152.759 20.7 152.919 20.77 153.039 20.91C153.179 21.03 153.249 21.19 153.249 21.39V24.87H154.929L154.869 27.33ZM166.821 42C166.621 42 166.451 41.94 166.311 41.82C166.191 41.68 166.131 41.51 166.131 41.31V40.29C166.131 40.09 166.191 39.93 166.311 39.81C166.451 39.67 166.621 39.6 166.821 39.6H175.431V32.34C175.431 30.74 175.031 29.5 174.231 28.62C173.431 27.72 172.141 27.27 170.361 27.27H167.121C166.921 27.27 166.751 27.21 166.611 27.09C166.491 26.95 166.431 26.78 166.431 26.58V25.56C166.431 25.36 166.491 25.2 166.611 25.08C166.751 24.94 166.921 24.87 167.121 24.87H170.511C172.231 24.87 173.661 25.15 174.801 25.71C175.941 26.27 176.791 27.1 177.351 28.2C177.931 29.28 178.221 30.63 178.221 32.25V39.6H179.331C179.531 39.6 179.691 39.67 179.811 39.81C179.951 39.93 180.021 40.09 180.021 40.29V41.31C180.021 41.51 179.951 41.68 179.811 41.82C179.691 41.94 179.531 42 179.331 42H166.821ZM183.889 42C183.689 42 183.519 41.94 183.379 41.82C183.259 41.68 183.199 41.51 183.199 41.31V40.23C183.199 40.03 183.259 39.87 183.379 39.75C183.519 39.61 183.689 39.54 183.889 39.54H188.179C189.959 39.54 191.239 39.1 192.019 38.22C192.799 37.32 193.229 36.07 193.309 34.47C193.329 34.03 193.339 33.68 193.339 33.42C193.339 33.16 193.329 32.82 193.309 32.4C193.249 30.8 192.819 29.56 192.019 28.68C191.239 27.78 189.959 27.33 188.179 27.33H183.889C183.689 27.33 183.519 27.27 183.379 27.15C183.259 27.01 183.199 26.84 183.199 26.64V25.56C183.199 25.36 183.259 25.2 183.379 25.08C183.519 24.94 183.689 24.87 183.889 24.87H188.329C190.089 24.87 191.519 25.17 192.619 25.77C193.719 26.35 194.539 27.2 195.079 28.32C195.639 29.42 195.939 30.75 195.979 32.31C195.999 32.71 196.009 33.08 196.009 33.42C196.009 33.76 195.999 34.14 195.979 34.56C195.939 36.1 195.639 37.43 195.079 38.55C194.539 39.67 193.719 40.53 192.619 41.13C191.519 41.71 190.089 42 188.329 42H183.889ZM208.481 27.27C208.281 27.27 208.111 27.21 207.971 27.09C207.851 26.95 207.791 26.78 207.791 26.58V25.56C207.791 25.36 207.851 25.2 207.971 25.08C208.111 24.94 208.281 24.87 208.481 24.87H214.991C216.711 24.87 218.131 25.15 219.251 25.71C220.391 26.25 221.241 27.07 221.801 28.17C222.361 29.25 222.641 30.59 222.641 32.19V41.31C222.641 41.51 222.571 41.68 222.431 41.82C222.311 41.94 222.151 42 221.951 42H220.601C220.381 42 220.211 41.94 220.091 41.82C219.971 41.68 219.911 41.51 219.911 41.31V32.34C219.911 30.74 219.501 29.5 218.681 28.62C217.881 27.72 216.591 27.27 214.811 27.27H208.481ZM211.181 25.8H211.931C212.231 25.8 212.451 25.88 212.591 26.04C212.751 26.18 212.821 26.36 212.801 26.58C212.641 27.42 212.501 28.18 212.381 28.86C212.281 29.54 212.211 30.22 212.171 30.9C212.131 31.56 212.111 32.31 212.111 33.15L212.171 41.31C212.171 41.51 212.111 41.68 211.991 41.82C211.871 41.94 211.711 42 211.511 42L207.251 41.94C207.051 41.94 206.881 41.88 206.741 41.76C206.621 41.64 206.561 41.47 206.561 41.25V40.29C206.561 40.09 206.621 39.93 206.741 39.81C206.881 39.67 207.051 39.6 207.251 39.6L209.561 39.63V33.27C209.561 32.45 209.571 31.7 209.591 31.02C209.611 30.32 209.671 29.62 209.771 28.92C209.871 28.22 210.031 27.43 210.251 26.55C210.311 26.33 210.401 26.15 210.521 26.01C210.661 25.87 210.881 25.8 211.181 25.8ZM238.755 42C238.535 42 238.365 41.94 238.245 41.82C238.125 41.7 238.015 41.6 237.915 41.52L226.905 26.04C226.765 25.82 226.695 25.63 226.695 25.47C226.695 25.31 226.755 25.17 226.875 25.05C227.015 24.93 227.165 24.87 227.325 24.87H228.705C228.945 24.87 229.125 24.93 229.245 25.05C229.385 25.17 229.495 25.28 229.575 25.38L240.615 40.83C240.695 40.97 240.745 41.08 240.765 41.16C240.805 41.24 240.825 41.32 240.825 41.4C240.825 41.56 240.765 41.7 240.645 41.82C240.525 41.94 240.375 42 240.195 42H238.755ZM227.055 42C226.855 42 226.685 41.94 226.545 41.82C226.425 41.68 226.365 41.51 226.365 41.31V36.81C226.365 35.89 226.455 35.02 226.635 34.2C226.815 33.36 227.165 32.57 227.685 31.83C228.225 31.07 229.025 30.36 230.085 29.7L231.465 31.71C230.745 32.17 230.205 32.7 229.845 33.3C229.485 33.88 229.245 34.49 229.125 35.13C229.005 35.75 228.945 36.35 228.945 36.93V41.31C228.945 41.51 228.875 41.68 228.735 41.82C228.615 41.94 228.455 42 228.255 42H227.055ZM236.355 36.51L235.125 34.44C236.105 33.98 236.795 33.5 237.195 33C237.615 32.5 237.865 31.98 237.945 31.44C238.025 30.88 238.065 30.3 238.065 29.7V25.56C238.065 25.36 238.125 25.2 238.245 25.08C238.385 24.94 238.555 24.87 238.755 24.87H240.015C240.215 24.87 240.375 24.94 240.495 25.08C240.635 25.2 240.705 25.36 240.705 25.56V29.85C240.705 30.69 240.605 31.5 240.405 32.28C240.205 33.06 239.795 33.8 239.175 34.5C238.575 35.2 237.635 35.87 236.355 36.51ZM261.033 42C260.833 42 260.663 41.94 260.523 41.82C260.403 41.68 260.343 41.51 260.343 41.31V32.34C260.343 30.74 259.943 29.5 259.143 28.62C258.343 27.72 257.053 27.27 255.273 27.27H251.343C251.143 27.27 250.973 27.21 250.833 27.09C250.713 26.95 250.653 26.78 250.653 26.58V25.56C250.653 25.36 250.713 25.2 250.833 25.08C250.973 24.94 251.143 24.87 251.343 24.87H255.423C257.143 24.87 258.563 25.14 259.683 25.68C260.823 26.22 261.673 27.04 262.233 28.14C262.793 29.22 263.073 30.57 263.073 32.19V41.31C263.073 41.51 263.003 41.68 262.863 41.82C262.743 41.94 262.583 42 262.383 42H261.033ZM267.485 42C267.285 42 267.115 41.94 266.975 41.82C266.855 41.68 266.795 41.51 266.795 41.31V40.29C266.795 40.09 266.855 39.93 266.975 39.81C267.115 39.67 267.285 39.6 267.485 39.6H276.095V32.34C276.095 30.74 275.695 29.5 274.895 28.62C274.095 27.72 272.805 27.27 271.025 27.27H267.785C267.585 27.27 267.415 27.21 267.275 27.09C267.155 26.95 267.095 26.78 267.095 26.58V25.56C267.095 25.36 267.155 25.2 267.275 25.08C267.415 24.94 267.585 24.87 267.785 24.87H271.175C272.895 24.87 274.325 25.15 275.465 25.71C276.605 26.27 277.455 27.1 278.015 28.2C278.595 29.28 278.885 30.63 278.885 32.25V39.6H279.995C280.195 39.6 280.355 39.67 280.475 39.81C280.615 39.93 280.685 40.09 280.685 40.29V41.31C280.685 41.51 280.615 41.68 280.475 41.82C280.355 41.94 280.195 42 279.995 42H267.485ZM284.553 42C284.353 42 284.183 41.94 284.043 41.82C283.923 41.68 283.863 41.51 283.863 41.31V25.56C283.863 25.36 283.923 25.2 284.043 25.08C284.183 24.94 284.353 24.87 284.553 24.87H290.373C292.113 24.87 293.543 25.15 294.663 25.71C295.803 26.25 296.653 27.07 297.213 28.17C297.773 29.25 298.053 30.61 298.053 32.25V41.31C298.053 41.51 297.983 41.68 297.843 41.82C297.723 41.94 297.563 42 297.363 42H296.013C295.793 42 295.623 41.94 295.503 41.82C295.383 41.68 295.323 41.51 295.323 41.31V32.34C295.323 30.74 294.923 29.5 294.123 28.62C293.323 27.72 292.023 27.27 290.223 27.27H286.593V41.31C286.593 41.51 286.533 41.68 286.413 41.82C286.293 41.94 286.123 42 285.903 42H284.553ZM322.703 35.94C322.123 35.94 321.583 35.8 321.083 35.52C320.583 35.22 320.183 34.83 319.883 34.35C319.603 33.85 319.463 33.31 319.463 32.73C319.463 32.13 319.603 31.59 319.883 31.11C320.183 30.61 320.583 30.22 321.083 29.94C321.583 29.64 322.123 29.49 322.703 29.49C323.303 29.49 323.843 29.64 324.323 29.94C324.803 30.22 325.183 30.61 325.463 31.11C325.763 31.59 325.913 32.13 325.913 32.73C325.913 33.31 325.763 33.85 325.463 34.35C325.183 34.83 324.803 35.22 324.323 35.52C323.843 35.8 323.303 35.94 322.703 35.94ZM55.3313 67.27C55.1313 67.27 54.9613 67.21 54.8213 67.09C54.7013 66.95 54.6413 66.78 54.6413 66.58V65.56C54.6413 65.36 54.7013 65.2 54.8213 65.08C54.9613 64.94 55.1313 64.87 55.3313 64.87H61.8413C63.5613 64.87 64.9813 65.15 66.1013 65.71C67.2413 66.25 68.0913 67.07 68.6513 68.17C69.2113 69.25 69.4913 70.59 69.4913 72.19V81.31C69.4913 81.51 69.4213 81.68 69.2813 81.82C69.1613 81.94 69.0013 82 68.8013 82H67.4513C67.2313 82 67.0613 81.94 66.9413 81.82C66.8213 81.68 66.7613 81.51 66.7613 81.31V72.34C66.7613 70.74 66.3513 69.5 65.5313 68.62C64.7313 67.72 63.4413 67.27 61.6613 67.27H55.3313ZM58.0313 65.8H58.7813C59.0813 65.8 59.3013 65.88 59.4413 66.04C59.6013 66.18 59.6713 66.36 59.6513 66.58C59.4913 67.42 59.3513 68.18 59.2313 68.86C59.1313 69.54 59.0613 70.22 59.0213 70.9C58.9813 71.56 58.9613 72.31 58.9613 73.15L59.0213 81.31C59.0213 81.51 58.9613 81.68 58.8413 81.82C58.7213 81.94 58.5613 82 58.3613 82L54.1013 81.94C53.9013 81.94 53.7313 81.88 53.5913 81.76C53.4713 81.64 53.4113 81.47 53.4113 81.25V80.29C53.4113 80.09 53.4713 79.93 53.5913 79.81C53.7313 79.67 53.9013 79.6 54.1013 79.6L56.4113 79.63V73.27C56.4113 72.45 56.4213 71.7 56.4413 71.02C56.4613 70.32 56.5213 69.62 56.6213 68.92C56.7213 68.22 56.8813 67.43 57.1013 66.55C57.1613 66.33 57.2513 66.15 57.3713 66.01C57.5113 65.87 57.7313 65.8 58.0313 65.8ZM74.626 87.73C74.426 87.73 74.256 87.66 74.116 87.52C73.996 87.4 73.936 87.24 73.936 87.04V71.29C73.936 71.09 73.996 70.93 74.116 70.81C74.256 70.67 74.426 70.6 74.626 70.6H75.946C76.166 70.6 76.336 70.67 76.456 70.81C76.576 70.93 76.636 71.09 76.636 71.29V87.04C76.636 87.24 76.576 87.4 76.456 87.52C76.336 87.66 76.166 87.73 75.946 87.73H74.626ZM80.386 82.27C80.206 82.33 80.036 82.3 79.876 82.18C79.736 82.08 79.666 81.93 79.666 81.73V80.35C79.666 80.17 79.716 80.01 79.816 79.87C79.936 79.73 80.106 79.62 80.326 79.54L81.466 79.09C82.266 78.77 82.986 78.37 83.626 77.89C84.286 77.39 84.796 76.72 85.156 75.88C85.536 75.04 85.726 73.94 85.726 72.58C85.726 71.28 85.566 70.25 85.246 69.49C84.926 68.71 84.396 68.16 83.656 67.84C82.936 67.5 81.956 67.33 80.716 67.33H74.626C74.426 67.33 74.256 67.27 74.116 67.15C73.996 67.01 73.936 66.84 73.936 66.64V65.56C73.936 65.36 73.996 65.2 74.116 65.08C74.256 64.94 74.426 64.87 74.626 64.87H81.106C82.946 64.87 84.396 65.13 85.456 65.65C86.536 66.17 87.306 67.01 87.766 68.17C88.246 69.31 88.486 70.81 88.486 72.67C88.486 74.07 88.296 75.28 87.916 76.3C87.536 77.32 87.016 78.19 86.356 78.91C85.716 79.63 84.986 80.23 84.166 80.71C83.366 81.17 82.526 81.55 81.646 81.85L80.386 82.27ZM96.4053 82.27C96.2253 82.33 96.0553 82.3 95.8953 82.18C95.7353 82.08 95.6553 81.93 95.6553 81.73V80.35C95.6553 80.17 95.7053 80.01 95.8053 79.87C95.9253 79.73 96.0953 79.62 96.3153 79.54L97.4853 79.09C98.2653 78.77 98.9753 78.37 99.6153 77.89C100.275 77.39 100.785 76.72 101.145 75.88C101.525 75.04 101.715 73.94 101.715 72.58C101.715 71.28 101.555 70.25 101.235 69.49C100.935 68.71 100.415 68.16 99.6753 67.84C98.9553 67.5 97.9653 67.33 96.7053 67.33H95.8053C95.6053 67.33 95.4353 67.27 95.2953 67.15C95.1753 67.01 95.1153 66.84 95.1153 66.64V65.56C95.1153 65.36 95.1753 65.2 95.2953 65.08C95.4353 64.94 95.6053 64.87 95.8053 64.87H97.1253C98.9453 64.87 100.395 65.13 101.475 65.65C102.555 66.17 103.325 67.01 103.785 68.17C104.265 69.31 104.505 70.81 104.505 72.67C104.505 74.07 104.315 75.28 103.935 76.3C103.555 77.32 103.035 78.19 102.375 78.91C101.735 79.63 101.005 80.23 100.185 80.71C99.3653 81.17 98.5153 81.55 97.6353 81.85L96.4053 82.27ZM96.4653 67.33L92.8953 67.3C92.6953 67.3 92.5253 67.24 92.3853 67.12C92.2653 67 92.2053 66.84 92.2053 66.64V61.39C92.2053 61.19 92.2653 61.03 92.3853 60.91C92.5253 60.77 92.6953 60.7 92.8953 60.7H94.1553C94.3553 60.7 94.5153 60.77 94.6353 60.91C94.7753 61.03 94.8453 61.19 94.8453 61.39V64.87H96.5253L96.4653 67.33ZM116.038 82C115.598 82 115.378 81.78 115.378 81.34V70.63C115.378 69.45 115.518 68.53 115.798 67.87C116.078 67.21 116.428 66.88 116.848 66.88H119.788C119.288 66.88 118.878 67.26 118.558 68.02C118.258 68.78 118.108 69.72 118.108 70.84V81.34C118.108 81.54 118.038 81.7 117.898 81.82C117.758 81.94 117.588 82 117.388 82H116.038ZM107.938 67.27C107.738 67.27 107.568 67.21 107.428 67.09C107.308 66.95 107.248 66.78 107.248 66.58V65.56C107.248 65.36 107.308 65.2 107.428 65.08C107.568 64.94 107.738 64.87 107.938 64.87H120.808C121.008 64.87 121.168 64.94 121.288 65.08C121.428 65.2 121.498 65.36 121.498 65.56V66.58C121.498 66.78 121.428 66.95 121.288 67.09C121.168 67.21 121.008 67.27 120.808 67.27H107.938ZM137.237 82C137.037 82 136.867 81.94 136.727 81.82C136.607 81.68 136.547 81.51 136.547 81.31V72.34C136.547 70.74 136.147 69.5 135.347 68.62C134.547 67.72 133.257 67.27 131.477 67.27H125.837C125.637 67.27 125.467 67.21 125.327 67.09C125.207 66.95 125.147 66.78 125.147 66.58V65.56C125.147 65.36 125.207 65.2 125.327 65.08C125.467 64.94 125.637 64.87 125.837 64.87H131.627C134.227 64.87 136.147 65.5 137.387 66.76C138.647 68.02 139.277 69.85 139.277 72.25V81.31C139.277 81.51 139.207 81.68 139.067 81.82C138.947 81.94 138.787 82 138.587 82H137.237ZM125.837 82C125.637 82 125.467 81.94 125.327 81.82C125.207 81.68 125.147 81.51 125.147 81.31V71.29C125.147 71.09 125.207 70.93 125.327 70.81C125.467 70.67 125.637 70.6 125.837 70.6H127.187C127.407 70.6 127.577 70.67 127.697 70.81C127.817 70.93 127.877 71.09 127.877 71.29V81.31C127.877 81.51 127.817 81.68 127.697 81.82C127.577 81.94 127.407 82 127.187 82H125.837ZM162.745 82C162.525 82 162.355 81.94 162.235 81.82C162.115 81.7 162.005 81.6 161.905 81.52L150.895 66.04C150.755 65.82 150.685 65.63 150.685 65.47C150.685 65.31 150.745 65.17 150.865 65.05C151.005 64.93 151.155 64.87 151.315 64.87H152.695C152.935 64.87 153.115 64.93 153.235 65.05C153.375 65.17 153.485 65.28 153.565 65.38L164.605 80.83C164.685 80.97 164.735 81.08 164.755 81.16C164.795 81.24 164.815 81.32 164.815 81.4C164.815 81.56 164.755 81.7 164.635 81.82C164.515 81.94 164.365 82 164.185 82H162.745ZM151.045 82C150.845 82 150.675 81.94 150.535 81.82C150.415 81.68 150.355 81.51 150.355 81.31V76.81C150.355 75.89 150.445 75.02 150.625 74.2C150.805 73.36 151.155 72.57 151.675 71.83C152.215 71.07 153.015 70.36 154.075 69.7L155.455 71.71C154.735 72.17 154.195 72.7 153.835 73.3C153.475 73.88 153.235 74.49 153.115 75.13C152.995 75.75 152.935 76.35 152.935 76.93V81.31C152.935 81.51 152.865 81.68 152.725 81.82C152.605 81.94 152.445 82 152.245 82H151.045ZM160.345 76.51L159.115 74.44C160.095 73.98 160.785 73.5 161.185 73C161.605 72.5 161.855 71.98 161.935 71.44C162.015 70.88 162.055 70.3 162.055 69.7V65.56C162.055 65.36 162.115 65.2 162.235 65.08C162.375 64.94 162.545 64.87 162.745 64.87H164.005C164.205 64.87 164.365 64.94 164.485 65.08C164.625 65.2 164.695 65.36 164.695 65.56V69.85C164.695 70.69 164.595 71.5 164.395 72.28C164.195 73.06 163.785 73.8 163.165 74.5C162.565 75.2 161.625 75.87 160.345 76.51ZM176.301 82C175.861 82 175.641 81.78 175.641 81.34V70.63C175.641 69.45 175.781 68.53 176.061 67.87C176.341 67.21 176.691 66.88 177.111 66.88H180.051C179.551 66.88 179.141 67.26 178.821 68.02C178.521 68.78 178.371 69.72 178.371 70.84V81.34C178.371 81.54 178.301 81.7 178.161 81.82C178.021 81.94 177.851 82 177.651 82H176.301ZM168.201 67.27C168.001 67.27 167.831 67.21 167.691 67.09C167.571 66.95 167.511 66.78 167.511 66.58V65.56C167.511 65.36 167.571 65.2 167.691 65.08C167.831 64.94 168.001 64.87 168.201 64.87H181.071C181.271 64.87 181.431 64.94 181.551 65.08C181.691 65.2 181.761 65.36 181.761 65.56V66.58C181.761 66.78 181.691 66.95 181.551 67.09C181.431 67.21 181.271 67.27 181.071 67.27H168.201ZM186.101 82C185.901 82 185.731 81.94 185.591 81.82C185.471 81.68 185.411 81.51 185.411 81.31V65.56C185.411 65.36 185.471 65.2 185.591 65.08C185.731 64.94 185.901 64.87 186.101 64.87H187.511C187.731 64.87 187.901 64.94 188.021 65.08C188.141 65.2 188.201 65.36 188.201 65.56V81.31C188.201 81.51 188.141 81.68 188.021 81.82C187.901 81.94 187.731 82 187.511 82H186.101ZM193.513 82C193.313 82 193.143 81.94 193.003 81.82C192.883 81.68 192.823 81.51 192.823 81.31V65.56C192.823 65.36 192.883 65.2 193.003 65.08C193.143 64.94 193.313 64.87 193.513 64.87H194.923C195.143 64.87 195.313 64.94 195.433 65.08C195.553 65.2 195.613 65.36 195.613 65.56V81.31C195.613 81.51 195.553 81.68 195.433 81.82C195.313 81.94 195.143 82 194.923 82H193.513ZM199.965 82C199.765 82 199.595 81.94 199.455 81.82C199.335 81.68 199.275 81.51 199.275 81.31V80.29C199.275 80.09 199.335 79.93 199.455 79.81C199.595 79.67 199.765 79.6 199.965 79.6H208.425V81.43C208.425 81.63 208.355 81.78 208.215 81.88C208.095 81.96 207.935 82 207.735 82H199.965ZM206.595 82C206.395 82 206.235 81.94 206.115 81.82C206.015 81.68 205.945 81.51 205.905 81.31L205.335 72.04C205.295 71.06 205.215 70.21 205.095 69.49C204.995 68.77 204.755 68.21 204.375 67.81C204.015 67.41 203.405 67.21 202.545 67.21H201.315C201.115 67.21 200.945 67.15 200.805 67.03C200.685 66.89 200.625 66.72 200.625 66.52V65.5C200.625 65.3 200.685 65.14 200.805 65.02C200.945 64.88 201.115 64.81 201.315 64.81H202.575C203.715 64.81 204.635 64.98 205.335 65.32C206.035 65.64 206.575 66.12 206.955 66.76C207.335 67.4 207.615 68.16 207.795 69.04C207.975 69.9 208.095 70.87 208.155 71.95L208.695 81.31C208.735 81.51 208.685 81.68 208.545 81.82C208.405 81.94 208.235 82 208.035 82H206.595ZM219.505 84.25C219.345 84.25 219.215 84.19 219.115 84.07C219.035 83.95 219.005 83.8 219.025 83.62L219.715 79.33C219.755 79.09 219.835 78.89 219.955 78.73C220.095 78.55 220.295 78.46 220.555 78.46H222.565C222.705 78.46 222.815 78.51 222.895 78.61C222.995 78.71 223.045 78.83 223.045 78.97C223.045 79.13 223.005 79.29 222.925 79.45L221.365 83.56C221.285 83.76 221.175 83.92 221.035 84.04C220.915 84.18 220.735 84.25 220.495 84.25H219.505ZM227.126 83.65C226.926 83.73 226.736 83.71 226.556 83.59C226.376 83.49 226.286 83.34 226.286 83.14V82.12C226.286 81.94 226.326 81.77 226.406 81.61C226.486 81.45 226.616 81.35 226.796 81.31L233.126 79.21C234.266 78.83 235.146 78.34 235.766 77.74C236.386 77.14 236.816 76.44 237.056 75.64C237.316 74.84 237.446 73.97 237.446 73.03V65.56C237.446 65.36 237.506 65.2 237.626 65.08C237.766 64.94 237.936 64.87 238.136 64.87H239.486C239.686 64.87 239.846 64.94 239.966 65.08C240.106 65.2 240.176 65.36 240.176 65.56V73.87C240.176 75.03 239.906 76.13 239.366 77.17C238.846 78.19 238.106 79.09 237.146 79.87C236.186 80.63 235.046 81.21 233.726 81.61L227.126 83.65ZM231.056 81.28L226.826 66.07C226.786 65.91 226.746 65.79 226.706 65.71C226.686 65.63 226.676 65.55 226.676 65.47C226.676 65.31 226.736 65.17 226.856 65.05C226.976 64.93 227.116 64.87 227.276 64.87H228.746C229.126 64.87 229.356 65.02 229.436 65.32L233.606 80.59L231.056 81.28ZM245.31 87.73C245.11 87.73 244.94 87.66 244.8 87.52C244.68 87.4 244.62 87.24 244.62 87.04V71.29C244.62 71.09 244.68 70.93 244.8 70.81C244.94 70.67 245.11 70.6 245.31 70.6H246.63C246.85 70.6 247.02 70.67 247.14 70.81C247.26 70.93 247.32 71.09 247.32 71.29V87.04C247.32 87.24 247.26 87.4 247.14 87.52C247.02 87.66 246.85 87.73 246.63 87.73H245.31ZM251.07 82.27C250.89 82.33 250.72 82.3 250.56 82.18C250.42 82.08 250.35 81.93 250.35 81.73V80.35C250.35 80.17 250.4 80.01 250.5 79.87C250.62 79.73 250.79 79.62 251.01 79.54L252.15 79.09C252.95 78.77 253.67 78.37 254.31 77.89C254.97 77.39 255.48 76.72 255.84 75.88C256.22 75.04 256.41 73.94 256.41 72.58C256.41 71.28 256.25 70.25 255.93 69.49C255.61 68.71 255.08 68.16 254.34 67.84C253.62 67.5 252.64 67.33 251.4 67.33H245.31C245.11 67.33 244.94 67.27 244.8 67.15C244.68 67.01 244.62 66.84 244.62 66.64V65.56C244.62 65.36 244.68 65.2 244.8 65.08C244.94 64.94 245.11 64.87 245.31 64.87H251.79C253.63 64.87 255.08 65.13 256.14 65.65C257.22 66.17 257.99 67.01 258.45 68.17C258.93 69.31 259.17 70.81 259.17 72.67C259.17 74.07 258.98 75.28 258.6 76.3C258.22 77.32 257.7 78.19 257.04 78.91C256.4 79.63 255.67 80.23 254.85 80.71C254.05 81.17 253.21 81.55 252.33 81.85L251.07 82.27ZM271.919 79.75C273.219 79.77 274.309 79.53 275.189 79.03C276.089 78.53 276.769 77.82 277.229 76.9C277.709 75.96 277.949 74.89 277.949 73.69V65.56C277.949 65.36 278.009 65.2 278.129 65.08C278.269 64.94 278.439 64.87 278.639 64.87H279.869C280.089 64.87 280.259 64.94 280.379 65.08C280.499 65.2 280.559 65.36 280.559 65.56V73.9C280.559 75.18 280.359 76.34 279.959 77.38C279.559 78.4 278.989 79.28 278.249 80.02C277.509 80.74 276.629 81.29 275.609 81.67C274.609 82.05 273.499 82.22 272.279 82.18H270.029C268.729 82.18 267.559 81.88 266.519 81.28C265.479 80.68 264.659 79.84 264.059 78.76C263.459 77.68 263.159 76.43 263.159 75.01V65.56C263.159 65.36 263.219 65.2 263.339 65.08C263.479 64.94 263.649 64.87 263.849 64.87H265.109C265.309 64.87 265.469 64.94 265.589 65.08C265.729 65.2 265.799 65.36 265.799 65.56L265.889 74.41C265.889 76.13 266.369 77.45 267.329 78.37C268.289 79.29 269.509 79.75 270.989 79.75H271.919ZM265.259 76.24L265.199 74.05C266.679 74.03 267.809 73.81 268.589 73.39C269.369 72.95 269.909 72.37 270.209 71.65C270.529 70.93 270.689 70.14 270.689 69.28V65.56C270.689 65.36 270.749 65.2 270.869 65.08C270.989 64.94 271.159 64.87 271.379 64.87H272.609C272.809 64.87 272.969 64.94 273.089 65.08C273.229 65.2 273.299 65.36 273.299 65.56V69.4C273.299 70.7 273.009 71.87 272.429 72.91C271.849 73.95 270.959 74.77 269.759 75.37C268.579 75.97 267.079 76.26 265.259 76.24ZM288.446 82.27C288.266 82.33 288.096 82.3 287.936 82.18C287.776 82.08 287.696 81.93 287.696 81.73V80.35C287.696 80.17 287.746 80.01 287.846 79.87C287.966 79.73 288.136 79.62 288.356 79.54L289.526 79.09C290.306 78.77 291.016 78.37 291.656 77.89C292.316 77.39 292.826 76.72 293.186 75.88C293.566 75.04 293.756 73.94 293.756 72.58C293.756 71.28 293.596 70.25 293.276 69.49C292.976 68.71 292.456 68.16 291.716 67.84C290.996 67.5 290.006 67.33 288.746 67.33H287.846C287.646 67.33 287.476 67.27 287.336 67.15C287.216 67.01 287.156 66.84 287.156 66.64V65.56C287.156 65.36 287.216 65.2 287.336 65.08C287.476 64.94 287.646 64.87 287.846 64.87H289.166C290.986 64.87 292.436 65.13 293.516 65.65C294.596 66.17 295.366 67.01 295.826 68.17C296.306 69.31 296.546 70.81 296.546 72.67C296.546 74.07 296.356 75.28 295.976 76.3C295.596 77.32 295.076 78.19 294.416 78.91C293.776 79.63 293.046 80.23 292.226 80.71C291.406 81.17 290.556 81.55 289.676 81.85L288.446 82.27ZM288.506 67.33L284.936 67.3C284.736 67.3 284.566 67.24 284.426 67.12C284.306 67 284.246 66.84 284.246 66.64V61.39C284.246 61.19 284.306 61.03 284.426 60.91C284.566 60.77 284.736 60.7 284.936 60.7H286.196C286.396 60.7 286.556 60.77 286.676 60.91C286.816 61.03 286.886 61.19 286.886 61.39V64.87H288.566L288.506 67.33ZM66.9063 125.72C66.7063 125.72 66.5363 125.65 66.3963 125.51C66.2763 125.39 66.2163 125.23 66.2163 125.03V105.56C66.2163 105.36 66.2763 105.2 66.3963 105.08C66.5363 104.94 66.7063 104.87 66.9063 104.87H68.2563C68.4763 104.87 68.6463 104.94 68.7663 105.08C68.8863 105.2 68.9463 105.36 68.9463 105.56V125.03C68.9463 125.23 68.8863 125.39 68.7663 125.51C68.6463 125.65 68.4763 125.72 68.2563 125.72H66.9063ZM74.2598 122C74.0598 122 73.8898 121.94 73.7498 121.82C73.6298 121.68 73.5698 121.51 73.5698 121.31V105.56C73.5698 105.36 73.6298 105.2 73.7498 105.08C73.8898 104.94 74.0598 104.87 74.2598 104.87H75.6698C75.8898 104.87 76.0598 104.94 76.1798 105.08C76.2998 105.2 76.3598 105.36 76.3598 105.56V121.31C76.3598 121.51 76.2998 121.68 76.1798 121.82C76.0598 121.94 75.8898 122 75.6698 122H74.2598ZM84.6719 122.27C84.4919 122.33 84.3219 122.3 84.1619 122.18C84.0019 122.08 83.9219 121.93 83.9219 121.73V120.35C83.9219 120.17 83.9719 120.01 84.0719 119.87C84.1919 119.73 84.3619 119.62 84.5819 119.54L85.7519 119.09C86.5319 118.77 87.2419 118.37 87.8819 117.89C88.5419 117.39 89.0519 116.72 89.4119 115.88C89.7919 115.04 89.9819 113.94 89.9819 112.58C89.9819 111.28 89.8219 110.25 89.5019 109.49C89.2019 108.71 88.6819 108.16 87.9419 107.84C87.2219 107.5 86.2319 107.33 84.9719 107.33H84.0719C83.8719 107.33 83.7019 107.27 83.5619 107.15C83.4419 107.01 83.3819 106.84 83.3819 106.64V105.56C83.3819 105.36 83.4419 105.2 83.5619 105.08C83.7019 104.94 83.8719 104.87 84.0719 104.87H85.3919C87.2119 104.87 88.6619 105.13 89.7419 105.65C90.8219 106.17 91.5919 107.01 92.0519 108.17C92.5319 109.31 92.7719 110.81 92.7719 112.67C92.7719 114.07 92.5819 115.28 92.2019 116.3C91.8219 117.32 91.3019 118.19 90.6419 118.91C90.0019 119.63 89.2719 120.23 88.4519 120.71C87.6319 121.17 86.7819 121.55 85.9019 121.85L84.6719 122.27ZM84.7319 107.33L81.1619 107.3C80.9619 107.3 80.7919 107.24 80.6519 107.12C80.5319 107 80.4719 106.84 80.4719 106.64V101.39C80.4719 101.19 80.5319 101.03 80.6519 100.91C80.7919 100.77 80.9619 100.7 81.1619 100.7H82.4219C82.6219 100.7 82.7819 100.77 82.9019 100.91C83.0419 101.03 83.1119 101.19 83.1119 101.39V104.87H84.7919L84.7319 107.33ZM96.6843 122C96.4843 122 96.3143 121.94 96.1743 121.82C96.0543 121.68 95.9943 121.51 95.9943 121.31V120.29C95.9943 120.09 96.0543 119.93 96.1743 119.81C96.3143 119.67 96.4843 119.6 96.6843 119.6H105.294V112.34C105.294 110.74 104.894 109.5 104.094 108.62C103.294 107.72 102.004 107.27 100.224 107.27H96.9843C96.7843 107.27 96.6143 107.21 96.4743 107.09C96.3543 106.95 96.2943 106.78 96.2943 106.58V105.56C96.2943 105.36 96.3543 105.2 96.4743 105.08C96.6143 104.94 96.7843 104.87 96.9843 104.87H100.374C102.094 104.87 103.524 105.15 104.664 105.71C105.804 106.27 106.654 107.1 107.214 108.2C107.794 109.28 108.084 110.63 108.084 112.25V119.6H109.194C109.394 119.6 109.554 119.67 109.674 119.81C109.814 119.93 109.884 120.09 109.884 120.29V121.31C109.884 121.51 109.814 121.68 109.674 121.82C109.554 121.94 109.394 122 109.194 122H96.6843ZM125.152 122C124.952 122 124.782 121.94 124.642 121.82C124.522 121.68 124.462 121.51 124.462 121.31V112.34C124.462 110.74 124.062 109.5 123.262 108.62C122.462 107.72 121.172 107.27 119.392 107.27H113.752C113.552 107.27 113.382 107.21 113.242 107.09C113.122 106.95 113.062 106.78 113.062 106.58V105.56C113.062 105.36 113.122 105.2 113.242 105.08C113.382 104.94 113.552 104.87 113.752 104.87H119.542C122.142 104.87 124.062 105.5 125.302 106.76C126.562 108.02 127.192 109.85 127.192 112.25V121.31C127.192 121.51 127.122 121.68 126.982 121.82C126.862 121.94 126.702 122 126.502 122H125.152ZM113.752 122C113.552 122 113.382 121.94 113.242 121.82C113.122 121.68 113.062 121.51 113.062 121.31V111.29C113.062 111.09 113.122 110.93 113.242 110.81C113.382 110.67 113.552 110.6 113.752 110.6H115.102C115.322 110.6 115.492 110.67 115.612 110.81C115.732 110.93 115.792 111.09 115.792 111.29V121.31C115.792 121.51 115.732 121.68 115.612 121.82C115.492 121.94 115.322 122 115.102 122H113.752ZM139.68 122C139.48 122 139.31 121.94 139.17 121.82C139.05 121.68 138.99 121.51 138.99 121.31V105.56C138.99 105.36 139.05 105.2 139.17 105.08C139.31 104.94 139.48 104.87 139.68 104.87H145.5C147.24 104.87 148.67 105.15 149.79 105.71C150.93 106.25 151.78 107.07 152.34 108.17C152.9 109.25 153.18 110.61 153.18 112.25V121.31C153.18 121.51 153.11 121.68 152.97 121.82C152.85 121.94 152.69 122 152.49 122H151.14C150.92 122 150.75 121.94 150.63 121.82C150.51 121.68 150.45 121.51 150.45 121.31V112.34C150.45 110.74 150.05 109.5 149.25 108.62C148.45 107.72 147.15 107.27 145.35 107.27H141.72V121.31C141.72 121.51 141.66 121.68 141.54 121.82C141.42 121.94 141.25 122 141.03 122H139.68ZM158.313 122C158.113 122 157.943 121.94 157.803 121.82C157.683 121.68 157.623 121.51 157.623 121.31V105.56C157.623 105.36 157.683 105.2 157.803 105.08C157.943 104.94 158.113 104.87 158.313 104.87H159.722C159.943 104.87 160.113 104.94 160.233 105.08C160.353 105.2 160.413 105.36 160.413 105.56V121.31C160.413 121.51 160.353 121.68 160.233 121.82C160.113 121.94 159.943 122 159.722 122H158.313ZM167.465 107.33V109.67C167.485 110.39 167.575 110.99 167.735 111.47C167.895 111.95 168.205 112.25 168.665 112.37L169.775 112.67C169.935 112.71 170.055 112.82 170.135 113C170.235 113.16 170.285 113.36 170.285 113.6V114.35C170.285 114.57 170.175 114.73 169.955 114.83C169.735 114.93 169.495 114.96 169.235 114.92L168.065 114.68C167.425 114.52 166.875 114.24 166.415 113.84C165.955 113.42 165.605 112.86 165.365 112.16C165.145 111.44 165.035 110.58 165.035 109.58V105.56C165.035 105.36 165.095 105.2 165.215 105.08C165.335 104.94 165.505 104.87 165.725 104.87H171.275C172.775 104.87 174.025 105.17 175.025 105.77C176.025 106.35 176.785 107.2 177.305 108.32C177.825 109.42 178.105 110.75 178.145 112.31C178.165 112.61 178.175 112.99 178.175 113.45C178.175 113.89 178.165 114.26 178.145 114.56C178.105 116.1 177.825 117.43 177.305 118.55C176.785 119.67 176.025 120.53 175.025 121.13C174.025 121.71 172.775 122 171.275 122H166.085C165.885 122 165.715 121.94 165.575 121.82C165.455 121.68 165.395 121.51 165.395 121.31V120.23C165.395 120.03 165.455 119.87 165.575 119.75C165.715 119.61 165.885 119.54 166.085 119.54H171.125C172.505 119.54 173.565 119.1 174.305 118.22C175.065 117.32 175.485 116.07 175.565 114.47C175.585 114.17 175.595 113.83 175.595 113.45C175.595 113.05 175.585 112.7 175.565 112.4C175.525 110.8 175.115 109.56 174.335 108.68C173.575 107.78 172.505 107.33 171.125 107.33H167.465ZM182.595 115.04C182.395 115.04 182.225 114.98 182.085 114.86C181.965 114.72 181.905 114.55 181.905 114.35V105.56C181.905 105.36 181.965 105.2 182.085 105.08C182.225 104.94 182.395 104.87 182.595 104.87H184.005C184.225 104.87 184.395 104.94 184.515 105.08C184.635 105.2 184.695 105.36 184.695 105.56V114.35C184.695 114.55 184.635 114.72 184.515 114.86C184.395 114.98 184.225 115.04 184.005 115.04H182.595ZM188.876 122C188.676 122 188.506 121.94 188.366 121.82C188.246 121.68 188.186 121.51 188.186 121.31V120.29C188.186 120.09 188.246 119.93 188.366 119.81C188.506 119.67 188.676 119.6 188.876 119.6H197.336V121.43C197.336 121.63 197.266 121.78 197.126 121.88C197.006 121.96 196.846 122 196.646 122H188.876ZM195.506 122C195.306 122 195.146 121.94 195.026 121.82C194.926 121.68 194.856 121.51 194.816 121.31L194.246 112.04C194.206 111.06 194.126 110.21 194.006 109.49C193.906 108.77 193.666 108.21 193.286 107.81C192.926 107.41 192.316 107.21 191.456 107.21H190.226C190.026 107.21 189.856 107.15 189.716 107.03C189.596 106.89 189.536 106.72 189.536 106.52V105.5C189.536 105.3 189.596 105.14 189.716 105.02C189.856 104.88 190.026 104.81 190.226 104.81H191.486C192.626 104.81 193.546 104.98 194.246 105.32C194.946 105.64 195.486 106.12 195.866 106.76C196.246 107.4 196.526 108.16 196.706 109.04C196.886 109.9 197.006 110.87 197.066 111.95L197.606 121.31C197.646 121.51 197.596 121.68 197.456 121.82C197.316 121.94 197.146 122 196.946 122H195.506ZM202.053 122C201.853 122 201.683 121.94 201.543 121.82C201.423 121.68 201.363 121.51 201.363 121.31V105.56C201.363 105.36 201.423 105.2 201.543 105.08C201.683 104.94 201.853 104.87 202.053 104.87H203.463C203.683 104.87 203.853 104.94 203.973 105.08C204.093 105.2 204.153 105.36 204.153 105.56V121.31C204.153 121.51 204.093 121.68 203.973 121.82C203.853 121.94 203.683 122 203.463 122H202.053ZM228.218 122C228.018 122 227.848 121.94 227.708 121.82C227.588 121.68 227.528 121.51 227.528 121.31V112.34C227.528 110.74 227.128 109.5 226.328 108.62C225.528 107.72 224.238 107.27 222.458 107.27H216.818C216.618 107.27 216.448 107.21 216.308 107.09C216.188 106.95 216.128 106.78 216.128 106.58V105.56C216.128 105.36 216.188 105.2 216.308 105.08C216.448 104.94 216.618 104.87 216.818 104.87H222.608C225.208 104.87 227.128 105.5 228.368 106.76C229.628 108.02 230.258 109.85 230.258 112.25V121.31C230.258 121.51 230.188 121.68 230.048 121.82C229.928 121.94 229.768 122 229.568 122H228.218ZM216.818 122C216.618 122 216.448 121.94 216.308 121.82C216.188 121.68 216.128 121.51 216.128 121.31V111.29C216.128 111.09 216.188 110.93 216.308 110.81C216.448 110.67 216.618 110.6 216.818 110.6H218.168C218.388 110.6 218.558 110.67 218.678 110.81C218.798 110.93 218.858 111.09 218.858 111.29V121.31C218.858 121.51 218.798 121.68 218.678 121.82C218.558 121.94 218.388 122 218.168 122H216.818ZM243.719 122C243.519 122 243.349 121.94 243.209 121.82C243.089 121.68 243.029 121.51 243.029 121.31V112.34C243.029 110.74 242.629 109.5 241.829 108.62C241.029 107.72 239.739 107.27 237.959 107.27H234.029C233.829 107.27 233.659 107.21 233.519 107.09C233.399 106.95 233.339 106.78 233.339 106.58V105.56C233.339 105.36 233.399 105.2 233.519 105.08C233.659 104.94 233.829 104.87 234.029 104.87H238.109C239.829 104.87 241.249 105.14 242.369 105.68C243.509 106.22 244.359 107.04 244.919 108.14C245.479 109.22 245.759 110.57 245.759 112.19V121.31C245.759 121.51 245.689 121.68 245.549 121.82C245.429 121.94 245.269 122 245.069 122H243.719ZM250.891 122C250.691 122 250.521 121.94 250.381 121.82C250.261 121.68 250.201 121.51 250.201 121.31V105.56C250.201 105.36 250.261 105.2 250.381 105.08C250.521 104.94 250.691 104.87 250.891 104.87H252.301C252.521 104.87 252.691 104.94 252.811 105.08C252.931 105.2 252.991 105.36 252.991 105.56V121.31C252.991 121.51 252.931 121.68 252.811 121.82C252.691 121.94 252.521 122 252.301 122H250.891ZM257.343 122C257.143 122 256.973 121.94 256.833 121.82C256.713 121.68 256.653 121.51 256.653 121.31V120.29C256.653 120.09 256.713 119.93 256.833 119.81C256.973 119.67 257.143 119.6 257.343 119.6H265.803V121.43C265.803 121.63 265.733 121.78 265.593 121.88C265.473 121.96 265.313 122 265.113 122H257.343ZM263.973 122C263.773 122 263.613 121.94 263.493 121.82C263.393 121.68 263.323 121.51 263.283 121.31L262.713 112.04C262.673 111.06 262.593 110.21 262.473 109.49C262.373 108.77 262.133 108.21 261.753 107.81C261.393 107.41 260.783 107.21 259.923 107.21H258.693C258.493 107.21 258.323 107.15 258.183 107.03C258.063 106.89 258.003 106.72 258.003 106.52V105.5C258.003 105.3 258.063 105.14 258.183 105.02C258.323 104.88 258.493 104.81 258.693 104.81H259.953C261.093 104.81 262.013 104.98 262.713 105.32C263.413 105.64 263.953 106.12 264.333 106.76C264.713 107.4 264.993 108.16 265.173 109.04C265.353 109.9 265.473 110.87 265.533 111.95L266.073 121.31C266.113 121.51 266.063 121.68 265.923 121.82C265.783 121.94 265.613 122 265.413 122H263.973ZM281.92 122C281.72 122 281.55 121.94 281.41 121.82C281.29 121.68 281.23 121.51 281.23 121.31V112.34C281.23 110.74 280.83 109.5 280.03 108.62C279.23 107.72 277.94 107.27 276.16 107.27H270.52C270.32 107.27 270.15 107.21 270.01 107.09C269.89 106.95 269.83 106.78 269.83 106.58V105.56C269.83 105.36 269.89 105.2 270.01 105.08C270.15 104.94 270.32 104.87 270.52 104.87H276.31C278.91 104.87 280.83 105.5 282.07 106.76C283.33 108.02 283.96 109.85 283.96 112.25V121.31C283.96 121.51 283.89 121.68 283.75 121.82C283.63 121.94 283.47 122 283.27 122H281.92ZM270.52 122C270.32 122 270.15 121.94 270.01 121.82C269.89 121.68 269.83 121.51 269.83 121.31V111.29C269.83 111.09 269.89 110.93 270.01 110.81C270.15 110.67 270.32 110.6 270.52 110.6H271.87C272.09 110.6 272.26 110.67 272.38 110.81C272.5 110.93 272.56 111.09 272.56 111.29V121.31C272.56 121.51 272.5 121.68 272.38 121.82C272.26 121.94 272.09 122 271.87 122H270.52Z" fill="black"/>
<defs>
<filter id="filter0_d_106_213" x="0" y="0" width="378" height="148" filterUnits="userSpaceOnUse" color-interpolation-filters="sRGB">
<feFlood flood-opacity="0" result="BackgroundImageFix"/>
<feColorMatrix in="SourceAlpha" type="matrix" values="0 0 0 0 0 0 0 0 0 0 0 0 0 0 0 0 0 0 127 0" result="hardAlpha"/>
<feOffset dx="4" dy="4"/>
<feGaussianBlur stdDeviation="2"/>
<feComposite in2="hardAlpha" operator="out"/>
<feColorMatrix type="matrix" values="0 0 0 0 0 0 0 0 0 0 0 0 0 0 0 0 0 0 0.25 0"/>
<feBlend mode="normal" in2="BackgroundImageFix" result="effect1_dropShadow_106_213"/>
<feBlend mode="normal" in="SourceGraphic" in2="effect1_dropShadow_106_213" result="shape"/>
</filter>
</defs>
</svg>
