<svg width="378" height="148" viewBox="0 0 378 148" fill="none" xmlns="http://www.w3.org/2000/svg">
<g filter="url(#filter0_d_106_210)">
<rect width="370" height="140" rx="20" fill="#FDF4D4"/>
</g>
<path d="M52.7447 42C52.5447 42 52.3747 41.94 52.2347 41.82C52.1147 41.68 52.0547 41.51 52.0547 41.31V32.34C52.0547 30.74 51.6547 29.5 50.8547 28.62C50.0547 27.72 48.7647 27.27 46.9847 27.27H41.3447C41.1447 27.27 40.9747 27.21 40.8347 27.09C40.7147 26.95 40.6547 26.78 40.6547 26.58V25.56C40.6547 25.36 40.7147 25.2 40.8347 25.08C40.9747 24.94 41.1447 24.87 41.3447 24.87H47.1347C49.7347 24.87 51.6547 25.5 52.8947 26.76C54.1547 28.02 54.7847 29.85 54.7847 32.25V41.31C54.7847 41.51 54.7147 41.68 54.5747 41.82C54.4547 41.94 54.2947 42 54.0947 42H52.7447ZM41.3447 42C41.1447 42 40.9747 41.94 40.8347 41.82C40.7147 41.68 40.6547 41.51 40.6547 41.31V31.29C40.6547 31.09 40.7147 30.93 40.8347 30.81C40.9747 30.67 41.1447 30.6 41.3447 30.6H42.6947C42.9147 30.6 43.0847 30.67 43.2047 30.81C43.3247 30.93 43.3847 31.09 43.3847 31.29V41.31C43.3847 41.51 43.3247 41.68 43.2047 41.82C43.0847 41.94 42.9147 42 42.6947 42H41.3447ZM59.1989 42C58.9989 42 58.8289 41.94 58.6889 41.82C58.5689 41.68 58.5089 41.51 58.5089 41.31V40.29C58.5089 40.09 58.5689 39.93 58.6889 39.81C58.8289 39.67 58.9989 39.6 59.1989 39.6H67.8089V32.34C67.8089 30.74 67.4089 29.5 66.6089 28.62C65.8089 27.72 64.5189 27.27 62.7389 27.27H59.4989C59.2989 27.27 59.1289 27.21 58.9889 27.09C58.8689 26.95 58.8089 26.78 58.8089 26.58V25.56C58.8089 25.36 58.8689 25.2 58.9889 25.08C59.1289 24.94 59.2989 24.87 59.4989 24.87H62.8889C64.6089 24.87 66.0389 25.15 67.1789 25.71C68.3189 26.27 69.1689 27.1 69.7289 28.2C70.3089 29.28 70.5989 30.63 70.5989 32.25V39.6H71.7089C71.9089 39.6 72.0689 39.67 72.1889 39.81C72.3289 39.93 72.3989 40.09 72.3989 40.29V41.31C72.3989 41.51 72.3289 41.68 72.1889 41.82C72.0689 41.94 71.9089 42 71.7089 42H59.1989ZM76.2666 42C76.0666 42 75.8966 41.94 75.7566 41.82C75.6366 41.68 75.5766 41.51 75.5766 41.31V25.56C75.5766 25.36 75.6366 25.2 75.7566 25.08C75.8966 24.94 76.0666 24.87 76.2666 24.87H77.6766C77.8966 24.87 78.0666 24.94 78.1866 25.08C78.3066 25.2 78.3666 25.36 78.3666 25.56V41.31C78.3666 41.51 78.3066 41.68 78.1866 41.82C78.0666 41.94 77.8966 42 77.6766 42H76.2666ZM83.0487 42C82.8487 42 82.6787 41.94 82.5387 41.82C82.4187 41.68 82.3587 41.51 82.3587 41.31V40.26C82.3587 40.06 82.4187 39.9 82.5387 39.78C82.6787 39.64 82.8487 39.57 83.0487 39.57H91.1787L81.7887 26.04C81.7287 25.92 81.6787 25.82 81.6387 25.74C81.5987 25.64 81.5787 25.55 81.5787 25.47C81.5787 25.31 81.6387 25.17 81.7587 25.05C81.8987 24.93 82.0487 24.87 82.2087 24.87H83.6487C83.8487 24.87 84.0087 24.93 84.1287 25.05C84.2687 25.15 84.3787 25.26 84.4587 25.38L94.2387 39.39C94.3387 39.53 94.4187 39.68 94.4787 39.84C94.5587 39.98 94.5987 40.14 94.5987 40.32V41.31C94.5987 41.51 94.5287 41.68 94.3887 41.82C94.2687 41.94 94.1087 42 93.9087 42H83.0487ZM90.6387 35.16L89.3187 33.21C90.3587 32.83 91.1087 32.21 91.5687 31.35C92.0487 30.47 92.2887 29.4 92.2887 28.14V25.56C92.2887 25.36 92.3487 25.2 92.4687 25.08C92.6087 24.94 92.7787 24.87 92.9787 24.87H94.2087C94.4287 24.87 94.5987 24.94 94.7187 25.08C94.8387 25.2 94.8987 25.36 94.8987 25.56V28.5C94.8987 30.12 94.5387 31.5 93.8187 32.64C93.0987 33.78 92.0387 34.62 90.6387 35.16ZM99.6748 42C99.4748 42 99.3048 41.94 99.1648 41.82C99.0448 41.68 98.9848 41.51 98.9848 41.31V25.56C98.9848 25.36 99.0448 25.2 99.1648 25.08C99.3048 24.94 99.4748 24.87 99.6748 24.87H105.495C107.235 24.87 108.665 25.15 109.785 25.71C110.925 26.25 111.775 27.07 112.335 28.17C112.895 29.25 113.175 30.61 113.175 32.25V41.31C113.175 41.51 113.105 41.68 112.965 41.82C112.845 41.94 112.685 42 112.485 42H111.135C110.915 42 110.745 41.94 110.625 41.82C110.505 41.68 110.445 41.51 110.445 41.31V32.34C110.445 30.74 110.045 29.5 109.245 28.62C108.445 27.72 107.145 27.27 105.345 27.27H101.715V41.31C101.715 41.51 101.655 41.68 101.535 41.82C101.415 41.94 101.245 42 101.025 42H99.6748ZM129.708 42C129.508 42 129.338 41.94 129.198 41.82C129.078 41.68 129.018 41.51 129.018 41.31V32.34C129.018 30.74 128.618 29.5 127.818 28.62C127.018 27.72 125.728 27.27 123.948 27.27H118.308C118.108 27.27 117.938 27.21 117.798 27.09C117.678 26.95 117.618 26.78 117.618 26.58V25.56C117.618 25.36 117.678 25.2 117.798 25.08C117.938 24.94 118.108 24.87 118.308 24.87H124.098C126.698 24.87 128.618 25.5 129.858 26.76C131.118 28.02 131.748 29.85 131.748 32.25V41.31C131.748 41.51 131.678 41.68 131.538 41.82C131.418 41.94 131.258 42 131.058 42H129.708ZM118.308 42C118.108 42 117.938 41.94 117.798 41.82C117.678 41.68 117.618 41.51 117.618 41.31V31.29C117.618 31.09 117.678 30.93 117.798 30.81C117.938 30.67 118.108 30.6 118.308 30.6H119.658C119.878 30.6 120.048 30.67 120.168 30.81C120.288 30.93 120.348 31.09 120.348 31.29V41.31C120.348 41.51 120.288 41.68 120.168 41.82C120.048 41.94 119.878 42 119.658 42H118.308ZM144.025 35.04C143.825 35.04 143.655 34.98 143.515 34.86C143.395 34.72 143.335 34.55 143.335 34.35V25.56C143.335 25.36 143.395 25.2 143.515 25.08C143.655 24.94 143.825 24.87 144.025 24.87H145.435C145.655 24.87 145.825 24.94 145.945 25.08C146.065 25.2 146.125 25.36 146.125 25.56V34.35C146.125 34.55 146.065 34.72 145.945 34.86C145.825 34.98 145.655 35.04 145.435 35.04H144.025ZM154.267 42.27C154.087 42.33 153.917 42.3 153.757 42.18C153.597 42.08 153.517 41.93 153.517 41.73V40.35C153.517 40.17 153.567 40.01 153.667 39.87C153.787 39.73 153.957 39.62 154.177 39.54L155.347 39.09C156.127 38.77 156.837 38.37 157.477 37.89C158.137 37.39 158.647 36.72 159.007 35.88C159.387 35.04 159.577 33.94 159.577 32.58C159.577 31.28 159.417 30.25 159.097 29.49C158.797 28.71 158.277 28.16 157.537 27.84C156.817 27.5 155.827 27.33 154.567 27.33H153.667C153.467 27.33 153.297 27.27 153.157 27.15C153.037 27.01 152.977 26.84 152.977 26.64V25.56C152.977 25.36 153.037 25.2 153.157 25.08C153.297 24.94 153.467 24.87 153.667 24.87H154.987C156.807 24.87 158.257 25.13 159.337 25.65C160.417 26.17 161.187 27.01 161.647 28.17C162.127 29.31 162.367 30.81 162.367 32.67C162.367 34.07 162.177 35.28 161.797 36.3C161.417 37.32 160.897 38.19 160.237 38.91C159.597 39.63 158.867 40.23 158.047 40.71C157.227 41.17 156.377 41.55 155.497 41.85L154.267 42.27ZM154.327 27.33L150.757 27.3C150.557 27.3 150.387 27.24 150.247 27.12C150.127 27 150.067 26.84 150.067 26.64V21.39C150.067 21.19 150.127 21.03 150.247 20.91C150.387 20.77 150.557 20.7 150.757 20.7H152.017C152.217 20.7 152.377 20.77 152.497 20.91C152.637 21.03 152.707 21.19 152.707 21.39V24.87H154.387L154.327 27.33ZM174.14 42C173.94 42 173.78 41.94 173.66 41.82C173.56 41.68 173.49 41.51 173.45 41.31L171.62 32.1C171.42 31.04 171.18 30.16 170.9 29.46C170.64 28.74 170.28 28.2 169.82 27.84C169.38 27.46 168.77 27.27 167.99 27.27H166.91C166.71 27.27 166.54 27.21 166.4 27.09C166.28 26.95 166.22 26.78 166.22 26.58V25.5C166.22 25.3 166.28 25.14 166.4 25.02C166.54 24.88 166.71 24.81 166.91 24.81H168.02C169.36 24.81 170.44 25.08 171.26 25.62C172.08 26.14 172.73 26.93 173.21 27.99C173.71 29.05 174.12 30.37 174.44 31.95L176.24 41.31C176.28 41.51 176.23 41.68 176.09 41.82C175.95 41.94 175.78 42 175.58 42H174.14ZM170.27 40.47C169.53 40.97 168.83 41.36 168.17 41.64C167.53 41.9 166.86 42.1 166.16 42.24C165.96 42.26 165.79 42.24 165.65 42.18C165.51 42.12 165.44 41.99 165.44 41.79V40.29C165.44 39.95 165.65 39.7 166.07 39.54C166.21 39.48 166.47 39.39 166.85 39.27C167.23 39.15 167.64 39 168.08 38.82C168.52 38.62 168.9 38.42 169.22 38.22C169.72 37.9 170.21 37.49 170.69 36.99C171.17 36.47 171.57 35.94 171.89 35.4C172.23 34.84 172.4 34.35 172.4 33.93L174.14 33.72C174.12 34.58 173.93 35.45 173.57 36.33C173.21 37.21 172.74 38.01 172.16 38.73C171.58 39.45 170.95 40.03 170.27 40.47ZM187.835 42C187.635 42 187.465 41.94 187.325 41.82C187.205 41.68 187.145 41.51 187.145 41.31V32.34C187.145 30.74 186.745 29.5 185.945 28.62C185.145 27.72 183.855 27.27 182.075 27.27H178.145C177.945 27.27 177.775 27.21 177.635 27.09C177.515 26.95 177.455 26.78 177.455 26.58V25.56C177.455 25.36 177.515 25.2 177.635 25.08C177.775 24.94 177.945 24.87 178.145 24.87H182.225C183.945 24.87 185.365 25.14 186.485 25.68C187.625 26.22 188.475 27.04 189.035 28.14C189.595 29.22 189.875 30.57 189.875 32.19V41.31C189.875 41.51 189.805 41.68 189.665 41.82C189.545 41.94 189.385 42 189.185 42H187.835ZM202.87 27.27C202.67 27.27 202.5 27.21 202.36 27.09C202.24 26.95 202.18 26.78 202.18 26.58V25.56C202.18 25.36 202.24 25.2 202.36 25.08C202.5 24.94 202.67 24.87 202.87 24.87H209.38C211.1 24.87 212.52 25.15 213.64 25.71C214.78 26.25 215.63 27.07 216.19 28.17C216.75 29.25 217.03 30.59 217.03 32.19V41.31C217.03 41.51 216.96 41.68 216.82 41.82C216.7 41.94 216.54 42 216.34 42H214.99C214.77 42 214.6 41.94 214.48 41.82C214.36 41.68 214.3 41.51 214.3 41.31V32.34C214.3 30.74 213.89 29.5 213.07 28.62C212.27 27.72 210.98 27.27 209.2 27.27H202.87ZM205.57 25.8H206.32C206.62 25.8 206.84 25.88 206.98 26.04C207.14 26.18 207.21 26.36 207.19 26.58C207.03 27.42 206.89 28.18 206.77 28.86C206.67 29.54 206.6 30.22 206.56 30.9C206.52 31.56 206.5 32.31 206.5 33.15L206.56 41.31C206.56 41.51 206.5 41.68 206.38 41.82C206.26 41.94 206.1 42 205.9 42L201.64 41.94C201.44 41.94 201.27 41.88 201.13 41.76C201.01 41.64 200.95 41.47 200.95 41.25V40.29C200.95 40.09 201.01 39.93 201.13 39.81C201.27 39.67 201.44 39.6 201.64 39.6L203.95 39.63V33.27C203.95 32.45 203.96 31.7 203.98 31.02C204 30.32 204.06 29.62 204.16 28.92C204.26 28.22 204.42 27.43 204.64 26.55C204.7 26.33 204.79 26.15 204.91 26.01C205.05 25.87 205.27 25.8 205.57 25.8ZM233.145 42C232.925 42 232.755 41.94 232.635 41.82C232.515 41.7 232.405 41.6 232.305 41.52L221.295 26.04C221.155 25.82 221.085 25.63 221.085 25.47C221.085 25.31 221.145 25.17 221.265 25.05C221.405 24.93 221.555 24.87 221.715 24.87H223.095C223.335 24.87 223.515 24.93 223.635 25.05C223.775 25.17 223.885 25.28 223.965 25.38L235.005 40.83C235.085 40.97 235.135 41.08 235.155 41.16C235.195 41.24 235.215 41.32 235.215 41.4C235.215 41.56 235.155 41.7 235.035 41.82C234.915 41.94 234.765 42 234.585 42H233.145ZM221.445 42C221.245 42 221.075 41.94 220.935 41.82C220.815 41.68 220.755 41.51 220.755 41.31V36.81C220.755 35.89 220.845 35.02 221.025 34.2C221.205 33.36 221.555 32.57 222.075 31.83C222.615 31.07 223.415 30.36 224.475 29.7L225.855 31.71C225.135 32.17 224.595 32.7 224.235 33.3C223.875 33.88 223.635 34.49 223.515 35.13C223.395 35.75 223.335 36.35 223.335 36.93V41.31C223.335 41.51 223.265 41.68 223.125 41.82C223.005 41.94 222.845 42 222.645 42H221.445ZM230.745 36.51L229.515 34.44C230.495 33.98 231.185 33.5 231.585 33C232.005 32.5 232.255 31.98 232.335 31.44C232.415 30.88 232.455 30.3 232.455 29.7V25.56C232.455 25.36 232.515 25.2 232.635 25.08C232.775 24.94 232.945 24.87 233.145 24.87H234.405C234.605 24.87 234.765 24.94 234.885 25.08C235.025 25.2 235.095 25.36 235.095 25.56V29.85C235.095 30.69 234.995 31.5 234.795 32.28C234.595 33.06 234.185 33.8 233.565 34.5C232.965 35.2 232.025 35.87 230.745 36.51ZM247.155 42C246.955 42 246.785 41.94 246.645 41.82C246.525 41.68 246.465 41.51 246.465 41.31V25.56C246.465 25.36 246.525 25.2 246.645 25.08C246.785 24.94 246.955 24.87 247.155 24.87H252.975C254.715 24.87 256.145 25.15 257.265 25.71C258.405 26.25 259.255 27.07 259.815 28.17C260.375 29.25 260.655 30.61 260.655 32.25V41.31C260.655 41.51 260.585 41.68 260.445 41.82C260.325 41.94 260.165 42 259.965 42H258.615C258.395 42 258.225 41.94 258.105 41.82C257.985 41.68 257.925 41.51 257.925 41.31V32.34C257.925 30.74 257.525 29.5 256.725 28.62C255.925 27.72 254.625 27.27 252.825 27.27H249.195V41.31C249.195 41.51 249.135 41.68 249.015 41.82C248.895 41.94 248.725 42 248.505 42H247.155ZM266.298 27.27C266.098 27.27 265.928 27.21 265.788 27.09C265.668 26.95 265.608 26.78 265.608 26.58V25.56C265.608 25.36 265.668 25.2 265.788 25.08C265.928 24.94 266.098 24.87 266.298 24.87H272.808C274.528 24.87 275.948 25.15 277.068 25.71C278.208 26.25 279.058 27.07 279.618 28.17C280.178 29.25 280.458 30.59 280.458 32.19V41.31C280.458 41.51 280.388 41.68 280.248 41.82C280.128 41.94 279.968 42 279.768 42H278.418C278.198 42 278.028 41.94 277.908 41.82C277.788 41.68 277.728 41.51 277.728 41.31V32.34C277.728 30.74 277.318 29.5 276.498 28.62C275.698 27.72 274.408 27.27 272.628 27.27H266.298ZM268.998 25.8H269.748C270.048 25.8 270.268 25.88 270.408 26.04C270.568 26.18 270.638 26.36 270.618 26.58C270.458 27.42 270.318 28.18 270.198 28.86C270.098 29.54 270.028 30.22 269.988 30.9C269.948 31.56 269.928 32.31 269.928 33.15L269.988 41.31C269.988 41.51 269.928 41.68 269.808 41.82C269.688 41.94 269.528 42 269.328 42L265.068 41.94C264.868 41.94 264.698 41.88 264.558 41.76C264.438 41.64 264.378 41.47 264.378 41.25V40.29C264.378 40.09 264.438 39.93 264.558 39.81C264.698 39.67 264.868 39.6 265.068 39.6L267.378 39.63V33.27C267.378 32.45 267.388 31.7 267.408 31.02C267.428 30.32 267.488 29.62 267.588 28.92C267.688 28.22 267.848 27.43 268.068 26.55C268.128 26.33 268.218 26.15 268.338 26.01C268.478 25.87 268.698 25.8 268.998 25.8ZM287.333 27.33V29.67C287.353 30.39 287.443 30.99 287.603 31.47C287.763 31.95 288.073 32.25 288.533 32.37L289.643 32.67C289.803 32.71 289.923 32.82 290.003 33C290.103 33.16 290.153 33.36 290.153 33.6V34.35C290.153 34.57 290.043 34.73 289.823 34.83C289.603 34.93 289.363 34.96 289.103 34.92L287.933 34.68C287.293 34.52 286.743 34.24 286.283 33.84C285.823 33.42 285.473 32.86 285.233 32.16C285.013 31.44 284.903 30.58 284.903 29.58V25.56C284.903 25.36 284.963 25.2 285.083 25.08C285.203 24.94 285.373 24.87 285.593 24.87H291.143C292.643 24.87 293.893 25.17 294.893 25.77C295.893 26.35 296.653 27.2 297.173 28.32C297.693 29.42 297.973 30.75 298.013 32.31C298.033 32.61 298.043 32.99 298.043 33.45C298.043 33.89 298.033 34.26 298.013 34.56C297.973 36.1 297.693 37.43 297.173 38.55C296.653 39.67 295.893 40.53 294.893 41.13C293.893 41.71 292.643 42 291.143 42H285.953C285.753 42 285.583 41.94 285.443 41.82C285.323 41.68 285.263 41.51 285.263 41.31V40.23C285.263 40.03 285.323 39.87 285.443 39.75C285.583 39.61 285.753 39.54 285.953 39.54H290.993C292.373 39.54 293.433 39.1 294.173 38.22C294.933 37.32 295.353 36.07 295.433 34.47C295.453 34.17 295.463 33.83 295.463 33.45C295.463 33.05 295.453 32.7 295.433 32.4C295.393 30.8 294.983 29.56 294.203 28.68C293.443 27.78 292.373 27.33 290.993 27.33H287.333ZM301.478 42C301.278 42 301.108 41.94 300.968 41.82C300.848 41.68 300.788 41.51 300.788 41.31V40.29C300.788 40.09 300.848 39.93 300.968 39.81C301.108 39.67 301.278 39.6 301.478 39.6H309.938V41.43C309.938 41.63 309.868 41.78 309.728 41.88C309.608 41.96 309.448 42 309.248 42H301.478ZM308.108 42C307.908 42 307.748 41.94 307.628 41.82C307.528 41.68 307.458 41.51 307.418 41.31L306.848 32.04C306.808 31.06 306.728 30.21 306.608 29.49C306.508 28.77 306.268 28.21 305.888 27.81C305.528 27.41 304.918 27.21 304.058 27.21H302.828C302.628 27.21 302.458 27.15 302.318 27.03C302.198 26.89 302.138 26.72 302.138 26.52V25.5C302.138 25.3 302.198 25.14 302.318 25.02C302.458 24.88 302.628 24.81 302.828 24.81H304.088C305.228 24.81 306.148 24.98 306.848 25.32C307.548 25.64 308.088 26.12 308.468 26.76C308.848 27.4 309.128 28.16 309.308 29.04C309.488 29.9 309.608 30.87 309.668 31.95L310.208 41.31C310.248 41.51 310.198 41.68 310.058 41.82C309.918 41.94 309.748 42 309.548 42H308.108ZM334.172 35.94C333.592 35.94 333.052 35.8 332.552 35.52C332.052 35.22 331.652 34.83 331.352 34.35C331.072 33.85 330.932 33.31 330.932 32.73C330.932 32.13 331.072 31.59 331.352 31.11C331.652 30.61 332.052 30.22 332.552 29.94C333.052 29.64 333.592 29.49 334.172 29.49C334.772 29.49 335.312 29.64 335.792 29.94C336.272 30.22 336.652 30.61 336.932 31.11C337.232 31.59 337.382 32.13 337.382 32.73C337.382 33.31 337.232 33.85 336.932 34.35C336.652 34.83 336.272 35.22 335.792 35.52C335.312 35.8 334.772 35.94 334.172 35.94ZM32.3332 67.27C32.1332 67.27 31.9632 67.21 31.8232 67.09C31.7032 66.95 31.6432 66.78 31.6432 66.58V65.56C31.6432 65.36 31.7032 65.2 31.8232 65.08C31.9632 64.94 32.1332 64.87 32.3332 64.87H38.8432C40.5632 64.87 41.9832 65.15 43.1032 65.71C44.2432 66.25 45.0932 67.07 45.6532 68.17C46.2132 69.25 46.4932 70.59 46.4932 72.19V81.31C46.4932 81.51 46.4232 81.68 46.2832 81.82C46.1632 81.94 46.0032 82 45.8032 82H44.4532C44.2332 82 44.0632 81.94 43.9432 81.82C43.8232 81.68 43.7632 81.51 43.7632 81.31V72.34C43.7632 70.74 43.3532 69.5 42.5332 68.62C41.7332 67.72 40.4432 67.27 38.6632 67.27H32.3332ZM35.0332 65.8H35.7832C36.0832 65.8 36.3032 65.88 36.4432 66.04C36.6032 66.18 36.6732 66.36 36.6532 66.58C36.4932 67.42 36.3532 68.18 36.2332 68.86C36.1332 69.54 36.0632 70.22 36.0232 70.9C35.9832 71.56 35.9632 72.31 35.9632 73.15L36.0232 81.31C36.0232 81.51 35.9632 81.68 35.8432 81.82C35.7232 81.94 35.5632 82 35.3632 82L31.1032 81.94C30.9032 81.94 30.7332 81.88 30.5932 81.76C30.4732 81.64 30.4132 81.47 30.4132 81.25V80.29C30.4132 80.09 30.4732 79.93 30.5932 79.81C30.7332 79.67 30.9032 79.6 31.1032 79.6L33.4132 79.63V73.27C33.4132 72.45 33.4232 71.7 33.4432 71.02C33.4632 70.32 33.5232 69.62 33.6232 68.92C33.7232 68.22 33.8832 67.43 34.1032 66.55C34.1632 66.33 34.2532 66.15 34.3732 66.01C34.5132 65.87 34.7332 65.8 35.0332 65.8ZM62.6079 82C62.3879 82 62.2179 81.94 62.0979 81.82C61.9779 81.7 61.8679 81.6 61.7679 81.52L50.7579 66.04C50.6179 65.82 50.5479 65.63 50.5479 65.47C50.5479 65.31 50.6079 65.17 50.7279 65.05C50.8679 64.93 51.0179 64.87 51.1779 64.87H52.5579C52.7979 64.87 52.9779 64.93 53.0979 65.05C53.2379 65.17 53.3479 65.28 53.4279 65.38L64.4679 80.83C64.5479 80.97 64.5979 81.08 64.6179 81.16C64.6579 81.24 64.6779 81.32 64.6779 81.4C64.6779 81.56 64.6179 81.7 64.4979 81.82C64.3779 81.94 64.2279 82 64.0479 82H62.6079ZM50.9079 82C50.7079 82 50.5379 81.94 50.3979 81.82C50.2779 81.68 50.2179 81.51 50.2179 81.31V76.81C50.2179 75.89 50.3079 75.02 50.4879 74.2C50.6679 73.36 51.0179 72.57 51.5379 71.83C52.0779 71.07 52.8779 70.36 53.9379 69.7L55.3179 71.71C54.5979 72.17 54.0579 72.7 53.6979 73.3C53.3379 73.88 53.0979 74.49 52.9779 75.13C52.8579 75.75 52.7979 76.35 52.7979 76.93V81.31C52.7979 81.51 52.7279 81.68 52.5879 81.82C52.4679 81.94 52.3079 82 52.1079 82H50.9079ZM60.2079 76.51L58.9779 74.44C59.9579 73.98 60.6479 73.5 61.0479 73C61.4679 72.5 61.7179 71.98 61.7979 71.44C61.8779 70.88 61.9179 70.3 61.9179 69.7V65.56C61.9179 65.36 61.9779 65.2 62.0979 65.08C62.2379 64.94 62.4079 64.87 62.6079 64.87H63.8679C64.0679 64.87 64.2279 64.94 64.3479 65.08C64.4879 65.2 64.5579 65.36 64.5579 65.56V69.85C64.5579 70.69 64.4579 71.5 64.2579 72.28C64.0579 73.06 63.6479 73.8 63.0279 74.5C62.4279 75.2 61.4879 75.87 60.2079 76.51ZM76.6182 87.73C76.4182 87.73 76.2482 87.66 76.1082 87.52C75.9882 87.4 75.9282 87.24 75.9282 87.04V71.29C75.9282 71.09 75.9882 70.93 76.1082 70.81C76.2482 70.67 76.4182 70.6 76.6182 70.6H77.9382C78.1582 70.6 78.3282 70.67 78.4482 70.81C78.5682 70.93 78.6282 71.09 78.6282 71.29V87.04C78.6282 87.24 78.5682 87.4 78.4482 87.52C78.3282 87.66 78.1582 87.73 77.9382 87.73H76.6182ZM82.3782 82.27C82.1982 82.33 82.0282 82.3 81.8682 82.18C81.7282 82.08 81.6582 81.93 81.6582 81.73V80.35C81.6582 80.17 81.7082 80.01 81.8082 79.87C81.9282 79.73 82.0982 79.62 82.3182 79.54L83.4582 79.09C84.2582 78.77 84.9782 78.37 85.6182 77.89C86.2782 77.39 86.7882 76.72 87.1482 75.88C87.5282 75.04 87.7182 73.94 87.7182 72.58C87.7182 71.28 87.5582 70.25 87.2382 69.49C86.9182 68.71 86.3882 68.16 85.6482 67.84C84.9282 67.5 83.9482 67.33 82.7082 67.33H76.6182C76.4182 67.33 76.2482 67.27 76.1082 67.15C75.9882 67.01 75.9282 66.84 75.9282 66.64V65.56C75.9282 65.36 75.9882 65.2 76.1082 65.08C76.2482 64.94 76.4182 64.87 76.6182 64.87H83.0982C84.9382 64.87 86.3882 65.13 87.4482 65.65C88.5282 66.17 89.2982 67.01 89.7582 68.17C90.2382 69.31 90.4782 70.81 90.4782 72.67C90.4782 74.07 90.2882 75.28 89.9082 76.3C89.5282 77.32 89.0082 78.19 88.3482 78.91C87.7082 79.63 86.9782 80.23 86.1582 80.71C85.3582 81.17 84.5182 81.55 83.6382 81.85L82.3782 82.27ZM97.1975 82C96.7575 82 96.5375 81.78 96.5375 81.34V70.63C96.5375 69.45 96.6775 68.53 96.9575 67.87C97.2375 67.21 97.5775 66.88 97.9775 66.88H100.947C100.447 66.88 100.037 67.26 99.7175 68.02C99.4175 68.78 99.2675 69.72 99.2675 70.84V81.34C99.2675 81.54 99.1975 81.7 99.0575 81.82C98.9175 81.94 98.7475 82 98.5475 82H97.1975ZM94.6775 67.27C94.4775 67.27 94.3075 67.21 94.1675 67.09C94.0475 66.95 93.9875 66.78 93.9875 66.58V65.56C93.9875 65.36 94.0475 65.2 94.1675 65.08C94.3075 64.94 94.4775 64.87 94.6775 64.87H101.937C102.157 64.87 102.327 64.94 102.447 65.08C102.567 65.2 102.627 65.36 102.627 65.56V66.58C102.627 66.78 102.567 66.95 102.447 67.09C102.327 67.21 102.157 67.27 101.937 67.27H94.6775ZM107.233 82C107.033 82 106.863 81.94 106.723 81.82C106.603 81.68 106.543 81.51 106.543 81.31V65.56C106.543 65.36 106.603 65.2 106.723 65.08C106.863 64.94 107.033 64.87 107.233 64.87H113.053C114.793 64.87 116.223 65.15 117.343 65.71C118.483 66.25 119.333 67.07 119.893 68.17C120.453 69.25 120.733 70.61 120.733 72.25V81.31C120.733 81.51 120.663 81.68 120.523 81.82C120.403 81.94 120.243 82 120.043 82H118.693C118.473 82 118.303 81.94 118.183 81.82C118.063 81.68 118.003 81.51 118.003 81.31V72.34C118.003 70.74 117.603 69.5 116.803 68.62C116.003 67.72 114.703 67.27 112.903 67.27H109.273V81.31C109.273 81.51 109.213 81.68 109.093 81.82C108.973 81.94 108.803 82 108.583 82H107.233ZM124.906 82C124.706 82 124.536 81.94 124.396 81.82C124.276 81.68 124.216 81.51 124.216 81.31V80.29C124.216 80.09 124.276 79.93 124.396 79.81C124.536 79.67 124.706 79.6 124.906 79.6H133.366V81.43C133.366 81.63 133.296 81.78 133.156 81.88C133.036 81.96 132.876 82 132.676 82H124.906ZM131.536 82C131.336 82 131.176 81.94 131.056 81.82C130.956 81.68 130.886 81.51 130.846 81.31L130.276 72.04C130.236 71.06 130.156 70.21 130.036 69.49C129.936 68.77 129.696 68.21 129.316 67.81C128.956 67.41 128.346 67.21 127.486 67.21H126.256C126.056 67.21 125.886 67.15 125.746 67.03C125.626 66.89 125.566 66.72 125.566 66.52V65.5C125.566 65.3 125.626 65.14 125.746 65.02C125.886 64.88 126.056 64.81 126.256 64.81H127.516C128.656 64.81 129.576 64.98 130.276 65.32C130.976 65.64 131.516 66.12 131.896 66.76C132.276 67.4 132.556 68.16 132.736 69.04C132.916 69.9 133.036 70.87 133.096 71.95L133.636 81.31C133.676 81.51 133.626 81.68 133.486 81.82C133.346 81.94 133.176 82 132.976 82H131.536ZM138.083 82C137.883 82 137.713 81.94 137.573 81.82C137.453 81.68 137.393 81.51 137.393 81.31V65.56C137.393 65.36 137.453 65.2 137.573 65.08C137.713 64.94 137.883 64.87 138.083 64.87H139.493C139.713 64.87 139.883 64.94 140.003 65.08C140.123 65.2 140.183 65.36 140.183 65.56V81.31C140.183 81.51 140.123 81.68 140.003 81.82C139.883 81.94 139.713 82 139.493 82H138.083ZM151.859 84.25C151.699 84.25 151.569 84.19 151.469 84.07C151.389 83.95 151.359 83.8 151.379 83.62L152.069 79.33C152.109 79.09 152.189 78.89 152.309 78.73C152.449 78.55 152.649 78.46 152.909 78.46H154.919C155.059 78.46 155.169 78.51 155.249 78.61C155.349 78.71 155.399 78.83 155.399 78.97C155.399 79.13 155.359 79.29 155.279 79.45L153.719 83.56C153.639 83.76 153.529 83.92 153.389 84.04C153.269 84.18 153.089 84.25 152.849 84.25H151.859ZM171.719 82C171.519 82 171.349 81.94 171.209 81.82C171.089 81.68 171.029 81.51 171.029 81.31V72.34C171.029 70.74 170.629 69.5 169.829 68.62C169.029 67.72 167.739 67.27 165.959 67.27H160.319C160.119 67.27 159.949 67.21 159.809 67.09C159.689 66.95 159.629 66.78 159.629 66.58V65.56C159.629 65.36 159.689 65.2 159.809 65.08C159.949 64.94 160.119 64.87 160.319 64.87H166.109C168.709 64.87 170.629 65.5 171.869 66.76C173.129 68.02 173.759 69.85 173.759 72.25V81.31C173.759 81.51 173.689 81.68 173.549 81.82C173.429 81.94 173.269 82 173.069 82H171.719ZM160.319 82C160.119 82 159.949 81.94 159.809 81.82C159.689 81.68 159.629 81.51 159.629 81.31V71.29C159.629 71.09 159.689 70.93 159.809 70.81C159.949 70.67 160.119 70.6 160.319 70.6H161.669C161.889 70.6 162.059 70.67 162.179 70.81C162.299 70.93 162.359 71.09 162.359 71.29V81.31C162.359 81.51 162.299 81.68 162.179 81.82C162.059 81.94 161.889 82 161.669 82H160.319ZM178.894 82C178.694 82 178.524 81.94 178.384 81.82C178.264 81.68 178.204 81.51 178.204 81.31V80.23C178.204 80.03 178.264 79.87 178.384 79.75C178.524 79.61 178.694 79.54 178.894 79.54H183.184C184.964 79.54 186.244 79.1 187.024 78.22C187.804 77.32 188.234 76.07 188.314 74.47C188.334 74.03 188.344 73.68 188.344 73.42C188.344 73.16 188.334 72.82 188.314 72.4C188.254 70.8 187.824 69.56 187.024 68.68C186.244 67.78 184.964 67.33 183.184 67.33H178.894C178.694 67.33 178.524 67.27 178.384 67.15C178.264 67.01 178.204 66.84 178.204 66.64V65.56C178.204 65.36 178.264 65.2 178.384 65.08C178.524 64.94 178.694 64.87 178.894 64.87H183.334C185.094 64.87 186.524 65.17 187.624 65.77C188.724 66.35 189.544 67.2 190.084 68.32C190.644 69.42 190.944 70.75 190.984 72.31C191.004 72.71 191.014 73.08 191.014 73.42C191.014 73.76 191.004 74.14 190.984 74.56C190.944 76.1 190.644 77.43 190.084 78.55C189.544 79.67 188.724 80.53 187.624 81.13C186.524 81.71 185.094 82 183.334 82H178.894ZM204.183 82C203.983 82 203.813 81.94 203.673 81.82C203.553 81.68 203.493 81.51 203.493 81.31V72.34C203.493 70.74 203.093 69.5 202.293 68.62C201.493 67.72 200.203 67.27 198.423 67.27H194.493C194.293 67.27 194.123 67.21 193.983 67.09C193.863 66.95 193.803 66.78 193.803 66.58V65.56C193.803 65.36 193.863 65.2 193.983 65.08C194.123 64.94 194.293 64.87 194.493 64.87H198.573C200.293 64.87 201.713 65.14 202.833 65.68C203.973 66.22 204.823 67.04 205.383 68.14C205.943 69.22 206.223 70.57 206.223 72.19V81.31C206.223 81.51 206.153 81.68 206.013 81.82C205.893 81.94 205.733 82 205.533 82H204.183ZM210.514 83.65C210.314 83.73 210.124 83.71 209.944 83.59C209.764 83.49 209.674 83.34 209.674 83.14V82.12C209.674 81.94 209.714 81.77 209.794 81.61C209.874 81.45 210.004 81.35 210.184 81.31L216.514 79.21C217.654 78.83 218.534 78.34 219.154 77.74C219.774 77.14 220.204 76.44 220.444 75.64C220.704 74.84 220.834 73.97 220.834 73.03V65.56C220.834 65.36 220.894 65.2 221.014 65.08C221.154 64.94 221.324 64.87 221.524 64.87H222.874C223.074 64.87 223.234 64.94 223.354 65.08C223.494 65.2 223.564 65.36 223.564 65.56V73.87C223.564 75.03 223.294 76.13 222.754 77.17C222.234 78.19 221.494 79.09 220.534 79.87C219.574 80.63 218.434 81.21 217.114 81.61L210.514 83.65ZM214.444 81.28L210.214 66.07C210.174 65.91 210.134 65.79 210.094 65.71C210.074 65.63 210.064 65.55 210.064 65.47C210.064 65.31 210.124 65.17 210.244 65.05C210.364 64.93 210.504 64.87 210.664 64.87H212.134C212.514 64.87 212.744 65.02 212.824 65.32L216.994 80.59L214.444 81.28ZM240.098 82C239.898 82 239.728 81.94 239.588 81.82C239.468 81.68 239.408 81.51 239.408 81.31V72.34C239.408 70.74 239.008 69.5 238.208 68.62C237.408 67.72 236.118 67.27 234.338 67.27H228.698C228.498 67.27 228.328 67.21 228.188 67.09C228.068 66.95 228.008 66.78 228.008 66.58V65.56C228.008 65.36 228.068 65.2 228.188 65.08C228.328 64.94 228.498 64.87 228.698 64.87H234.488C237.088 64.87 239.008 65.5 240.248 66.76C241.508 68.02 242.138 69.85 242.138 72.25V81.31C242.138 81.51 242.068 81.68 241.928 81.82C241.808 81.94 241.648 82 241.448 82H240.098ZM228.698 82C228.498 82 228.328 81.94 228.188 81.82C228.068 81.68 228.008 81.51 228.008 81.31V71.29C228.008 71.09 228.068 70.93 228.188 70.81C228.328 70.67 228.498 70.6 228.698 70.6H230.048C230.268 70.6 230.438 70.67 230.558 70.81C230.678 70.93 230.738 71.09 230.738 71.29V81.31C230.738 81.51 230.678 81.68 230.558 81.82C230.438 81.94 230.268 82 230.048 82H228.698ZM253.906 82C253.706 82 253.536 81.94 253.396 81.82C253.276 81.68 253.216 81.51 253.216 81.31V80.29C253.216 80.09 253.276 79.93 253.396 79.81C253.536 79.67 253.706 79.6 253.906 79.6H262.516V72.34C262.516 70.74 262.116 69.5 261.316 68.62C260.516 67.72 259.226 67.27 257.446 67.27H254.206C254.006 67.27 253.836 67.21 253.696 67.09C253.576 66.95 253.516 66.78 253.516 66.58V65.56C253.516 65.36 253.576 65.2 253.696 65.08C253.836 64.94 254.006 64.87 254.206 64.87H257.596C259.316 64.87 260.746 65.15 261.886 65.71C263.026 66.27 263.876 67.1 264.436 68.2C265.016 69.28 265.306 70.63 265.306 72.25V79.6H266.416C266.616 79.6 266.776 79.67 266.896 79.81C267.036 79.93 267.106 80.09 267.106 80.29V81.31C267.106 81.51 267.036 81.68 266.896 81.82C266.776 81.94 266.616 82 266.416 82H253.906ZM270.974 82C270.774 82 270.604 81.94 270.464 81.82C270.344 81.68 270.284 81.51 270.284 81.31V65.56C270.284 65.36 270.344 65.2 270.464 65.08C270.604 64.94 270.774 64.87 270.974 64.87H272.384C272.604 64.87 272.774 64.94 272.894 65.08C273.014 65.2 273.074 65.36 273.074 65.56V81.31C273.074 81.51 273.014 81.68 272.894 81.82C272.774 81.94 272.604 82 272.384 82H270.974ZM277.756 82C277.556 82 277.386 81.94 277.246 81.82C277.126 81.68 277.066 81.51 277.066 81.31V80.26C277.066 80.06 277.126 79.9 277.246 79.78C277.386 79.64 277.556 79.57 277.756 79.57H285.886L276.496 66.04C276.436 65.92 276.386 65.82 276.346 65.74C276.306 65.64 276.286 65.55 276.286 65.47C276.286 65.31 276.346 65.17 276.466 65.05C276.606 64.93 276.756 64.87 276.916 64.87H278.356C278.556 64.87 278.716 64.93 278.836 65.05C278.976 65.15 279.086 65.26 279.166 65.38L288.946 79.39C289.046 79.53 289.126 79.68 289.186 79.84C289.266 79.98 289.306 80.14 289.306 80.32V81.31C289.306 81.51 289.236 81.68 289.096 81.82C288.976 81.94 288.816 82 288.616 82H277.756ZM285.346 75.16L284.026 73.21C285.066 72.83 285.816 72.21 286.276 71.35C286.756 70.47 286.996 69.4 286.996 68.14V65.56C286.996 65.36 287.056 65.2 287.176 65.08C287.316 64.94 287.486 64.87 287.686 64.87H288.916C289.136 64.87 289.306 64.94 289.426 65.08C289.546 65.2 289.606 65.36 289.606 65.56V68.5C289.606 70.12 289.246 71.5 288.526 72.64C287.806 73.78 286.746 74.62 285.346 75.16ZM294.172 75.04C293.972 75.04 293.802 74.98 293.662 74.86C293.542 74.72 293.482 74.55 293.482 74.35V65.56C293.482 65.36 293.542 65.2 293.662 65.08C293.802 64.94 293.972 64.87 294.172 64.87H295.582C295.802 64.87 295.972 64.94 296.092 65.08C296.212 65.2 296.272 65.36 296.272 65.56V74.35C296.272 74.55 296.212 74.72 296.092 74.86C295.972 74.98 295.802 75.04 295.582 75.04H294.172ZM301.203 75.04C301.003 75.04 300.833 74.98 300.693 74.86C300.573 74.72 300.513 74.55 300.513 74.35V65.56C300.513 65.36 300.573 65.2 300.693 65.08C300.833 64.94 301.003 64.87 301.203 64.87H302.613C302.833 64.87 303.003 64.94 303.123 65.08C303.243 65.2 303.303 65.36 303.303 65.56V74.35C303.303 74.55 303.243 74.72 303.123 74.86C303.003 74.98 302.833 75.04 302.613 75.04H301.203ZM311.444 82.27C311.264 82.33 311.094 82.3 310.934 82.18C310.774 82.08 310.694 81.93 310.694 81.73V80.35C310.694 80.17 310.744 80.01 310.844 79.87C310.964 79.73 311.134 79.62 311.354 79.54L312.524 79.09C313.304 78.77 314.014 78.37 314.654 77.89C315.314 77.39 315.824 76.72 316.184 75.88C316.564 75.04 316.754 73.94 316.754 72.58C316.754 71.28 316.594 70.25 316.274 69.49C315.974 68.71 315.454 68.16 314.714 67.84C313.994 67.5 313.004 67.33 311.744 67.33H310.844C310.644 67.33 310.474 67.27 310.334 67.15C310.214 67.01 310.154 66.84 310.154 66.64V65.56C310.154 65.36 310.214 65.2 310.334 65.08C310.474 64.94 310.644 64.87 310.844 64.87H312.164C313.984 64.87 315.434 65.13 316.514 65.65C317.594 66.17 318.364 67.01 318.824 68.17C319.304 69.31 319.544 70.81 319.544 72.67C319.544 74.07 319.354 75.28 318.974 76.3C318.594 77.32 318.074 78.19 317.414 78.91C316.774 79.63 316.044 80.23 315.224 80.71C314.404 81.17 313.554 81.55 312.674 81.85L311.444 82.27ZM311.504 67.33L307.934 67.3C307.734 67.3 307.564 67.24 307.424 67.12C307.304 67 307.244 66.84 307.244 66.64V61.39C307.244 61.19 307.304 61.03 307.424 60.91C307.564 60.77 307.734 60.7 307.934 60.7H309.194C309.394 60.7 309.554 60.77 309.674 60.91C309.814 61.03 309.884 61.19 309.884 61.39V64.87H311.564L311.504 67.33ZM118.993 107.27C118.793 107.27 118.623 107.21 118.483 107.09C118.363 106.95 118.303 106.78 118.303 106.58V105.56C118.303 105.36 118.363 105.2 118.483 105.08C118.623 104.94 118.793 104.87 118.993 104.87H125.503C127.223 104.87 128.643 105.15 129.763 105.71C130.903 106.25 131.753 107.07 132.313 108.17C132.873 109.25 133.153 110.59 133.153 112.19V121.31C133.153 121.51 133.083 121.68 132.943 121.82C132.823 121.94 132.663 122 132.463 122H131.113C130.893 122 130.723 121.94 130.603 121.82C130.483 121.68 130.423 121.51 130.423 121.31V112.34C130.423 110.74 130.013 109.5 129.193 108.62C128.393 107.72 127.103 107.27 125.323 107.27H118.993ZM121.693 105.8H122.443C122.743 105.8 122.963 105.88 123.103 106.04C123.263 106.18 123.333 106.36 123.313 106.58C123.153 107.42 123.013 108.18 122.893 108.86C122.793 109.54 122.723 110.22 122.683 110.9C122.643 111.56 122.623 112.31 122.623 113.15L122.683 121.31C122.683 121.51 122.623 121.68 122.503 121.82C122.383 121.94 122.223 122 122.023 122L117.763 121.94C117.563 121.94 117.393 121.88 117.253 121.76C117.133 121.64 117.073 121.47 117.073 121.25V120.29C117.073 120.09 117.133 119.93 117.253 119.81C117.393 119.67 117.563 119.6 117.763 119.6L120.073 119.63V113.27C120.073 112.45 120.083 111.7 120.103 111.02C120.123 110.32 120.183 109.62 120.283 108.92C120.383 108.22 120.543 107.43 120.763 106.55C120.823 106.33 120.913 106.15 121.033 106.01C121.173 105.87 121.393 105.8 121.693 105.8ZM138.288 122C138.088 122 137.918 121.94 137.778 121.82C137.658 121.68 137.598 121.51 137.598 121.31V105.56C137.598 105.36 137.658 105.2 137.778 105.08C137.918 104.94 138.088 104.87 138.288 104.87H139.698C139.918 104.87 140.088 104.94 140.208 105.08C140.328 105.2 140.388 105.36 140.388 105.56V121.31C140.388 121.51 140.328 121.68 140.208 121.82C140.088 121.94 139.918 122 139.698 122H138.288ZM145.49 115.04C145.29 115.04 145.12 114.98 144.98 114.86C144.86 114.72 144.8 114.55 144.8 114.35V105.56C144.8 105.36 144.86 105.2 144.98 105.08C145.12 104.94 145.29 104.87 145.49 104.87H146.9C147.12 104.87 147.29 104.94 147.41 105.08C147.53 105.2 147.59 105.36 147.59 105.56V114.35C147.59 114.55 147.53 114.72 147.41 114.86C147.29 114.98 147.12 115.04 146.9 115.04H145.49ZM161.731 122C161.531 122 161.361 121.94 161.221 121.82C161.101 121.68 161.041 121.51 161.041 121.31V112.34C161.041 110.74 160.641 109.5 159.841 108.62C159.041 107.72 157.751 107.27 155.971 107.27H152.041C151.841 107.27 151.671 107.21 151.531 107.09C151.411 106.95 151.351 106.78 151.351 106.58V105.56C151.351 105.36 151.411 105.2 151.531 105.08C151.671 104.94 151.841 104.87 152.041 104.87H156.121C157.841 104.87 159.261 105.14 160.381 105.68C161.521 106.22 162.371 107.04 162.931 108.14C163.491 109.22 163.771 110.57 163.771 112.19V121.31C163.771 121.51 163.701 121.68 163.561 121.82C163.441 121.94 163.281 122 163.081 122H161.731ZM170.643 107.33V109.67C170.663 110.39 170.753 110.99 170.913 111.47C171.073 111.95 171.383 112.25 171.843 112.37L172.953 112.67C173.113 112.71 173.233 112.82 173.313 113C173.413 113.16 173.463 113.36 173.463 113.6V114.35C173.463 114.57 173.353 114.73 173.133 114.83C172.913 114.93 172.673 114.96 172.413 114.92L171.243 114.68C170.603 114.52 170.053 114.24 169.593 113.84C169.133 113.42 168.783 112.86 168.543 112.16C168.323 111.44 168.213 110.58 168.213 109.58V105.56C168.213 105.36 168.273 105.2 168.393 105.08C168.513 104.94 168.683 104.87 168.903 104.87H174.453C175.953 104.87 177.203 105.17 178.203 105.77C179.203 106.35 179.963 107.2 180.483 108.32C181.003 109.42 181.283 110.75 181.323 112.31C181.343 112.61 181.353 112.99 181.353 113.45C181.353 113.89 181.343 114.26 181.323 114.56C181.283 116.1 181.003 117.43 180.483 118.55C179.963 119.67 179.203 120.53 178.203 121.13C177.203 121.71 175.953 122 174.453 122H169.263C169.063 122 168.893 121.94 168.753 121.82C168.633 121.68 168.573 121.51 168.573 121.31V120.23C168.573 120.03 168.633 119.87 168.753 119.75C168.893 119.61 169.063 119.54 169.263 119.54H174.303C175.683 119.54 176.743 119.1 177.483 118.22C178.243 117.32 178.663 116.07 178.743 114.47C178.763 114.17 178.773 113.83 178.773 113.45C178.773 113.05 178.763 112.7 178.743 112.4C178.703 110.8 178.293 109.56 177.513 108.68C176.753 107.78 175.683 107.33 174.303 107.33H170.643ZM194.69 122C194.49 122 194.32 121.94 194.18 121.82C194.06 121.68 194 121.51 194 121.31V112.34C194 110.74 193.6 109.5 192.8 108.62C192 107.72 190.71 107.27 188.93 107.27H185C184.8 107.27 184.63 107.21 184.49 107.09C184.37 106.95 184.31 106.78 184.31 106.58V105.56C184.31 105.36 184.37 105.2 184.49 105.08C184.63 104.94 184.8 104.87 185 104.87H189.08C190.8 104.87 192.22 105.14 193.34 105.68C194.48 106.22 195.33 107.04 195.89 108.14C196.45 109.22 196.73 110.57 196.73 112.19V121.31C196.73 121.51 196.66 121.68 196.52 121.82C196.4 121.94 196.24 122 196.04 122H194.69ZM203.602 107.33V109.67C203.622 110.39 203.712 110.99 203.872 111.47C204.032 111.95 204.342 112.25 204.802 112.37L205.912 112.67C206.072 112.71 206.192 112.82 206.272 113C206.372 113.16 206.422 113.36 206.422 113.6V114.35C206.422 114.57 206.312 114.73 206.092 114.83C205.872 114.93 205.632 114.96 205.372 114.92L204.202 114.68C203.562 114.52 203.012 114.24 202.552 113.84C202.092 113.42 201.742 112.86 201.502 112.16C201.282 111.44 201.172 110.58 201.172 109.58V105.56C201.172 105.36 201.232 105.2 201.352 105.08C201.472 104.94 201.642 104.87 201.862 104.87H207.412C208.912 104.87 210.162 105.17 211.162 105.77C212.162 106.35 212.922 107.2 213.442 108.32C213.962 109.42 214.242 110.75 214.282 112.31C214.302 112.61 214.312 112.99 214.312 113.45C214.312 113.89 214.302 114.26 214.282 114.56C214.242 116.1 213.962 117.43 213.442 118.55C212.922 119.67 212.162 120.53 211.162 121.13C210.162 121.71 208.912 122 207.412 122H202.222C202.022 122 201.852 121.94 201.712 121.82C201.592 121.68 201.532 121.51 201.532 121.31V120.23C201.532 120.03 201.592 119.87 201.712 119.75C201.852 119.61 202.022 119.54 202.222 119.54H207.262C208.642 119.54 209.702 119.1 210.442 118.22C211.202 117.32 211.622 116.07 211.702 114.47C211.722 114.17 211.732 113.83 211.732 113.45C211.732 113.05 211.722 112.7 211.702 112.4C211.662 110.8 211.252 109.56 210.472 108.68C209.712 107.78 208.642 107.33 207.262 107.33H203.602ZM230.342 122C230.142 122 229.972 121.94 229.832 121.82C229.712 121.68 229.652 121.51 229.652 121.31V112.34C229.652 110.74 229.252 109.5 228.452 108.62C227.652 107.72 226.362 107.27 224.582 107.27H218.942C218.742 107.27 218.572 107.21 218.432 107.09C218.312 106.95 218.252 106.78 218.252 106.58V105.56C218.252 105.36 218.312 105.2 218.432 105.08C218.572 104.94 218.742 104.87 218.942 104.87H224.732C227.332 104.87 229.252 105.5 230.492 106.76C231.752 108.02 232.382 109.85 232.382 112.25V121.31C232.382 121.51 232.312 121.68 232.172 121.82C232.052 121.94 231.892 122 231.692 122H230.342ZM218.942 122C218.742 122 218.572 121.94 218.432 121.82C218.312 121.68 218.252 121.51 218.252 121.31V111.29C218.252 111.09 218.312 110.93 218.432 110.81C218.572 110.67 218.742 110.6 218.942 110.6H220.292C220.512 110.6 220.682 110.67 220.802 110.81C220.922 110.93 220.982 111.09 220.982 111.29V121.31C220.982 121.51 220.922 121.68 220.802 121.82C220.682 121.94 220.512 122 220.292 122H218.942Z" fill="black"/>
<defs>
<filter id="filter0_d_106_210" x="0" y="0" width="378" height="148" filterUnits="userSpaceOnUse" color-interpolation-filters="sRGB">
<feFlood flood-opacity="0" result="BackgroundImageFix"/>
<feColorMatrix in="SourceAlpha" type="matrix" values="0 0 0 0 0 0 0 0 0 0 0 0 0 0 0 0 0 0 127 0" result="hardAlpha"/>
<feOffset dx="4" dy="4"/>
<feGaussianBlur stdDeviation="2"/>
<feComposite in2="hardAlpha" operator="out"/>
<feColorMatrix type="matrix" values="0 0 0 0 0 0 0 0 0 0 0 0 0 0 0 0 0 0 0.25 0"/>
<feBlend mode="normal" in2="BackgroundImageFix" result="effect1_dropShadow_106_210"/>
<feBlend mode="normal" in="SourceGraphic" in2="effect1_dropShadow_106_210" result="shape"/>
</filter>
</defs>
</svg>
