<svg width="378" height="148" viewBox="0 0 378 148" fill="none" xmlns="http://www.w3.org/2000/svg">
<g filter="url(#filter0_d_124_140)">
<rect width="370" height="140" rx="20" fill="#FDF4D4"/>
</g>
<path d="M68.3222 35.04C68.1222 35.04 67.9522 34.98 67.8122 34.86C67.6922 34.72 67.6322 34.55 67.6322 34.35V25.56C67.6322 25.36 67.6922 25.2 67.8122 25.08C67.9522 24.94 68.1222 24.87 68.3222 24.87H69.7322C69.9522 24.87 70.1222 24.94 70.2422 25.08C70.3622 25.2 70.4222 25.36 70.4222 25.56V34.35C70.4222 34.55 70.3622 34.72 70.2422 34.86C70.1222 34.98 69.9522 35.04 69.7322 35.04H68.3222ZM78.5635 42.27C78.3835 42.33 78.2135 42.3 78.0535 42.18C77.8935 42.08 77.8135 41.93 77.8135 41.73V40.35C77.8135 40.17 77.8635 40.01 77.9635 39.87C78.0835 39.73 78.2535 39.62 78.4735 39.54L79.6435 39.09C80.4235 38.77 81.1335 38.37 81.7735 37.89C82.4335 37.39 82.9435 36.72 83.3035 35.88C83.6835 35.04 83.8735 33.94 83.8735 32.58C83.8735 31.28 83.7135 30.25 83.3935 29.49C83.0935 28.71 82.5735 28.16 81.8335 27.84C81.1135 27.5 80.1235 27.33 78.8635 27.33H77.9635C77.7635 27.33 77.5935 27.27 77.4535 27.15C77.3335 27.01 77.2735 26.84 77.2735 26.64V25.56C77.2735 25.36 77.3335 25.2 77.4535 25.08C77.5935 24.94 77.7635 24.87 77.9635 24.87H79.2835C81.1035 24.87 82.5535 25.13 83.6335 25.65C84.7135 26.17 85.4835 27.01 85.9435 28.17C86.4235 29.31 86.6635 30.81 86.6635 32.67C86.6635 34.07 86.4735 35.28 86.0935 36.3C85.7135 37.32 85.1935 38.19 84.5335 38.91C83.8935 39.63 83.1635 40.23 82.3435 40.71C81.5235 41.17 80.6735 41.55 79.7935 41.85L78.5635 42.27ZM78.6235 27.33L75.0535 27.3C74.8535 27.3 74.6835 27.24 74.5435 27.12C74.4235 27 74.3635 26.84 74.3635 26.64V21.39C74.3635 21.19 74.4235 21.03 74.5435 20.91C74.6835 20.77 74.8535 20.7 75.0535 20.7H76.3135C76.5135 20.7 76.6735 20.77 76.7935 20.91C76.9335 21.03 77.0035 21.19 77.0035 21.39V24.87H78.6835L78.6235 27.33ZM90.5759 42C90.3759 42 90.2059 41.94 90.0659 41.82C89.9459 41.68 89.8859 41.51 89.8859 41.31V40.29C89.8859 40.09 89.9459 39.93 90.0659 39.81C90.2059 39.67 90.3759 39.6 90.5759 39.6H99.1859V32.34C99.1859 30.74 98.7859 29.5 97.9859 28.62C97.1859 27.72 95.8959 27.27 94.1159 27.27H90.8759C90.6759 27.27 90.5059 27.21 90.3659 27.09C90.2459 26.95 90.1859 26.78 90.1859 26.58V25.56C90.1859 25.36 90.2459 25.2 90.3659 25.08C90.5059 24.94 90.6759 24.87 90.8759 24.87H94.2659C95.9859 24.87 97.4159 25.15 98.5559 25.71C99.6959 26.27 100.546 27.1 101.106 28.2C101.686 29.28 101.976 30.63 101.976 32.25V39.6H103.086C103.286 39.6 103.446 39.67 103.566 39.81C103.706 39.93 103.776 40.09 103.776 40.29V41.31C103.776 41.51 103.706 41.68 103.566 41.82C103.446 41.94 103.286 42 103.086 42H90.5759ZM107.644 42C107.444 42 107.274 41.94 107.134 41.82C107.014 41.68 106.954 41.51 106.954 41.31V40.23C106.954 40.03 107.014 39.87 107.134 39.75C107.274 39.61 107.444 39.54 107.644 39.54H111.934C113.714 39.54 114.994 39.1 115.774 38.22C116.554 37.32 116.984 36.07 117.064 34.47C117.084 34.03 117.094 33.68 117.094 33.42C117.094 33.16 117.084 32.82 117.064 32.4C117.004 30.8 116.574 29.56 115.774 28.68C114.994 27.78 113.714 27.33 111.934 27.33H107.644C107.444 27.33 107.274 27.27 107.134 27.15C107.014 27.01 106.954 26.84 106.954 26.64V25.56C106.954 25.36 107.014 25.2 107.134 25.08C107.274 24.94 107.444 24.87 107.644 24.87H112.084C113.844 24.87 115.274 25.17 116.374 25.77C117.474 26.35 118.294 27.2 118.834 28.32C119.394 29.42 119.694 30.75 119.734 32.31C119.754 32.71 119.764 33.08 119.764 33.42C119.764 33.76 119.754 34.14 119.734 34.56C119.694 36.1 119.394 37.43 118.834 38.55C118.294 39.67 117.474 40.53 116.374 41.13C115.274 41.71 113.844 42 112.084 42H107.644ZM132.236 27.27C132.036 27.27 131.866 27.21 131.726 27.09C131.606 26.95 131.546 26.78 131.546 26.58V25.56C131.546 25.36 131.606 25.2 131.726 25.08C131.866 24.94 132.036 24.87 132.236 24.87H138.746C140.466 24.87 141.886 25.15 143.006 25.71C144.146 26.25 144.996 27.07 145.556 28.17C146.116 29.25 146.396 30.59 146.396 32.19V41.31C146.396 41.51 146.326 41.68 146.186 41.82C146.066 41.94 145.906 42 145.706 42H144.356C144.136 42 143.966 41.94 143.846 41.82C143.726 41.68 143.666 41.51 143.666 41.31V32.34C143.666 30.74 143.256 29.5 142.436 28.62C141.636 27.72 140.346 27.27 138.566 27.27H132.236ZM134.936 25.8H135.686C135.986 25.8 136.206 25.88 136.346 26.04C136.506 26.18 136.576 26.36 136.556 26.58C136.396 27.42 136.256 28.18 136.136 28.86C136.036 29.54 135.966 30.22 135.926 30.9C135.886 31.56 135.866 32.31 135.866 33.15L135.926 41.31C135.926 41.51 135.866 41.68 135.746 41.82C135.626 41.94 135.466 42 135.266 42L131.006 41.94C130.806 41.94 130.636 41.88 130.496 41.76C130.376 41.64 130.316 41.47 130.316 41.25V40.29C130.316 40.09 130.376 39.93 130.496 39.81C130.636 39.67 130.806 39.6 131.006 39.6L133.316 39.63V33.27C133.316 32.45 133.326 31.7 133.346 31.02C133.366 30.32 133.426 29.62 133.526 28.92C133.626 28.22 133.786 27.43 134.006 26.55C134.066 26.33 134.156 26.15 134.276 26.01C134.416 25.87 134.636 25.8 134.936 25.8ZM162.51 42C162.29 42 162.12 41.94 162 41.82C161.88 41.7 161.77 41.6 161.67 41.52L150.66 26.04C150.52 25.82 150.45 25.63 150.45 25.47C150.45 25.31 150.51 25.17 150.63 25.05C150.77 24.93 150.92 24.87 151.08 24.87H152.46C152.7 24.87 152.88 24.93 153 25.05C153.14 25.17 153.25 25.28 153.33 25.38L164.37 40.83C164.45 40.97 164.5 41.08 164.52 41.16C164.56 41.24 164.58 41.32 164.58 41.4C164.58 41.56 164.52 41.7 164.4 41.82C164.28 41.94 164.13 42 163.95 42H162.51ZM150.81 42C150.61 42 150.44 41.94 150.3 41.82C150.18 41.68 150.12 41.51 150.12 41.31V36.81C150.12 35.89 150.21 35.02 150.39 34.2C150.57 33.36 150.92 32.57 151.44 31.83C151.98 31.07 152.78 30.36 153.84 29.7L155.22 31.71C154.5 32.17 153.96 32.7 153.6 33.3C153.24 33.88 153 34.49 152.88 35.13C152.76 35.75 152.7 36.35 152.7 36.93V41.31C152.7 41.51 152.63 41.68 152.49 41.82C152.37 41.94 152.21 42 152.01 42H150.81ZM160.11 36.51L158.88 34.44C159.86 33.98 160.55 33.5 160.95 33C161.37 32.5 161.62 31.98 161.7 31.44C161.78 30.88 161.82 30.3 161.82 29.7V25.56C161.82 25.36 161.88 25.2 162 25.08C162.14 24.94 162.31 24.87 162.51 24.87H163.77C163.97 24.87 164.13 24.94 164.25 25.08C164.39 25.2 164.46 25.36 164.46 25.56V29.85C164.46 30.69 164.36 31.5 164.16 32.28C163.96 33.06 163.55 33.8 162.93 34.5C162.33 35.2 161.39 35.87 160.11 36.51ZM183.061 42.3C180.561 42.3 178.701 41.65 177.481 40.35C176.261 39.05 175.651 37.2 175.651 34.8V25.56C175.651 25.36 175.711 25.2 175.831 25.08C175.971 24.94 176.141 24.87 176.341 24.87H183.571C185.351 24.87 186.771 25.14 187.831 25.68C188.891 26.22 189.661 27.02 190.141 28.08C190.641 29.12 190.921 30.41 190.981 31.95C191.001 32.15 191.011 32.47 191.011 32.91C191.011 33.35 191.011 33.79 191.011 34.23C191.011 34.67 191.001 34.99 190.981 35.19C190.941 36.71 190.651 38.01 190.111 39.09C189.571 40.15 188.721 40.95 187.561 41.49C186.421 42.03 184.921 42.3 183.061 42.3ZM183.061 39.84C184.961 39.84 186.301 39.45 187.081 38.67C187.861 37.87 188.271 36.66 188.311 35.04C188.331 34.84 188.341 34.54 188.341 34.14C188.341 33.74 188.341 33.35 188.341 32.97C188.341 32.59 188.331 32.3 188.311 32.1C188.271 30.5 187.811 29.3 186.931 28.5C186.071 27.68 184.901 27.27 183.421 27.27H178.261V34.8C178.261 36.42 178.661 37.67 179.461 38.55C180.261 39.41 181.461 39.84 183.061 39.84ZM195.622 42C195.422 42 195.252 41.94 195.112 41.82C194.992 41.68 194.932 41.51 194.932 41.31V25.56C194.932 25.36 194.992 25.2 195.112 25.08C195.252 24.94 195.422 24.87 195.622 24.87H197.032C197.252 24.87 197.422 24.94 197.542 25.08C197.662 25.2 197.722 25.36 197.722 25.56V41.31C197.722 41.51 197.662 41.68 197.542 41.82C197.422 41.94 197.252 42 197.032 42H195.622ZM212.034 42C211.834 42 211.664 41.94 211.524 41.82C211.404 41.68 211.344 41.51 211.344 41.31V32.34C211.344 30.74 210.944 29.5 210.144 28.62C209.344 27.72 208.054 27.27 206.274 27.27H202.344C202.144 27.27 201.974 27.21 201.834 27.09C201.714 26.95 201.654 26.78 201.654 26.58V25.56C201.654 25.36 201.714 25.2 201.834 25.08C201.974 24.94 202.144 24.87 202.344 24.87H206.424C208.144 24.87 209.564 25.14 210.684 25.68C211.824 26.22 212.674 27.04 213.234 28.14C213.794 29.22 214.074 30.57 214.074 32.19V41.31C214.074 41.51 214.004 41.68 213.864 41.82C213.744 41.94 213.584 42 213.384 42H212.034ZM220.946 27.33V29.67C220.966 30.39 221.056 30.99 221.216 31.47C221.376 31.95 221.686 32.25 222.146 32.37L223.256 32.67C223.416 32.71 223.536 32.82 223.616 33C223.716 33.16 223.766 33.36 223.766 33.6V34.35C223.766 34.57 223.656 34.73 223.436 34.83C223.216 34.93 222.976 34.96 222.716 34.92L221.546 34.68C220.906 34.52 220.356 34.24 219.896 33.84C219.436 33.42 219.086 32.86 218.846 32.16C218.626 31.44 218.516 30.58 218.516 29.58V25.56C218.516 25.36 218.576 25.2 218.696 25.08C218.816 24.94 218.986 24.87 219.206 24.87H224.756C226.256 24.87 227.506 25.17 228.506 25.77C229.506 26.35 230.266 27.2 230.786 28.32C231.306 29.42 231.586 30.75 231.626 32.31C231.646 32.61 231.656 32.99 231.656 33.45C231.656 33.89 231.646 34.26 231.626 34.56C231.586 36.1 231.306 37.43 230.786 38.55C230.266 39.67 229.506 40.53 228.506 41.13C227.506 41.71 226.256 42 224.756 42H219.566C219.366 42 219.196 41.94 219.056 41.82C218.936 41.68 218.876 41.51 218.876 41.31V40.23C218.876 40.03 218.936 39.87 219.056 39.75C219.196 39.61 219.366 39.54 219.566 39.54H224.606C225.986 39.54 227.046 39.1 227.786 38.22C228.546 37.32 228.966 36.07 229.046 34.47C229.066 34.17 229.076 33.83 229.076 33.45C229.076 33.05 229.066 32.7 229.046 32.4C229.006 30.8 228.596 29.56 227.816 28.68C227.056 27.78 225.986 27.33 224.606 27.33H220.946ZM238.993 42.27C238.813 42.33 238.643 42.3 238.483 42.18C238.323 42.08 238.243 41.93 238.243 41.73V40.35C238.243 40.17 238.293 40.01 238.393 39.87C238.513 39.73 238.683 39.62 238.903 39.54L240.073 39.09C240.853 38.77 241.563 38.37 242.203 37.89C242.863 37.39 243.373 36.72 243.733 35.88C244.113 35.04 244.303 33.94 244.303 32.58C244.303 31.28 244.143 30.25 243.823 29.49C243.523 28.71 243.003 28.16 242.263 27.84C241.543 27.5 240.553 27.33 239.293 27.33H238.393C238.193 27.33 238.023 27.27 237.883 27.15C237.763 27.01 237.703 26.84 237.703 26.64V25.56C237.703 25.36 237.763 25.2 237.883 25.08C238.023 24.94 238.193 24.87 238.393 24.87H239.713C241.533 24.87 242.983 25.13 244.063 25.65C245.143 26.17 245.913 27.01 246.373 28.17C246.853 29.31 247.093 30.81 247.093 32.67C247.093 34.07 246.903 35.28 246.523 36.3C246.143 37.32 245.623 38.19 244.963 38.91C244.323 39.63 243.593 40.23 242.773 40.71C241.953 41.17 241.103 41.55 240.223 41.85L238.993 42.27ZM239.053 27.33L235.483 27.3C235.283 27.3 235.113 27.24 234.973 27.12C234.853 27 234.793 26.84 234.793 26.64V21.39C234.793 21.19 234.853 21.03 234.973 20.91C235.113 20.77 235.283 20.7 235.483 20.7H236.743C236.943 20.7 237.103 20.77 237.223 20.91C237.363 21.03 237.433 21.19 237.433 21.39V24.87H239.113L239.053 27.33ZM266.909 39.75C268.209 39.77 269.299 39.53 270.179 39.03C271.079 38.53 271.759 37.82 272.219 36.9C272.699 35.96 272.939 34.89 272.939 33.69V25.56C272.939 25.36 272.999 25.2 273.119 25.08C273.259 24.94 273.429 24.87 273.629 24.87H274.859C275.079 24.87 275.249 24.94 275.369 25.08C275.489 25.2 275.549 25.36 275.549 25.56V33.9C275.549 35.18 275.349 36.34 274.949 37.38C274.549 38.4 273.979 39.28 273.239 40.02C272.499 40.74 271.619 41.29 270.599 41.67C269.599 42.05 268.489 42.22 267.269 42.18H265.019C263.719 42.18 262.549 41.88 261.509 41.28C260.469 40.68 259.649 39.84 259.049 38.76C258.449 37.68 258.149 36.43 258.149 35.01V25.56C258.149 25.36 258.209 25.2 258.329 25.08C258.469 24.94 258.639 24.87 258.839 24.87H260.099C260.299 24.87 260.459 24.94 260.579 25.08C260.719 25.2 260.789 25.36 260.789 25.56L260.879 34.41C260.879 36.13 261.359 37.45 262.319 38.37C263.279 39.29 264.499 39.75 265.979 39.75H266.909ZM260.249 36.24L260.189 34.05C261.669 34.03 262.799 33.81 263.579 33.39C264.359 32.95 264.899 32.37 265.199 31.65C265.519 30.93 265.679 30.14 265.679 29.28V25.56C265.679 25.36 265.739 25.2 265.859 25.08C265.979 24.94 266.149 24.87 266.369 24.87H267.599C267.799 24.87 267.959 24.94 268.079 25.08C268.219 25.2 268.289 25.36 268.289 25.56V29.4C268.289 30.7 267.999 31.87 267.419 32.91C266.839 33.95 265.949 34.77 264.749 35.37C263.569 35.97 262.069 36.26 260.249 36.24ZM280.227 35.04C280.027 35.04 279.857 34.98 279.717 34.86C279.597 34.72 279.537 34.55 279.537 34.35V25.56C279.537 25.36 279.597 25.2 279.717 25.08C279.857 24.94 280.027 24.87 280.227 24.87H281.637C281.857 24.87 282.027 24.94 282.147 25.08C282.267 25.2 282.327 25.36 282.327 25.56V34.35C282.327 34.55 282.267 34.72 282.147 34.86C282.027 34.98 281.857 35.04 281.637 35.04H280.227ZM306.985 35.94C306.405 35.94 305.865 35.8 305.365 35.52C304.865 35.22 304.465 34.83 304.165 34.35C303.885 33.85 303.745 33.31 303.745 32.73C303.745 32.13 303.885 31.59 304.165 31.11C304.465 30.61 304.865 30.22 305.365 29.94C305.865 29.64 306.405 29.49 306.985 29.49C307.585 29.49 308.125 29.64 308.605 29.94C309.085 30.22 309.465 30.61 309.745 31.11C310.045 31.59 310.195 32.13 310.195 32.73C310.195 33.31 310.045 33.85 309.745 34.35C309.465 34.83 309.085 35.22 308.605 35.52C308.125 35.8 307.585 35.94 306.985 35.94ZM42.6373 82C42.4373 82 42.2673 81.94 42.1273 81.82C42.0073 81.68 41.9473 81.51 41.9473 81.31V72.34C41.9473 70.74 41.5473 69.5 40.7473 68.62C39.9473 67.72 38.6573 67.27 36.8773 67.27H31.2373C31.0373 67.27 30.8673 67.21 30.7273 67.09C30.6073 66.95 30.5473 66.78 30.5473 66.58V65.56C30.5473 65.36 30.6073 65.2 30.7273 65.08C30.8673 64.94 31.0373 64.87 31.2373 64.87H37.0273C39.6273 64.87 41.5473 65.5 42.7873 66.76C44.0473 68.02 44.6773 69.85 44.6773 72.25V81.31C44.6773 81.51 44.6073 81.68 44.4673 81.82C44.3473 81.94 44.1873 82 43.9873 82H42.6373ZM31.2373 82C31.0373 82 30.8673 81.94 30.7273 81.82C30.6073 81.68 30.5473 81.51 30.5473 81.31V71.29C30.5473 71.09 30.6073 70.93 30.7273 70.81C30.8673 70.67 31.0373 70.6 31.2373 70.6H32.5873C32.8073 70.6 32.9773 70.67 33.0973 70.81C33.2173 70.93 33.2773 71.09 33.2773 71.29V81.31C33.2773 81.51 33.2173 81.68 33.0973 81.82C32.9773 81.94 32.8073 82 32.5873 82H31.2373ZM49.8115 82C49.6115 82 49.4415 81.94 49.3015 81.82C49.1815 81.68 49.1215 81.51 49.1215 81.31V65.56C49.1215 65.36 49.1815 65.2 49.3015 65.08C49.4415 64.94 49.6115 64.87 49.8115 64.87H51.2215C51.4415 64.87 51.6115 64.94 51.7315 65.08C51.8515 65.2 51.9115 65.36 51.9115 65.56V81.31C51.9115 81.51 51.8515 81.68 51.7315 81.82C51.6115 81.94 51.4415 82 51.2215 82H49.8115ZM57.2236 82C57.0236 82 56.8536 81.94 56.7136 81.82C56.5936 81.68 56.5336 81.51 56.5336 81.31V65.56C56.5336 65.36 56.5936 65.2 56.7136 65.08C56.8536 64.94 57.0236 64.87 57.2236 64.87H58.6336C58.8536 64.87 59.0236 64.94 59.1436 65.08C59.2636 65.2 59.3236 65.36 59.3236 65.56V81.31C59.3236 81.51 59.2636 81.68 59.1436 81.82C59.0236 81.94 58.8536 82 58.6336 82H57.2236ZM76.0357 82C75.8357 82 75.6657 81.94 75.5257 81.82C75.4057 81.68 75.3457 81.51 75.3457 81.31V72.34C75.3457 70.74 74.9457 69.5 74.1457 68.62C73.3457 67.72 72.0557 67.27 70.2757 67.27H64.6357C64.4357 67.27 64.2657 67.21 64.1257 67.09C64.0057 66.95 63.9457 66.78 63.9457 66.58V65.56C63.9457 65.36 64.0057 65.2 64.1257 65.08C64.2657 64.94 64.4357 64.87 64.6357 64.87H70.4257C73.0257 64.87 74.9457 65.5 76.1857 66.76C77.4457 68.02 78.0757 69.85 78.0757 72.25V81.31C78.0757 81.51 78.0057 81.68 77.8657 81.82C77.7457 81.94 77.5857 82 77.3857 82H76.0357ZM64.6357 82C64.4357 82 64.2657 81.94 64.1257 81.82C64.0057 81.68 63.9457 81.51 63.9457 81.31V71.29C63.9457 71.09 64.0057 70.93 64.1257 70.81C64.2657 70.67 64.4357 70.6 64.6357 70.6H65.9857C66.2057 70.6 66.3757 70.67 66.4957 70.81C66.6157 70.93 66.6757 71.09 66.6757 71.29V81.31C66.6757 81.51 66.6157 81.68 66.4957 81.82C66.3757 81.94 66.2057 82 65.9857 82H64.6357ZM83 75.04C82.8 75.04 82.63 74.98 82.49 74.86C82.37 74.72 82.31 74.55 82.31 74.35V65.56C82.31 65.36 82.37 65.2 82.49 65.08C82.63 64.94 82.8 64.87 83 64.87H84.41C84.63 64.87 84.8 64.94 84.92 65.08C85.04 65.2 85.1 65.36 85.1 65.56V74.35C85.1 74.55 85.04 74.72 84.92 74.86C84.8 74.98 84.63 75.04 84.41 75.04H83ZM108.575 82C108.355 82 108.185 81.94 108.065 81.82C107.945 81.7 107.835 81.6 107.735 81.52L96.7247 66.04C96.5847 65.82 96.5147 65.63 96.5147 65.47C96.5147 65.31 96.5747 65.17 96.6947 65.05C96.8347 64.93 96.9847 64.87 97.1447 64.87H98.5247C98.7647 64.87 98.9447 64.93 99.0647 65.05C99.2047 65.17 99.3147 65.28 99.3947 65.38L110.435 80.83C110.515 80.97 110.565 81.08 110.585 81.16C110.625 81.24 110.645 81.32 110.645 81.4C110.645 81.56 110.585 81.7 110.465 81.82C110.345 81.94 110.195 82 110.015 82H108.575ZM96.8747 82C96.6747 82 96.5047 81.94 96.3647 81.82C96.2447 81.68 96.1847 81.51 96.1847 81.31V76.81C96.1847 75.89 96.2747 75.02 96.4547 74.2C96.6347 73.36 96.9847 72.57 97.5047 71.83C98.0447 71.07 98.8447 70.36 99.9047 69.7L101.285 71.71C100.565 72.17 100.025 72.7 99.6647 73.3C99.3047 73.88 99.0647 74.49 98.9447 75.13C98.8247 75.75 98.7647 76.35 98.7647 76.93V81.31C98.7647 81.51 98.6947 81.68 98.5547 81.82C98.4347 81.94 98.2747 82 98.0747 82H96.8747ZM106.175 76.51L104.945 74.44C105.925 73.98 106.615 73.5 107.015 73C107.435 72.5 107.685 71.98 107.765 71.44C107.845 70.88 107.885 70.3 107.885 69.7V65.56C107.885 65.36 107.945 65.2 108.065 65.08C108.205 64.94 108.375 64.87 108.575 64.87H109.835C110.035 64.87 110.195 64.94 110.315 65.08C110.455 65.2 110.525 65.36 110.525 65.56V69.85C110.525 70.69 110.425 71.5 110.225 72.28C110.025 73.06 109.615 73.8 108.995 74.5C108.395 75.2 107.455 75.87 106.175 76.51ZM118.231 82.27C118.051 82.33 117.881 82.3 117.721 82.18C117.561 82.08 117.481 81.93 117.481 81.73V80.35C117.481 80.17 117.531 80.01 117.631 79.87C117.751 79.73 117.921 79.62 118.141 79.54L119.311 79.09C120.091 78.77 120.801 78.37 121.441 77.89C122.101 77.39 122.611 76.72 122.971 75.88C123.351 75.04 123.541 73.94 123.541 72.58C123.541 71.28 123.381 70.25 123.061 69.49C122.761 68.71 122.241 68.16 121.501 67.84C120.781 67.5 119.791 67.33 118.531 67.33H117.631C117.431 67.33 117.261 67.27 117.121 67.15C117.001 67.01 116.941 66.84 116.941 66.64V65.56C116.941 65.36 117.001 65.2 117.121 65.08C117.261 64.94 117.431 64.87 117.631 64.87H118.951C120.771 64.87 122.221 65.13 123.301 65.65C124.381 66.17 125.151 67.01 125.611 68.17C126.091 69.31 126.331 70.81 126.331 72.67C126.331 74.07 126.141 75.28 125.761 76.3C125.381 77.32 124.861 78.19 124.201 78.91C123.561 79.63 122.831 80.23 122.011 80.71C121.191 81.17 120.341 81.55 119.461 81.85L118.231 82.27ZM118.291 67.33L114.721 67.3C114.521 67.3 114.351 67.24 114.211 67.12C114.091 67 114.031 66.84 114.031 66.64V61.39C114.031 61.19 114.091 61.03 114.211 60.91C114.351 60.77 114.521 60.7 114.721 60.7H115.981C116.181 60.7 116.341 60.77 116.461 60.91C116.601 61.03 116.671 61.19 116.671 61.39V64.87H118.351L118.291 67.33ZM138.794 79.75C140.094 79.77 141.184 79.53 142.064 79.03C142.964 78.53 143.644 77.82 144.104 76.9C144.584 75.96 144.824 74.89 144.824 73.69V65.56C144.824 65.36 144.884 65.2 145.004 65.08C145.144 64.94 145.314 64.87 145.514 64.87H146.744C146.964 64.87 147.134 64.94 147.254 65.08C147.374 65.2 147.434 65.36 147.434 65.56V73.9C147.434 75.18 147.234 76.34 146.834 77.38C146.434 78.4 145.864 79.28 145.124 80.02C144.384 80.74 143.504 81.29 142.484 81.67C141.484 82.05 140.374 82.22 139.154 82.18H136.904C135.604 82.18 134.434 81.88 133.394 81.28C132.354 80.68 131.534 79.84 130.934 78.76C130.334 77.68 130.034 76.43 130.034 75.01V65.56C130.034 65.36 130.094 65.2 130.214 65.08C130.354 64.94 130.524 64.87 130.724 64.87H131.984C132.184 64.87 132.344 64.94 132.464 65.08C132.604 65.2 132.674 65.36 132.674 65.56L132.764 74.41C132.764 76.13 133.244 77.45 134.204 78.37C135.164 79.29 136.384 79.75 137.864 79.75H138.794ZM132.134 76.24L132.074 74.05C133.554 74.03 134.684 73.81 135.464 73.39C136.244 72.95 136.784 72.37 137.084 71.65C137.404 70.93 137.564 70.14 137.564 69.28V65.56C137.564 65.36 137.624 65.2 137.744 65.08C137.864 64.94 138.034 64.87 138.254 64.87H139.484C139.684 64.87 139.844 64.94 139.964 65.08C140.104 65.2 140.174 65.36 140.174 65.56V69.4C140.174 70.7 139.884 71.87 139.304 72.91C138.724 73.95 137.834 74.77 136.634 75.37C135.454 75.97 133.954 76.26 132.134 76.24ZM159.675 85.72C159.475 85.72 159.305 85.65 159.165 85.51C159.045 85.39 158.985 85.23 158.985 85.03V65.56C158.985 65.36 159.045 65.2 159.165 65.08C159.305 64.94 159.475 64.87 159.675 64.87H161.025C161.245 64.87 161.415 64.94 161.535 65.08C161.655 65.2 161.715 65.36 161.715 65.56V85.03C161.715 85.23 161.655 85.39 161.535 85.51C161.415 85.65 161.245 85.72 161.025 85.72H159.675ZM168.768 67.33V69.67C168.788 70.39 168.878 70.99 169.038 71.47C169.198 71.95 169.508 72.25 169.968 72.37L171.078 72.67C171.238 72.71 171.358 72.82 171.438 73C171.538 73.16 171.588 73.36 171.588 73.6V74.35C171.588 74.57 171.478 74.73 171.258 74.83C171.038 74.93 170.798 74.96 170.538 74.92L169.368 74.68C168.728 74.52 168.178 74.24 167.718 73.84C167.258 73.42 166.908 72.86 166.668 72.16C166.448 71.44 166.338 70.58 166.338 69.58V65.56C166.338 65.36 166.398 65.2 166.518 65.08C166.638 64.94 166.808 64.87 167.028 64.87H172.578C174.078 64.87 175.328 65.17 176.328 65.77C177.328 66.35 178.088 67.2 178.608 68.32C179.128 69.42 179.408 70.75 179.448 72.31C179.468 72.61 179.478 72.99 179.478 73.45C179.478 73.89 179.468 74.26 179.448 74.56C179.408 76.1 179.128 77.43 178.608 78.55C178.088 79.67 177.328 80.53 176.328 81.13C175.328 81.71 174.078 82 172.578 82H167.388C167.188 82 167.018 81.94 166.878 81.82C166.758 81.68 166.698 81.51 166.698 81.31V80.23C166.698 80.03 166.758 79.87 166.878 79.75C167.018 79.61 167.188 79.54 167.388 79.54H172.428C173.808 79.54 174.868 79.1 175.608 78.22C176.368 77.32 176.788 76.07 176.868 74.47C176.888 74.17 176.898 73.83 176.898 73.45C176.898 73.05 176.888 72.7 176.868 72.4C176.828 70.8 176.418 69.56 175.638 68.68C174.878 67.78 173.808 67.33 172.428 67.33H168.768ZM184.108 82C183.908 82 183.738 81.94 183.598 81.82C183.478 81.68 183.418 81.51 183.418 81.31V65.56C183.418 65.36 183.478 65.2 183.598 65.08C183.738 64.94 183.908 64.87 184.108 64.87H185.518C185.738 64.87 185.908 64.94 186.028 65.08C186.148 65.2 186.208 65.36 186.208 65.56V81.31C186.208 81.51 186.148 81.68 186.028 81.82C185.908 81.94 185.738 82 185.518 82H184.108ZM202.501 82C202.281 82 202.111 81.94 201.991 81.82C201.871 81.7 201.761 81.6 201.661 81.52L190.651 66.04C190.511 65.82 190.441 65.63 190.441 65.47C190.441 65.31 190.501 65.17 190.621 65.05C190.761 64.93 190.911 64.87 191.071 64.87H192.451C192.691 64.87 192.871 64.93 192.991 65.05C193.131 65.17 193.241 65.28 193.321 65.38L204.361 80.83C204.441 80.97 204.491 81.08 204.511 81.16C204.551 81.24 204.571 81.32 204.571 81.4C204.571 81.56 204.511 81.7 204.391 81.82C204.271 81.94 204.121 82 203.941 82H202.501ZM190.801 82C190.601 82 190.431 81.94 190.291 81.82C190.171 81.68 190.111 81.51 190.111 81.31V76.81C190.111 75.89 190.201 75.02 190.381 74.2C190.561 73.36 190.911 72.57 191.431 71.83C191.971 71.07 192.771 70.36 193.831 69.7L195.211 71.71C194.491 72.17 193.951 72.7 193.591 73.3C193.231 73.88 192.991 74.49 192.871 75.13C192.751 75.75 192.691 76.35 192.691 76.93V81.31C192.691 81.51 192.621 81.68 192.481 81.82C192.361 81.94 192.201 82 192.001 82H190.801ZM200.101 76.51L198.871 74.44C199.851 73.98 200.541 73.5 200.941 73C201.361 72.5 201.611 71.98 201.691 71.44C201.771 70.88 201.811 70.3 201.811 69.7V65.56C201.811 65.36 201.871 65.2 201.991 65.08C202.131 64.94 202.301 64.87 202.501 64.87H203.761C203.961 64.87 204.121 64.94 204.241 65.08C204.381 65.2 204.451 65.36 204.451 65.56V69.85C204.451 70.69 204.351 71.5 204.151 72.28C203.951 73.06 203.541 73.8 202.921 74.5C202.321 75.2 201.381 75.87 200.101 76.51ZM208.437 82C208.237 82 208.067 81.94 207.927 81.82C207.807 81.68 207.747 81.51 207.747 81.31V80.29C207.747 80.09 207.807 79.93 207.927 79.81C208.067 79.67 208.237 79.6 208.437 79.6H217.047V72.34C217.047 70.74 216.647 69.5 215.847 68.62C215.047 67.72 213.757 67.27 211.977 67.27H208.737C208.537 67.27 208.367 67.21 208.227 67.09C208.107 66.95 208.047 66.78 208.047 66.58V65.56C208.047 65.36 208.107 65.2 208.227 65.08C208.367 64.94 208.537 64.87 208.737 64.87H212.127C213.847 64.87 215.277 65.15 216.417 65.71C217.557 66.27 218.407 67.1 218.967 68.2C219.547 69.28 219.837 70.63 219.837 72.25V79.6H220.947C221.147 79.6 221.307 79.67 221.427 79.81C221.567 79.93 221.637 80.09 221.637 80.29V81.31C221.637 81.51 221.567 81.68 221.427 81.82C221.307 81.94 221.147 82 220.947 82H208.437ZM234.774 82.27C234.594 82.33 234.424 82.3 234.264 82.18C234.104 82.08 234.024 81.93 234.024 81.73V80.35C234.024 80.17 234.074 80.01 234.174 79.87C234.294 79.73 234.464 79.62 234.684 79.54L235.854 79.09C236.634 78.77 237.344 78.37 237.984 77.89C238.644 77.39 239.154 76.72 239.514 75.88C239.894 75.04 240.084 73.94 240.084 72.58C240.084 71.28 239.924 70.25 239.604 69.49C239.304 68.71 238.784 68.16 238.044 67.84C237.324 67.5 236.334 67.33 235.074 67.33H234.174C233.974 67.33 233.804 67.27 233.664 67.15C233.544 67.01 233.484 66.84 233.484 66.64V65.56C233.484 65.36 233.544 65.2 233.664 65.08C233.804 64.94 233.974 64.87 234.174 64.87H235.494C237.314 64.87 238.764 65.13 239.844 65.65C240.924 66.17 241.694 67.01 242.154 68.17C242.634 69.31 242.874 70.81 242.874 72.67C242.874 74.07 242.684 75.28 242.304 76.3C241.924 77.32 241.404 78.19 240.744 78.91C240.104 79.63 239.374 80.23 238.554 80.71C237.734 81.17 236.884 81.55 236.004 81.85L234.774 82.27ZM234.834 67.33L231.264 67.3C231.064 67.3 230.894 67.24 230.754 67.12C230.634 67 230.574 66.84 230.574 66.64V61.39C230.574 61.19 230.634 61.03 230.754 60.91C230.894 60.77 231.064 60.7 231.264 60.7H232.524C232.724 60.7 232.884 60.77 233.004 60.91C233.144 61.03 233.214 61.19 233.214 61.39V64.87H234.894L234.834 67.33ZM254.317 67.33H247.027C246.807 67.33 246.637 67.27 246.517 67.15C246.397 67.01 246.337 66.84 246.337 66.64V65.56C246.337 65.36 246.397 65.2 246.517 65.08C246.637 64.94 246.807 64.87 247.027 64.87H254.647C255.887 64.87 256.987 65.16 257.947 65.74C258.927 66.32 259.687 67.16 260.227 68.26C260.787 69.34 261.067 70.65 261.067 72.19V81.31C261.067 81.51 260.997 81.68 260.857 81.82C260.737 81.94 260.577 82 260.377 82H252.637C252.437 82 252.267 81.94 252.127 81.82C252.007 81.68 251.947 81.51 251.947 81.31V80.29C251.947 80.09 252.007 79.93 252.127 79.81C252.267 79.67 252.437 79.6 252.637 79.6H258.337V72.37C258.337 71.35 258.157 70.46 257.797 69.7C257.457 68.94 256.977 68.36 256.357 67.96C255.757 67.54 255.077 67.33 254.317 67.33ZM246.727 82C246.547 82 246.397 81.93 246.277 81.79C246.157 81.65 246.107 81.48 246.127 81.28L248.677 66.58C248.717 66.38 248.807 66.23 248.947 66.13C249.087 66.01 249.257 65.97 249.457 66.01L250.657 66.07C250.857 66.09 251.017 66.18 251.137 66.34C251.257 66.48 251.287 66.65 251.227 66.85L248.857 81.28C248.837 81.48 248.747 81.65 248.587 81.79C248.447 81.93 248.277 82 248.077 82H246.727ZM274.028 79.75C275.328 79.77 276.418 79.53 277.298 79.03C278.198 78.53 278.878 77.82 279.338 76.9C279.818 75.96 280.058 74.89 280.058 73.69V65.56C280.058 65.36 280.118 65.2 280.238 65.08C280.378 64.94 280.548 64.87 280.748 64.87H281.978C282.198 64.87 282.368 64.94 282.488 65.08C282.608 65.2 282.668 65.36 282.668 65.56V73.9C282.668 75.18 282.468 76.34 282.068 77.38C281.668 78.4 281.098 79.28 280.358 80.02C279.618 80.74 278.738 81.29 277.718 81.67C276.718 82.05 275.608 82.22 274.388 82.18H272.138C270.838 82.18 269.668 81.88 268.628 81.28C267.588 80.68 266.768 79.84 266.168 78.76C265.568 77.68 265.268 76.43 265.268 75.01V65.56C265.268 65.36 265.328 65.2 265.448 65.08C265.588 64.94 265.758 64.87 265.958 64.87H267.218C267.418 64.87 267.578 64.94 267.698 65.08C267.838 65.2 267.908 65.36 267.908 65.56L267.998 74.41C267.998 76.13 268.478 77.45 269.438 78.37C270.398 79.29 271.618 79.75 273.098 79.75H274.028ZM267.368 76.24L267.308 74.05C268.788 74.03 269.918 73.81 270.698 73.39C271.478 72.95 272.018 72.37 272.318 71.65C272.638 70.93 272.798 70.14 272.798 69.28V65.56C272.798 65.36 272.858 65.2 272.978 65.08C273.098 64.94 273.268 64.87 273.488 64.87H274.718C274.918 64.87 275.078 64.94 275.198 65.08C275.338 65.2 275.408 65.36 275.408 65.56V69.4C275.408 70.7 275.118 71.87 274.538 72.91C273.958 73.95 273.068 74.77 271.868 75.37C270.688 75.97 269.188 76.26 267.368 76.24ZM287.556 82C287.356 82 287.186 81.94 287.046 81.82C286.926 81.68 286.866 81.51 286.866 81.31V65.56C286.866 65.36 286.926 65.2 287.046 65.08C287.186 64.94 287.356 64.87 287.556 64.87H293.376C295.116 64.87 296.546 65.15 297.666 65.71C298.806 66.25 299.656 67.07 300.216 68.17C300.776 69.25 301.056 70.61 301.056 72.25V81.31C301.056 81.51 300.986 81.68 300.846 81.82C300.726 81.94 300.566 82 300.366 82H299.016C298.796 82 298.626 81.94 298.506 81.82C298.386 81.68 298.326 81.51 298.326 81.31V72.34C298.326 70.74 297.926 69.5 297.126 68.62C296.326 67.72 295.026 67.27 293.226 67.27H289.596V81.31C289.596 81.51 289.536 81.68 289.416 81.82C289.296 81.94 289.126 82 288.906 82H287.556ZM317.588 82C317.388 82 317.218 81.94 317.078 81.82C316.958 81.68 316.898 81.51 316.898 81.31V72.34C316.898 70.74 316.498 69.5 315.698 68.62C314.898 67.72 313.608 67.27 311.828 67.27H306.188C305.988 67.27 305.818 67.21 305.678 67.09C305.558 66.95 305.498 66.78 305.498 66.58V65.56C305.498 65.36 305.558 65.2 305.678 65.08C305.818 64.94 305.988 64.87 306.188 64.87H311.978C314.578 64.87 316.498 65.5 317.738 66.76C318.998 68.02 319.628 69.85 319.628 72.25V81.31C319.628 81.51 319.558 81.68 319.418 81.82C319.298 81.94 319.138 82 318.938 82H317.588ZM306.188 82C305.988 82 305.818 81.94 305.678 81.82C305.558 81.68 305.498 81.51 305.498 81.31V71.29C305.498 71.09 305.558 70.93 305.678 70.81C305.818 70.67 305.988 70.6 306.188 70.6H307.538C307.758 70.6 307.928 70.67 308.048 70.81C308.168 70.93 308.228 71.09 308.228 71.29V81.31C308.228 81.51 308.168 81.68 308.048 81.82C307.928 81.94 307.758 82 307.538 82H306.188ZM100.923 122C100.723 122 100.553 121.94 100.413 121.82C100.293 121.68 100.233 121.51 100.233 121.31V112.34C100.233 110.74 99.8334 109.5 99.0334 108.62C98.2334 107.72 96.9434 107.27 95.1634 107.27H89.5234C89.3234 107.27 89.1534 107.21 89.0134 107.09C88.8934 106.95 88.8334 106.78 88.8334 106.58V105.56C88.8334 105.36 88.8934 105.2 89.0134 105.08C89.1534 104.94 89.3234 104.87 89.5234 104.87H95.3134C97.9134 104.87 99.8334 105.5 101.073 106.76C102.333 108.02 102.963 109.85 102.963 112.25V121.31C102.963 121.51 102.893 121.68 102.753 121.82C102.633 121.94 102.473 122 102.273 122H100.923ZM89.5234 122C89.3234 122 89.1534 121.94 89.0134 121.82C88.8934 121.68 88.8334 121.51 88.8334 121.31V111.29C88.8334 111.09 88.8934 110.93 89.0134 110.81C89.1534 110.67 89.3234 110.6 89.5234 110.6H90.8734C91.0934 110.6 91.2634 110.67 91.3834 110.81C91.5034 110.93 91.5634 111.09 91.5634 111.29V121.31C91.5634 121.51 91.5034 121.68 91.3834 121.82C91.2634 121.94 91.0934 122 90.8734 122H89.5234ZM107.258 123.65C107.058 123.73 106.868 123.71 106.688 123.59C106.508 123.49 106.418 123.34 106.418 123.14V122.12C106.418 121.94 106.458 121.77 106.538 121.61C106.618 121.45 106.748 121.35 106.928 121.31L113.258 119.21C114.398 118.83 115.278 118.34 115.898 117.74C116.518 117.14 116.948 116.44 117.188 115.64C117.448 114.84 117.578 113.97 117.578 113.03V105.56C117.578 105.36 117.638 105.2 117.758 105.08C117.898 104.94 118.068 104.87 118.268 104.87H119.618C119.818 104.87 119.978 104.94 120.098 105.08C120.238 105.2 120.308 105.36 120.308 105.56V113.87C120.308 115.03 120.038 116.13 119.498 117.17C118.978 118.19 118.238 119.09 117.278 119.87C116.318 120.63 115.178 121.21 113.858 121.61L107.258 123.65ZM111.188 121.28L106.958 106.07C106.918 105.91 106.878 105.79 106.838 105.71C106.818 105.63 106.808 105.55 106.808 105.47C106.808 105.31 106.868 105.17 106.988 105.05C107.108 104.93 107.248 104.87 107.408 104.87H108.878C109.258 104.87 109.488 105.02 109.568 105.32L113.738 120.59L111.188 121.28ZM125.441 122C125.241 122 125.071 121.94 124.931 121.82C124.811 121.68 124.751 121.51 124.751 121.31V105.56C124.751 105.36 124.811 105.2 124.931 105.08C125.071 104.94 125.241 104.87 125.441 104.87H126.851C127.071 104.87 127.241 104.94 127.361 105.08C127.481 105.2 127.541 105.36 127.541 105.56V121.31C127.541 121.51 127.481 121.68 127.361 121.82C127.241 121.94 127.071 122 126.851 122H125.441ZM131.894 122C131.694 122 131.524 121.94 131.384 121.82C131.264 121.68 131.204 121.51 131.204 121.31V120.29C131.204 120.09 131.264 119.93 131.384 119.81C131.524 119.67 131.694 119.6 131.894 119.6H140.354V121.43C140.354 121.63 140.284 121.78 140.144 121.88C140.024 121.96 139.864 122 139.664 122H131.894ZM138.524 122C138.324 122 138.164 121.94 138.044 121.82C137.944 121.68 137.874 121.51 137.834 121.31L137.264 112.04C137.224 111.06 137.144 110.21 137.024 109.49C136.924 108.77 136.684 108.21 136.304 107.81C135.944 107.41 135.334 107.21 134.474 107.21H133.244C133.044 107.21 132.874 107.15 132.734 107.03C132.614 106.89 132.554 106.72 132.554 106.52V105.5C132.554 105.3 132.614 105.14 132.734 105.02C132.874 104.88 133.044 104.81 133.244 104.81H134.504C135.644 104.81 136.564 104.98 137.264 105.32C137.964 105.64 138.504 106.12 138.884 106.76C139.264 107.4 139.544 108.16 139.724 109.04C139.904 109.9 140.024 110.87 140.084 111.95L140.624 121.31C140.664 121.51 140.614 121.68 140.474 121.82C140.334 121.94 140.164 122 139.964 122H138.524ZM145.58 107.27C145.38 107.27 145.21 107.21 145.07 107.09C144.95 106.95 144.89 106.78 144.89 106.58V105.56C144.89 105.36 144.95 105.2 145.07 105.08C145.21 104.94 145.38 104.87 145.58 104.87H152.09C153.81 104.87 155.23 105.15 156.35 105.71C157.49 106.25 158.34 107.07 158.9 108.17C159.46 109.25 159.74 110.59 159.74 112.19V121.31C159.74 121.51 159.67 121.68 159.53 121.82C159.41 121.94 159.25 122 159.05 122H157.7C157.48 122 157.31 121.94 157.19 121.82C157.07 121.68 157.01 121.51 157.01 121.31V112.34C157.01 110.74 156.6 109.5 155.78 108.62C154.98 107.72 153.69 107.27 151.91 107.27H145.58ZM148.28 105.8H149.03C149.33 105.8 149.55 105.88 149.69 106.04C149.85 106.18 149.92 106.36 149.9 106.58C149.74 107.42 149.6 108.18 149.48 108.86C149.38 109.54 149.31 110.22 149.27 110.9C149.23 111.56 149.21 112.31 149.21 113.15L149.27 121.31C149.27 121.51 149.21 121.68 149.09 121.82C148.97 121.94 148.81 122 148.61 122L144.35 121.94C144.15 121.94 143.98 121.88 143.84 121.76C143.72 121.64 143.66 121.47 143.66 121.25V120.29C143.66 120.09 143.72 119.93 143.84 119.81C143.98 119.67 144.15 119.6 144.35 119.6L146.66 119.63V113.27C146.66 112.45 146.67 111.7 146.69 111.02C146.71 110.32 146.77 109.62 146.87 108.92C146.97 108.22 147.13 107.43 147.35 106.55C147.41 106.33 147.5 106.15 147.62 106.01C147.76 105.87 147.98 105.8 148.28 105.8ZM167.318 122.27C167.138 122.33 166.968 122.3 166.808 122.18C166.648 122.08 166.568 121.93 166.568 121.73V120.35C166.568 120.17 166.618 120.01 166.718 119.87C166.838 119.73 167.008 119.62 167.228 119.54L168.398 119.09C169.178 118.77 169.888 118.37 170.528 117.89C171.188 117.39 171.698 116.72 172.058 115.88C172.438 115.04 172.628 113.94 172.628 112.58C172.628 111.28 172.468 110.25 172.148 109.49C171.848 108.71 171.328 108.16 170.588 107.84C169.868 107.5 168.878 107.33 167.618 107.33H166.718C166.518 107.33 166.348 107.27 166.208 107.15C166.088 107.01 166.028 106.84 166.028 106.64V105.56C166.028 105.36 166.088 105.2 166.208 105.08C166.348 104.94 166.518 104.87 166.718 104.87H168.038C169.858 104.87 171.308 105.13 172.388 105.65C173.468 106.17 174.238 107.01 174.698 108.17C175.178 109.31 175.418 110.81 175.418 112.67C175.418 114.07 175.228 115.28 174.848 116.3C174.468 117.32 173.948 118.19 173.288 118.91C172.648 119.63 171.918 120.23 171.098 120.71C170.278 121.17 169.428 121.55 168.548 121.85L167.318 122.27ZM167.378 107.33L163.808 107.3C163.608 107.3 163.438 107.24 163.298 107.12C163.178 107 163.118 106.84 163.118 106.64V101.39C163.118 101.19 163.178 101.03 163.298 100.91C163.438 100.77 163.608 100.7 163.808 100.7H165.068C165.268 100.7 165.428 100.77 165.548 100.91C165.688 101.03 165.758 101.19 165.758 101.39V104.87H167.438L167.378 107.33ZM189.73 122.27C189.55 122.33 189.38 122.3 189.22 122.18C189.06 122.08 188.98 121.93 188.98 121.73V120.35C188.98 120.17 189.03 120.01 189.13 119.87C189.25 119.73 189.42 119.62 189.64 119.54L190.81 119.09C191.59 118.77 192.3 118.37 192.94 117.89C193.6 117.39 194.11 116.72 194.47 115.88C194.85 115.04 195.04 113.94 195.04 112.58C195.04 111.28 194.88 110.25 194.56 109.49C194.26 108.71 193.74 108.16 193 107.84C192.28 107.5 191.29 107.33 190.03 107.33H189.13C188.93 107.33 188.76 107.27 188.62 107.15C188.5 107.01 188.44 106.84 188.44 106.64V105.56C188.44 105.36 188.5 105.2 188.62 105.08C188.76 104.94 188.93 104.87 189.13 104.87H190.45C192.27 104.87 193.72 105.13 194.8 105.65C195.88 106.17 196.65 107.01 197.11 108.17C197.59 109.31 197.83 110.81 197.83 112.67C197.83 114.07 197.64 115.28 197.26 116.3C196.88 117.32 196.36 118.19 195.7 118.91C195.06 119.63 194.33 120.23 193.51 120.71C192.69 121.17 191.84 121.55 190.96 121.85L189.73 122.27ZM189.79 107.33L186.22 107.3C186.02 107.3 185.85 107.24 185.71 107.12C185.59 107 185.53 106.84 185.53 106.64V101.39C185.53 101.19 185.59 101.03 185.71 100.91C185.85 100.77 186.02 100.7 186.22 100.7H187.48C187.68 100.7 187.84 100.77 187.96 100.91C188.1 101.03 188.17 101.19 188.17 101.39V104.87H189.85L189.79 107.33ZM202.463 122C202.263 122 202.093 121.94 201.953 121.82C201.833 121.68 201.773 121.51 201.773 121.31V105.56C201.773 105.36 201.833 105.2 201.953 105.08C202.093 104.94 202.263 104.87 202.463 104.87H203.873C204.093 104.87 204.263 104.94 204.383 105.08C204.503 105.2 204.563 105.36 204.563 105.56V121.31C204.563 121.51 204.503 121.68 204.383 121.82C204.263 121.94 204.093 122 203.873 122H202.463ZM217.705 119.75C219.005 119.77 220.095 119.53 220.975 119.03C221.875 118.53 222.555 117.82 223.015 116.9C223.495 115.96 223.735 114.89 223.735 113.69V105.56C223.735 105.36 223.795 105.2 223.915 105.08C224.055 104.94 224.225 104.87 224.425 104.87H225.655C225.875 104.87 226.045 104.94 226.165 105.08C226.285 105.2 226.345 105.36 226.345 105.56V113.9C226.345 115.18 226.145 116.34 225.745 117.38C225.345 118.4 224.775 119.28 224.035 120.02C223.295 120.74 222.415 121.29 221.395 121.67C220.395 122.05 219.285 122.22 218.065 122.18H215.815C214.515 122.18 213.345 121.88 212.305 121.28C211.265 120.68 210.445 119.84 209.845 118.76C209.245 117.68 208.945 116.43 208.945 115.01V105.56C208.945 105.36 209.005 105.2 209.125 105.08C209.265 104.94 209.435 104.87 209.635 104.87H210.895C211.095 104.87 211.255 104.94 211.375 105.08C211.515 105.2 211.585 105.36 211.585 105.56L211.675 114.41C211.675 116.13 212.155 117.45 213.115 118.37C214.075 119.29 215.295 119.75 216.775 119.75H217.705ZM211.045 116.24L210.985 114.05C212.465 114.03 213.595 113.81 214.375 113.39C215.155 112.95 215.695 112.37 215.995 111.65C216.315 110.93 216.475 110.14 216.475 109.28V105.56C216.475 105.36 216.535 105.2 216.655 105.08C216.775 104.94 216.945 104.87 217.165 104.87H218.395C218.595 104.87 218.755 104.94 218.875 105.08C219.015 105.2 219.085 105.36 219.085 105.56V109.4C219.085 110.7 218.795 111.87 218.215 112.91C217.635 113.95 216.745 114.77 215.545 115.37C214.365 115.97 212.865 116.26 211.045 116.24ZM231.232 122C231.032 122 230.862 121.94 230.722 121.82C230.602 121.68 230.542 121.51 230.542 121.31V120.23C230.542 120.03 230.602 119.87 230.722 119.75C230.862 119.61 231.032 119.54 231.232 119.54H235.522C237.302 119.54 238.582 119.1 239.362 118.22C240.142 117.32 240.572 116.07 240.652 114.47C240.672 114.03 240.682 113.68 240.682 113.42C240.682 113.16 240.672 112.82 240.652 112.4C240.592 110.8 240.162 109.56 239.362 108.68C238.582 107.78 237.302 107.33 235.522 107.33H231.232C231.032 107.33 230.862 107.27 230.722 107.15C230.602 107.01 230.542 106.84 230.542 106.64V105.56C230.542 105.36 230.602 105.2 230.722 105.08C230.862 104.94 231.032 104.87 231.232 104.87H235.672C237.432 104.87 238.862 105.17 239.962 105.77C241.062 106.35 241.882 107.2 242.422 108.32C242.982 109.42 243.282 110.75 243.322 112.31C243.342 112.71 243.352 113.08 243.352 113.42C243.352 113.76 243.342 114.14 243.322 114.56C243.282 116.1 242.982 117.43 242.422 118.55C241.882 119.67 241.062 120.53 239.962 121.13C238.862 121.71 237.432 122 235.672 122H231.232ZM254.595 107.33H247.305C247.085 107.33 246.915 107.27 246.795 107.15C246.675 107.01 246.615 106.84 246.615 106.64V105.56C246.615 105.36 246.675 105.2 246.795 105.08C246.915 104.94 247.085 104.87 247.305 104.87H254.925C256.165 104.87 257.265 105.16 258.225 105.74C259.205 106.32 259.965 107.16 260.505 108.26C261.065 109.34 261.345 110.65 261.345 112.19V121.31C261.345 121.51 261.275 121.68 261.135 121.82C261.015 121.94 260.855 122 260.655 122H252.915C252.715 122 252.545 121.94 252.405 121.82C252.285 121.68 252.225 121.51 252.225 121.31V120.29C252.225 120.09 252.285 119.93 252.405 119.81C252.545 119.67 252.715 119.6 252.915 119.6H258.615V112.37C258.615 111.35 258.435 110.46 258.075 109.7C257.735 108.94 257.255 108.36 256.635 107.96C256.035 107.54 255.355 107.33 254.595 107.33ZM247.005 122C246.825 122 246.675 121.93 246.555 121.79C246.435 121.65 246.385 121.48 246.405 121.28L248.955 106.58C248.995 106.38 249.085 106.23 249.225 106.13C249.365 106.01 249.535 105.97 249.735 106.01L250.935 106.07C251.135 106.09 251.295 106.18 251.415 106.34C251.535 106.48 251.565 106.65 251.505 106.85L249.135 121.28C249.115 121.48 249.025 121.65 248.865 121.79C248.725 121.93 248.555 122 248.355 122H247.005Z" fill="black"/>
<defs>
<filter id="filter0_d_124_140" x="0" y="0" width="378" height="148" filterUnits="userSpaceOnUse" color-interpolation-filters="sRGB">
<feFlood flood-opacity="0" result="BackgroundImageFix"/>
<feColorMatrix in="SourceAlpha" type="matrix" values="0 0 0 0 0 0 0 0 0 0 0 0 0 0 0 0 0 0 127 0" result="hardAlpha"/>
<feOffset dx="4" dy="4"/>
<feGaussianBlur stdDeviation="2"/>
<feComposite in2="hardAlpha" operator="out"/>
<feColorMatrix type="matrix" values="0 0 0 0 0 0 0 0 0 0 0 0 0 0 0 0 0 0 0.25 0"/>
<feBlend mode="normal" in2="BackgroundImageFix" result="effect1_dropShadow_124_140"/>
<feBlend mode="normal" in="SourceGraphic" in2="effect1_dropShadow_124_140" result="shape"/>
</filter>
</defs>
</svg>
