<svg width="378" height="148" viewBox="0 0 378 148" fill="none" xmlns="http://www.w3.org/2000/svg">
<g filter="url(#filter0_d_124_139)">
<rect width="370" height="140" rx="20" fill="#FDF4D4"/>
</g>
<path d="M34.0742 45.72C33.8742 45.72 33.7042 45.65 33.5642 45.51C33.4442 45.39 33.3842 45.23 33.3842 45.03V25.56C33.3842 25.36 33.4442 25.2 33.5642 25.08C33.7042 24.94 33.8742 24.87 34.0742 24.87H35.4242C35.6442 24.87 35.8142 24.94 35.9342 25.08C36.0542 25.2 36.1142 25.36 36.1142 25.56V45.03C36.1142 45.23 36.0542 45.39 35.9342 45.51C35.8142 45.65 35.6442 45.72 35.4242 45.72H34.0742ZM48.2377 27.33H40.9477C40.7277 27.33 40.5577 27.27 40.4377 27.15C40.3177 27.01 40.2577 26.84 40.2577 26.64V25.56C40.2577 25.36 40.3177 25.2 40.4377 25.08C40.5577 24.94 40.7277 24.87 40.9477 24.87H48.5677C49.8077 24.87 50.9077 25.16 51.8677 25.74C52.8477 26.32 53.6077 27.16 54.1477 28.26C54.7077 29.34 54.9877 30.65 54.9877 32.19V41.31C54.9877 41.51 54.9177 41.68 54.7777 41.82C54.6577 41.94 54.4977 42 54.2977 42H46.5577C46.3577 42 46.1877 41.94 46.0477 41.82C45.9277 41.68 45.8677 41.51 45.8677 41.31V40.29C45.8677 40.09 45.9277 39.93 46.0477 39.81C46.1877 39.67 46.3577 39.6 46.5577 39.6H52.2577V32.37C52.2577 31.35 52.0777 30.46 51.7177 29.7C51.3777 28.94 50.8977 28.36 50.2777 27.96C49.6777 27.54 48.9977 27.33 48.2377 27.33ZM40.6477 42C40.4677 42 40.3177 41.93 40.1977 41.79C40.0777 41.65 40.0277 41.48 40.0477 41.28L42.5977 26.58C42.6377 26.38 42.7277 26.23 42.8677 26.13C43.0077 26.01 43.1777 25.97 43.3777 26.01L44.5777 26.07C44.7777 26.09 44.9377 26.18 45.0577 26.34C45.1777 26.48 45.2077 26.65 45.1477 26.85L42.7777 41.28C42.7577 41.48 42.6677 41.65 42.5077 41.79C42.3677 41.93 42.1977 42 41.9977 42H40.6477ZM78.8727 42C78.6727 42 78.5027 41.94 78.3627 41.82C78.2427 41.68 78.1827 41.51 78.1827 41.31V32.34C78.1827 30.74 77.7827 29.5 76.9827 28.62C76.1827 27.72 74.8927 27.27 73.1127 27.27H67.4727C67.2727 27.27 67.1027 27.21 66.9627 27.09C66.8427 26.95 66.7827 26.78 66.7827 26.58V25.56C66.7827 25.36 66.8427 25.2 66.9627 25.08C67.1027 24.94 67.2727 24.87 67.4727 24.87H73.2627C75.8627 24.87 77.7827 25.5 79.0227 26.76C80.2827 28.02 80.9127 29.85 80.9127 32.25V41.31C80.9127 41.51 80.8427 41.68 80.7027 41.82C80.5827 41.94 80.4227 42 80.2227 42H78.8727ZM67.4727 42C67.2727 42 67.1027 41.94 66.9627 41.82C66.8427 41.68 66.7827 41.51 66.7827 41.31V31.29C66.7827 31.09 66.8427 30.93 66.9627 30.81C67.1027 30.67 67.2727 30.6 67.4727 30.6H68.8227C69.0427 30.6 69.2127 30.67 69.3327 30.81C69.4527 30.93 69.5127 31.09 69.5127 31.29V41.31C69.5127 41.51 69.4527 41.68 69.3327 41.82C69.2127 41.94 69.0427 42 68.8227 42H67.4727ZM86.0469 42C85.8469 42 85.6769 41.94 85.5369 41.82C85.4169 41.68 85.3569 41.51 85.3569 41.31V40.23C85.3569 40.03 85.4169 39.87 85.5369 39.75C85.6769 39.61 85.8469 39.54 86.0469 39.54H90.3369C92.1169 39.54 93.3969 39.1 94.1769 38.22C94.9569 37.32 95.3869 36.07 95.4669 34.47C95.4869 34.03 95.4969 33.68 95.4969 33.42C95.4969 33.16 95.4869 32.82 95.4669 32.4C95.4069 30.8 94.9769 29.56 94.1769 28.68C93.3969 27.78 92.1169 27.33 90.3369 27.33H86.0469C85.8469 27.33 85.6769 27.27 85.5369 27.15C85.4169 27.01 85.3569 26.84 85.3569 26.64V25.56C85.3569 25.36 85.4169 25.2 85.5369 25.08C85.6769 24.94 85.8469 24.87 86.0469 24.87H90.4869C92.2469 24.87 93.6769 25.17 94.7769 25.77C95.8769 26.35 96.6969 27.2 97.2369 28.32C97.7969 29.42 98.0969 30.75 98.1369 32.31C98.1569 32.71 98.1669 33.08 98.1669 33.42C98.1669 33.76 98.1569 34.14 98.1369 34.56C98.0969 36.1 97.7969 37.43 97.2369 38.55C96.6969 39.67 95.8769 40.53 94.7769 41.13C93.6769 41.71 92.2469 42 90.4869 42H86.0469ZM111.336 42C111.136 42 110.966 41.94 110.826 41.82C110.706 41.68 110.646 41.51 110.646 41.31V32.34C110.646 30.74 110.246 29.5 109.446 28.62C108.646 27.72 107.356 27.27 105.576 27.27H101.646C101.446 27.27 101.276 27.21 101.136 27.09C101.016 26.95 100.956 26.78 100.956 26.58V25.56C100.956 25.36 101.016 25.2 101.136 25.08C101.276 24.94 101.446 24.87 101.646 24.87H105.726C107.446 24.87 108.866 25.14 109.986 25.68C111.126 26.22 111.976 27.04 112.536 28.14C113.096 29.22 113.376 30.57 113.376 32.19V41.31C113.376 41.51 113.306 41.68 113.166 41.82C113.046 41.94 112.886 42 112.686 42H111.336ZM117.668 43.65C117.468 43.73 117.278 43.71 117.098 43.59C116.918 43.49 116.828 43.34 116.828 43.14V42.12C116.828 41.94 116.868 41.77 116.948 41.61C117.028 41.45 117.158 41.35 117.338 41.31L123.668 39.21C124.808 38.83 125.688 38.34 126.308 37.74C126.928 37.14 127.358 36.44 127.598 35.64C127.858 34.84 127.988 33.97 127.988 33.03V25.56C127.988 25.36 128.048 25.2 128.168 25.08C128.308 24.94 128.478 24.87 128.678 24.87H130.028C130.228 24.87 130.388 24.94 130.508 25.08C130.648 25.2 130.718 25.36 130.718 25.56V33.87C130.718 35.03 130.448 36.13 129.908 37.17C129.388 38.19 128.648 39.09 127.688 39.87C126.728 40.63 125.588 41.21 124.268 41.61L117.668 43.65ZM121.598 41.28L117.368 26.07C117.328 25.91 117.288 25.79 117.248 25.71C117.228 25.63 117.218 25.55 117.218 25.47C117.218 25.31 117.278 25.17 117.398 25.05C117.518 24.93 117.658 24.87 117.818 24.87H119.288C119.668 24.87 119.898 25.02 119.978 25.32L124.148 40.59L121.598 41.28ZM147.252 42C147.052 42 146.882 41.94 146.742 41.82C146.622 41.68 146.562 41.51 146.562 41.31V32.34C146.562 30.74 146.162 29.5 145.362 28.62C144.562 27.72 143.272 27.27 141.492 27.27H135.852C135.652 27.27 135.482 27.21 135.342 27.09C135.222 26.95 135.162 26.78 135.162 26.58V25.56C135.162 25.36 135.222 25.2 135.342 25.08C135.482 24.94 135.652 24.87 135.852 24.87H141.642C144.242 24.87 146.162 25.5 147.402 26.76C148.662 28.02 149.292 29.85 149.292 32.25V41.31C149.292 41.51 149.222 41.68 149.082 41.82C148.962 41.94 148.802 42 148.602 42H147.252ZM135.852 42C135.652 42 135.482 41.94 135.342 41.82C135.222 41.68 135.162 41.51 135.162 41.31V31.29C135.162 31.09 135.222 30.93 135.342 30.81C135.482 30.67 135.652 30.6 135.852 30.6H137.202C137.422 30.6 137.592 30.67 137.712 30.81C137.832 30.93 137.892 31.09 137.892 31.29V41.31C137.892 41.51 137.832 41.68 137.712 41.82C137.592 41.94 137.422 42 137.202 42H135.852ZM162.289 27.27C162.089 27.27 161.919 27.21 161.779 27.09C161.659 26.95 161.599 26.78 161.599 26.58V25.56C161.599 25.36 161.659 25.2 161.779 25.08C161.919 24.94 162.089 24.87 162.289 24.87H168.799C170.519 24.87 171.939 25.15 173.059 25.71C174.199 26.25 175.049 27.07 175.609 28.17C176.169 29.25 176.449 30.59 176.449 32.19V41.31C176.449 41.51 176.379 41.68 176.239 41.82C176.119 41.94 175.959 42 175.759 42H174.409C174.189 42 174.019 41.94 173.899 41.82C173.779 41.68 173.719 41.51 173.719 41.31V32.34C173.719 30.74 173.309 29.5 172.489 28.62C171.689 27.72 170.399 27.27 168.619 27.27H162.289ZM164.989 25.8H165.739C166.039 25.8 166.259 25.88 166.399 26.04C166.559 26.18 166.629 26.36 166.609 26.58C166.449 27.42 166.309 28.18 166.189 28.86C166.089 29.54 166.019 30.22 165.979 30.9C165.939 31.56 165.919 32.31 165.919 33.15L165.979 41.31C165.979 41.51 165.919 41.68 165.799 41.82C165.679 41.94 165.519 42 165.319 42L161.059 41.94C160.859 41.94 160.689 41.88 160.549 41.76C160.429 41.64 160.369 41.47 160.369 41.25V40.29C160.369 40.09 160.429 39.93 160.549 39.81C160.689 39.67 160.859 39.6 161.059 39.6L163.369 39.63V33.27C163.369 32.45 163.379 31.7 163.399 31.02C163.419 30.32 163.479 29.62 163.579 28.92C163.679 28.22 163.839 27.43 164.059 26.55C164.119 26.33 164.209 26.15 164.329 26.01C164.469 25.87 164.689 25.8 164.989 25.8ZM192.564 42C192.344 42 192.174 41.94 192.054 41.82C191.934 41.7 191.824 41.6 191.724 41.52L180.714 26.04C180.574 25.82 180.504 25.63 180.504 25.47C180.504 25.31 180.564 25.17 180.684 25.05C180.824 24.93 180.974 24.87 181.134 24.87H182.514C182.754 24.87 182.934 24.93 183.054 25.05C183.194 25.17 183.304 25.28 183.384 25.38L194.424 40.83C194.504 40.97 194.554 41.08 194.574 41.16C194.614 41.24 194.634 41.32 194.634 41.4C194.634 41.56 194.574 41.7 194.454 41.82C194.334 41.94 194.184 42 194.004 42H192.564ZM180.864 42C180.664 42 180.494 41.94 180.354 41.82C180.234 41.68 180.174 41.51 180.174 41.31V36.81C180.174 35.89 180.264 35.02 180.444 34.2C180.624 33.36 180.974 32.57 181.494 31.83C182.034 31.07 182.834 30.36 183.894 29.7L185.274 31.71C184.554 32.17 184.014 32.7 183.654 33.3C183.294 33.88 183.054 34.49 182.934 35.13C182.814 35.75 182.754 36.35 182.754 36.93V41.31C182.754 41.51 182.684 41.68 182.544 41.82C182.424 41.94 182.264 42 182.064 42H180.864ZM190.164 36.51L188.934 34.44C189.914 33.98 190.604 33.5 191.004 33C191.424 32.5 191.674 31.98 191.754 31.44C191.834 30.88 191.874 30.3 191.874 29.7V25.56C191.874 25.36 191.934 25.2 192.054 25.08C192.194 24.94 192.364 24.87 192.564 24.87H193.824C194.024 24.87 194.184 24.94 194.304 25.08C194.444 25.2 194.514 25.36 194.514 25.56V29.85C194.514 30.69 194.414 31.5 194.214 32.28C194.014 33.06 193.604 33.8 192.984 34.5C192.384 35.2 191.444 35.87 190.164 36.51ZM206.574 47.73C206.374 47.73 206.204 47.66 206.064 47.52C205.944 47.4 205.884 47.24 205.884 47.04V31.29C205.884 31.09 205.944 30.93 206.064 30.81C206.204 30.67 206.374 30.6 206.574 30.6H207.894C208.114 30.6 208.284 30.67 208.404 30.81C208.524 30.93 208.584 31.09 208.584 31.29V47.04C208.584 47.24 208.524 47.4 208.404 47.52C208.284 47.66 208.114 47.73 207.894 47.73H206.574ZM212.334 42.27C212.154 42.33 211.984 42.3 211.824 42.18C211.684 42.08 211.614 41.93 211.614 41.73V40.35C211.614 40.17 211.664 40.01 211.764 39.87C211.884 39.73 212.054 39.62 212.274 39.54L213.414 39.09C214.214 38.77 214.934 38.37 215.574 37.89C216.234 37.39 216.744 36.72 217.104 35.88C217.484 35.04 217.674 33.94 217.674 32.58C217.674 31.28 217.514 30.25 217.194 29.49C216.874 28.71 216.344 28.16 215.604 27.84C214.884 27.5 213.904 27.33 212.664 27.33H206.574C206.374 27.33 206.204 27.27 206.064 27.15C205.944 27.01 205.884 26.84 205.884 26.64V25.56C205.884 25.36 205.944 25.2 206.064 25.08C206.204 24.94 206.374 24.87 206.574 24.87H213.054C214.894 24.87 216.344 25.13 217.404 25.65C218.484 26.17 219.254 27.01 219.714 28.17C220.194 29.31 220.434 30.81 220.434 32.67C220.434 34.07 220.244 35.28 219.864 36.3C219.484 37.32 218.964 38.19 218.304 38.91C217.664 39.63 216.934 40.23 216.114 40.71C215.314 41.17 214.474 41.55 213.594 41.85L212.334 42.27ZM225.864 27.27C225.664 27.27 225.494 27.21 225.354 27.09C225.234 26.95 225.174 26.78 225.174 26.58V25.56C225.174 25.36 225.234 25.2 225.354 25.08C225.494 24.94 225.664 24.87 225.864 24.87H232.374C234.094 24.87 235.514 25.15 236.634 25.71C237.774 26.25 238.624 27.07 239.184 28.17C239.744 29.25 240.024 30.59 240.024 32.19V41.31C240.024 41.51 239.954 41.68 239.814 41.82C239.694 41.94 239.534 42 239.334 42H237.984C237.764 42 237.594 41.94 237.474 41.82C237.354 41.68 237.294 41.51 237.294 41.31V32.34C237.294 30.74 236.884 29.5 236.064 28.62C235.264 27.72 233.974 27.27 232.194 27.27H225.864ZM228.564 25.8H229.314C229.614 25.8 229.834 25.88 229.974 26.04C230.134 26.18 230.204 26.36 230.184 26.58C230.024 27.42 229.884 28.18 229.764 28.86C229.664 29.54 229.594 30.22 229.554 30.9C229.514 31.56 229.494 32.31 229.494 33.15L229.554 41.31C229.554 41.51 229.494 41.68 229.374 41.82C229.254 41.94 229.094 42 228.894 42L224.634 41.94C224.434 41.94 224.264 41.88 224.124 41.76C224.004 41.64 223.944 41.47 223.944 41.25V40.29C223.944 40.09 224.004 39.93 224.124 39.81C224.264 39.67 224.434 39.6 224.634 39.6L226.944 39.63V33.27C226.944 32.45 226.954 31.7 226.974 31.02C226.994 30.32 227.054 29.62 227.154 28.92C227.254 28.22 227.414 27.43 227.634 26.55C227.694 26.33 227.784 26.15 227.904 26.01C228.044 25.87 228.264 25.8 228.564 25.8ZM244.198 42C243.998 42 243.828 41.94 243.688 41.82C243.568 41.68 243.508 41.51 243.508 41.31V40.29C243.508 40.09 243.568 39.93 243.688 39.81C243.828 39.67 243.998 39.6 244.198 39.6H252.658V41.43C252.658 41.63 252.588 41.78 252.448 41.88C252.328 41.96 252.168 42 251.968 42H244.198ZM250.828 42C250.628 42 250.468 41.94 250.348 41.82C250.248 41.68 250.178 41.51 250.138 41.31L249.568 32.04C249.528 31.06 249.448 30.21 249.328 29.49C249.228 28.77 248.988 28.21 248.608 27.81C248.248 27.41 247.638 27.21 246.778 27.21H245.548C245.348 27.21 245.178 27.15 245.038 27.03C244.918 26.89 244.858 26.72 244.858 26.52V25.5C244.858 25.3 244.918 25.14 245.038 25.02C245.178 24.88 245.348 24.81 245.548 24.81H246.808C247.948 24.81 248.868 24.98 249.568 25.32C250.268 25.64 250.808 26.12 251.188 26.76C251.568 27.4 251.848 28.16 252.028 29.04C252.208 29.9 252.328 30.87 252.388 31.95L252.928 41.31C252.968 41.51 252.918 41.68 252.778 41.82C252.638 41.94 252.468 42 252.268 42H250.828ZM259.818 42.27C259.638 42.33 259.468 42.3 259.308 42.18C259.148 42.08 259.068 41.93 259.068 41.73V40.35C259.068 40.17 259.118 40.01 259.218 39.87C259.338 39.73 259.508 39.62 259.728 39.54L260.898 39.09C261.678 38.77 262.388 38.37 263.028 37.89C263.688 37.39 264.198 36.72 264.558 35.88C264.938 35.04 265.128 33.94 265.128 32.58C265.128 31.28 264.968 30.25 264.648 29.49C264.348 28.71 263.828 28.16 263.088 27.84C262.368 27.5 261.378 27.33 260.118 27.33H259.218C259.018 27.33 258.848 27.27 258.708 27.15C258.588 27.01 258.528 26.84 258.528 26.64V25.56C258.528 25.36 258.588 25.2 258.708 25.08C258.848 24.94 259.018 24.87 259.218 24.87H260.538C262.358 24.87 263.808 25.13 264.888 25.65C265.968 26.17 266.738 27.01 267.198 28.17C267.678 29.31 267.918 30.81 267.918 32.67C267.918 34.07 267.728 35.28 267.348 36.3C266.968 37.32 266.448 38.19 265.788 38.91C265.148 39.63 264.418 40.23 263.598 40.71C262.778 41.17 261.928 41.55 261.048 41.85L259.818 42.27ZM259.878 27.33L256.308 27.3C256.108 27.3 255.938 27.24 255.798 27.12C255.678 27 255.618 26.84 255.618 26.64V21.39C255.618 21.19 255.678 21.03 255.798 20.91C255.938 20.77 256.108 20.7 256.308 20.7H257.568C257.768 20.7 257.928 20.77 258.048 20.91C258.188 21.03 258.258 21.19 258.258 21.39V24.87H259.938L259.878 27.33ZM279.904 45.72C279.704 45.72 279.534 45.65 279.394 45.51C279.274 45.39 279.214 45.23 279.214 45.03V25.56C279.214 25.36 279.274 25.2 279.394 25.08C279.534 24.94 279.704 24.87 279.904 24.87H281.254C281.474 24.87 281.644 24.94 281.764 25.08C281.884 25.2 281.944 25.36 281.944 25.56V45.03C281.944 45.23 281.884 45.39 281.764 45.51C281.644 45.65 281.474 45.72 281.254 45.72H279.904ZM287.048 35.04C286.848 35.04 286.678 34.98 286.538 34.86C286.418 34.72 286.358 34.55 286.358 34.35V25.56C286.358 25.36 286.418 25.2 286.538 25.08C286.678 24.94 286.848 24.87 287.048 24.87H288.458C288.678 24.87 288.848 24.94 288.968 25.08C289.088 25.2 289.148 25.36 289.148 25.56V34.35C289.148 34.55 289.088 34.72 288.968 34.86C288.848 34.98 288.678 35.04 288.458 35.04H287.048ZM305.269 42C305.049 42 304.879 41.94 304.759 41.82C304.639 41.7 304.529 41.6 304.429 41.52L293.419 26.04C293.279 25.82 293.209 25.63 293.209 25.47C293.209 25.31 293.269 25.17 293.389 25.05C293.529 24.93 293.679 24.87 293.839 24.87H295.219C295.459 24.87 295.639 24.93 295.759 25.05C295.899 25.17 296.009 25.28 296.089 25.38L307.129 40.83C307.209 40.97 307.259 41.08 307.279 41.16C307.319 41.24 307.339 41.32 307.339 41.4C307.339 41.56 307.279 41.7 307.159 41.82C307.039 41.94 306.889 42 306.709 42H305.269ZM293.569 42C293.369 42 293.199 41.94 293.059 41.82C292.939 41.68 292.879 41.51 292.879 41.31V36.81C292.879 35.89 292.969 35.02 293.149 34.2C293.329 33.36 293.679 32.57 294.199 31.83C294.739 31.07 295.539 30.36 296.599 29.7L297.979 31.71C297.259 32.17 296.719 32.7 296.359 33.3C295.999 33.88 295.759 34.49 295.639 35.13C295.519 35.75 295.459 36.35 295.459 36.93V41.31C295.459 41.51 295.389 41.68 295.249 41.82C295.129 41.94 294.969 42 294.769 42H293.569ZM302.869 36.51L301.639 34.44C302.619 33.98 303.309 33.5 303.709 33C304.129 32.5 304.379 31.98 304.459 31.44C304.539 30.88 304.579 30.3 304.579 29.7V25.56C304.579 25.36 304.639 25.2 304.759 25.08C304.899 24.94 305.069 24.87 305.269 24.87H306.529C306.729 24.87 306.889 24.94 307.009 25.08C307.149 25.2 307.219 25.36 307.219 25.56V29.85C307.219 30.69 307.119 31.5 306.919 32.28C306.719 33.06 306.309 33.8 305.689 34.5C305.089 35.2 304.149 35.87 302.869 36.51ZM331.443 35.94C330.863 35.94 330.323 35.8 329.823 35.52C329.323 35.22 328.923 34.83 328.623 34.35C328.343 33.85 328.203 33.31 328.203 32.73C328.203 32.13 328.343 31.59 328.623 31.11C328.923 30.61 329.323 30.22 329.823 29.94C330.323 29.64 330.863 29.49 331.443 29.49C332.043 29.49 332.583 29.64 333.063 29.94C333.543 30.22 333.923 30.61 334.203 31.11C334.503 31.59 334.653 32.13 334.653 32.73C334.653 33.31 334.503 33.85 334.203 34.35C333.923 34.83 333.543 35.22 333.063 35.52C332.583 35.8 332.043 35.94 331.443 35.94ZM21.7815 67.27C21.5815 67.27 21.4115 67.21 21.2715 67.09C21.1515 66.95 21.0915 66.78 21.0915 66.58V65.56C21.0915 65.36 21.1515 65.2 21.2715 65.08C21.4115 64.94 21.5815 64.87 21.7815 64.87H28.2915C30.0115 64.87 31.4315 65.15 32.5515 65.71C33.6915 66.25 34.5415 67.07 35.1015 68.17C35.6615 69.25 35.9415 70.59 35.9415 72.19V81.31C35.9415 81.51 35.8715 81.68 35.7315 81.82C35.6115 81.94 35.4515 82 35.2515 82H33.9015C33.6815 82 33.5115 81.94 33.3915 81.82C33.2715 81.68 33.2115 81.51 33.2115 81.31V72.34C33.2115 70.74 32.8015 69.5 31.9815 68.62C31.1815 67.72 29.8915 67.27 28.1115 67.27H21.7815ZM24.4815 65.8H25.2315C25.5315 65.8 25.7515 65.88 25.8915 66.04C26.0515 66.18 26.1215 66.36 26.1015 66.58C25.9415 67.42 25.8015 68.18 25.6815 68.86C25.5815 69.54 25.5115 70.22 25.4715 70.9C25.4315 71.56 25.4115 72.31 25.4115 73.15L25.4715 81.31C25.4715 81.51 25.4115 81.68 25.2915 81.82C25.1715 81.94 25.0115 82 24.8115 82L20.5515 81.94C20.3515 81.94 20.1815 81.88 20.0415 81.76C19.9215 81.64 19.8615 81.47 19.8615 81.25V80.29C19.8615 80.09 19.9215 79.93 20.0415 79.81C20.1815 79.67 20.3515 79.6 20.5515 79.6L22.8615 79.63V73.27C22.8615 72.45 22.8715 71.7 22.8915 71.02C22.9115 70.32 22.9715 69.62 23.0715 68.92C23.1715 68.22 23.3315 67.43 23.5515 66.55C23.6115 66.33 23.7015 66.15 23.8215 66.01C23.9615 65.87 24.1815 65.8 24.4815 65.8ZM41.0762 82C40.8762 82 40.7062 81.94 40.5662 81.82C40.4462 81.68 40.3862 81.51 40.3862 81.31V80.23C40.3862 80.03 40.4462 79.87 40.5662 79.75C40.7062 79.61 40.8762 79.54 41.0762 79.54H45.3662C47.1462 79.54 48.4262 79.1 49.2062 78.22C49.9862 77.32 50.4162 76.07 50.4962 74.47C50.5162 74.03 50.5262 73.68 50.5262 73.42C50.5262 73.16 50.5162 72.82 50.4962 72.4C50.4362 70.8 50.0062 69.56 49.2062 68.68C48.4262 67.78 47.1462 67.33 45.3662 67.33H41.0762C40.8762 67.33 40.7062 67.27 40.5662 67.15C40.4462 67.01 40.3862 66.84 40.3862 66.64V65.56C40.3862 65.36 40.4462 65.2 40.5662 65.08C40.7062 64.94 40.8762 64.87 41.0762 64.87H45.5162C47.2762 64.87 48.7062 65.17 49.8062 65.77C50.9062 66.35 51.7262 67.2 52.2662 68.32C52.8262 69.42 53.1262 70.75 53.1662 72.31C53.1862 72.71 53.1962 73.08 53.1962 73.42C53.1962 73.76 53.1862 74.14 53.1662 74.56C53.1262 76.1 52.8262 77.43 52.2662 78.55C51.7262 79.67 50.9062 80.53 49.8062 81.13C48.7062 81.71 47.2762 82 45.5162 82H41.0762ZM57.5947 75.04C57.3947 75.04 57.2247 74.98 57.0847 74.86C56.9647 74.72 56.9047 74.55 56.9047 74.35V65.56C56.9047 65.36 56.9647 65.2 57.0847 65.08C57.2247 64.94 57.3947 64.87 57.5947 64.87H59.0047C59.2247 64.87 59.3947 64.94 59.5147 65.08C59.6347 65.2 59.6947 65.36 59.6947 65.56V74.35C59.6947 74.55 59.6347 74.72 59.5147 74.86C59.3947 74.98 59.2247 75.04 59.0047 75.04H57.5947ZM72.6659 79.75C73.9659 79.77 75.0559 79.53 75.9359 79.03C76.8359 78.53 77.5159 77.82 77.9759 76.9C78.4559 75.96 78.6959 74.89 78.6959 73.69V65.56C78.6959 65.36 78.7559 65.2 78.8759 65.08C79.0159 64.94 79.1859 64.87 79.3859 64.87H80.6159C80.8359 64.87 81.0059 64.94 81.1259 65.08C81.2459 65.2 81.3059 65.36 81.3059 65.56V73.9C81.3059 75.18 81.1059 76.34 80.7059 77.38C80.3059 78.4 79.7359 79.28 78.9959 80.02C78.2559 80.74 77.3759 81.29 76.3559 81.67C75.3559 82.05 74.2459 82.22 73.0259 82.18H70.7759C69.4759 82.18 68.3059 81.88 67.2659 81.28C66.2259 80.68 65.4059 79.84 64.8059 78.76C64.2059 77.68 63.9059 76.43 63.9059 75.01V65.56C63.9059 65.36 63.9659 65.2 64.0859 65.08C64.2259 64.94 64.3959 64.87 64.5959 64.87H65.8559C66.0559 64.87 66.2159 64.94 66.3359 65.08C66.4759 65.2 66.5459 65.36 66.5459 65.56L66.6359 74.41C66.6359 76.13 67.1159 77.45 68.0759 78.37C69.0359 79.29 70.2559 79.75 71.7359 79.75H72.6659ZM66.0059 76.24L65.9459 74.05C67.4259 74.03 68.5559 73.81 69.3359 73.39C70.1159 72.95 70.6559 72.37 70.9559 71.65C71.2759 70.93 71.4359 70.14 71.4359 69.28V65.56C71.4359 65.36 71.4959 65.2 71.6159 65.08C71.7359 64.94 71.9059 64.87 72.1259 64.87H73.3559C73.5559 64.87 73.7159 64.94 73.8359 65.08C73.9759 65.2 74.0459 65.36 74.0459 65.56V69.4C74.0459 70.7 73.7559 71.87 73.1759 72.91C72.5959 73.95 71.7059 74.77 70.5059 75.37C69.3259 75.97 67.8259 76.26 66.0059 76.24ZM93.0034 67.33H85.7134C85.4934 67.33 85.3234 67.27 85.2034 67.15C85.0834 67.01 85.0234 66.84 85.0234 66.64V65.56C85.0234 65.36 85.0834 65.2 85.2034 65.08C85.3234 64.94 85.4934 64.87 85.7134 64.87H93.3334C94.5734 64.87 95.6734 65.16 96.6334 65.74C97.6134 66.32 98.3734 67.16 98.9134 68.26C99.4734 69.34 99.7534 70.65 99.7534 72.19V81.31C99.7534 81.51 99.6834 81.68 99.5434 81.82C99.4234 81.94 99.2634 82 99.0634 82H91.3234C91.1234 82 90.9534 81.94 90.8134 81.82C90.6934 81.68 90.6334 81.51 90.6334 81.31V80.29C90.6334 80.09 90.6934 79.93 90.8134 79.81C90.9534 79.67 91.1234 79.6 91.3234 79.6H97.0234V72.37C97.0234 71.35 96.8434 70.46 96.4834 69.7C96.1434 68.94 95.6634 68.36 95.0434 67.96C94.4434 67.54 93.7634 67.33 93.0034 67.33ZM85.4134 82C85.2334 82 85.0834 81.93 84.9634 81.79C84.8434 81.65 84.7934 81.48 84.8134 81.28L87.3634 66.58C87.4034 66.38 87.4934 66.23 87.6334 66.13C87.7734 66.01 87.9434 65.97 88.1434 66.01L89.3434 66.07C89.5434 66.09 89.7034 66.18 89.8234 66.34C89.9434 66.48 89.9734 66.65 89.9134 66.85L87.5434 81.28C87.5234 81.48 87.4334 81.65 87.2734 81.79C87.1334 81.93 86.9634 82 86.7634 82H85.4134ZM112.748 67.27C112.548 67.27 112.378 67.21 112.238 67.09C112.118 66.95 112.058 66.78 112.058 66.58V65.56C112.058 65.36 112.118 65.2 112.238 65.08C112.378 64.94 112.548 64.87 112.748 64.87H119.258C120.978 64.87 122.398 65.15 123.518 65.71C124.658 66.25 125.508 67.07 126.068 68.17C126.628 69.25 126.908 70.59 126.908 72.19V81.31C126.908 81.51 126.838 81.68 126.698 81.82C126.578 81.94 126.418 82 126.218 82H124.868C124.648 82 124.478 81.94 124.358 81.82C124.238 81.68 124.178 81.51 124.178 81.31V72.34C124.178 70.74 123.768 69.5 122.948 68.62C122.148 67.72 120.858 67.27 119.078 67.27H112.748ZM115.448 65.8H116.198C116.498 65.8 116.718 65.88 116.858 66.04C117.018 66.18 117.088 66.36 117.068 66.58C116.908 67.42 116.768 68.18 116.648 68.86C116.548 69.54 116.478 70.22 116.438 70.9C116.398 71.56 116.378 72.31 116.378 73.15L116.438 81.31C116.438 81.51 116.378 81.68 116.258 81.82C116.138 81.94 115.978 82 115.778 82L111.518 81.94C111.318 81.94 111.148 81.88 111.008 81.76C110.888 81.64 110.828 81.47 110.828 81.25V80.29C110.828 80.09 110.888 79.93 111.008 79.81C111.148 79.67 111.318 79.6 111.518 79.6L113.828 79.63V73.27C113.828 72.45 113.838 71.7 113.858 71.02C113.878 70.32 113.938 69.62 114.038 68.92C114.138 68.22 114.298 67.43 114.518 66.55C114.578 66.33 114.668 66.15 114.788 66.01C114.928 65.87 115.148 65.8 115.448 65.8ZM132.043 82C131.843 82 131.673 81.94 131.533 81.82C131.413 81.68 131.353 81.51 131.353 81.31V65.56C131.353 65.36 131.413 65.2 131.533 65.08C131.673 64.94 131.843 64.87 132.043 64.87H133.453C133.673 64.87 133.843 64.94 133.963 65.08C134.083 65.2 134.143 65.36 134.143 65.56V81.31C134.143 81.51 134.083 81.68 133.963 81.82C133.843 81.94 133.673 82 133.453 82H132.043ZM138.615 83.65C138.415 83.73 138.225 83.71 138.045 83.59C137.865 83.49 137.775 83.34 137.775 83.14V82.12C137.775 81.94 137.815 81.77 137.895 81.61C137.975 81.45 138.105 81.35 138.285 81.31L144.615 79.21C145.755 78.83 146.635 78.34 147.255 77.74C147.875 77.14 148.305 76.44 148.545 75.64C148.805 74.84 148.935 73.97 148.935 73.03V65.56C148.935 65.36 148.995 65.2 149.115 65.08C149.255 64.94 149.425 64.87 149.625 64.87H150.975C151.175 64.87 151.335 64.94 151.455 65.08C151.595 65.2 151.665 65.36 151.665 65.56V73.87C151.665 75.03 151.395 76.13 150.855 77.17C150.335 78.19 149.595 79.09 148.635 79.87C147.675 80.63 146.535 81.21 145.215 81.61L138.615 83.65ZM142.545 81.28L138.315 66.07C138.275 65.91 138.235 65.79 138.195 65.71C138.175 65.63 138.165 65.55 138.165 65.47C138.165 65.31 138.225 65.17 138.345 65.05C138.465 64.93 138.605 64.87 138.765 64.87H140.235C140.615 64.87 140.845 65.02 140.925 65.32L145.095 80.59L142.545 81.28ZM156.169 82C155.969 82 155.799 81.94 155.659 81.82C155.539 81.68 155.479 81.51 155.479 81.31V80.26C155.479 80.06 155.539 79.9 155.659 79.78C155.799 79.64 155.969 79.57 156.169 79.57H164.299L154.909 66.04C154.849 65.92 154.799 65.82 154.759 65.74C154.719 65.64 154.699 65.55 154.699 65.47C154.699 65.31 154.759 65.17 154.879 65.05C155.019 64.93 155.169 64.87 155.329 64.87H156.769C156.969 64.87 157.129 64.93 157.249 65.05C157.389 65.15 157.499 65.26 157.579 65.38L167.359 79.39C167.459 79.53 167.539 79.68 167.599 79.84C167.679 79.98 167.719 80.14 167.719 80.32V81.31C167.719 81.51 167.649 81.68 167.509 81.82C167.389 81.94 167.229 82 167.029 82H156.169ZM163.759 75.16L162.439 73.21C163.479 72.83 164.229 72.21 164.689 71.35C165.169 70.47 165.409 69.4 165.409 68.14V65.56C165.409 65.36 165.469 65.2 165.589 65.08C165.729 64.94 165.899 64.87 166.099 64.87H167.329C167.549 64.87 167.719 64.94 167.839 65.08C167.959 65.2 168.019 65.36 168.019 65.56V68.5C168.019 70.12 167.659 71.5 166.939 72.64C166.219 73.78 165.159 74.62 163.759 75.16ZM179.605 67.33H172.315C172.095 67.33 171.925 67.27 171.805 67.15C171.685 67.01 171.625 66.84 171.625 66.64V65.56C171.625 65.36 171.685 65.2 171.805 65.08C171.925 64.94 172.095 64.87 172.315 64.87H179.935C181.175 64.87 182.275 65.16 183.235 65.74C184.215 66.32 184.975 67.16 185.515 68.26C186.075 69.34 186.355 70.65 186.355 72.19V81.31C186.355 81.51 186.285 81.68 186.145 81.82C186.025 81.94 185.865 82 185.665 82H177.925C177.725 82 177.555 81.94 177.415 81.82C177.295 81.68 177.235 81.51 177.235 81.31V80.29C177.235 80.09 177.295 79.93 177.415 79.81C177.555 79.67 177.725 79.6 177.925 79.6H183.625V72.37C183.625 71.35 183.445 70.46 183.085 69.7C182.745 68.94 182.265 68.36 181.645 67.96C181.045 67.54 180.365 67.33 179.605 67.33ZM172.015 82C171.835 82 171.685 81.93 171.565 81.79C171.445 81.65 171.395 81.48 171.415 81.28L173.965 66.58C174.005 66.38 174.095 66.23 174.235 66.13C174.375 66.01 174.545 65.97 174.745 66.01L175.945 66.07C176.145 66.09 176.305 66.18 176.425 66.34C176.545 66.48 176.575 66.65 176.515 66.85L174.145 81.28C174.125 81.48 174.035 81.65 173.875 81.79C173.735 81.93 173.565 82 173.365 82H172.015ZM202.466 82C202.246 82 202.076 81.94 201.956 81.82C201.836 81.7 201.726 81.6 201.626 81.52L190.616 66.04C190.476 65.82 190.406 65.63 190.406 65.47C190.406 65.31 190.466 65.17 190.586 65.05C190.726 64.93 190.876 64.87 191.036 64.87H192.416C192.656 64.87 192.836 64.93 192.956 65.05C193.096 65.17 193.206 65.28 193.286 65.38L204.326 80.83C204.406 80.97 204.456 81.08 204.476 81.16C204.516 81.24 204.536 81.32 204.536 81.4C204.536 81.56 204.476 81.7 204.356 81.82C204.236 81.94 204.086 82 203.906 82H202.466ZM190.766 82C190.566 82 190.396 81.94 190.256 81.82C190.136 81.68 190.076 81.51 190.076 81.31V76.81C190.076 75.89 190.166 75.02 190.346 74.2C190.526 73.36 190.876 72.57 191.396 71.83C191.936 71.07 192.736 70.36 193.796 69.7L195.176 71.71C194.456 72.17 193.916 72.7 193.556 73.3C193.196 73.88 192.956 74.49 192.836 75.13C192.716 75.75 192.656 76.35 192.656 76.93V81.31C192.656 81.51 192.586 81.68 192.446 81.82C192.326 81.94 192.166 82 191.966 82H190.766ZM200.066 76.51L198.836 74.44C199.816 73.98 200.506 73.5 200.906 73C201.326 72.5 201.576 71.98 201.656 71.44C201.736 70.88 201.776 70.3 201.776 69.7V65.56C201.776 65.36 201.836 65.2 201.956 65.08C202.096 64.94 202.266 64.87 202.466 64.87H203.726C203.926 64.87 204.086 64.94 204.206 65.08C204.346 65.2 204.416 65.36 204.416 65.56V69.85C204.416 70.69 204.316 71.5 204.116 72.28C203.916 73.06 203.506 73.8 202.886 74.5C202.286 75.2 201.346 75.87 200.066 76.51ZM208.403 82C208.203 82 208.033 81.94 207.893 81.82C207.773 81.68 207.713 81.51 207.713 81.31V80.29C207.713 80.09 207.773 79.93 207.893 79.81C208.033 79.67 208.203 79.6 208.403 79.6H217.013V72.34C217.013 70.74 216.613 69.5 215.813 68.62C215.013 67.72 213.723 67.27 211.943 67.27H208.703C208.503 67.27 208.333 67.21 208.193 67.09C208.073 66.95 208.013 66.78 208.013 66.58V65.56C208.013 65.36 208.073 65.2 208.193 65.08C208.333 64.94 208.503 64.87 208.703 64.87H212.093C213.813 64.87 215.243 65.15 216.383 65.71C217.523 66.27 218.373 67.1 218.933 68.2C219.513 69.28 219.803 70.63 219.803 72.25V79.6H220.913C221.113 79.6 221.273 79.67 221.393 79.81C221.533 79.93 221.603 80.09 221.603 80.29V81.31C221.603 81.51 221.533 81.68 221.393 81.82C221.273 81.94 221.113 82 220.913 82H208.403ZM234.74 82.27C234.56 82.33 234.39 82.3 234.23 82.18C234.07 82.08 233.99 81.93 233.99 81.73V80.35C233.99 80.17 234.04 80.01 234.14 79.87C234.26 79.73 234.43 79.62 234.65 79.54L235.82 79.09C236.6 78.77 237.31 78.37 237.95 77.89C238.61 77.39 239.12 76.72 239.48 75.88C239.86 75.04 240.05 73.94 240.05 72.58C240.05 71.28 239.89 70.25 239.57 69.49C239.27 68.71 238.75 68.16 238.01 67.84C237.29 67.5 236.3 67.33 235.04 67.33H234.14C233.94 67.33 233.77 67.27 233.63 67.15C233.51 67.01 233.45 66.84 233.45 66.64V65.56C233.45 65.36 233.51 65.2 233.63 65.08C233.77 64.94 233.94 64.87 234.14 64.87H235.46C237.28 64.87 238.73 65.13 239.81 65.65C240.89 66.17 241.66 67.01 242.12 68.17C242.6 69.31 242.84 70.81 242.84 72.67C242.84 74.07 242.65 75.28 242.27 76.3C241.89 77.32 241.37 78.19 240.71 78.91C240.07 79.63 239.34 80.23 238.52 80.71C237.7 81.17 236.85 81.55 235.97 81.85L234.74 82.27ZM234.8 67.33L231.23 67.3C231.03 67.3 230.86 67.24 230.72 67.12C230.6 67 230.54 66.84 230.54 66.64V61.39C230.54 61.19 230.6 61.03 230.72 60.91C230.86 60.77 231.03 60.7 231.23 60.7H232.49C232.69 60.7 232.85 60.77 232.97 60.91C233.11 61.03 233.18 61.19 233.18 61.39V64.87H234.86L234.8 67.33ZM254.283 67.33H246.993C246.773 67.33 246.603 67.27 246.483 67.15C246.363 67.01 246.303 66.84 246.303 66.64V65.56C246.303 65.36 246.363 65.2 246.483 65.08C246.603 64.94 246.773 64.87 246.993 64.87H254.613C255.853 64.87 256.953 65.16 257.913 65.74C258.893 66.32 259.653 67.16 260.193 68.26C260.753 69.34 261.033 70.65 261.033 72.19V81.31C261.033 81.51 260.963 81.68 260.823 81.82C260.703 81.94 260.543 82 260.343 82H252.603C252.403 82 252.233 81.94 252.093 81.82C251.973 81.68 251.913 81.51 251.913 81.31V80.29C251.913 80.09 251.973 79.93 252.093 79.81C252.233 79.67 252.403 79.6 252.603 79.6H258.303V72.37C258.303 71.35 258.123 70.46 257.763 69.7C257.423 68.94 256.943 68.36 256.323 67.96C255.723 67.54 255.043 67.33 254.283 67.33ZM246.693 82C246.513 82 246.363 81.93 246.243 81.79C246.123 81.65 246.073 81.48 246.093 81.28L248.643 66.58C248.683 66.38 248.773 66.23 248.913 66.13C249.053 66.01 249.223 65.97 249.423 66.01L250.623 66.07C250.823 66.09 250.983 66.18 251.103 66.34C251.223 66.48 251.253 66.65 251.193 66.85L248.823 81.28C248.803 81.48 248.713 81.65 248.553 81.79C248.413 81.93 248.243 82 248.043 82H246.693ZM273.994 79.75C275.294 79.77 276.384 79.53 277.264 79.03C278.164 78.53 278.844 77.82 279.304 76.9C279.784 75.96 280.024 74.89 280.024 73.69V65.56C280.024 65.36 280.084 65.2 280.204 65.08C280.344 64.94 280.514 64.87 280.714 64.87H281.944C282.164 64.87 282.334 64.94 282.454 65.08C282.574 65.2 282.634 65.36 282.634 65.56V73.9C282.634 75.18 282.434 76.34 282.034 77.38C281.634 78.4 281.064 79.28 280.324 80.02C279.584 80.74 278.704 81.29 277.684 81.67C276.684 82.05 275.574 82.22 274.354 82.18H272.104C270.804 82.18 269.634 81.88 268.594 81.28C267.554 80.68 266.734 79.84 266.134 78.76C265.534 77.68 265.234 76.43 265.234 75.01V65.56C265.234 65.36 265.294 65.2 265.414 65.08C265.554 64.94 265.724 64.87 265.924 64.87H267.184C267.384 64.87 267.544 64.94 267.664 65.08C267.804 65.2 267.874 65.36 267.874 65.56L267.964 74.41C267.964 76.13 268.444 77.45 269.404 78.37C270.364 79.29 271.584 79.75 273.064 79.75H273.994ZM267.334 76.24L267.274 74.05C268.754 74.03 269.884 73.81 270.664 73.39C271.444 72.95 271.984 72.37 272.284 71.65C272.604 70.93 272.764 70.14 272.764 69.28V65.56C272.764 65.36 272.824 65.2 272.944 65.08C273.064 64.94 273.234 64.87 273.454 64.87H274.684C274.884 64.87 275.044 64.94 275.164 65.08C275.304 65.2 275.374 65.36 275.374 65.56V69.4C275.374 70.7 275.084 71.87 274.504 72.91C273.924 73.95 273.034 74.77 271.834 75.37C270.654 75.97 269.154 76.26 267.334 76.24ZM287.521 82C287.321 82 287.151 81.94 287.011 81.82C286.891 81.68 286.831 81.51 286.831 81.31V65.56C286.831 65.36 286.891 65.2 287.011 65.08C287.151 64.94 287.321 64.87 287.521 64.87H293.341C295.081 64.87 296.511 65.15 297.631 65.71C298.771 66.25 299.621 67.07 300.181 68.17C300.741 69.25 301.021 70.61 301.021 72.25V81.31C301.021 81.51 300.951 81.68 300.811 81.82C300.691 81.94 300.531 82 300.331 82H298.981C298.761 82 298.591 81.94 298.471 81.82C298.351 81.68 298.291 81.51 298.291 81.31V72.34C298.291 70.74 297.891 69.5 297.091 68.62C296.291 67.72 294.991 67.27 293.191 67.27H289.561V81.31C289.561 81.51 289.501 81.68 289.381 81.82C289.261 81.94 289.091 82 288.871 82H287.521ZM317.554 82C317.354 82 317.184 81.94 317.044 81.82C316.924 81.68 316.864 81.51 316.864 81.31V72.34C316.864 70.74 316.464 69.5 315.664 68.62C314.864 67.72 313.574 67.27 311.794 67.27H306.154C305.954 67.27 305.784 67.21 305.644 67.09C305.524 66.95 305.464 66.78 305.464 66.58V65.56C305.464 65.36 305.524 65.2 305.644 65.08C305.784 64.94 305.954 64.87 306.154 64.87H311.944C314.544 64.87 316.464 65.5 317.704 66.76C318.964 68.02 319.594 69.85 319.594 72.25V81.31C319.594 81.51 319.524 81.68 319.384 81.82C319.264 81.94 319.104 82 318.904 82H317.554ZM306.154 82C305.954 82 305.784 81.94 305.644 81.82C305.524 81.68 305.464 81.51 305.464 81.31V71.29C305.464 71.09 305.524 70.93 305.644 70.81C305.784 70.67 305.954 70.6 306.154 70.6H307.504C307.724 70.6 307.894 70.67 308.014 70.81C308.134 70.93 308.194 71.09 308.194 71.29V81.31C308.194 81.51 308.134 81.68 308.014 81.82C307.894 81.94 307.724 82 307.504 82H306.154ZM142.309 122.27C142.129 122.33 141.959 122.3 141.799 122.18C141.639 122.08 141.559 121.93 141.559 121.73V120.35C141.559 120.17 141.609 120.01 141.709 119.87C141.829 119.73 141.999 119.62 142.219 119.54L143.389 119.09C144.169 118.77 144.879 118.37 145.519 117.89C146.179 117.39 146.689 116.72 147.049 115.88C147.429 115.04 147.619 113.94 147.619 112.58C147.619 111.28 147.459 110.25 147.139 109.49C146.839 108.71 146.319 108.16 145.579 107.84C144.859 107.5 143.869 107.33 142.609 107.33H141.709C141.509 107.33 141.339 107.27 141.199 107.15C141.079 107.01 141.019 106.84 141.019 106.64V105.56C141.019 105.36 141.079 105.2 141.199 105.08C141.339 104.94 141.509 104.87 141.709 104.87H143.029C144.849 104.87 146.299 105.13 147.379 105.65C148.459 106.17 149.229 107.01 149.689 108.17C150.169 109.31 150.409 110.81 150.409 112.67C150.409 114.07 150.219 115.28 149.839 116.3C149.459 117.32 148.939 118.19 148.279 118.91C147.639 119.63 146.909 120.23 146.089 120.71C145.269 121.17 144.419 121.55 143.539 121.85L142.309 122.27ZM142.369 107.33L138.799 107.3C138.599 107.3 138.429 107.24 138.289 107.12C138.169 107 138.109 106.84 138.109 106.64V101.39C138.109 101.19 138.169 101.03 138.289 100.91C138.429 100.77 138.599 100.7 138.799 100.7H140.059C140.259 100.7 140.419 100.77 140.539 100.91C140.679 101.03 140.749 101.19 140.749 101.39V104.87H142.429L142.369 107.33ZM154.321 122C154.121 122 153.951 121.94 153.811 121.82C153.691 121.68 153.631 121.51 153.631 121.31V120.29C153.631 120.09 153.691 119.93 153.811 119.81C153.951 119.67 154.121 119.6 154.321 119.6H162.931V112.34C162.931 110.74 162.531 109.5 161.731 108.62C160.931 107.72 159.641 107.27 157.861 107.27H154.621C154.421 107.27 154.251 107.21 154.111 107.09C153.991 106.95 153.931 106.78 153.931 106.58V105.56C153.931 105.36 153.991 105.2 154.111 105.08C154.251 104.94 154.421 104.87 154.621 104.87H158.011C159.731 104.87 161.161 105.15 162.301 105.71C163.441 106.27 164.291 107.1 164.851 108.2C165.431 109.28 165.721 110.63 165.721 112.25V119.6H166.831C167.031 119.6 167.191 119.67 167.311 119.81C167.451 119.93 167.521 120.09 167.521 120.29V121.31C167.521 121.51 167.451 121.68 167.311 121.82C167.191 121.94 167.031 122 166.831 122H154.321ZM171.389 122C171.189 122 171.019 121.94 170.879 121.82C170.759 121.68 170.699 121.51 170.699 121.31V120.23C170.699 120.03 170.759 119.87 170.879 119.75C171.019 119.61 171.189 119.54 171.389 119.54H175.679C177.459 119.54 178.739 119.1 179.519 118.22C180.299 117.32 180.729 116.07 180.809 114.47C180.829 114.03 180.839 113.68 180.839 113.42C180.839 113.16 180.829 112.82 180.809 112.4C180.749 110.8 180.319 109.56 179.519 108.68C178.739 107.78 177.459 107.33 175.679 107.33H171.389C171.189 107.33 171.019 107.27 170.879 107.15C170.759 107.01 170.699 106.84 170.699 106.64V105.56C170.699 105.36 170.759 105.2 170.879 105.08C171.019 104.94 171.189 104.87 171.389 104.87H175.829C177.589 104.87 179.019 105.17 180.119 105.77C181.219 106.35 182.039 107.2 182.579 108.32C183.139 109.42 183.439 110.75 183.479 112.31C183.499 112.71 183.509 113.08 183.509 113.42C183.509 113.76 183.499 114.14 183.479 114.56C183.439 116.1 183.139 117.43 182.579 118.55C182.039 119.67 181.219 120.53 180.119 121.13C179.019 121.71 177.589 122 175.829 122H171.389ZM199.517 122C199.317 122 199.147 121.94 199.007 121.82C198.887 121.68 198.827 121.51 198.827 121.31V112.34C198.827 110.74 198.427 109.5 197.627 108.62C196.827 107.72 195.537 107.27 193.757 107.27H188.117C187.917 107.27 187.747 107.21 187.607 107.09C187.487 106.95 187.427 106.78 187.427 106.58V105.56C187.427 105.36 187.487 105.2 187.607 105.08C187.747 104.94 187.917 104.87 188.117 104.87H193.907C196.507 104.87 198.427 105.5 199.667 106.76C200.927 108.02 201.557 109.85 201.557 112.25V121.31C201.557 121.51 201.487 121.68 201.347 121.82C201.227 121.94 201.067 122 200.867 122H199.517ZM188.117 122C187.917 122 187.747 121.94 187.607 121.82C187.487 121.68 187.427 121.51 187.427 121.31V111.29C187.427 111.09 187.487 110.93 187.607 110.81C187.747 110.67 187.917 110.6 188.117 110.6H189.467C189.687 110.6 189.857 110.67 189.977 110.81C190.097 110.93 190.157 111.09 190.157 111.29V121.31C190.157 121.51 190.097 121.68 189.977 121.82C189.857 121.94 189.687 122 189.467 122H188.117Z" fill="black"/>
<defs>
<filter id="filter0_d_124_139" x="0" y="0" width="378" height="148" filterUnits="userSpaceOnUse" color-interpolation-filters="sRGB">
<feFlood flood-opacity="0" result="BackgroundImageFix"/>
<feColorMatrix in="SourceAlpha" type="matrix" values="0 0 0 0 0 0 0 0 0 0 0 0 0 0 0 0 0 0 127 0" result="hardAlpha"/>
<feOffset dx="4" dy="4"/>
<feGaussianBlur stdDeviation="2"/>
<feComposite in2="hardAlpha" operator="out"/>
<feColorMatrix type="matrix" values="0 0 0 0 0 0 0 0 0 0 0 0 0 0 0 0 0 0 0.25 0"/>
<feBlend mode="normal" in2="BackgroundImageFix" result="effect1_dropShadow_124_139"/>
<feBlend mode="normal" in="SourceGraphic" in2="effect1_dropShadow_124_139" result="shape"/>
</filter>
</defs>
</svg>
