<svg width="378" height="118" viewBox="0 0 378 118" fill="none" xmlns="http://www.w3.org/2000/svg">
<g filter="url(#filter0_d_124_141)">
<rect width="370" height="110" rx="20" fill="#FDF4D4"/>
</g>
<path d="M70.5205 45C70.3205 45 70.1505 44.94 70.0105 44.82C69.8905 44.68 69.8305 44.51 69.8305 44.31V28.56C69.8305 28.36 69.8905 28.2 70.0105 28.08C70.1505 27.94 70.3205 27.87 70.5205 27.87H76.2505C77.9705 27.87 79.3905 28.15 80.5105 28.71C81.6305 29.25 82.4605 30.06 83.0005 31.14C83.5605 32.22 83.8405 33.57 83.8405 35.19V44.31C83.8405 44.51 83.7805 44.68 83.6605 44.82C83.5405 44.94 83.3705 45 83.1505 45H70.5205ZM72.4105 42.6H81.1705V35.34C81.1705 33.74 80.7705 32.5 79.9705 31.62C79.1705 30.72 77.8805 30.27 76.1005 30.27H72.4105V42.6ZM88.7675 38.04C88.5675 38.04 88.3975 37.98 88.2575 37.86C88.1375 37.72 88.0775 37.55 88.0775 37.35V28.56C88.0775 28.36 88.1375 28.2 88.2575 28.08C88.3975 27.94 88.5675 27.87 88.7675 27.87H90.1775C90.3975 27.87 90.5675 27.94 90.6875 28.08C90.8075 28.2 90.8675 28.36 90.8675 28.56V37.35C90.8675 37.55 90.8075 37.72 90.6875 37.86C90.5675 37.98 90.3975 38.04 90.1775 38.04H88.7675ZM105.009 45C104.809 45 104.639 44.94 104.499 44.82C104.379 44.68 104.319 44.51 104.319 44.31V35.34C104.319 33.74 103.919 32.5 103.119 31.62C102.319 30.72 101.029 30.27 99.2488 30.27H95.3188C95.1188 30.27 94.9488 30.21 94.8088 30.09C94.6888 29.95 94.6288 29.78 94.6288 29.58V28.56C94.6288 28.36 94.6888 28.2 94.8088 28.08C94.9488 27.94 95.1188 27.87 95.3188 27.87H99.3988C101.119 27.87 102.539 28.14 103.659 28.68C104.799 29.22 105.649 30.04 106.209 31.14C106.769 32.22 107.049 33.57 107.049 35.19V44.31C107.049 44.51 106.979 44.68 106.839 44.82C106.719 44.94 106.559 45 106.359 45H105.009ZM112.181 45C111.981 45 111.811 44.94 111.671 44.82C111.551 44.68 111.491 44.51 111.491 44.31V28.56C111.491 28.36 111.551 28.2 111.671 28.08C111.811 27.94 111.981 27.87 112.181 27.87H113.591C113.811 27.87 113.981 27.94 114.101 28.08C114.221 28.2 114.281 28.36 114.281 28.56V44.31C114.281 44.51 114.221 44.68 114.101 44.82C113.981 44.94 113.811 45 113.591 45H112.181ZM120.103 30.27C119.903 30.27 119.733 30.21 119.593 30.09C119.473 29.95 119.413 29.78 119.413 29.58V28.56C119.413 28.36 119.473 28.2 119.593 28.08C119.733 27.94 119.903 27.87 120.103 27.87H126.613C128.333 27.87 129.753 28.15 130.873 28.71C132.013 29.25 132.863 30.07 133.423 31.17C133.983 32.25 134.263 33.59 134.263 35.19V44.31C134.263 44.51 134.193 44.68 134.053 44.82C133.933 44.94 133.773 45 133.573 45H132.223C132.003 45 131.833 44.94 131.713 44.82C131.593 44.68 131.533 44.51 131.533 44.31V35.34C131.533 33.74 131.123 32.5 130.303 31.62C129.503 30.72 128.213 30.27 126.433 30.27H120.103ZM122.803 28.8H123.553C123.853 28.8 124.073 28.88 124.213 29.04C124.373 29.18 124.443 29.36 124.423 29.58C124.263 30.42 124.123 31.18 124.003 31.86C123.903 32.54 123.833 33.22 123.793 33.9C123.753 34.56 123.733 35.31 123.733 36.15L123.793 44.31C123.793 44.51 123.733 44.68 123.613 44.82C123.493 44.94 123.333 45 123.133 45L118.873 44.94C118.673 44.94 118.503 44.88 118.363 44.76C118.243 44.64 118.183 44.47 118.183 44.25V43.29C118.183 43.09 118.243 42.93 118.363 42.81C118.503 42.67 118.673 42.6 118.873 42.6L121.183 42.63V36.27C121.183 35.45 121.193 34.7 121.213 34.02C121.233 33.32 121.293 32.62 121.393 31.92C121.493 31.22 121.653 30.43 121.873 29.55C121.933 29.33 122.023 29.15 122.143 29.01C122.283 28.87 122.503 28.8 122.803 28.8ZM141.841 45.27C141.661 45.33 141.491 45.3 141.331 45.18C141.171 45.08 141.091 44.93 141.091 44.73V43.35C141.091 43.17 141.141 43.01 141.241 42.87C141.361 42.73 141.531 42.62 141.751 42.54L142.921 42.09C143.701 41.77 144.411 41.37 145.051 40.89C145.711 40.39 146.221 39.72 146.581 38.88C146.961 38.04 147.151 36.94 147.151 35.58C147.151 34.28 146.991 33.25 146.671 32.49C146.371 31.71 145.851 31.16 145.111 30.84C144.391 30.5 143.401 30.33 142.141 30.33H141.241C141.041 30.33 140.871 30.27 140.731 30.15C140.611 30.01 140.551 29.84 140.551 29.64V28.56C140.551 28.36 140.611 28.2 140.731 28.08C140.871 27.94 141.041 27.87 141.241 27.87H142.561C144.381 27.87 145.831 28.13 146.911 28.65C147.991 29.17 148.761 30.01 149.221 31.17C149.701 32.31 149.941 33.81 149.941 35.67C149.941 37.07 149.751 38.28 149.371 39.3C148.991 40.32 148.471 41.19 147.811 41.91C147.171 42.63 146.441 43.23 145.621 43.71C144.801 44.17 143.951 44.55 143.071 44.85L141.841 45.27ZM141.901 30.33L138.331 30.3C138.131 30.3 137.961 30.24 137.821 30.12C137.701 30 137.641 29.84 137.641 29.64V24.39C137.641 24.19 137.701 24.03 137.821 23.91C137.961 23.77 138.131 23.7 138.331 23.7H139.591C139.791 23.7 139.951 23.77 140.071 23.91C140.211 24.03 140.281 24.19 140.281 24.39V27.87H141.961L141.901 30.33ZM165.553 45C165.333 45 165.163 44.94 165.043 44.82C164.923 44.7 164.813 44.6 164.713 44.52L153.703 29.04C153.563 28.82 153.493 28.63 153.493 28.47C153.493 28.31 153.553 28.17 153.673 28.05C153.813 27.93 153.963 27.87 154.123 27.87H155.503C155.743 27.87 155.923 27.93 156.043 28.05C156.183 28.17 156.293 28.28 156.373 28.38L167.413 43.83C167.493 43.97 167.543 44.08 167.563 44.16C167.603 44.24 167.623 44.32 167.623 44.4C167.623 44.56 167.563 44.7 167.443 44.82C167.323 44.94 167.173 45 166.993 45H165.553ZM153.853 45C153.653 45 153.483 44.94 153.343 44.82C153.223 44.68 153.163 44.51 153.163 44.31V39.81C153.163 38.89 153.253 38.02 153.433 37.2C153.613 36.36 153.963 35.57 154.483 34.83C155.023 34.07 155.823 33.36 156.883 32.7L158.263 34.71C157.543 35.17 157.003 35.7 156.643 36.3C156.283 36.88 156.043 37.49 155.923 38.13C155.803 38.75 155.743 39.35 155.743 39.93V44.31C155.743 44.51 155.673 44.68 155.533 44.82C155.413 44.94 155.253 45 155.053 45H153.853ZM163.153 39.51L161.923 37.44C162.903 36.98 163.593 36.5 163.993 36C164.413 35.5 164.663 34.98 164.743 34.44C164.823 33.88 164.863 33.3 164.863 32.7V28.56C164.863 28.36 164.923 28.2 165.043 28.08C165.183 27.94 165.353 27.87 165.553 27.87H166.813C167.013 27.87 167.173 27.94 167.293 28.08C167.433 28.2 167.503 28.36 167.503 28.56V32.85C167.503 33.69 167.403 34.5 167.203 35.28C167.003 36.06 166.593 36.8 165.973 37.5C165.373 38.2 164.433 38.87 163.153 39.51ZM178.723 46.65C178.523 46.73 178.333 46.71 178.153 46.59C177.973 46.49 177.883 46.34 177.883 46.14V45.12C177.883 44.94 177.923 44.77 178.003 44.61C178.083 44.45 178.213 44.35 178.393 44.31L184.723 42.21C185.863 41.83 186.743 41.34 187.363 40.74C187.983 40.14 188.413 39.44 188.653 38.64C188.913 37.84 189.043 36.97 189.043 36.03V28.56C189.043 28.36 189.103 28.2 189.223 28.08C189.363 27.94 189.533 27.87 189.733 27.87H191.083C191.283 27.87 191.443 27.94 191.563 28.08C191.703 28.2 191.773 28.36 191.773 28.56V36.87C191.773 38.03 191.503 39.13 190.963 40.17C190.443 41.19 189.703 42.09 188.743 42.87C187.783 43.63 186.643 44.21 185.323 44.61L178.723 46.65ZM182.653 44.28L178.423 29.07C178.383 28.91 178.343 28.79 178.303 28.71C178.283 28.63 178.273 28.55 178.273 28.47C178.273 28.31 178.333 28.17 178.453 28.05C178.573 27.93 178.713 27.87 178.873 27.87H180.343C180.723 27.87 180.953 28.02 181.033 28.32L185.203 43.59L182.653 44.28ZM196.277 45C196.077 45 195.907 44.94 195.767 44.82C195.647 44.68 195.587 44.51 195.587 44.31V43.26C195.587 43.06 195.647 42.9 195.767 42.78C195.907 42.64 196.077 42.57 196.277 42.57H204.407L195.017 29.04C194.957 28.92 194.907 28.82 194.867 28.74C194.827 28.64 194.807 28.55 194.807 28.47C194.807 28.31 194.867 28.17 194.987 28.05C195.127 27.93 195.277 27.87 195.437 27.87H196.877C197.077 27.87 197.237 27.93 197.357 28.05C197.497 28.15 197.607 28.26 197.687 28.38L207.467 42.39C207.567 42.53 207.647 42.68 207.707 42.84C207.787 42.98 207.827 43.14 207.827 43.32V44.31C207.827 44.51 207.757 44.68 207.617 44.82C207.497 44.94 207.337 45 207.137 45H196.277ZM203.867 38.16L202.547 36.21C203.587 35.83 204.337 35.21 204.797 34.35C205.277 33.47 205.517 32.4 205.517 31.14V28.56C205.517 28.36 205.577 28.2 205.697 28.08C205.837 27.94 206.007 27.87 206.207 27.87H207.437C207.657 27.87 207.827 27.94 207.947 28.08C208.067 28.2 208.127 28.36 208.127 28.56V31.5C208.127 33.12 207.767 34.5 207.047 35.64C206.327 36.78 205.267 37.62 203.867 38.16ZM212.183 45C211.983 45 211.813 44.94 211.673 44.82C211.553 44.68 211.493 44.51 211.493 44.31V43.29C211.493 43.09 211.553 42.93 211.673 42.81C211.813 42.67 211.983 42.6 212.183 42.6H220.793V35.34C220.793 33.74 220.393 32.5 219.593 31.62C218.793 30.72 217.503 30.27 215.723 30.27H212.483C212.283 30.27 212.113 30.21 211.973 30.09C211.853 29.95 211.793 29.78 211.793 29.58V28.56C211.793 28.36 211.853 28.2 211.973 28.08C212.113 27.94 212.283 27.87 212.483 27.87H215.873C217.593 27.87 219.023 28.15 220.163 28.71C221.303 29.27 222.153 30.1 222.713 31.2C223.293 32.28 223.583 33.63 223.583 35.25V42.6H224.693C224.893 42.6 225.053 42.67 225.173 42.81C225.313 42.93 225.383 43.09 225.383 43.29V44.31C225.383 44.51 225.313 44.68 225.173 44.82C225.053 44.94 224.893 45 224.693 45H212.183ZM231.372 45.27C231.192 45.33 231.022 45.3 230.862 45.18C230.702 45.08 230.622 44.93 230.622 44.73V43.35C230.622 43.17 230.672 43.01 230.772 42.87C230.892 42.73 231.062 42.62 231.282 42.54L232.452 42.09C233.232 41.77 233.942 41.37 234.582 40.89C235.242 40.39 235.752 39.72 236.112 38.88C236.492 38.04 236.682 36.94 236.682 35.58C236.682 34.28 236.522 33.25 236.202 32.49C235.902 31.71 235.382 31.16 234.642 30.84C233.922 30.5 232.932 30.33 231.672 30.33H230.772C230.572 30.33 230.402 30.27 230.262 30.15C230.142 30.01 230.082 29.84 230.082 29.64V28.56C230.082 28.36 230.142 28.2 230.262 28.08C230.402 27.94 230.572 27.87 230.772 27.87H232.092C233.912 27.87 235.362 28.13 236.442 28.65C237.522 29.17 238.292 30.01 238.752 31.17C239.232 32.31 239.472 33.81 239.472 35.67C239.472 37.07 239.282 38.28 238.902 39.3C238.522 40.32 238.002 41.19 237.342 41.91C236.702 42.63 235.972 43.23 235.152 43.71C234.332 44.17 233.482 44.55 232.602 44.85L231.372 45.27ZM231.432 30.33L227.862 30.3C227.662 30.3 227.492 30.24 227.352 30.12C227.232 30 227.172 29.84 227.172 29.64V24.39C227.172 24.19 227.232 24.03 227.352 23.91C227.492 23.77 227.662 23.7 227.862 23.7H229.122C229.322 23.7 229.482 23.77 229.602 23.91C229.742 24.03 229.812 24.19 229.812 24.39V27.87H231.492L231.432 30.33ZM251.458 48.72C251.258 48.72 251.088 48.65 250.948 48.51C250.828 48.39 250.768 48.23 250.768 48.03V28.56C250.768 28.36 250.828 28.2 250.948 28.08C251.088 27.94 251.258 27.87 251.458 27.87H252.808C253.028 27.87 253.198 27.94 253.318 28.08C253.438 28.2 253.498 28.36 253.498 28.56V48.03C253.498 48.23 253.438 48.39 253.318 48.51C253.198 48.65 253.028 48.72 252.808 48.72H251.458ZM258.602 38.04C258.402 38.04 258.232 37.98 258.092 37.86C257.972 37.72 257.912 37.55 257.912 37.35V28.56C257.912 28.36 257.972 28.2 258.092 28.08C258.232 27.94 258.402 27.87 258.602 27.87H260.012C260.232 27.87 260.402 27.94 260.522 28.08C260.642 28.2 260.702 28.36 260.702 28.56V37.35C260.702 37.55 260.642 37.72 260.522 37.86C260.402 37.98 260.232 38.04 260.012 38.04H258.602ZM276.823 45C276.603 45 276.433 44.94 276.313 44.82C276.193 44.7 276.083 44.6 275.983 44.52L264.973 29.04C264.833 28.82 264.763 28.63 264.763 28.47C264.763 28.31 264.823 28.17 264.943 28.05C265.083 27.93 265.233 27.87 265.393 27.87H266.773C267.013 27.87 267.193 27.93 267.313 28.05C267.453 28.17 267.563 28.28 267.643 28.38L278.683 43.83C278.763 43.97 278.813 44.08 278.833 44.16C278.873 44.24 278.893 44.32 278.893 44.4C278.893 44.56 278.833 44.7 278.713 44.82C278.593 44.94 278.443 45 278.263 45H276.823ZM265.123 45C264.923 45 264.753 44.94 264.613 44.82C264.493 44.68 264.433 44.51 264.433 44.31V39.81C264.433 38.89 264.523 38.02 264.703 37.2C264.883 36.36 265.233 35.57 265.753 34.83C266.293 34.07 267.093 33.36 268.153 32.7L269.533 34.71C268.813 35.17 268.273 35.7 267.913 36.3C267.553 36.88 267.313 37.49 267.193 38.13C267.073 38.75 267.013 39.35 267.013 39.93V44.31C267.013 44.51 266.943 44.68 266.803 44.82C266.683 44.94 266.523 45 266.323 45H265.123ZM274.423 39.51L273.193 37.44C274.173 36.98 274.863 36.5 275.263 36C275.683 35.5 275.933 34.98 276.013 34.44C276.093 33.88 276.133 33.3 276.133 32.7V28.56C276.133 28.36 276.193 28.2 276.313 28.08C276.453 27.94 276.623 27.87 276.823 27.87H278.083C278.283 27.87 278.443 27.94 278.563 28.08C278.703 28.2 278.773 28.36 278.773 28.56V32.85C278.773 33.69 278.673 34.5 278.473 35.28C278.273 36.06 277.863 36.8 277.243 37.5C276.643 38.2 275.703 38.87 274.423 39.51ZM302.997 38.94C302.417 38.94 301.877 38.8 301.377 38.52C300.877 38.22 300.477 37.83 300.177 37.35C299.897 36.85 299.757 36.31 299.757 35.73C299.757 35.13 299.897 34.59 300.177 34.11C300.477 33.61 300.877 33.22 301.377 32.94C301.877 32.64 302.417 32.49 302.997 32.49C303.597 32.49 304.137 32.64 304.617 32.94C305.097 33.22 305.477 33.61 305.757 34.11C306.057 34.59 306.207 35.13 306.207 35.73C306.207 36.31 306.057 36.85 305.757 37.35C305.477 37.83 305.097 38.22 304.617 38.52C304.137 38.8 303.597 38.94 302.997 38.94ZM45.0439 85.27C44.8639 85.33 44.6939 85.3 44.5339 85.18C44.3739 85.08 44.2939 84.93 44.2939 84.73V83.35C44.2939 83.17 44.3439 83.01 44.4439 82.87C44.5639 82.73 44.7339 82.62 44.9539 82.54L46.1239 82.09C46.9039 81.77 47.6139 81.37 48.2539 80.89C48.9139 80.39 49.4239 79.72 49.7839 78.88C50.1639 78.04 50.3539 76.94 50.3539 75.58C50.3539 74.28 50.1939 73.25 49.8739 72.49C49.5739 71.71 49.0539 71.16 48.3139 70.84C47.5939 70.5 46.6039 70.33 45.3439 70.33H44.4439C44.2439 70.33 44.0739 70.27 43.9339 70.15C43.8139 70.01 43.7539 69.84 43.7539 69.64V68.56C43.7539 68.36 43.8139 68.2 43.9339 68.08C44.0739 67.94 44.2439 67.87 44.4439 67.87H45.7639C47.5839 67.87 49.0339 68.13 50.1139 68.65C51.1939 69.17 51.9639 70.01 52.4239 71.17C52.9039 72.31 53.1439 73.81 53.1439 75.67C53.1439 77.07 52.9539 78.28 52.5739 79.3C52.1939 80.32 51.6739 81.19 51.0139 81.91C50.3739 82.63 49.6439 83.23 48.8239 83.71C48.0039 84.17 47.1539 84.55 46.2739 84.85L45.0439 85.27ZM45.1039 70.33L41.5339 70.3C41.3339 70.3 41.1639 70.24 41.0239 70.12C40.9039 70 40.8439 69.84 40.8439 69.64V64.39C40.8439 64.19 40.9039 64.03 41.0239 63.91C41.1639 63.77 41.3339 63.7 41.5339 63.7H42.7939C42.9939 63.7 43.1539 63.77 43.2739 63.91C43.4139 64.03 43.4839 64.19 43.4839 64.39V67.87H45.1639L45.1039 70.33ZM64.5864 70.33H57.2964C57.0764 70.33 56.9064 70.27 56.7864 70.15C56.6664 70.01 56.6064 69.84 56.6064 69.64V68.56C56.6064 68.36 56.6664 68.2 56.7864 68.08C56.9064 67.94 57.0764 67.87 57.2964 67.87H64.9164C66.1564 67.87 67.2564 68.16 68.2164 68.74C69.1964 69.32 69.9564 70.16 70.4964 71.26C71.0564 72.34 71.3364 73.65 71.3364 75.19V84.31C71.3364 84.51 71.2664 84.68 71.1264 84.82C71.0064 84.94 70.8464 85 70.6464 85H62.9064C62.7064 85 62.5364 84.94 62.3964 84.82C62.2764 84.68 62.2164 84.51 62.2164 84.31V83.29C62.2164 83.09 62.2764 82.93 62.3964 82.81C62.5364 82.67 62.7064 82.6 62.9064 82.6H68.6064V75.37C68.6064 74.35 68.4264 73.46 68.0664 72.7C67.7264 71.94 67.2464 71.36 66.6264 70.96C66.0264 70.54 65.3464 70.33 64.5864 70.33ZM56.9964 85C56.8164 85 56.6664 84.93 56.5464 84.79C56.4264 84.65 56.3764 84.48 56.3964 84.28L58.9464 69.58C58.9864 69.38 59.0764 69.23 59.2164 69.13C59.3564 69.01 59.5264 68.97 59.7264 69.01L60.9264 69.07C61.1264 69.09 61.2864 69.18 61.4064 69.34C61.5264 69.48 61.5564 69.65 61.4964 69.85L59.1264 84.28C59.1064 84.48 59.0164 84.65 58.8564 84.79C58.7164 84.93 58.5464 85 58.3464 85H56.9964ZM84.2978 82.75C85.5978 82.77 86.6878 82.53 87.5678 82.03C88.4678 81.53 89.1478 80.82 89.6078 79.9C90.0878 78.96 90.3278 77.89 90.3278 76.69V68.56C90.3278 68.36 90.3878 68.2 90.5078 68.08C90.6478 67.94 90.8178 67.87 91.0178 67.87H92.2478C92.4678 67.87 92.6378 67.94 92.7578 68.08C92.8778 68.2 92.9378 68.36 92.9378 68.56V76.9C92.9378 78.18 92.7378 79.34 92.3378 80.38C91.9378 81.4 91.3678 82.28 90.6278 83.02C89.8878 83.74 89.0078 84.29 87.9878 84.67C86.9878 85.05 85.8778 85.22 84.6578 85.18H82.4078C81.1078 85.18 79.9378 84.88 78.8978 84.28C77.8578 83.68 77.0378 82.84 76.4378 81.76C75.8378 80.68 75.5378 79.43 75.5378 78.01V68.56C75.5378 68.36 75.5978 68.2 75.7178 68.08C75.8578 67.94 76.0278 67.87 76.2278 67.87H77.4878C77.6878 67.87 77.8478 67.94 77.9678 68.08C78.1078 68.2 78.1778 68.36 78.1778 68.56L78.2678 77.41C78.2678 79.13 78.7478 80.45 79.7078 81.37C80.6678 82.29 81.8878 82.75 83.3678 82.75H84.2978ZM77.6378 79.24L77.5778 77.05C79.0578 77.03 80.1878 76.81 80.9678 76.39C81.7478 75.95 82.2878 75.37 82.5878 74.65C82.9078 73.93 83.0678 73.14 83.0678 72.28V68.56C83.0678 68.36 83.1278 68.2 83.2478 68.08C83.3678 67.94 83.5378 67.87 83.7578 67.87H84.9878C85.1878 67.87 85.3478 67.94 85.4678 68.08C85.6078 68.2 85.6778 68.36 85.6778 68.56V72.4C85.6778 73.7 85.3878 74.87 84.8078 75.91C84.2278 76.95 83.3378 77.77 82.1378 78.37C80.9578 78.97 79.4578 79.26 77.6378 79.24ZM97.8252 85C97.6252 85 97.4552 84.94 97.3152 84.82C97.1952 84.68 97.1352 84.51 97.1352 84.31V68.56C97.1352 68.36 97.1952 68.2 97.3152 68.08C97.4552 67.94 97.6252 67.87 97.8252 67.87H103.645C105.385 67.87 106.815 68.15 107.935 68.71C109.075 69.25 109.925 70.07 110.485 71.17C111.045 72.25 111.325 73.61 111.325 75.25V84.31C111.325 84.51 111.255 84.68 111.115 84.82C110.995 84.94 110.835 85 110.635 85H109.285C109.065 85 108.895 84.94 108.775 84.82C108.655 84.68 108.595 84.51 108.595 84.31V75.34C108.595 73.74 108.195 72.5 107.395 71.62C106.595 70.72 105.295 70.27 103.495 70.27H99.8652V84.31C99.8652 84.51 99.8052 84.68 99.6852 84.82C99.5652 84.94 99.3952 85 99.1752 85H97.8252ZM127.858 85C127.658 85 127.488 84.94 127.348 84.82C127.228 84.68 127.168 84.51 127.168 84.31V75.34C127.168 73.74 126.768 72.5 125.968 71.62C125.168 70.72 123.878 70.27 122.098 70.27H116.458C116.258 70.27 116.088 70.21 115.948 70.09C115.828 69.95 115.768 69.78 115.768 69.58V68.56C115.768 68.36 115.828 68.2 115.948 68.08C116.088 67.94 116.258 67.87 116.458 67.87H122.248C124.848 67.87 126.768 68.5 128.008 69.76C129.268 71.02 129.898 72.85 129.898 75.25V84.31C129.898 84.51 129.828 84.68 129.688 84.82C129.568 84.94 129.408 85 129.208 85H127.858ZM116.458 85C116.258 85 116.088 84.94 115.948 84.82C115.828 84.68 115.768 84.51 115.768 84.31V74.29C115.768 74.09 115.828 73.93 115.948 73.81C116.088 73.67 116.258 73.6 116.458 73.6H117.808C118.028 73.6 118.198 73.67 118.318 73.81C118.438 73.93 118.498 74.09 118.498 74.29V84.31C118.498 84.51 118.438 84.68 118.318 84.82C118.198 84.94 118.028 85 117.808 85H116.458ZM142.176 78.04C141.976 78.04 141.806 77.98 141.666 77.86C141.546 77.72 141.486 77.55 141.486 77.35V68.56C141.486 68.36 141.546 68.2 141.666 68.08C141.806 67.94 141.976 67.87 142.176 67.87H143.586C143.806 67.87 143.976 67.94 144.096 68.08C144.216 68.2 144.276 68.36 144.276 68.56V77.35C144.276 77.55 144.216 77.72 144.096 77.86C143.976 77.98 143.806 78.04 143.586 78.04H142.176ZM152.417 85.27C152.237 85.33 152.067 85.3 151.907 85.18C151.747 85.08 151.667 84.93 151.667 84.73V83.35C151.667 83.17 151.717 83.01 151.817 82.87C151.937 82.73 152.107 82.62 152.327 82.54L153.497 82.09C154.277 81.77 154.987 81.37 155.627 80.89C156.287 80.39 156.797 79.72 157.157 78.88C157.537 78.04 157.727 76.94 157.727 75.58C157.727 74.28 157.567 73.25 157.247 72.49C156.947 71.71 156.427 71.16 155.687 70.84C154.967 70.5 153.977 70.33 152.717 70.33H151.817C151.617 70.33 151.447 70.27 151.307 70.15C151.187 70.01 151.127 69.84 151.127 69.64V68.56C151.127 68.36 151.187 68.2 151.307 68.08C151.447 67.94 151.617 67.87 151.817 67.87H153.137C154.957 67.87 156.407 68.13 157.487 68.65C158.567 69.17 159.337 70.01 159.797 71.17C160.277 72.31 160.517 73.81 160.517 75.67C160.517 77.07 160.327 78.28 159.947 79.3C159.567 80.32 159.047 81.19 158.387 81.91C157.747 82.63 157.017 83.23 156.197 83.71C155.377 84.17 154.527 84.55 153.647 84.85L152.417 85.27ZM152.477 70.33L148.907 70.3C148.707 70.3 148.537 70.24 148.397 70.12C148.277 70 148.217 69.84 148.217 69.64V64.39C148.217 64.19 148.277 64.03 148.397 63.91C148.537 63.77 148.707 63.7 148.907 63.7H150.167C150.367 63.7 150.527 63.77 150.647 63.91C150.787 64.03 150.857 64.19 150.857 64.39V67.87H152.537L152.477 70.33ZM164.429 85C164.229 85 164.059 84.94 163.919 84.82C163.799 84.68 163.739 84.51 163.739 84.31V83.29C163.739 83.09 163.799 82.93 163.919 82.81C164.059 82.67 164.229 82.6 164.429 82.6H173.039V75.34C173.039 73.74 172.639 72.5 171.839 71.62C171.039 70.72 169.749 70.27 167.969 70.27H164.729C164.529 70.27 164.359 70.21 164.219 70.09C164.099 69.95 164.039 69.78 164.039 69.58V68.56C164.039 68.36 164.099 68.2 164.219 68.08C164.359 67.94 164.529 67.87 164.729 67.87H168.119C169.839 67.87 171.269 68.15 172.409 68.71C173.549 69.27 174.399 70.1 174.959 71.2C175.539 72.28 175.829 73.63 175.829 75.25V82.6H176.939C177.139 82.6 177.299 82.67 177.419 82.81C177.559 82.93 177.629 83.09 177.629 83.29V84.31C177.629 84.51 177.559 84.68 177.419 84.82C177.299 84.94 177.139 85 176.939 85H164.429ZM181.497 85C181.297 85 181.127 84.94 180.987 84.82C180.867 84.68 180.807 84.51 180.807 84.31V83.23C180.807 83.03 180.867 82.87 180.987 82.75C181.127 82.61 181.297 82.54 181.497 82.54H185.787C187.567 82.54 188.847 82.1 189.627 81.22C190.407 80.32 190.837 79.07 190.917 77.47C190.937 77.03 190.947 76.68 190.947 76.42C190.947 76.16 190.937 75.82 190.917 75.4C190.857 73.8 190.427 72.56 189.627 71.68C188.847 70.78 187.567 70.33 185.787 70.33H181.497C181.297 70.33 181.127 70.27 180.987 70.15C180.867 70.01 180.807 69.84 180.807 69.64V68.56C180.807 68.36 180.867 68.2 180.987 68.08C181.127 67.94 181.297 67.87 181.497 67.87H185.937C187.697 67.87 189.127 68.17 190.227 68.77C191.327 69.35 192.147 70.2 192.687 71.32C193.247 72.42 193.547 73.75 193.587 75.31C193.607 75.71 193.617 76.08 193.617 76.42C193.617 76.76 193.607 77.14 193.587 77.56C193.547 79.1 193.247 80.43 192.687 81.55C192.147 82.67 191.327 83.53 190.227 84.13C189.127 84.71 187.697 85 185.937 85H181.497ZM197.095 85C196.895 85 196.725 84.94 196.585 84.82C196.465 84.68 196.405 84.51 196.405 84.31V83.29C196.405 83.09 196.465 82.93 196.585 82.81C196.725 82.67 196.895 82.6 197.095 82.6H205.705V75.34C205.705 73.74 205.305 72.5 204.505 71.62C203.705 70.72 202.415 70.27 200.635 70.27H197.395C197.195 70.27 197.025 70.21 196.885 70.09C196.765 69.95 196.705 69.78 196.705 69.58V68.56C196.705 68.36 196.765 68.2 196.885 68.08C197.025 67.94 197.195 67.87 197.395 67.87H200.785C202.505 67.87 203.935 68.15 205.075 68.71C206.215 69.27 207.065 70.1 207.625 71.2C208.205 72.28 208.495 73.63 208.495 75.25V82.6H209.605C209.805 82.6 209.965 82.67 210.085 82.81C210.225 82.93 210.295 83.09 210.295 83.29V84.31C210.295 84.51 210.225 84.68 210.085 84.82C209.965 84.94 209.805 85 209.605 85H197.095ZM221.106 85C220.906 85 220.736 84.94 220.596 84.82C220.476 84.68 220.416 84.51 220.416 84.31V68.56C220.416 68.36 220.476 68.2 220.596 68.08C220.736 67.94 220.906 67.87 221.106 67.87H226.836C228.556 67.87 229.976 68.15 231.096 68.71C232.216 69.25 233.046 70.06 233.586 71.14C234.146 72.22 234.426 73.57 234.426 75.19V84.31C234.426 84.51 234.366 84.68 234.246 84.82C234.126 84.94 233.956 85 233.736 85H221.106ZM222.996 82.6H231.756V75.34C231.756 73.74 231.356 72.5 230.556 71.62C229.756 70.72 228.466 70.27 226.686 70.27H222.996V82.6ZM250.963 85C250.763 85 250.593 84.94 250.453 84.82C250.333 84.68 250.273 84.51 250.273 84.31V75.34C250.273 73.74 249.873 72.5 249.073 71.62C248.273 70.72 246.983 70.27 245.203 70.27H239.563C239.363 70.27 239.193 70.21 239.053 70.09C238.933 69.95 238.873 69.78 238.873 69.58V68.56C238.873 68.36 238.933 68.2 239.053 68.08C239.193 67.94 239.363 67.87 239.563 67.87H245.353C247.953 67.87 249.873 68.5 251.113 69.76C252.373 71.02 253.003 72.85 253.003 75.25V84.31C253.003 84.51 252.933 84.68 252.793 84.82C252.673 84.94 252.513 85 252.313 85H250.963ZM239.563 85C239.363 85 239.193 84.94 239.053 84.82C238.933 84.68 238.873 84.51 238.873 84.31V74.29C238.873 74.09 238.933 73.93 239.053 73.81C239.193 73.67 239.363 73.6 239.563 73.6H240.913C241.133 73.6 241.303 73.67 241.423 73.81C241.543 73.93 241.603 74.09 241.603 74.29V84.31C241.603 84.51 241.543 84.68 241.423 84.82C241.303 84.94 241.133 85 240.913 85H239.563ZM265.968 82.75C267.268 82.77 268.358 82.53 269.238 82.03C270.138 81.53 270.818 80.82 271.278 79.9C271.758 78.96 271.998 77.89 271.998 76.69V68.56C271.998 68.36 272.058 68.2 272.178 68.08C272.318 67.94 272.488 67.87 272.688 67.87H273.918C274.138 67.87 274.308 67.94 274.428 68.08C274.548 68.2 274.608 68.36 274.608 68.56V76.9C274.608 78.18 274.408 79.34 274.008 80.38C273.608 81.4 273.038 82.28 272.298 83.02C271.558 83.74 270.678 84.29 269.658 84.67C268.658 85.05 267.548 85.22 266.328 85.18H264.078C262.778 85.18 261.608 84.88 260.568 84.28C259.528 83.68 258.708 82.84 258.108 81.76C257.508 80.68 257.208 79.43 257.208 78.01V68.56C257.208 68.36 257.268 68.2 257.388 68.08C257.528 67.94 257.698 67.87 257.898 67.87H259.158C259.358 67.87 259.518 67.94 259.638 68.08C259.778 68.2 259.848 68.36 259.848 68.56L259.938 77.41C259.938 79.13 260.418 80.45 261.378 81.37C262.338 82.29 263.558 82.75 265.038 82.75H265.968ZM259.308 79.24L259.248 77.05C260.728 77.03 261.858 76.81 262.638 76.39C263.418 75.95 263.958 75.37 264.258 74.65C264.578 73.93 264.738 73.14 264.738 72.28V68.56C264.738 68.36 264.798 68.2 264.918 68.08C265.038 67.94 265.208 67.87 265.428 67.87H266.658C266.858 67.87 267.018 67.94 267.138 68.08C267.278 68.2 267.348 68.36 267.348 68.56V72.4C267.348 73.7 267.058 74.87 266.478 75.91C265.898 76.95 265.008 77.77 263.808 78.37C262.628 78.97 261.128 79.26 259.308 79.24ZM282.495 85.27C282.315 85.33 282.145 85.3 281.985 85.18C281.825 85.08 281.745 84.93 281.745 84.73V83.35C281.745 83.17 281.795 83.01 281.895 82.87C282.015 82.73 282.185 82.62 282.405 82.54L283.575 82.09C284.355 81.77 285.065 81.37 285.705 80.89C286.365 80.39 286.875 79.72 287.235 78.88C287.615 78.04 287.805 76.94 287.805 75.58C287.805 74.28 287.645 73.25 287.325 72.49C287.025 71.71 286.505 71.16 285.765 70.84C285.045 70.5 284.055 70.33 282.795 70.33H281.895C281.695 70.33 281.525 70.27 281.385 70.15C281.265 70.01 281.205 69.84 281.205 69.64V68.56C281.205 68.36 281.265 68.2 281.385 68.08C281.525 67.94 281.695 67.87 281.895 67.87H283.215C285.035 67.87 286.485 68.13 287.565 68.65C288.645 69.17 289.415 70.01 289.875 71.17C290.355 72.31 290.595 73.81 290.595 75.67C290.595 77.07 290.405 78.28 290.025 79.3C289.645 80.32 289.125 81.19 288.465 81.91C287.825 82.63 287.095 83.23 286.275 83.71C285.455 84.17 284.605 84.55 283.725 84.85L282.495 85.27ZM282.555 70.33L278.985 70.3C278.785 70.3 278.615 70.24 278.475 70.12C278.355 70 278.295 69.84 278.295 69.64V64.39C278.295 64.19 278.355 64.03 278.475 63.91C278.615 63.77 278.785 63.7 278.985 63.7H280.245C280.445 63.7 280.605 63.77 280.725 63.91C280.865 64.03 280.935 64.19 280.935 64.39V67.87H282.615L282.555 70.33ZM295.228 85C295.028 85 294.858 84.94 294.718 84.82C294.598 84.68 294.538 84.51 294.538 84.31V83.23C294.538 83.03 294.598 82.87 294.718 82.75C294.858 82.61 295.028 82.54 295.228 82.54H299.518C301.298 82.54 302.578 82.1 303.358 81.22C304.138 80.32 304.568 79.07 304.648 77.47C304.668 77.03 304.678 76.68 304.678 76.42C304.678 76.16 304.668 75.82 304.648 75.4C304.588 73.8 304.158 72.56 303.358 71.68C302.578 70.78 301.298 70.33 299.518 70.33H295.228C295.028 70.33 294.858 70.27 294.718 70.15C294.598 70.01 294.538 69.84 294.538 69.64V68.56C294.538 68.36 294.598 68.2 294.718 68.08C294.858 67.94 295.028 67.87 295.228 67.87H299.668C301.428 67.87 302.858 68.17 303.958 68.77C305.058 69.35 305.878 70.2 306.418 71.32C306.978 72.42 307.278 73.75 307.318 75.31C307.338 75.71 307.348 76.08 307.348 76.42C307.348 76.76 307.338 77.14 307.318 77.56C307.278 79.1 306.978 80.43 306.418 81.55C305.878 82.67 305.058 83.53 303.958 84.13C302.858 84.71 301.428 85 299.668 85H295.228Z" fill="black"/>
<defs>
<filter id="filter0_d_124_141" x="0" y="0" width="378" height="118" filterUnits="userSpaceOnUse" color-interpolation-filters="sRGB">
<feFlood flood-opacity="0" result="BackgroundImageFix"/>
<feColorMatrix in="SourceAlpha" type="matrix" values="0 0 0 0 0 0 0 0 0 0 0 0 0 0 0 0 0 0 127 0" result="hardAlpha"/>
<feOffset dx="4" dy="4"/>
<feGaussianBlur stdDeviation="2"/>
<feComposite in2="hardAlpha" operator="out"/>
<feColorMatrix type="matrix" values="0 0 0 0 0 0 0 0 0 0 0 0 0 0 0 0 0 0 0.25 0"/>
<feBlend mode="normal" in2="BackgroundImageFix" result="effect1_dropShadow_124_141"/>
<feBlend mode="normal" in="SourceGraphic" in2="effect1_dropShadow_124_141" result="shape"/>
</filter>
</defs>
</svg>
