<svg width="378" height="148" viewBox="0 0 378 148" fill="none" xmlns="http://www.w3.org/2000/svg">
<g filter="url(#filter0_d_124_138)">
<rect width="370" height="140" rx="20" fill="#FDF4D4"/>
</g>
<path d="M31.7519 35.04C31.5519 35.04 31.3819 34.98 31.2419 34.86C31.1219 34.72 31.0619 34.55 31.0619 34.35V25.56C31.0619 25.36 31.1219 25.2 31.2419 25.08C31.3819 24.94 31.5519 24.87 31.7519 24.87H33.1619C33.3819 24.87 33.5519 24.94 33.6719 25.08C33.7919 25.2 33.8519 25.36 33.8519 25.56V34.35C33.8519 34.55 33.7919 34.72 33.6719 34.86C33.5519 34.98 33.3819 35.04 33.1619 35.04H31.7519ZM38.1532 43.65C37.9532 43.73 37.7632 43.71 37.5832 43.59C37.4032 43.49 37.3132 43.34 37.3132 43.14V42.12C37.3132 41.94 37.3532 41.77 37.4332 41.61C37.5132 41.45 37.6432 41.35 37.8232 41.31L44.1532 39.21C45.2932 38.83 46.1732 38.34 46.7932 37.74C47.4132 37.14 47.8432 36.44 48.0832 35.64C48.3432 34.84 48.4732 33.97 48.4732 33.03V25.56C48.4732 25.36 48.5332 25.2 48.6532 25.08C48.7932 24.94 48.9632 24.87 49.1632 24.87H50.5132C50.7132 24.87 50.8732 24.94 50.9932 25.08C51.1332 25.2 51.2032 25.36 51.2032 25.56V33.87C51.2032 35.03 50.9332 36.13 50.3932 37.17C49.8732 38.19 49.1332 39.09 48.1732 39.87C47.2132 40.63 46.0732 41.21 44.7532 41.61L38.1532 43.65ZM42.0832 41.28L37.8532 26.07C37.8132 25.91 37.7732 25.79 37.7332 25.71C37.7132 25.63 37.7032 25.55 37.7032 25.47C37.7032 25.31 37.7632 25.17 37.8832 25.05C38.0032 24.93 38.1432 24.87 38.3032 24.87H39.7732C40.1532 24.87 40.3832 25.02 40.4632 25.32L44.6332 40.59L42.0832 41.28ZM55.7069 42C55.5069 42 55.3369 41.94 55.1969 41.82C55.0769 41.68 55.0169 41.51 55.0169 41.31V40.26C55.0169 40.06 55.0769 39.9 55.1969 39.78C55.3369 39.64 55.5069 39.57 55.7069 39.57H63.8369L54.4469 26.04C54.3869 25.92 54.3369 25.82 54.2969 25.74C54.2569 25.64 54.2369 25.55 54.2369 25.47C54.2369 25.31 54.2969 25.17 54.4169 25.05C54.5569 24.93 54.7069 24.87 54.8669 24.87H56.3069C56.5069 24.87 56.6669 24.93 56.7869 25.05C56.9269 25.15 57.0369 25.26 57.1169 25.38L66.8969 39.39C66.9969 39.53 67.0769 39.68 67.1369 39.84C67.2169 39.98 67.2569 40.14 67.2569 40.32V41.31C67.2569 41.51 67.1869 41.68 67.0469 41.82C66.9269 41.94 66.7669 42 66.5669 42H55.7069ZM63.2969 35.16L61.9769 33.21C63.0169 32.83 63.7669 32.21 64.2269 31.35C64.7069 30.47 64.9469 29.4 64.9469 28.14V25.56C64.9469 25.36 65.0069 25.2 65.1269 25.08C65.2669 24.94 65.4369 24.87 65.6369 24.87H66.8669C67.0869 24.87 67.2569 24.94 67.3769 25.08C67.4969 25.2 67.5569 25.36 67.5569 25.56V28.5C67.5569 30.12 67.1969 31.5 66.4769 32.64C65.7569 33.78 64.6969 34.62 63.2969 35.16ZM79.143 27.33H71.853C71.633 27.33 71.463 27.27 71.343 27.15C71.223 27.01 71.163 26.84 71.163 26.64V25.56C71.163 25.36 71.223 25.2 71.343 25.08C71.463 24.94 71.633 24.87 71.853 24.87H79.473C80.713 24.87 81.813 25.16 82.773 25.74C83.753 26.32 84.513 27.16 85.053 28.26C85.613 29.34 85.893 30.65 85.893 32.19V41.31C85.893 41.51 85.823 41.68 85.683 41.82C85.563 41.94 85.403 42 85.203 42H77.463C77.263 42 77.093 41.94 76.953 41.82C76.833 41.68 76.773 41.51 76.773 41.31V40.29C76.773 40.09 76.833 39.93 76.953 39.81C77.093 39.67 77.263 39.6 77.463 39.6H83.163V32.37C83.163 31.35 82.983 30.46 82.623 29.7C82.283 28.94 81.803 28.36 81.183 27.96C80.583 27.54 79.903 27.33 79.143 27.33ZM71.553 42C71.373 42 71.223 41.93 71.103 41.79C70.983 41.65 70.933 41.48 70.953 41.28L73.503 26.58C73.543 26.38 73.633 26.23 73.773 26.13C73.913 26.01 74.083 25.97 74.283 26.01L75.483 26.07C75.683 26.09 75.843 26.18 75.963 26.34C76.083 26.48 76.113 26.65 76.053 26.85L73.683 41.28C73.663 41.48 73.573 41.65 73.413 41.79C73.273 41.93 73.103 42 72.903 42H71.553ZM102.004 42C101.784 42 101.614 41.94 101.494 41.82C101.374 41.7 101.264 41.6 101.164 41.52L90.1544 26.04C90.0144 25.82 89.9444 25.63 89.9444 25.47C89.9444 25.31 90.0044 25.17 90.1244 25.05C90.2644 24.93 90.4144 24.87 90.5744 24.87H91.9544C92.1944 24.87 92.3744 24.93 92.4944 25.05C92.6344 25.17 92.7444 25.28 92.8244 25.38L103.864 40.83C103.944 40.97 103.994 41.08 104.014 41.16C104.054 41.24 104.074 41.32 104.074 41.4C104.074 41.56 104.014 41.7 103.894 41.82C103.774 41.94 103.624 42 103.444 42H102.004ZM90.3044 42C90.1044 42 89.9344 41.94 89.7944 41.82C89.6744 41.68 89.6144 41.51 89.6144 41.31V36.81C89.6144 35.89 89.7044 35.02 89.8844 34.2C90.0644 33.36 90.4144 32.57 90.9344 31.83C91.4744 31.07 92.2744 30.36 93.3344 29.7L94.7144 31.71C93.9944 32.17 93.4544 32.7 93.0944 33.3C92.7344 33.88 92.4944 34.49 92.3744 35.13C92.2544 35.75 92.1944 36.35 92.1944 36.93V41.31C92.1944 41.51 92.1244 41.68 91.9844 41.82C91.8644 41.94 91.7044 42 91.5044 42H90.3044ZM99.6044 36.51L98.3744 34.44C99.3544 33.98 100.044 33.5 100.444 33C100.864 32.5 101.114 31.98 101.194 31.44C101.274 30.88 101.314 30.3 101.314 29.7V25.56C101.314 25.36 101.374 25.2 101.494 25.08C101.634 24.94 101.804 24.87 102.004 24.87H103.264C103.464 24.87 103.624 24.94 103.744 25.08C103.884 25.2 103.954 25.36 103.954 25.56V29.85C103.954 30.69 103.854 31.5 103.654 32.28C103.454 33.06 103.044 33.8 102.424 34.5C101.824 35.2 100.884 35.87 99.6044 36.51ZM120.061 42C119.861 42 119.691 41.94 119.551 41.82C119.431 41.68 119.371 41.51 119.371 41.31V32.34C119.371 30.74 118.971 29.5 118.171 28.62C117.371 27.72 116.081 27.27 114.301 27.27H108.661C108.461 27.27 108.291 27.21 108.151 27.09C108.031 26.95 107.971 26.78 107.971 26.58V25.56C107.971 25.36 108.031 25.2 108.151 25.08C108.291 24.94 108.461 24.87 108.661 24.87H114.451C117.051 24.87 118.971 25.5 120.211 26.76C121.471 28.02 122.101 29.85 122.101 32.25V41.31C122.101 41.51 122.031 41.68 121.891 41.82C121.771 41.94 121.611 42 121.411 42H120.061ZM108.661 42C108.461 42 108.291 41.94 108.151 41.82C108.031 41.68 107.971 41.51 107.971 41.31V31.29C107.971 31.09 108.031 30.93 108.151 30.81C108.291 30.67 108.461 30.6 108.661 30.6H110.011C110.231 30.6 110.401 30.67 110.521 30.81C110.641 30.93 110.701 31.09 110.701 31.29V41.31C110.701 41.51 110.641 41.68 110.521 41.82C110.401 41.94 110.231 42 110.011 42H108.661ZM136.915 42.27C136.735 42.33 136.565 42.3 136.405 42.18C136.245 42.08 136.165 41.93 136.165 41.73V40.35C136.165 40.17 136.215 40.01 136.315 39.87C136.435 39.73 136.605 39.62 136.825 39.54L137.995 39.09C138.775 38.77 139.485 38.37 140.125 37.89C140.785 37.39 141.295 36.72 141.655 35.88C142.035 35.04 142.225 33.94 142.225 32.58C142.225 31.28 142.065 30.25 141.745 29.49C141.445 28.71 140.925 28.16 140.185 27.84C139.465 27.5 138.475 27.33 137.215 27.33H136.315C136.115 27.33 135.945 27.27 135.805 27.15C135.685 27.01 135.625 26.84 135.625 26.64V25.56C135.625 25.36 135.685 25.2 135.805 25.08C135.945 24.94 136.115 24.87 136.315 24.87H137.635C139.455 24.87 140.905 25.13 141.985 25.65C143.065 26.17 143.835 27.01 144.295 28.17C144.775 29.31 145.015 30.81 145.015 32.67C145.015 34.07 144.825 35.28 144.445 36.3C144.065 37.32 143.545 38.19 142.885 38.91C142.245 39.63 141.515 40.23 140.695 40.71C139.875 41.17 139.025 41.55 138.145 41.85L136.915 42.27ZM136.975 27.33L133.405 27.3C133.205 27.3 133.035 27.24 132.895 27.12C132.775 27 132.715 26.84 132.715 26.64V21.39C132.715 21.19 132.775 21.03 132.895 20.91C133.035 20.77 133.205 20.7 133.405 20.7H134.665C134.865 20.7 135.025 20.77 135.145 20.91C135.285 21.03 135.355 21.19 135.355 21.39V24.87H137.035L136.975 27.33ZM148.927 42C148.727 42 148.557 41.94 148.417 41.82C148.297 41.68 148.237 41.51 148.237 41.31V40.29C148.237 40.09 148.297 39.93 148.417 39.81C148.557 39.67 148.727 39.6 148.927 39.6H157.537V32.34C157.537 30.74 157.137 29.5 156.337 28.62C155.537 27.72 154.247 27.27 152.467 27.27H149.227C149.027 27.27 148.857 27.21 148.717 27.09C148.597 26.95 148.537 26.78 148.537 26.58V25.56C148.537 25.36 148.597 25.2 148.717 25.08C148.857 24.94 149.027 24.87 149.227 24.87H152.617C154.337 24.87 155.767 25.15 156.907 25.71C158.047 26.27 158.897 27.1 159.457 28.2C160.037 29.28 160.327 30.63 160.327 32.25V39.6H161.437C161.637 39.6 161.797 39.67 161.917 39.81C162.057 39.93 162.127 40.09 162.127 40.29V41.31C162.127 41.51 162.057 41.68 161.917 41.82C161.797 41.94 161.637 42 161.437 42H148.927ZM165.995 42C165.795 42 165.625 41.94 165.485 41.82C165.365 41.68 165.305 41.51 165.305 41.31V40.23C165.305 40.03 165.365 39.87 165.485 39.75C165.625 39.61 165.795 39.54 165.995 39.54H170.285C172.065 39.54 173.345 39.1 174.125 38.22C174.905 37.32 175.335 36.07 175.415 34.47C175.435 34.03 175.445 33.68 175.445 33.42C175.445 33.16 175.435 32.82 175.415 32.4C175.355 30.8 174.925 29.56 174.125 28.68C173.345 27.78 172.065 27.33 170.285 27.33H165.995C165.795 27.33 165.625 27.27 165.485 27.15C165.365 27.01 165.305 26.84 165.305 26.64V25.56C165.305 25.36 165.365 25.2 165.485 25.08C165.625 24.94 165.795 24.87 165.995 24.87H170.435C172.195 24.87 173.625 25.17 174.725 25.77C175.825 26.35 176.645 27.2 177.185 28.32C177.745 29.42 178.045 30.75 178.085 32.31C178.105 32.71 178.115 33.08 178.115 33.42C178.115 33.76 178.105 34.14 178.085 34.56C178.045 36.1 177.745 37.43 177.185 38.55C176.645 39.67 175.825 40.53 174.725 41.13C173.625 41.71 172.195 42 170.435 42H165.995ZM192.403 42.27C192.223 42.33 192.053 42.3 191.893 42.18C191.733 42.08 191.653 41.93 191.653 41.73V40.35C191.653 40.17 191.703 40.01 191.803 39.87C191.923 39.73 192.093 39.62 192.313 39.54L193.483 39.09C194.263 38.77 194.973 38.37 195.613 37.89C196.273 37.39 196.783 36.72 197.143 35.88C197.523 35.04 197.713 33.94 197.713 32.58C197.713 31.28 197.553 30.25 197.233 29.49C196.933 28.71 196.413 28.16 195.673 27.84C194.953 27.5 193.963 27.33 192.703 27.33H191.803C191.603 27.33 191.433 27.27 191.293 27.15C191.173 27.01 191.113 26.84 191.113 26.64V25.56C191.113 25.36 191.173 25.2 191.293 25.08C191.433 24.94 191.603 24.87 191.803 24.87H193.123C194.943 24.87 196.393 25.13 197.473 25.65C198.553 26.17 199.323 27.01 199.783 28.17C200.263 29.31 200.503 30.81 200.503 32.67C200.503 34.07 200.313 35.28 199.933 36.3C199.553 37.32 199.033 38.19 198.373 38.91C197.733 39.63 197.003 40.23 196.183 40.71C195.363 41.17 194.513 41.55 193.633 41.85L192.403 42.27ZM192.463 27.33L188.893 27.3C188.693 27.3 188.523 27.24 188.383 27.12C188.263 27 188.203 26.84 188.203 26.64V21.39C188.203 21.19 188.263 21.03 188.383 20.91C188.523 20.77 188.693 20.7 188.893 20.7H190.153C190.353 20.7 190.513 20.77 190.633 20.91C190.773 21.03 190.843 21.19 190.843 21.39V24.87H192.523L192.463 27.33ZM204.266 43.65C204.066 43.73 203.876 43.71 203.696 43.59C203.516 43.49 203.426 43.34 203.426 43.14V42.12C203.426 41.94 203.466 41.77 203.546 41.61C203.626 41.45 203.756 41.35 203.936 41.31L210.266 39.21C211.406 38.83 212.286 38.34 212.906 37.74C213.526 37.14 213.956 36.44 214.196 35.64C214.456 34.84 214.586 33.97 214.586 33.03V25.56C214.586 25.36 214.646 25.2 214.766 25.08C214.906 24.94 215.076 24.87 215.276 24.87H216.626C216.826 24.87 216.986 24.94 217.106 25.08C217.246 25.2 217.316 25.36 217.316 25.56V33.87C217.316 35.03 217.046 36.13 216.506 37.17C215.986 38.19 215.246 39.09 214.286 39.87C213.326 40.63 212.186 41.21 210.866 41.61L204.266 43.65ZM208.196 41.28L203.966 26.07C203.926 25.91 203.886 25.79 203.846 25.71C203.826 25.63 203.816 25.55 203.816 25.47C203.816 25.31 203.876 25.17 203.996 25.05C204.116 24.93 204.256 24.87 204.416 24.87H205.886C206.266 24.87 206.496 25.02 206.576 25.32L210.746 40.59L208.196 41.28ZM229.804 45.72C229.604 45.72 229.434 45.65 229.294 45.51C229.174 45.39 229.114 45.23 229.114 45.03V25.56C229.114 25.36 229.174 25.2 229.294 25.08C229.434 24.94 229.604 24.87 229.804 24.87H231.154C231.374 24.87 231.544 24.94 231.664 25.08C231.784 25.2 231.844 25.36 231.844 25.56V45.03C231.844 45.23 231.784 45.39 231.664 45.51C231.544 45.65 231.374 45.72 231.154 45.72H229.804ZM244.327 42C244.127 42 243.967 41.94 243.847 41.82C243.747 41.68 243.677 41.51 243.637 41.31L241.807 32.1C241.607 31.04 241.367 30.16 241.087 29.46C240.827 28.74 240.467 28.2 240.007 27.84C239.567 27.46 238.957 27.27 238.177 27.27H237.097C236.897 27.27 236.727 27.21 236.587 27.09C236.467 26.95 236.407 26.78 236.407 26.58V25.5C236.407 25.3 236.467 25.14 236.587 25.02C236.727 24.88 236.897 24.81 237.097 24.81H238.207C239.547 24.81 240.627 25.08 241.447 25.62C242.267 26.14 242.917 26.93 243.397 27.99C243.897 29.05 244.307 30.37 244.627 31.95L246.427 41.31C246.467 41.51 246.417 41.68 246.277 41.82C246.137 41.94 245.967 42 245.767 42H244.327ZM240.457 40.47C239.717 40.97 239.017 41.36 238.357 41.64C237.717 41.9 237.047 42.1 236.347 42.24C236.147 42.26 235.977 42.24 235.837 42.18C235.697 42.12 235.627 41.99 235.627 41.79V40.29C235.627 39.95 235.837 39.7 236.257 39.54C236.397 39.48 236.657 39.39 237.037 39.27C237.417 39.15 237.827 39 238.267 38.82C238.707 38.62 239.087 38.42 239.407 38.22C239.907 37.9 240.397 37.49 240.877 36.99C241.357 36.47 241.757 35.94 242.077 35.4C242.417 34.84 242.587 34.35 242.587 33.93L244.327 33.72C244.307 34.58 244.117 35.45 243.757 36.33C243.397 37.21 242.927 38.01 242.347 38.73C241.767 39.45 241.137 40.03 240.457 40.47ZM261.946 42C261.746 42 261.576 41.94 261.436 41.82C261.316 41.68 261.256 41.51 261.256 41.31V32.34C261.256 30.74 260.856 29.5 260.056 28.62C259.256 27.72 257.966 27.27 256.186 27.27H250.546C250.346 27.27 250.176 27.21 250.036 27.09C249.916 26.95 249.856 26.78 249.856 26.58V25.56C249.856 25.36 249.916 25.2 250.036 25.08C250.176 24.94 250.346 24.87 250.546 24.87H256.336C258.936 24.87 260.856 25.5 262.096 26.76C263.356 28.02 263.986 29.85 263.986 32.25V41.31C263.986 41.51 263.916 41.68 263.776 41.82C263.656 41.94 263.496 42 263.296 42H261.946ZM250.546 42C250.346 42 250.176 41.94 250.036 41.82C249.916 41.68 249.856 41.51 249.856 41.31V31.29C249.856 31.09 249.916 30.93 250.036 30.81C250.176 30.67 250.346 30.6 250.546 30.6H251.896C252.116 30.6 252.286 30.67 252.406 30.81C252.526 30.93 252.586 31.09 252.586 31.29V41.31C252.586 41.51 252.526 41.68 252.406 41.82C252.286 41.94 252.116 42 251.896 42H250.546ZM271.563 42.27C271.383 42.33 271.213 42.3 271.053 42.18C270.893 42.08 270.813 41.93 270.813 41.73V40.35C270.813 40.17 270.863 40.01 270.963 39.87C271.083 39.73 271.253 39.62 271.473 39.54L272.643 39.09C273.423 38.77 274.133 38.37 274.773 37.89C275.433 37.39 275.943 36.72 276.303 35.88C276.683 35.04 276.873 33.94 276.873 32.58C276.873 31.28 276.713 30.25 276.393 29.49C276.093 28.71 275.573 28.16 274.833 27.84C274.113 27.5 273.123 27.33 271.863 27.33H270.963C270.763 27.33 270.593 27.27 270.453 27.15C270.333 27.01 270.273 26.84 270.273 26.64V25.56C270.273 25.36 270.333 25.2 270.453 25.08C270.593 24.94 270.763 24.87 270.963 24.87H272.283C274.103 24.87 275.553 25.13 276.633 25.65C277.713 26.17 278.483 27.01 278.943 28.17C279.423 29.31 279.663 30.81 279.663 32.67C279.663 34.07 279.473 35.28 279.093 36.3C278.713 37.32 278.193 38.19 277.533 38.91C276.893 39.63 276.163 40.23 275.343 40.71C274.523 41.17 273.673 41.55 272.793 41.85L271.563 42.27ZM271.623 27.33L268.053 27.3C267.853 27.3 267.683 27.24 267.543 27.12C267.423 27 267.363 26.84 267.363 26.64V21.39C267.363 21.19 267.423 21.03 267.543 20.91C267.683 20.77 267.853 20.7 268.053 20.7H269.313C269.513 20.7 269.673 20.77 269.793 20.91C269.933 21.03 270.003 21.19 270.003 21.39V24.87H271.683L271.623 27.33ZM299.479 39.75C300.779 39.77 301.869 39.53 302.749 39.03C303.649 38.53 304.329 37.82 304.789 36.9C305.269 35.96 305.509 34.89 305.509 33.69V25.56C305.509 25.36 305.569 25.2 305.689 25.08C305.829 24.94 305.999 24.87 306.199 24.87H307.429C307.649 24.87 307.819 24.94 307.939 25.08C308.059 25.2 308.119 25.36 308.119 25.56V33.9C308.119 35.18 307.919 36.34 307.519 37.38C307.119 38.4 306.549 39.28 305.809 40.02C305.069 40.74 304.189 41.29 303.169 41.67C302.169 42.05 301.059 42.22 299.839 42.18H297.589C296.289 42.18 295.119 41.88 294.079 41.28C293.039 40.68 292.219 39.84 291.619 38.76C291.019 37.68 290.719 36.43 290.719 35.01V25.56C290.719 25.36 290.779 25.2 290.899 25.08C291.039 24.94 291.209 24.87 291.409 24.87H292.669C292.869 24.87 293.029 24.94 293.149 25.08C293.289 25.2 293.359 25.36 293.359 25.56L293.449 34.41C293.449 36.13 293.929 37.45 294.889 38.37C295.849 39.29 297.069 39.75 298.549 39.75H299.479ZM292.819 36.24L292.759 34.05C294.239 34.03 295.369 33.81 296.149 33.39C296.929 32.95 297.469 32.37 297.769 31.65C298.089 30.93 298.249 30.14 298.249 29.28V25.56C298.249 25.36 298.309 25.2 298.429 25.08C298.549 24.94 298.719 24.87 298.939 24.87H300.169C300.369 24.87 300.529 24.94 300.649 25.08C300.789 25.2 300.859 25.36 300.859 25.56V29.4C300.859 30.7 300.569 31.87 299.989 32.91C299.409 33.95 298.519 34.77 297.319 35.37C296.139 35.97 294.639 36.26 292.819 36.24ZM312.797 35.04C312.597 35.04 312.427 34.98 312.287 34.86C312.167 34.72 312.107 34.55 312.107 34.35V25.56C312.107 25.36 312.167 25.2 312.287 25.08C312.427 24.94 312.597 24.87 312.797 24.87H314.207C314.427 24.87 314.597 24.94 314.717 25.08C314.837 25.2 314.897 25.36 314.897 25.56V34.35C314.897 34.55 314.837 34.72 314.717 34.86C314.597 34.98 314.427 35.04 314.207 35.04H312.797ZM339.555 35.94C338.975 35.94 338.435 35.8 337.935 35.52C337.435 35.22 337.035 34.83 336.735 34.35C336.455 33.85 336.315 33.31 336.315 32.73C336.315 32.13 336.455 31.59 336.735 31.11C337.035 30.61 337.435 30.22 337.935 29.94C338.435 29.64 338.975 29.49 339.555 29.49C340.155 29.49 340.695 29.64 341.175 29.94C341.655 30.22 342.035 30.61 342.315 31.11C342.615 31.59 342.765 32.13 342.765 32.73C342.765 33.31 342.615 33.85 342.315 34.35C342.035 34.83 341.655 35.22 341.175 35.52C340.695 35.8 340.155 35.94 339.555 35.94ZM71.6213 84.25C71.4613 84.25 71.3313 84.19 71.2313 84.07C71.1513 83.95 71.1213 83.8 71.1413 83.62L71.8313 79.33C71.8713 79.09 71.9513 78.89 72.0713 78.73C72.2113 78.55 72.4113 78.46 72.6713 78.46H74.6813C74.8213 78.46 74.9313 78.51 75.0113 78.61C75.1113 78.71 75.1613 78.83 75.1613 78.97C75.1613 79.13 75.1213 79.29 75.0413 79.45L73.4813 83.56C73.4013 83.76 73.2913 83.92 73.1513 84.04C73.0313 84.18 72.8513 84.25 72.6113 84.25H71.6213ZM80.082 82C79.882 82 79.712 81.94 79.572 81.82C79.452 81.68 79.392 81.51 79.392 81.31V65.56C79.392 65.36 79.452 65.2 79.572 65.08C79.712 64.94 79.882 64.87 80.082 64.87H85.812C87.532 64.87 88.952 65.15 90.072 65.71C91.192 66.25 92.022 67.06 92.562 68.14C93.122 69.22 93.402 70.57 93.402 72.19V81.31C93.402 81.51 93.342 81.68 93.222 81.82C93.102 81.94 92.932 82 92.712 82H80.082ZM81.972 79.6H90.732V72.34C90.732 70.74 90.332 69.5 89.532 68.62C88.732 67.72 87.442 67.27 85.662 67.27H81.972V79.6ZM98.3291 75.04C98.1291 75.04 97.9591 74.98 97.8191 74.86C97.6991 74.72 97.6391 74.55 97.6391 74.35V65.56C97.6391 65.36 97.6991 65.2 97.8191 65.08C97.9591 64.94 98.1291 64.87 98.3291 64.87H99.7391C99.9591 64.87 100.129 64.94 100.249 65.08C100.369 65.2 100.429 65.36 100.429 65.56V74.35C100.429 74.55 100.369 74.72 100.249 74.86C100.129 74.98 99.9591 75.04 99.7391 75.04H98.3291ZM104.61 82C104.41 82 104.24 81.94 104.1 81.82C103.98 81.68 103.92 81.51 103.92 81.31V80.29C103.92 80.09 103.98 79.93 104.1 79.81C104.24 79.67 104.41 79.6 104.61 79.6H113.07V81.43C113.07 81.63 113 81.78 112.86 81.88C112.74 81.96 112.58 82 112.38 82H104.61ZM111.24 82C111.04 82 110.88 81.94 110.76 81.82C110.66 81.68 110.59 81.51 110.55 81.31L109.98 72.04C109.94 71.06 109.86 70.21 109.74 69.49C109.64 68.77 109.4 68.21 109.02 67.81C108.66 67.41 108.05 67.21 107.19 67.21H105.96C105.76 67.21 105.59 67.15 105.45 67.03C105.33 66.89 105.27 66.72 105.27 66.52V65.5C105.27 65.3 105.33 65.14 105.45 65.02C105.59 64.88 105.76 64.81 105.96 64.81H107.22C108.36 64.81 109.28 64.98 109.98 65.32C110.68 65.64 111.22 66.12 111.6 66.76C111.98 67.4 112.26 68.16 112.44 69.04C112.62 69.9 112.74 70.87 112.8 71.95L113.34 81.31C113.38 81.51 113.33 81.68 113.19 81.82C113.05 81.94 112.88 82 112.68 82H111.24ZM124.597 67.33H117.307C117.087 67.33 116.917 67.27 116.797 67.15C116.677 67.01 116.617 66.84 116.617 66.64V65.56C116.617 65.36 116.677 65.2 116.797 65.08C116.917 64.94 117.087 64.87 117.307 64.87H124.927C126.167 64.87 127.267 65.16 128.227 65.74C129.207 66.32 129.967 67.16 130.507 68.26C131.067 69.34 131.347 70.65 131.347 72.19V81.31C131.347 81.51 131.277 81.68 131.137 81.82C131.017 81.94 130.857 82 130.657 82H122.917C122.717 82 122.547 81.94 122.407 81.82C122.287 81.68 122.227 81.51 122.227 81.31V80.29C122.227 80.09 122.287 79.93 122.407 79.81C122.547 79.67 122.717 79.6 122.917 79.6H128.617V72.37C128.617 71.35 128.437 70.46 128.077 69.7C127.737 68.94 127.257 68.36 126.637 67.96C126.037 67.54 125.357 67.33 124.597 67.33ZM117.007 82C116.827 82 116.677 81.93 116.557 81.79C116.437 81.65 116.387 81.48 116.407 81.28L118.957 66.58C118.997 66.38 119.087 66.23 119.227 66.13C119.367 66.01 119.537 65.97 119.737 66.01L120.937 66.07C121.137 66.09 121.297 66.18 121.417 66.34C121.537 66.48 121.567 66.65 121.507 66.85L119.137 81.28C119.117 81.48 119.027 81.65 118.867 81.79C118.727 81.93 118.557 82 118.357 82H117.007ZM144.309 79.75C145.609 79.77 146.699 79.53 147.579 79.03C148.479 78.53 149.159 77.82 149.619 76.9C150.099 75.96 150.339 74.89 150.339 73.69V65.56C150.339 65.36 150.399 65.2 150.519 65.08C150.659 64.94 150.829 64.87 151.029 64.87H152.259C152.479 64.87 152.649 64.94 152.769 65.08C152.889 65.2 152.949 65.36 152.949 65.56V73.9C152.949 75.18 152.749 76.34 152.349 77.38C151.949 78.4 151.379 79.28 150.639 80.02C149.899 80.74 149.019 81.29 147.999 81.67C146.999 82.05 145.889 82.22 144.669 82.18H142.419C141.119 82.18 139.949 81.88 138.909 81.28C137.869 80.68 137.049 79.84 136.449 78.76C135.849 77.68 135.549 76.43 135.549 75.01V65.56C135.549 65.36 135.609 65.2 135.729 65.08C135.869 64.94 136.039 64.87 136.239 64.87H137.499C137.699 64.87 137.859 64.94 137.979 65.08C138.119 65.2 138.189 65.36 138.189 65.56L138.279 74.41C138.279 76.13 138.759 77.45 139.719 78.37C140.679 79.29 141.899 79.75 143.379 79.75H144.309ZM137.649 76.24L137.589 74.05C139.069 74.03 140.199 73.81 140.979 73.39C141.759 72.95 142.299 72.37 142.599 71.65C142.919 70.93 143.079 70.14 143.079 69.28V65.56C143.079 65.36 143.139 65.2 143.259 65.08C143.379 64.94 143.549 64.87 143.769 64.87H144.999C145.199 64.87 145.359 64.94 145.479 65.08C145.619 65.2 145.689 65.36 145.689 65.56V69.4C145.689 70.7 145.399 71.87 144.819 72.91C144.239 73.95 143.349 74.77 142.149 75.37C140.969 75.97 139.469 76.26 137.649 76.24ZM164.199 84.25C164.039 84.25 163.909 84.19 163.809 84.07C163.729 83.95 163.699 83.8 163.719 83.62L164.409 79.33C164.449 79.09 164.529 78.89 164.649 78.73C164.789 78.55 164.989 78.46 165.249 78.46H167.259C167.399 78.46 167.509 78.51 167.589 78.61C167.689 78.71 167.739 78.83 167.739 78.97C167.739 79.13 167.699 79.29 167.619 79.45L166.059 83.56C165.979 83.76 165.869 83.92 165.729 84.04C165.609 84.18 165.429 84.25 165.189 84.25H164.199ZM172.66 82C172.46 82 172.29 81.94 172.15 81.82C172.03 81.68 171.97 81.51 171.97 81.31V65.56C171.97 65.36 172.03 65.2 172.15 65.08C172.29 64.94 172.46 64.87 172.66 64.87H178.39C180.11 64.87 181.53 65.15 182.65 65.71C183.77 66.25 184.6 67.06 185.14 68.14C185.7 69.22 185.98 70.57 185.98 72.19V81.31C185.98 81.51 185.92 81.68 185.8 81.82C185.68 81.94 185.51 82 185.29 82H172.66ZM174.55 79.6H183.31V72.34C183.31 70.74 182.91 69.5 182.11 68.62C181.31 67.72 180.02 67.27 178.24 67.27H174.55V79.6ZM191.117 82C190.917 82 190.747 81.94 190.607 81.82C190.487 81.68 190.427 81.51 190.427 81.31V65.56C190.427 65.36 190.487 65.2 190.607 65.08C190.747 64.94 190.917 64.87 191.117 64.87H192.527C192.747 64.87 192.917 64.94 193.037 65.08C193.157 65.2 193.217 65.36 193.217 65.56V81.31C193.217 81.51 193.157 81.68 193.037 81.82C192.917 81.94 192.747 82 192.527 82H191.117ZM198.529 82C198.329 82 198.159 81.94 198.019 81.82C197.899 81.68 197.839 81.51 197.839 81.31V65.56C197.839 65.36 197.899 65.2 198.019 65.08C198.159 64.94 198.329 64.87 198.529 64.87H204.349C206.089 64.87 207.519 65.15 208.639 65.71C209.779 66.25 210.629 67.07 211.189 68.17C211.749 69.25 212.029 70.61 212.029 72.25V81.31C212.029 81.51 211.959 81.68 211.819 81.82C211.699 81.94 211.539 82 211.339 82H209.989C209.769 82 209.599 81.94 209.479 81.82C209.359 81.68 209.299 81.51 209.299 81.31V72.34C209.299 70.74 208.899 69.5 208.099 68.62C207.299 67.72 205.999 67.27 204.199 67.27H200.569V81.31C200.569 81.51 200.509 81.68 200.389 81.82C200.269 81.94 200.099 82 199.879 82H198.529ZM224.306 75.04C224.106 75.04 223.936 74.98 223.796 74.86C223.676 74.72 223.616 74.55 223.616 74.35V65.56C223.616 65.36 223.676 65.2 223.796 65.08C223.936 64.94 224.106 64.87 224.306 64.87H225.716C225.936 64.87 226.106 64.94 226.226 65.08C226.346 65.2 226.406 65.36 226.406 65.56V74.35C226.406 74.55 226.346 74.72 226.226 74.86C226.106 74.98 225.936 75.04 225.716 75.04H224.306ZM230.587 82C230.387 82 230.217 81.94 230.077 81.82C229.957 81.68 229.897 81.51 229.897 81.31V80.29C229.897 80.09 229.957 79.93 230.077 79.81C230.217 79.67 230.387 79.6 230.587 79.6H239.047V81.43C239.047 81.63 238.977 81.78 238.837 81.88C238.717 81.96 238.557 82 238.357 82H230.587ZM237.217 82C237.017 82 236.857 81.94 236.737 81.82C236.637 81.68 236.567 81.51 236.527 81.31L235.957 72.04C235.917 71.06 235.837 70.21 235.717 69.49C235.617 68.77 235.377 68.21 234.997 67.81C234.637 67.41 234.027 67.21 233.167 67.21H231.937C231.737 67.21 231.567 67.15 231.427 67.03C231.307 66.89 231.247 66.72 231.247 66.52V65.5C231.247 65.3 231.307 65.14 231.427 65.02C231.567 64.88 231.737 64.81 231.937 64.81H233.197C234.337 64.81 235.257 64.98 235.957 65.32C236.657 65.64 237.197 66.12 237.577 66.76C237.957 67.4 238.237 68.16 238.417 69.04C238.597 69.9 238.717 70.87 238.777 71.95L239.317 81.31C239.357 81.51 239.307 81.68 239.167 81.82C239.027 81.94 238.857 82 238.657 82H237.217ZM245.504 67.33V69.67C245.524 70.39 245.614 70.99 245.774 71.47C245.934 71.95 246.244 72.25 246.704 72.37L247.814 72.67C247.974 72.71 248.094 72.82 248.174 73C248.274 73.16 248.324 73.36 248.324 73.6V74.35C248.324 74.57 248.214 74.73 247.994 74.83C247.774 74.93 247.534 74.96 247.274 74.92L246.104 74.68C245.464 74.52 244.914 74.24 244.454 73.84C243.994 73.42 243.644 72.86 243.404 72.16C243.184 71.44 243.074 70.58 243.074 69.58V65.56C243.074 65.36 243.134 65.2 243.254 65.08C243.374 64.94 243.544 64.87 243.764 64.87H249.314C250.814 64.87 252.064 65.17 253.064 65.77C254.064 66.35 254.824 67.2 255.344 68.32C255.864 69.42 256.144 70.75 256.184 72.31C256.204 72.61 256.214 72.99 256.214 73.45C256.214 73.89 256.204 74.26 256.184 74.56C256.144 76.1 255.864 77.43 255.344 78.55C254.824 79.67 254.064 80.53 253.064 81.13C252.064 81.71 250.814 82 249.314 82H244.124C243.924 82 243.754 81.94 243.614 81.82C243.494 81.68 243.434 81.51 243.434 81.31V80.23C243.434 80.03 243.494 79.87 243.614 79.75C243.754 79.61 243.924 79.54 244.124 79.54H249.164C250.544 79.54 251.604 79.1 252.344 78.22C253.104 77.32 253.524 76.07 253.604 74.47C253.624 74.17 253.634 73.83 253.634 73.45C253.634 73.05 253.624 72.7 253.604 72.4C253.564 70.8 253.154 69.56 252.374 68.68C251.614 67.78 250.544 67.33 249.164 67.33H245.504ZM267.507 67.33H260.217C259.997 67.33 259.827 67.27 259.707 67.15C259.587 67.01 259.527 66.84 259.527 66.64V65.56C259.527 65.36 259.587 65.2 259.707 65.08C259.827 64.94 259.997 64.87 260.217 64.87H267.837C269.077 64.87 270.177 65.16 271.137 65.74C272.117 66.32 272.877 67.16 273.417 68.26C273.977 69.34 274.257 70.65 274.257 72.19V81.31C274.257 81.51 274.187 81.68 274.047 81.82C273.927 81.94 273.767 82 273.567 82H265.827C265.627 82 265.457 81.94 265.317 81.82C265.197 81.68 265.137 81.51 265.137 81.31V80.29C265.137 80.09 265.197 79.93 265.317 79.81C265.457 79.67 265.627 79.6 265.827 79.6H271.527V72.37C271.527 71.35 271.347 70.46 270.987 69.7C270.647 68.94 270.167 68.36 269.547 67.96C268.947 67.54 268.267 67.33 267.507 67.33ZM259.917 82C259.737 82 259.587 81.93 259.467 81.79C259.347 81.65 259.297 81.48 259.317 81.28L261.867 66.58C261.907 66.38 261.997 66.23 262.137 66.13C262.277 66.01 262.447 65.97 262.647 66.01L263.847 66.07C264.047 66.09 264.207 66.18 264.327 66.34C264.447 66.48 264.477 66.65 264.417 66.85L262.047 81.28C262.027 81.48 261.937 81.65 261.777 81.79C261.637 81.93 261.467 82 261.267 82H259.917ZM29.3691 122C29.1691 122 28.9991 121.94 28.8591 121.82C28.7391 121.68 28.6791 121.51 28.6791 121.31V105.56C28.6791 105.36 28.7391 105.2 28.8591 105.08C28.9991 104.94 29.1691 104.87 29.3691 104.87H35.0991C36.8191 104.87 38.2391 105.15 39.3591 105.71C40.4791 106.25 41.3091 107.06 41.8491 108.14C42.4091 109.22 42.6891 110.57 42.6891 112.19V121.31C42.6891 121.51 42.6291 121.68 42.5091 121.82C42.3891 121.94 42.2191 122 41.9991 122H29.3691ZM31.2591 119.6H40.0191V112.34C40.0191 110.74 39.6191 109.5 38.8191 108.62C38.0191 107.72 36.7291 107.27 34.9491 107.27H31.2591V119.6ZM47.6162 115.04C47.4162 115.04 47.2462 114.98 47.1062 114.86C46.9862 114.72 46.9262 114.55 46.9262 114.35V105.56C46.9262 105.36 46.9862 105.2 47.1062 105.08C47.2462 104.94 47.4162 104.87 47.6162 104.87H49.0262C49.2462 104.87 49.4162 104.94 49.5362 105.08C49.6562 105.2 49.7162 105.36 49.7162 105.56V114.35C49.7162 114.55 49.6562 114.72 49.5362 114.86C49.4162 114.98 49.2462 115.04 49.0262 115.04H47.6162ZM61.7574 122C61.3174 122 61.0974 121.78 61.0974 121.34V110.63C61.0974 109.45 61.2374 108.53 61.5174 107.87C61.7974 107.21 62.1474 106.88 62.5674 106.88H65.5074C65.0074 106.88 64.5974 107.26 64.2774 108.02C63.9774 108.78 63.8274 109.72 63.8274 110.84V121.34C63.8274 121.54 63.7574 121.7 63.6174 121.82C63.4774 121.94 63.3074 122 63.1074 122H61.7574ZM53.6574 107.27C53.4574 107.27 53.2874 107.21 53.1474 107.09C53.0274 106.95 52.9674 106.78 52.9674 106.58V105.56C52.9674 105.36 53.0274 105.2 53.1474 105.08C53.2874 104.94 53.4574 104.87 53.6574 104.87H66.5274C66.7274 104.87 66.8874 104.94 67.0074 105.08C67.1474 105.2 67.2174 105.36 67.2174 105.56V106.58C67.2174 106.78 67.1474 106.95 67.0074 107.09C66.8874 107.21 66.7274 107.27 66.5274 107.27H53.6574ZM71.5566 122C71.3566 122 71.1866 121.94 71.0466 121.82C70.9266 121.68 70.8666 121.51 70.8666 121.31V105.56C70.8666 105.36 70.9266 105.2 71.0466 105.08C71.1866 104.94 71.3566 104.87 71.5566 104.87H77.3766C79.1166 104.87 80.5466 105.15 81.6666 105.71C82.8066 106.25 83.6566 107.07 84.2166 108.17C84.7766 109.25 85.0566 110.61 85.0566 112.25V121.31C85.0566 121.51 84.9866 121.68 84.8466 121.82C84.7266 121.94 84.5666 122 84.3666 122H83.0166C82.7966 122 82.6266 121.94 82.5066 121.82C82.3866 121.68 82.3266 121.51 82.3266 121.31V112.34C82.3266 110.74 81.9266 109.5 81.1266 108.62C80.3266 107.72 79.0266 107.27 77.2266 107.27H73.5966V121.31C73.5966 121.51 73.5366 121.68 73.4166 121.82C73.2966 121.94 73.1266 122 72.9066 122H71.5566ZM97.543 122C97.343 122 97.173 121.94 97.033 121.82C96.913 121.68 96.853 121.51 96.853 121.31V105.56C96.853 105.36 96.913 105.2 97.033 105.08C97.173 104.94 97.343 104.87 97.543 104.87H103.273C104.993 104.87 106.413 105.15 107.533 105.71C108.653 106.25 109.483 107.06 110.023 108.14C110.583 109.22 110.863 110.57 110.863 112.19V121.31C110.863 121.51 110.803 121.68 110.683 121.82C110.563 121.94 110.393 122 110.173 122H97.543ZM99.433 119.6H108.193V112.34C108.193 110.74 107.793 109.5 106.993 108.62C106.193 107.72 104.903 107.27 103.123 107.27H99.433V119.6ZM115.79 115.04C115.59 115.04 115.42 114.98 115.28 114.86C115.16 114.72 115.1 114.55 115.1 114.35V105.56C115.1 105.36 115.16 105.2 115.28 105.08C115.42 104.94 115.59 104.87 115.79 104.87H117.2C117.42 104.87 117.59 104.94 117.71 105.08C117.83 105.2 117.89 105.36 117.89 105.56V114.35C117.89 114.55 117.83 114.72 117.71 114.86C117.59 114.98 117.42 115.04 117.2 115.04H115.79ZM124.771 107.33V109.67C124.791 110.39 124.881 110.99 125.041 111.47C125.201 111.95 125.511 112.25 125.971 112.37L127.081 112.67C127.241 112.71 127.361 112.82 127.441 113C127.541 113.16 127.591 113.36 127.591 113.6V114.35C127.591 114.57 127.481 114.73 127.261 114.83C127.041 114.93 126.801 114.96 126.541 114.92L125.371 114.68C124.731 114.52 124.181 114.24 123.721 113.84C123.261 113.42 122.911 112.86 122.671 112.16C122.451 111.44 122.341 110.58 122.341 109.58V105.56C122.341 105.36 122.401 105.2 122.521 105.08C122.641 104.94 122.811 104.87 123.031 104.87H128.581C130.081 104.87 131.331 105.17 132.331 105.77C133.331 106.35 134.091 107.2 134.611 108.32C135.131 109.42 135.411 110.75 135.451 112.31C135.471 112.61 135.481 112.99 135.481 113.45C135.481 113.89 135.471 114.26 135.451 114.56C135.411 116.1 135.131 117.43 134.611 118.55C134.091 119.67 133.331 120.53 132.331 121.13C131.331 121.71 130.081 122 128.581 122H123.391C123.191 122 123.021 121.94 122.881 121.82C122.761 121.68 122.701 121.51 122.701 121.31V120.23C122.701 120.03 122.761 119.87 122.881 119.75C123.021 119.61 123.191 119.54 123.391 119.54H128.431C129.811 119.54 130.871 119.1 131.611 118.22C132.371 117.32 132.791 116.07 132.871 114.47C132.891 114.17 132.901 113.83 132.901 113.45C132.901 113.05 132.891 112.7 132.871 112.4C132.831 110.8 132.421 109.56 131.641 108.68C130.881 107.78 129.811 107.33 128.431 107.33H124.771ZM140.111 122C139.911 122 139.741 121.94 139.601 121.82C139.481 121.68 139.421 121.51 139.421 121.31V105.56C139.421 105.36 139.481 105.2 139.601 105.08C139.741 104.94 139.911 104.87 140.111 104.87H141.521C141.741 104.87 141.911 104.94 142.031 105.08C142.151 105.2 142.211 105.36 142.211 105.56V121.31C142.211 121.51 142.151 121.68 142.031 121.82C141.911 121.94 141.741 122 141.521 122H140.111ZM154.693 122C154.493 122 154.333 121.94 154.213 121.82C154.113 121.68 154.043 121.51 154.003 121.31L152.173 112.1C151.973 111.04 151.733 110.16 151.453 109.46C151.193 108.74 150.833 108.2 150.373 107.84C149.933 107.46 149.323 107.27 148.543 107.27H147.463C147.263 107.27 147.093 107.21 146.953 107.09C146.833 106.95 146.773 106.78 146.773 106.58V105.5C146.773 105.3 146.833 105.14 146.953 105.02C147.093 104.88 147.263 104.81 147.463 104.81H148.573C149.913 104.81 150.993 105.08 151.813 105.62C152.633 106.14 153.283 106.93 153.763 107.99C154.263 109.05 154.673 110.37 154.993 111.95L156.793 121.31C156.833 121.51 156.783 121.68 156.643 121.82C156.503 121.94 156.333 122 156.133 122H154.693ZM150.823 120.47C150.083 120.97 149.383 121.36 148.723 121.64C148.083 121.9 147.413 122.1 146.713 122.24C146.513 122.26 146.343 122.24 146.203 122.18C146.063 122.12 145.993 121.99 145.993 121.79V120.29C145.993 119.95 146.203 119.7 146.623 119.54C146.763 119.48 147.023 119.39 147.403 119.27C147.783 119.15 148.193 119 148.633 118.82C149.073 118.62 149.453 118.42 149.773 118.22C150.273 117.9 150.763 117.49 151.243 116.99C151.723 116.47 152.123 115.94 152.443 115.4C152.783 114.84 152.953 114.35 152.953 113.93L154.693 113.72C154.673 114.58 154.483 115.45 154.123 116.33C153.763 117.21 153.293 118.01 152.713 118.73C152.133 119.45 151.503 120.03 150.823 120.47ZM160.912 122C160.712 122 160.542 121.94 160.402 121.82C160.282 121.68 160.222 121.51 160.222 121.31V105.56C160.222 105.36 160.282 105.2 160.402 105.08C160.542 104.94 160.712 104.87 160.912 104.87H162.322C162.542 104.87 162.712 104.94 162.832 105.08C162.952 105.2 163.012 105.36 163.012 105.56V121.31C163.012 121.51 162.952 121.68 162.832 121.82C162.712 121.94 162.542 122 162.322 122H160.912ZM175.678 122C175.478 122 175.308 121.94 175.168 121.82C175.048 121.68 174.988 121.51 174.988 121.31V105.56C174.988 105.36 175.048 105.2 175.168 105.08C175.308 104.94 175.478 104.87 175.678 104.87H181.408C183.128 104.87 184.548 105.15 185.668 105.71C186.788 106.25 187.618 107.06 188.158 108.14C188.718 109.22 188.998 110.57 188.998 112.19V121.31C188.998 121.51 188.938 121.68 188.818 121.82C188.698 121.94 188.528 122 188.308 122H175.678ZM177.568 119.6H186.328V112.34C186.328 110.74 185.928 109.5 185.128 108.62C184.328 107.72 183.038 107.27 181.258 107.27H177.568V119.6ZM193.925 115.04C193.725 115.04 193.555 114.98 193.415 114.86C193.295 114.72 193.235 114.55 193.235 114.35V105.56C193.235 105.36 193.295 105.2 193.415 105.08C193.555 104.94 193.725 104.87 193.925 104.87H195.335C195.555 104.87 195.725 104.94 195.845 105.08C195.965 105.2 196.025 105.36 196.025 105.56V114.35C196.025 114.55 195.965 114.72 195.845 114.86C195.725 114.98 195.555 115.04 195.335 115.04H193.925ZM207.976 107.33H200.686C200.466 107.33 200.296 107.27 200.176 107.15C200.056 107.01 199.996 106.84 199.996 106.64V105.56C199.996 105.36 200.056 105.2 200.176 105.08C200.296 104.94 200.466 104.87 200.686 104.87H208.306C209.546 104.87 210.646 105.16 211.606 105.74C212.586 106.32 213.346 107.16 213.886 108.26C214.446 109.34 214.726 110.65 214.726 112.19V121.31C214.726 121.51 214.656 121.68 214.516 121.82C214.396 121.94 214.236 122 214.036 122H206.296C206.096 122 205.926 121.94 205.786 121.82C205.666 121.68 205.606 121.51 205.606 121.31V120.29C205.606 120.09 205.666 119.93 205.786 119.81C205.926 119.67 206.096 119.6 206.296 119.6H211.996V112.37C211.996 111.35 211.816 110.46 211.456 109.7C211.116 108.94 210.636 108.36 210.016 107.96C209.416 107.54 208.736 107.33 207.976 107.33ZM200.386 122C200.206 122 200.056 121.93 199.936 121.79C199.816 121.65 199.766 121.48 199.786 121.28L202.336 106.58C202.376 106.38 202.466 106.23 202.606 106.13C202.746 106.01 202.916 105.97 203.116 106.01L204.316 106.07C204.516 106.09 204.676 106.18 204.796 106.34C204.916 106.48 204.946 106.65 204.886 106.85L202.516 121.28C202.496 121.48 202.406 121.65 202.246 121.79C202.106 121.93 201.936 122 201.736 122H200.386ZM226.221 124.25C226.061 124.25 225.931 124.19 225.831 124.07C225.751 123.95 225.721 123.8 225.741 123.62L226.431 119.33C226.471 119.09 226.551 118.89 226.671 118.73C226.811 118.55 227.011 118.46 227.271 118.46H229.281C229.421 118.46 229.531 118.51 229.611 118.61C229.711 118.71 229.761 118.83 229.761 118.97C229.761 119.13 229.721 119.29 229.641 119.45L228.081 123.56C228.001 123.76 227.891 123.92 227.751 124.04C227.631 124.18 227.451 124.25 227.211 124.25H226.221ZM235.192 107.27C234.992 107.27 234.822 107.21 234.682 107.09C234.562 106.95 234.502 106.78 234.502 106.58V105.56C234.502 105.36 234.562 105.2 234.682 105.08C234.822 104.94 234.992 104.87 235.192 104.87H241.702C243.422 104.87 244.842 105.15 245.962 105.71C247.102 106.25 247.952 107.07 248.512 108.17C249.072 109.25 249.352 110.59 249.352 112.19V121.31C249.352 121.51 249.282 121.68 249.142 121.82C249.022 121.94 248.862 122 248.662 122H247.312C247.092 122 246.922 121.94 246.802 121.82C246.682 121.68 246.622 121.51 246.622 121.31V112.34C246.622 110.74 246.212 109.5 245.392 108.62C244.592 107.72 243.302 107.27 241.522 107.27H235.192ZM237.892 105.8H238.642C238.942 105.8 239.162 105.88 239.302 106.04C239.462 106.18 239.532 106.36 239.512 106.58C239.352 107.42 239.212 108.18 239.092 108.86C238.992 109.54 238.922 110.22 238.882 110.9C238.842 111.56 238.822 112.31 238.822 113.15L238.882 121.31C238.882 121.51 238.822 121.68 238.702 121.82C238.582 121.94 238.422 122 238.222 122L233.962 121.94C233.762 121.94 233.592 121.88 233.452 121.76C233.332 121.64 233.272 121.47 233.272 121.25V120.29C233.272 120.09 233.332 119.93 233.452 119.81C233.592 119.67 233.762 119.6 233.962 119.6L236.272 119.63V113.27C236.272 112.45 236.282 111.7 236.302 111.02C236.322 110.32 236.382 109.62 236.482 108.92C236.582 108.22 236.742 107.43 236.962 106.55C237.022 106.33 237.112 106.15 237.232 106.01C237.372 105.87 237.592 105.8 237.892 105.8ZM254.486 122C254.286 122 254.116 121.94 253.976 121.82C253.856 121.68 253.796 121.51 253.796 121.31V105.56C253.796 105.36 253.856 105.2 253.976 105.08C254.116 104.94 254.286 104.87 254.486 104.87H255.896C256.116 104.87 256.286 104.94 256.406 105.08C256.526 105.2 256.586 105.36 256.586 105.56V121.31C256.586 121.51 256.526 121.68 256.406 121.82C256.286 121.94 256.116 122 255.896 122H254.486ZM261.268 122C261.068 122 260.898 121.94 260.758 121.82C260.638 121.68 260.578 121.51 260.578 121.31V120.26C260.578 120.06 260.638 119.9 260.758 119.78C260.898 119.64 261.068 119.57 261.268 119.57H269.398L260.008 106.04C259.948 105.92 259.898 105.82 259.858 105.74C259.818 105.64 259.798 105.55 259.798 105.47C259.798 105.31 259.858 105.17 259.978 105.05C260.118 104.93 260.268 104.87 260.428 104.87H261.868C262.068 104.87 262.228 104.93 262.348 105.05C262.488 105.15 262.598 105.26 262.678 105.38L272.458 119.39C272.558 119.53 272.638 119.68 272.698 119.84C272.778 119.98 272.818 120.14 272.818 120.32V121.31C272.818 121.51 272.748 121.68 272.608 121.82C272.488 121.94 272.328 122 272.128 122H261.268ZM268.858 115.16L267.538 113.21C268.578 112.83 269.328 112.21 269.788 111.35C270.268 110.47 270.508 109.4 270.508 108.14V105.56C270.508 105.36 270.568 105.2 270.688 105.08C270.828 104.94 270.998 104.87 271.198 104.87H272.428C272.648 104.87 272.818 104.94 272.938 105.08C273.058 105.2 273.118 105.36 273.118 105.56V108.5C273.118 110.12 272.758 111.5 272.038 112.64C271.318 113.78 270.258 114.62 268.858 115.16ZM284.705 107.33H277.415C277.195 107.33 277.025 107.27 276.905 107.15C276.785 107.01 276.725 106.84 276.725 106.64V105.56C276.725 105.36 276.785 105.2 276.905 105.08C277.025 104.94 277.195 104.87 277.415 104.87H285.035C286.275 104.87 287.375 105.16 288.335 105.74C289.315 106.32 290.075 107.16 290.615 108.26C291.175 109.34 291.455 110.65 291.455 112.19V121.31C291.455 121.51 291.385 121.68 291.245 121.82C291.125 121.94 290.965 122 290.765 122H283.025C282.825 122 282.655 121.94 282.515 121.82C282.395 121.68 282.335 121.51 282.335 121.31V120.29C282.335 120.09 282.395 119.93 282.515 119.81C282.655 119.67 282.825 119.6 283.025 119.6H288.725V112.37C288.725 111.35 288.545 110.46 288.185 109.7C287.845 108.94 287.365 108.36 286.745 107.96C286.145 107.54 285.465 107.33 284.705 107.33ZM277.115 122C276.935 122 276.785 121.93 276.665 121.79C276.545 121.65 276.495 121.48 276.515 121.28L279.065 106.58C279.105 106.38 279.195 106.23 279.335 106.13C279.475 106.01 279.645 105.97 279.845 106.01L281.045 106.07C281.245 106.09 281.405 106.18 281.525 106.34C281.645 106.48 281.675 106.65 281.615 106.85L279.245 121.28C279.225 121.48 279.135 121.65 278.975 121.79C278.835 121.93 278.665 122 278.465 122H277.115ZM296.586 122C296.386 122 296.216 121.94 296.076 121.82C295.956 121.68 295.896 121.51 295.896 121.31V105.56C295.896 105.36 295.956 105.2 296.076 105.08C296.216 104.94 296.386 104.87 296.586 104.87H297.996C298.216 104.87 298.386 104.94 298.506 105.08C298.626 105.2 298.686 105.36 298.686 105.56V121.31C298.686 121.51 298.626 121.68 298.506 121.82C298.386 121.94 298.216 122 297.996 122H296.586ZM303.998 122C303.798 122 303.628 121.94 303.488 121.82C303.368 121.68 303.308 121.51 303.308 121.31V105.56C303.308 105.36 303.368 105.2 303.488 105.08C303.628 104.94 303.798 104.87 303.998 104.87H309.818C311.558 104.87 312.988 105.15 314.108 105.71C315.248 106.25 316.098 107.07 316.658 108.17C317.218 109.25 317.498 110.61 317.498 112.25V121.31C317.498 121.51 317.428 121.68 317.288 121.82C317.168 121.94 317.008 122 316.808 122H315.458C315.238 122 315.068 121.94 314.948 121.82C314.828 121.68 314.768 121.51 314.768 121.31V112.34C314.768 110.74 314.368 109.5 313.568 108.62C312.768 107.72 311.468 107.27 309.668 107.27H306.038V121.31C306.038 121.51 305.978 121.68 305.858 121.82C305.738 121.94 305.568 122 305.348 122H303.998Z" fill="black"/>
<defs>
<filter id="filter0_d_124_138" x="0" y="0" width="378" height="148" filterUnits="userSpaceOnUse" color-interpolation-filters="sRGB">
<feFlood flood-opacity="0" result="BackgroundImageFix"/>
<feColorMatrix in="SourceAlpha" type="matrix" values="0 0 0 0 0 0 0 0 0 0 0 0 0 0 0 0 0 0 127 0" result="hardAlpha"/>
<feOffset dx="4" dy="4"/>
<feGaussianBlur stdDeviation="2"/>
<feComposite in2="hardAlpha" operator="out"/>
<feColorMatrix type="matrix" values="0 0 0 0 0 0 0 0 0 0 0 0 0 0 0 0 0 0 0.25 0"/>
<feBlend mode="normal" in2="BackgroundImageFix" result="effect1_dropShadow_124_138"/>
<feBlend mode="normal" in="SourceGraphic" in2="effect1_dropShadow_124_138" result="shape"/>
</filter>
</defs>
</svg>
