<svg width="378" height="118" viewBox="0 0 378 118" fill="none" xmlns="http://www.w3.org/2000/svg">
<g filter="url(#filter0_d_124_143)">
<rect width="370" height="110" rx="20" fill="#FDF4D4"/>
</g>
<path d="M49.5937 38.04C49.3937 38.04 49.2237 37.98 49.0837 37.86C48.9637 37.72 48.9037 37.55 48.9037 37.35V28.56C48.9037 28.36 48.9637 28.2 49.0837 28.08C49.2237 27.94 49.3937 27.87 49.5937 27.87H51.0037C51.2237 27.87 51.3937 27.94 51.5137 28.08C51.6337 28.2 51.6937 28.36 51.6937 28.56V37.35C51.6937 37.55 51.6337 37.72 51.5137 37.86C51.3937 37.98 51.2237 38.04 51.0037 38.04H49.5937ZM55.995 46.65C55.795 46.73 55.605 46.71 55.425 46.59C55.245 46.49 55.155 46.34 55.155 46.14V45.12C55.155 44.94 55.195 44.77 55.275 44.61C55.355 44.45 55.485 44.35 55.665 44.31L61.995 42.21C63.135 41.83 64.015 41.34 64.635 40.74C65.255 40.14 65.685 39.44 65.925 38.64C66.185 37.84 66.315 36.97 66.315 36.03V28.56C66.315 28.36 66.375 28.2 66.495 28.08C66.635 27.94 66.805 27.87 67.005 27.87H68.355C68.555 27.87 68.715 27.94 68.835 28.08C68.975 28.2 69.045 28.36 69.045 28.56V36.87C69.045 38.03 68.775 39.13 68.235 40.17C67.715 41.19 66.975 42.09 66.015 42.87C65.055 43.63 63.915 44.21 62.595 44.61L55.995 46.65ZM59.925 44.28L55.695 29.07C55.655 28.91 55.615 28.79 55.575 28.71C55.555 28.63 55.545 28.55 55.545 28.47C55.545 28.31 55.605 28.17 55.725 28.05C55.845 27.93 55.985 27.87 56.145 27.87H57.615C57.995 27.87 58.225 28.02 58.305 28.32L62.475 43.59L59.925 44.28ZM73.5487 45C73.3487 45 73.1787 44.94 73.0387 44.82C72.9187 44.68 72.8587 44.51 72.8587 44.31V43.26C72.8587 43.06 72.9187 42.9 73.0387 42.78C73.1787 42.64 73.3487 42.57 73.5487 42.57H81.6787L72.2887 29.04C72.2287 28.92 72.1787 28.82 72.1387 28.74C72.0987 28.64 72.0787 28.55 72.0787 28.47C72.0787 28.31 72.1387 28.17 72.2587 28.05C72.3987 27.93 72.5487 27.87 72.7087 27.87H74.1487C74.3487 27.87 74.5087 27.93 74.6287 28.05C74.7687 28.15 74.8787 28.26 74.9587 28.38L84.7387 42.39C84.8387 42.53 84.9187 42.68 84.9787 42.84C85.0587 42.98 85.0987 43.14 85.0987 43.32V44.31C85.0987 44.51 85.0287 44.68 84.8887 44.82C84.7687 44.94 84.6087 45 84.4087 45H73.5487ZM81.1387 38.16L79.8187 36.21C80.8587 35.83 81.6087 35.21 82.0687 34.35C82.5487 33.47 82.7887 32.4 82.7887 31.14V28.56C82.7887 28.36 82.8487 28.2 82.9687 28.08C83.1087 27.94 83.2787 27.87 83.4787 27.87H84.7087C84.9287 27.87 85.0987 27.94 85.2187 28.08C85.3387 28.2 85.3987 28.36 85.3987 28.56V31.5C85.3987 33.12 85.0387 34.5 84.3187 35.64C83.5987 36.78 82.5387 37.62 81.1387 38.16ZM96.9848 30.33H89.6948C89.4748 30.33 89.3048 30.27 89.1848 30.15C89.0648 30.01 89.0048 29.84 89.0048 29.64V28.56C89.0048 28.36 89.0648 28.2 89.1848 28.08C89.3048 27.94 89.4748 27.87 89.6948 27.87H97.3148C98.5548 27.87 99.6548 28.16 100.615 28.74C101.595 29.32 102.355 30.16 102.895 31.26C103.455 32.34 103.735 33.65 103.735 35.19V44.31C103.735 44.51 103.665 44.68 103.525 44.82C103.405 44.94 103.245 45 103.045 45H95.3048C95.1048 45 94.9348 44.94 94.7948 44.82C94.6748 44.68 94.6148 44.51 94.6148 44.31V43.29C94.6148 43.09 94.6748 42.93 94.7948 42.81C94.9348 42.67 95.1048 42.6 95.3048 42.6H101.005V35.37C101.005 34.35 100.825 33.46 100.465 32.7C100.125 31.94 99.6448 31.36 99.0248 30.96C98.4248 30.54 97.7448 30.33 96.9848 30.33ZM89.3948 45C89.2148 45 89.0648 44.93 88.9448 44.79C88.8248 44.65 88.7748 44.48 88.7948 44.28L91.3448 29.58C91.3848 29.38 91.4748 29.23 91.6148 29.13C91.7548 29.01 91.9248 28.97 92.1248 29.01L93.3248 29.07C93.5248 29.09 93.6848 29.18 93.8048 29.34C93.9248 29.48 93.9548 29.65 93.8948 29.85L91.5248 44.28C91.5048 44.48 91.4148 44.65 91.2548 44.79C91.1148 44.93 90.9448 45 90.7448 45H89.3948ZM119.846 45C119.626 45 119.456 44.94 119.336 44.82C119.216 44.7 119.106 44.6 119.006 44.52L107.996 29.04C107.856 28.82 107.786 28.63 107.786 28.47C107.786 28.31 107.846 28.17 107.966 28.05C108.106 27.93 108.256 27.87 108.416 27.87H109.796C110.036 27.87 110.216 27.93 110.336 28.05C110.476 28.17 110.586 28.28 110.666 28.38L121.706 43.83C121.786 43.97 121.836 44.08 121.856 44.16C121.896 44.24 121.916 44.32 121.916 44.4C121.916 44.56 121.856 44.7 121.736 44.82C121.616 44.94 121.466 45 121.286 45H119.846ZM108.146 45C107.946 45 107.776 44.94 107.636 44.82C107.516 44.68 107.456 44.51 107.456 44.31V39.81C107.456 38.89 107.546 38.02 107.726 37.2C107.906 36.36 108.256 35.57 108.776 34.83C109.316 34.07 110.116 33.36 111.176 32.7L112.556 34.71C111.836 35.17 111.296 35.7 110.936 36.3C110.576 36.88 110.336 37.49 110.216 38.13C110.096 38.75 110.036 39.35 110.036 39.93V44.31C110.036 44.51 109.966 44.68 109.826 44.82C109.706 44.94 109.546 45 109.346 45H108.146ZM117.446 39.51L116.216 37.44C117.196 36.98 117.886 36.5 118.286 36C118.706 35.5 118.956 34.98 119.036 34.44C119.116 33.88 119.156 33.3 119.156 32.7V28.56C119.156 28.36 119.216 28.2 119.336 28.08C119.476 27.94 119.646 27.87 119.846 27.87H121.106C121.306 27.87 121.466 27.94 121.586 28.08C121.726 28.2 121.796 28.36 121.796 28.56V32.85C121.796 33.69 121.696 34.5 121.496 35.28C121.296 36.06 120.886 36.8 120.266 37.5C119.666 38.2 118.726 38.87 117.446 39.51ZM137.903 45C137.703 45 137.533 44.94 137.393 44.82C137.273 44.68 137.213 44.51 137.213 44.31V35.34C137.213 33.74 136.813 32.5 136.013 31.62C135.213 30.72 133.923 30.27 132.143 30.27H126.503C126.303 30.27 126.133 30.21 125.993 30.09C125.873 29.95 125.813 29.78 125.813 29.58V28.56C125.813 28.36 125.873 28.2 125.993 28.08C126.133 27.94 126.303 27.87 126.503 27.87H132.293C134.893 27.87 136.813 28.5 138.053 29.76C139.313 31.02 139.943 32.85 139.943 35.25V44.31C139.943 44.51 139.873 44.68 139.733 44.82C139.613 44.94 139.453 45 139.253 45H137.903ZM126.503 45C126.303 45 126.133 44.94 125.993 44.82C125.873 44.68 125.813 44.51 125.813 44.31V34.29C125.813 34.09 125.873 33.93 125.993 33.81C126.133 33.67 126.303 33.6 126.503 33.6H127.853C128.073 33.6 128.243 33.67 128.363 33.81C128.483 33.93 128.543 34.09 128.543 34.29V44.31C128.543 44.51 128.483 44.68 128.363 44.82C128.243 44.94 128.073 45 127.853 45H126.503ZM152.941 30.27C152.741 30.27 152.571 30.21 152.431 30.09C152.311 29.95 152.251 29.78 152.251 29.58V28.56C152.251 28.36 152.311 28.2 152.431 28.08C152.571 27.94 152.741 27.87 152.941 27.87H159.451C161.171 27.87 162.591 28.15 163.711 28.71C164.851 29.25 165.701 30.07 166.261 31.17C166.821 32.25 167.101 33.59 167.101 35.19V44.31C167.101 44.51 167.031 44.68 166.891 44.82C166.771 44.94 166.611 45 166.411 45H165.061C164.841 45 164.671 44.94 164.551 44.82C164.431 44.68 164.371 44.51 164.371 44.31V35.34C164.371 33.74 163.961 32.5 163.141 31.62C162.341 30.72 161.051 30.27 159.271 30.27H152.941ZM155.641 28.8H156.391C156.691 28.8 156.911 28.88 157.051 29.04C157.211 29.18 157.281 29.36 157.261 29.58C157.101 30.42 156.961 31.18 156.841 31.86C156.741 32.54 156.671 33.22 156.631 33.9C156.591 34.56 156.571 35.31 156.571 36.15L156.631 44.31C156.631 44.51 156.571 44.68 156.451 44.82C156.331 44.94 156.171 45 155.971 45L151.711 44.94C151.511 44.94 151.341 44.88 151.201 44.76C151.081 44.64 151.021 44.47 151.021 44.25V43.29C151.021 43.09 151.081 42.93 151.201 42.81C151.341 42.67 151.511 42.6 151.711 42.6L154.021 42.63V36.27C154.021 35.45 154.031 34.7 154.051 34.02C154.071 33.32 154.131 32.62 154.231 31.92C154.331 31.22 154.491 30.43 154.711 29.55C154.771 29.33 154.861 29.15 154.981 29.01C155.121 28.87 155.341 28.8 155.641 28.8ZM183.215 45C182.995 45 182.825 44.94 182.705 44.82C182.585 44.7 182.475 44.6 182.375 44.52L171.365 29.04C171.225 28.82 171.155 28.63 171.155 28.47C171.155 28.31 171.215 28.17 171.335 28.05C171.475 27.93 171.625 27.87 171.785 27.87H173.165C173.405 27.87 173.585 27.93 173.705 28.05C173.845 28.17 173.955 28.28 174.035 28.38L185.075 43.83C185.155 43.97 185.205 44.08 185.225 44.16C185.265 44.24 185.285 44.32 185.285 44.4C185.285 44.56 185.225 44.7 185.105 44.82C184.985 44.94 184.835 45 184.655 45H183.215ZM171.515 45C171.315 45 171.145 44.94 171.005 44.82C170.885 44.68 170.825 44.51 170.825 44.31V39.81C170.825 38.89 170.915 38.02 171.095 37.2C171.275 36.36 171.625 35.57 172.145 34.83C172.685 34.07 173.485 33.36 174.545 32.7L175.925 34.71C175.205 35.17 174.665 35.7 174.305 36.3C173.945 36.88 173.705 37.49 173.585 38.13C173.465 38.75 173.405 39.35 173.405 39.93V44.31C173.405 44.51 173.335 44.68 173.195 44.82C173.075 44.94 172.915 45 172.715 45H171.515ZM180.815 39.51L179.585 37.44C180.565 36.98 181.255 36.5 181.655 36C182.075 35.5 182.325 34.98 182.405 34.44C182.485 33.88 182.525 33.3 182.525 32.7V28.56C182.525 28.36 182.585 28.2 182.705 28.08C182.845 27.94 183.015 27.87 183.215 27.87H184.475C184.675 27.87 184.835 27.94 184.955 28.08C185.095 28.2 185.165 28.36 185.165 28.56V32.85C185.165 33.69 185.065 34.5 184.865 35.28C184.665 36.06 184.255 36.8 183.635 37.5C183.035 38.2 182.095 38.87 180.815 39.51ZM205.493 45C205.293 45 205.123 44.94 204.983 44.82C204.863 44.68 204.803 44.51 204.803 44.31V35.34C204.803 33.74 204.403 32.5 203.603 31.62C202.803 30.72 201.513 30.27 199.733 30.27H195.803C195.603 30.27 195.433 30.21 195.293 30.09C195.173 29.95 195.113 29.78 195.113 29.58V28.56C195.113 28.36 195.173 28.2 195.293 28.08C195.433 27.94 195.603 27.87 195.803 27.87H199.883C201.603 27.87 203.023 28.14 204.143 28.68C205.283 29.22 206.133 30.04 206.693 31.14C207.253 32.22 207.533 33.57 207.533 35.19V44.31C207.533 44.51 207.463 44.68 207.323 44.82C207.203 44.94 207.043 45 206.843 45H205.493ZM211.945 45C211.745 45 211.575 44.94 211.435 44.82C211.315 44.68 211.255 44.51 211.255 44.31V43.29C211.255 43.09 211.315 42.93 211.435 42.81C211.575 42.67 211.745 42.6 211.945 42.6H220.555V35.34C220.555 33.74 220.155 32.5 219.355 31.62C218.555 30.72 217.265 30.27 215.485 30.27H212.245C212.045 30.27 211.875 30.21 211.735 30.09C211.615 29.95 211.555 29.78 211.555 29.58V28.56C211.555 28.36 211.615 28.2 211.735 28.08C211.875 27.94 212.045 27.87 212.245 27.87H215.635C217.355 27.87 218.785 28.15 219.925 28.71C221.065 29.27 221.915 30.1 222.475 31.2C223.055 32.28 223.345 33.63 223.345 35.25V42.6H224.455C224.655 42.6 224.815 42.67 224.935 42.81C225.075 42.93 225.145 43.09 225.145 43.29V44.31C225.145 44.51 225.075 44.68 224.935 44.82C224.815 44.94 224.655 45 224.455 45H211.945ZM229.013 45C228.813 45 228.643 44.94 228.503 44.82C228.383 44.68 228.323 44.51 228.323 44.31V28.56C228.323 28.36 228.383 28.2 228.503 28.08C228.643 27.94 228.813 27.87 229.013 27.87H234.833C236.573 27.87 238.003 28.15 239.123 28.71C240.263 29.25 241.113 30.07 241.673 31.17C242.233 32.25 242.513 33.61 242.513 35.25V44.31C242.513 44.51 242.443 44.68 242.303 44.82C242.183 44.94 242.023 45 241.823 45H240.473C240.253 45 240.083 44.94 239.963 44.82C239.843 44.68 239.783 44.51 239.783 44.31V35.34C239.783 33.74 239.383 32.5 238.583 31.62C237.783 30.72 236.483 30.27 234.683 30.27H231.053V44.31C231.053 44.51 230.993 44.68 230.873 44.82C230.753 44.94 230.583 45 230.363 45H229.013ZM250.089 45.27C249.909 45.33 249.739 45.3 249.579 45.18C249.419 45.08 249.339 44.93 249.339 44.73V43.35C249.339 43.17 249.389 43.01 249.489 42.87C249.609 42.73 249.779 42.62 249.999 42.54L251.169 42.09C251.949 41.77 252.659 41.37 253.299 40.89C253.959 40.39 254.469 39.72 254.829 38.88C255.209 38.04 255.399 36.94 255.399 35.58C255.399 34.28 255.239 33.25 254.919 32.49C254.619 31.71 254.099 31.16 253.359 30.84C252.639 30.5 251.649 30.33 250.389 30.33H249.489C249.289 30.33 249.119 30.27 248.979 30.15C248.859 30.01 248.799 29.84 248.799 29.64V28.56C248.799 28.36 248.859 28.2 248.979 28.08C249.119 27.94 249.289 27.87 249.489 27.87H250.809C252.629 27.87 254.079 28.13 255.159 28.65C256.239 29.17 257.009 30.01 257.469 31.17C257.949 32.31 258.189 33.81 258.189 35.67C258.189 37.07 257.999 38.28 257.619 39.3C257.239 40.32 256.719 41.19 256.059 41.91C255.419 42.63 254.689 43.23 253.869 43.71C253.049 44.17 252.199 44.55 251.319 44.85L250.089 45.27ZM250.149 30.33L246.579 30.3C246.379 30.3 246.209 30.24 246.069 30.12C245.949 30 245.889 29.84 245.889 29.64V24.39C245.889 24.19 245.949 24.03 246.069 23.91C246.209 23.77 246.379 23.7 246.579 23.7H247.839C248.039 23.7 248.199 23.77 248.319 23.91C248.459 24.03 248.529 24.19 248.529 24.39V27.87H250.209L250.149 30.33ZM270.175 48.72C269.975 48.72 269.805 48.65 269.665 48.51C269.545 48.39 269.485 48.23 269.485 48.03V28.56C269.485 28.36 269.545 28.2 269.665 28.08C269.805 27.94 269.975 27.87 270.175 27.87H271.525C271.745 27.87 271.915 27.94 272.035 28.08C272.155 28.2 272.215 28.36 272.215 28.56V48.03C272.215 48.23 272.155 48.39 272.035 48.51C271.915 48.65 271.745 48.72 271.525 48.72H270.175ZM277.318 38.04C277.118 38.04 276.948 37.98 276.808 37.86C276.688 37.72 276.628 37.55 276.628 37.35V28.56C276.628 28.36 276.688 28.2 276.808 28.08C276.948 27.94 277.118 27.87 277.318 27.87H278.728C278.948 27.87 279.118 27.94 279.238 28.08C279.358 28.2 279.418 28.36 279.418 28.56V37.35C279.418 37.55 279.358 37.72 279.238 37.86C279.118 37.98 278.948 38.04 278.728 38.04H277.318ZM295.54 45C295.32 45 295.15 44.94 295.03 44.82C294.91 44.7 294.8 44.6 294.7 44.52L283.69 29.04C283.55 28.82 283.48 28.63 283.48 28.47C283.48 28.31 283.54 28.17 283.66 28.05C283.8 27.93 283.95 27.87 284.11 27.87H285.49C285.73 27.87 285.91 27.93 286.03 28.05C286.17 28.17 286.28 28.28 286.36 28.38L297.4 43.83C297.48 43.97 297.53 44.08 297.55 44.16C297.59 44.24 297.61 44.32 297.61 44.4C297.61 44.56 297.55 44.7 297.43 44.82C297.31 44.94 297.16 45 296.98 45H295.54ZM283.84 45C283.64 45 283.47 44.94 283.33 44.82C283.21 44.68 283.15 44.51 283.15 44.31V39.81C283.15 38.89 283.24 38.02 283.42 37.2C283.6 36.36 283.95 35.57 284.47 34.83C285.01 34.07 285.81 33.36 286.87 32.7L288.25 34.71C287.53 35.17 286.99 35.7 286.63 36.3C286.27 36.88 286.03 37.49 285.91 38.13C285.79 38.75 285.73 39.35 285.73 39.93V44.31C285.73 44.51 285.66 44.68 285.52 44.82C285.4 44.94 285.24 45 285.04 45H283.84ZM293.14 39.51L291.91 37.44C292.89 36.98 293.58 36.5 293.98 36C294.4 35.5 294.65 34.98 294.73 34.44C294.81 33.88 294.85 33.3 294.85 32.7V28.56C294.85 28.36 294.91 28.2 295.03 28.08C295.17 27.94 295.34 27.87 295.54 27.87H296.8C297 27.87 297.16 27.94 297.28 28.08C297.42 28.2 297.49 28.36 297.49 28.56V32.85C297.49 33.69 297.39 34.5 297.19 35.28C296.99 36.06 296.58 36.8 295.96 37.5C295.36 38.2 294.42 38.87 293.14 39.51ZM321.713 38.94C321.133 38.94 320.593 38.8 320.093 38.52C319.593 38.22 319.193 37.83 318.893 37.35C318.613 36.85 318.473 36.31 318.473 35.73C318.473 35.13 318.613 34.59 318.893 34.11C319.193 33.61 319.593 33.22 320.093 32.94C320.593 32.64 321.133 32.49 321.713 32.49C322.313 32.49 322.853 32.64 323.333 32.94C323.813 33.22 324.193 33.61 324.473 34.11C324.773 34.59 324.923 35.13 324.923 35.73C324.923 36.31 324.773 36.85 324.473 37.35C324.193 37.83 323.813 38.22 323.333 38.52C322.853 38.8 322.313 38.94 321.713 38.94ZM114.087 85C113.887 85 113.717 84.94 113.577 84.82C113.457 84.68 113.397 84.51 113.397 84.31V75.34C113.397 73.74 112.997 72.5 112.197 71.62C111.397 70.72 110.107 70.27 108.327 70.27H104.397C104.197 70.27 104.027 70.21 103.887 70.09C103.767 69.95 103.707 69.78 103.707 69.58V68.56C103.707 68.36 103.767 68.2 103.887 68.08C104.027 67.94 104.197 67.87 104.397 67.87H108.477C110.197 67.87 111.617 68.14 112.737 68.68C113.877 69.22 114.727 70.04 115.287 71.14C115.847 72.22 116.127 73.57 116.127 75.19V84.31C116.127 84.51 116.057 84.68 115.917 84.82C115.797 84.94 115.637 85 115.437 85H114.087ZM121.259 85C121.059 85 120.889 84.94 120.749 84.82C120.629 84.68 120.569 84.51 120.569 84.31V68.56C120.569 68.36 120.629 68.2 120.749 68.08C120.889 67.94 121.059 67.87 121.259 67.87H122.669C122.889 67.87 123.059 67.94 123.179 68.08C123.299 68.2 123.359 68.36 123.359 68.56V84.31C123.359 84.51 123.299 84.68 123.179 84.82C123.059 84.94 122.889 85 122.669 85H121.259ZM127.951 85C127.751 85 127.581 84.94 127.441 84.82C127.321 84.68 127.261 84.51 127.261 84.31V83.29C127.261 83.09 127.321 82.93 127.441 82.81C127.581 82.67 127.751 82.6 127.951 82.6H136.561V75.34C136.561 73.74 136.161 72.5 135.361 71.62C134.561 70.72 133.271 70.27 131.491 70.27H128.251C128.051 70.27 127.881 70.21 127.741 70.09C127.621 69.95 127.561 69.78 127.561 69.58V68.56C127.561 68.36 127.621 68.2 127.741 68.08C127.881 67.94 128.051 67.87 128.251 67.87H131.641C133.361 67.87 134.791 68.15 135.931 68.71C137.071 69.27 137.921 70.1 138.481 71.2C139.061 72.28 139.351 73.63 139.351 75.25V82.6H140.461C140.661 82.6 140.821 82.67 140.941 82.81C141.081 82.93 141.151 83.09 141.151 83.29V84.31C141.151 84.51 141.081 84.68 140.941 84.82C140.821 84.94 140.661 85 140.461 85H127.951ZM152.819 82.75C154.119 82.77 155.209 82.53 156.089 82.03C156.989 81.53 157.669 80.82 158.129 79.9C158.609 78.96 158.849 77.89 158.849 76.69V68.56C158.849 68.36 158.909 68.2 159.029 68.08C159.169 67.94 159.339 67.87 159.539 67.87H160.769C160.989 67.87 161.159 67.94 161.279 68.08C161.399 68.2 161.459 68.36 161.459 68.56V76.9C161.459 78.18 161.259 79.34 160.859 80.38C160.459 81.4 159.889 82.28 159.149 83.02C158.409 83.74 157.529 84.29 156.509 84.67C155.509 85.05 154.399 85.22 153.179 85.18H150.929C149.629 85.18 148.459 84.88 147.419 84.28C146.379 83.68 145.559 82.84 144.959 81.76C144.359 80.68 144.059 79.43 144.059 78.01V68.56C144.059 68.36 144.119 68.2 144.239 68.08C144.379 67.94 144.549 67.87 144.749 67.87H146.009C146.209 67.87 146.369 67.94 146.489 68.08C146.629 68.2 146.699 68.36 146.699 68.56L146.789 77.41C146.789 79.13 147.269 80.45 148.229 81.37C149.189 82.29 150.409 82.75 151.889 82.75H152.819ZM146.159 79.24L146.099 77.05C147.579 77.03 148.709 76.81 149.489 76.39C150.269 75.95 150.809 75.37 151.109 74.65C151.429 73.93 151.589 73.14 151.589 72.28V68.56C151.589 68.36 151.649 68.2 151.769 68.08C151.889 67.94 152.059 67.87 152.279 67.87H153.509C153.709 67.87 153.869 67.94 153.989 68.08C154.129 68.2 154.199 68.36 154.199 68.56V72.4C154.199 73.7 153.909 74.87 153.329 75.91C152.749 76.95 151.859 77.77 150.659 78.37C149.479 78.97 147.979 79.26 146.159 79.24ZM172.86 86.65C172.66 86.73 172.47 86.71 172.29 86.59C172.11 86.49 172.02 86.34 172.02 86.14V85.12C172.02 84.94 172.06 84.77 172.14 84.61C172.22 84.45 172.35 84.35 172.53 84.31L178.86 82.21C180 81.83 180.88 81.34 181.5 80.74C182.12 80.14 182.55 79.44 182.79 78.64C183.05 77.84 183.18 76.97 183.18 76.03V68.56C183.18 68.36 183.24 68.2 183.36 68.08C183.5 67.94 183.67 67.87 183.87 67.87H185.22C185.42 67.87 185.58 67.94 185.7 68.08C185.84 68.2 185.91 68.36 185.91 68.56V76.87C185.91 78.03 185.64 79.13 185.1 80.17C184.58 81.19 183.84 82.09 182.88 82.87C181.92 83.63 180.78 84.21 179.46 84.61L172.86 86.65ZM176.79 84.28L172.56 69.07C172.52 68.91 172.48 68.79 172.44 68.71C172.42 68.63 172.41 68.55 172.41 68.47C172.41 68.31 172.47 68.17 172.59 68.05C172.71 67.93 172.85 67.87 173.01 67.87H174.48C174.86 67.87 175.09 68.02 175.17 68.32L179.34 83.59L176.79 84.28ZM191.044 90.73C190.844 90.73 190.674 90.66 190.534 90.52C190.414 90.4 190.354 90.24 190.354 90.04V74.29C190.354 74.09 190.414 73.93 190.534 73.81C190.674 73.67 190.844 73.6 191.044 73.6H192.364C192.584 73.6 192.754 73.67 192.874 73.81C192.994 73.93 193.054 74.09 193.054 74.29V90.04C193.054 90.24 192.994 90.4 192.874 90.52C192.754 90.66 192.584 90.73 192.364 90.73H191.044ZM196.804 85.27C196.624 85.33 196.454 85.3 196.294 85.18C196.154 85.08 196.084 84.93 196.084 84.73V83.35C196.084 83.17 196.134 83.01 196.234 82.87C196.354 82.73 196.524 82.62 196.744 82.54L197.884 82.09C198.684 81.77 199.404 81.37 200.044 80.89C200.704 80.39 201.214 79.72 201.574 78.88C201.954 78.04 202.144 76.94 202.144 75.58C202.144 74.28 201.984 73.25 201.664 72.49C201.344 71.71 200.814 71.16 200.074 70.84C199.354 70.5 198.374 70.33 197.134 70.33H191.044C190.844 70.33 190.674 70.27 190.534 70.15C190.414 70.01 190.354 69.84 190.354 69.64V68.56C190.354 68.36 190.414 68.2 190.534 68.08C190.674 67.94 190.844 67.87 191.044 67.87H197.524C199.364 67.87 200.814 68.13 201.874 68.65C202.954 69.17 203.724 70.01 204.184 71.17C204.664 72.31 204.904 73.81 204.904 75.67C204.904 77.07 204.714 78.28 204.334 79.3C203.954 80.32 203.434 81.19 202.774 81.91C202.134 82.63 201.404 83.23 200.584 83.71C199.784 84.17 198.944 84.55 198.064 84.85L196.804 85.27ZM217.653 82.75C218.953 82.77 220.043 82.53 220.923 82.03C221.823 81.53 222.503 80.82 222.963 79.9C223.443 78.96 223.683 77.89 223.683 76.69V68.56C223.683 68.36 223.743 68.2 223.863 68.08C224.003 67.94 224.173 67.87 224.373 67.87H225.603C225.823 67.87 225.993 67.94 226.113 68.08C226.233 68.2 226.293 68.36 226.293 68.56V76.9C226.293 78.18 226.093 79.34 225.693 80.38C225.293 81.4 224.723 82.28 223.983 83.02C223.243 83.74 222.363 84.29 221.343 84.67C220.343 85.05 219.233 85.22 218.013 85.18H215.763C214.463 85.18 213.293 84.88 212.253 84.28C211.213 83.68 210.393 82.84 209.793 81.76C209.193 80.68 208.893 79.43 208.893 78.01V68.56C208.893 68.36 208.953 68.2 209.073 68.08C209.213 67.94 209.383 67.87 209.583 67.87H210.843C211.043 67.87 211.203 67.94 211.323 68.08C211.463 68.2 211.533 68.36 211.533 68.56L211.623 77.41C211.623 79.13 212.103 80.45 213.063 81.37C214.023 82.29 215.243 82.75 216.723 82.75H217.653ZM210.993 79.24L210.933 77.05C212.413 77.03 213.543 76.81 214.323 76.39C215.103 75.95 215.643 75.37 215.943 74.65C216.263 73.93 216.423 73.14 216.423 72.28V68.56C216.423 68.36 216.483 68.2 216.603 68.08C216.723 67.94 216.893 67.87 217.113 67.87H218.343C218.543 67.87 218.703 67.94 218.823 68.08C218.963 68.2 219.033 68.36 219.033 68.56V72.4C219.033 73.7 218.743 74.87 218.163 75.91C217.583 76.95 216.693 77.77 215.493 78.37C214.313 78.97 212.813 79.26 210.993 79.24ZM234.181 85.27C234.001 85.33 233.831 85.3 233.671 85.18C233.511 85.08 233.431 84.93 233.431 84.73V83.35C233.431 83.17 233.481 83.01 233.581 82.87C233.701 82.73 233.871 82.62 234.091 82.54L235.261 82.09C236.041 81.77 236.751 81.37 237.391 80.89C238.051 80.39 238.561 79.72 238.921 78.88C239.301 78.04 239.491 76.94 239.491 75.58C239.491 74.28 239.331 73.25 239.011 72.49C238.711 71.71 238.191 71.16 237.451 70.84C236.731 70.5 235.741 70.33 234.481 70.33H233.581C233.381 70.33 233.211 70.27 233.071 70.15C232.951 70.01 232.891 69.84 232.891 69.64V68.56C232.891 68.36 232.951 68.2 233.071 68.08C233.211 67.94 233.381 67.87 233.581 67.87H234.901C236.721 67.87 238.171 68.13 239.251 68.65C240.331 69.17 241.101 70.01 241.561 71.17C242.041 72.31 242.281 73.81 242.281 75.67C242.281 77.07 242.091 78.28 241.711 79.3C241.331 80.32 240.811 81.19 240.151 81.91C239.511 82.63 238.781 83.23 237.961 83.71C237.141 84.17 236.291 84.55 235.411 84.85L234.181 85.27ZM234.241 70.33L230.671 70.3C230.471 70.3 230.301 70.24 230.161 70.12C230.041 70 229.981 69.84 229.981 69.64V64.39C229.981 64.19 230.041 64.03 230.161 63.91C230.301 63.77 230.471 63.7 230.671 63.7H231.931C232.131 63.7 232.291 63.77 232.411 63.91C232.551 64.03 232.621 64.19 232.621 64.39V67.87H234.301L234.241 70.33Z" fill="black"/>
<defs>
<filter id="filter0_d_124_143" x="0" y="0" width="378" height="118" filterUnits="userSpaceOnUse" color-interpolation-filters="sRGB">
<feFlood flood-opacity="0" result="BackgroundImageFix"/>
<feColorMatrix in="SourceAlpha" type="matrix" values="0 0 0 0 0 0 0 0 0 0 0 0 0 0 0 0 0 0 127 0" result="hardAlpha"/>
<feOffset dx="4" dy="4"/>
<feGaussianBlur stdDeviation="2"/>
<feComposite in2="hardAlpha" operator="out"/>
<feColorMatrix type="matrix" values="0 0 0 0 0 0 0 0 0 0 0 0 0 0 0 0 0 0 0.25 0"/>
<feBlend mode="normal" in2="BackgroundImageFix" result="effect1_dropShadow_124_143"/>
<feBlend mode="normal" in="SourceGraphic" in2="effect1_dropShadow_124_143" result="shape"/>
</filter>
</defs>
</svg>
