<svg width="378" height="118" viewBox="0 0 378 118" fill="none" xmlns="http://www.w3.org/2000/svg">
<g filter="url(#filter0_d_124_142)">
<rect width="370" height="110" rx="20" fill="#FDF4D4"/>
</g>
<path d="M26.2597 38.04C26.0597 38.04 25.8897 37.98 25.7497 37.86C25.6297 37.72 25.5697 37.55 25.5697 37.35V28.56C25.5697 28.36 25.6297 28.2 25.7497 28.08C25.8897 27.94 26.0597 27.87 26.2597 27.87H27.6697C27.8897 27.87 28.0597 27.94 28.1797 28.08C28.2997 28.2 28.3597 28.36 28.3597 28.56V37.35C28.3597 37.55 28.2997 37.72 28.1797 37.86C28.0597 37.98 27.8897 38.04 27.6697 38.04H26.2597ZM32.661 46.65C32.461 46.73 32.271 46.71 32.091 46.59C31.911 46.49 31.821 46.34 31.821 46.14V45.12C31.821 44.94 31.861 44.77 31.941 44.61C32.021 44.45 32.151 44.35 32.331 44.31L38.661 42.21C39.801 41.83 40.681 41.34 41.301 40.74C41.921 40.14 42.351 39.44 42.591 38.64C42.851 37.84 42.981 36.97 42.981 36.03V28.56C42.981 28.36 43.041 28.2 43.161 28.08C43.301 27.94 43.471 27.87 43.671 27.87H45.021C45.221 27.87 45.381 27.94 45.501 28.08C45.641 28.2 45.711 28.36 45.711 28.56V36.87C45.711 38.03 45.441 39.13 44.901 40.17C44.381 41.19 43.641 42.09 42.681 42.87C41.721 43.63 40.581 44.21 39.261 44.61L32.661 46.65ZM36.591 44.28L32.361 29.07C32.321 28.91 32.281 28.79 32.241 28.71C32.221 28.63 32.211 28.55 32.211 28.47C32.211 28.31 32.271 28.17 32.391 28.05C32.511 27.93 32.651 27.87 32.811 27.87H34.281C34.661 27.87 34.891 28.02 34.971 28.32L39.141 43.59L36.591 44.28ZM50.2147 45C50.0147 45 49.8447 44.94 49.7047 44.82C49.5847 44.68 49.5247 44.51 49.5247 44.31V43.26C49.5247 43.06 49.5847 42.9 49.7047 42.78C49.8447 42.64 50.0147 42.57 50.2147 42.57H58.3447L48.9547 29.04C48.8947 28.92 48.8447 28.82 48.8047 28.74C48.7647 28.64 48.7447 28.55 48.7447 28.47C48.7447 28.31 48.8047 28.17 48.9247 28.05C49.0647 27.93 49.2147 27.87 49.3747 27.87H50.8147C51.0147 27.87 51.1747 27.93 51.2947 28.05C51.4347 28.15 51.5447 28.26 51.6247 28.38L61.4047 42.39C61.5047 42.53 61.5847 42.68 61.6447 42.84C61.7247 42.98 61.7647 43.14 61.7647 43.32V44.31C61.7647 44.51 61.6947 44.68 61.5547 44.82C61.4347 44.94 61.2747 45 61.0747 45H50.2147ZM57.8047 38.16L56.4847 36.21C57.5247 35.83 58.2747 35.21 58.7347 34.35C59.2147 33.47 59.4547 32.4 59.4547 31.14V28.56C59.4547 28.36 59.5147 28.2 59.6347 28.08C59.7747 27.94 59.9447 27.87 60.1447 27.87H61.3747C61.5947 27.87 61.7647 27.94 61.8847 28.08C62.0047 28.2 62.0647 28.36 62.0647 28.56V31.5C62.0647 33.12 61.7047 34.5 60.9847 35.64C60.2647 36.78 59.2047 37.62 57.8047 38.16ZM73.6508 30.33H66.3608C66.1408 30.33 65.9708 30.27 65.8508 30.15C65.7308 30.01 65.6708 29.84 65.6708 29.64V28.56C65.6708 28.36 65.7308 28.2 65.8508 28.08C65.9708 27.94 66.1408 27.87 66.3608 27.87H73.9808C75.2208 27.87 76.3208 28.16 77.2808 28.74C78.2608 29.32 79.0208 30.16 79.5608 31.26C80.1208 32.34 80.4008 33.65 80.4008 35.19V44.31C80.4008 44.51 80.3308 44.68 80.1908 44.82C80.0708 44.94 79.9108 45 79.7108 45H71.9708C71.7708 45 71.6008 44.94 71.4608 44.82C71.3408 44.68 71.2808 44.51 71.2808 44.31V43.29C71.2808 43.09 71.3408 42.93 71.4608 42.81C71.6008 42.67 71.7708 42.6 71.9708 42.6H77.6708V35.37C77.6708 34.35 77.4908 33.46 77.1308 32.7C76.7908 31.94 76.3108 31.36 75.6908 30.96C75.0908 30.54 74.4108 30.33 73.6508 30.33ZM66.0608 45C65.8808 45 65.7308 44.93 65.6108 44.79C65.4908 44.65 65.4408 44.48 65.4608 44.28L68.0108 29.58C68.0508 29.38 68.1408 29.23 68.2808 29.13C68.4208 29.01 68.5908 28.97 68.7908 29.01L69.9908 29.07C70.1908 29.09 70.3508 29.18 70.4708 29.34C70.5908 29.48 70.6208 29.65 70.5608 29.85L68.1908 44.28C68.1708 44.48 68.0808 44.65 67.9208 44.79C67.7808 44.93 67.6108 45 67.4108 45H66.0608ZM96.5122 45C96.2922 45 96.1222 44.94 96.0022 44.82C95.8822 44.7 95.7722 44.6 95.6722 44.52L84.6622 29.04C84.5222 28.82 84.4522 28.63 84.4522 28.47C84.4522 28.31 84.5122 28.17 84.6322 28.05C84.7722 27.93 84.9222 27.87 85.0822 27.87H86.4622C86.7022 27.87 86.8822 27.93 87.0022 28.05C87.1422 28.17 87.2522 28.28 87.3322 28.38L98.3722 43.83C98.4522 43.97 98.5022 44.08 98.5222 44.16C98.5622 44.24 98.5822 44.32 98.5822 44.4C98.5822 44.56 98.5222 44.7 98.4022 44.82C98.2822 44.94 98.1322 45 97.9522 45H96.5122ZM84.8122 45C84.6122 45 84.4422 44.94 84.3022 44.82C84.1822 44.68 84.1222 44.51 84.1222 44.31V39.81C84.1222 38.89 84.2122 38.02 84.3922 37.2C84.5722 36.36 84.9222 35.57 85.4422 34.83C85.9822 34.07 86.7822 33.36 87.8422 32.7L89.2222 34.71C88.5022 35.17 87.9622 35.7 87.6022 36.3C87.2422 36.88 87.0022 37.49 86.8822 38.13C86.7622 38.75 86.7022 39.35 86.7022 39.93V44.31C86.7022 44.51 86.6322 44.68 86.4922 44.82C86.3722 44.94 86.2122 45 86.0122 45H84.8122ZM94.1122 39.51L92.8822 37.44C93.8622 36.98 94.5522 36.5 94.9522 36C95.3722 35.5 95.6222 34.98 95.7022 34.44C95.7822 33.88 95.8222 33.3 95.8222 32.7V28.56C95.8222 28.36 95.8822 28.2 96.0022 28.08C96.1422 27.94 96.3122 27.87 96.5122 27.87H97.7722C97.9722 27.87 98.1322 27.94 98.2522 28.08C98.3922 28.2 98.4622 28.36 98.4622 28.56V32.85C98.4622 33.69 98.3622 34.5 98.1622 35.28C97.9622 36.06 97.5522 36.8 96.9322 37.5C96.3322 38.2 95.3922 38.87 94.1122 39.51ZM114.569 45C114.369 45 114.199 44.94 114.059 44.82C113.939 44.68 113.879 44.51 113.879 44.31V35.34C113.879 33.74 113.479 32.5 112.679 31.62C111.879 30.72 110.589 30.27 108.809 30.27H103.169C102.969 30.27 102.799 30.21 102.659 30.09C102.539 29.95 102.479 29.78 102.479 29.58V28.56C102.479 28.36 102.539 28.2 102.659 28.08C102.799 27.94 102.969 27.87 103.169 27.87H108.959C111.559 27.87 113.479 28.5 114.719 29.76C115.979 31.02 116.609 32.85 116.609 35.25V44.31C116.609 44.51 116.539 44.68 116.399 44.82C116.279 44.94 116.119 45 115.919 45H114.569ZM103.169 45C102.969 45 102.799 44.94 102.659 44.82C102.539 44.68 102.479 44.51 102.479 44.31V34.29C102.479 34.09 102.539 33.93 102.659 33.81C102.799 33.67 102.969 33.6 103.169 33.6H104.519C104.739 33.6 104.909 33.67 105.029 33.81C105.149 33.93 105.209 34.09 105.209 34.29V44.31C105.209 44.51 105.149 44.68 105.029 44.82C104.909 44.94 104.739 45 104.519 45H103.169ZM129.607 30.27C129.407 30.27 129.237 30.21 129.097 30.09C128.977 29.95 128.917 29.78 128.917 29.58V28.56C128.917 28.36 128.977 28.2 129.097 28.08C129.237 27.94 129.407 27.87 129.607 27.87H136.117C137.837 27.87 139.257 28.15 140.377 28.71C141.517 29.25 142.367 30.07 142.927 31.17C143.487 32.25 143.767 33.59 143.767 35.19V44.31C143.767 44.51 143.697 44.68 143.557 44.82C143.437 44.94 143.277 45 143.077 45H141.727C141.507 45 141.337 44.94 141.217 44.82C141.097 44.68 141.037 44.51 141.037 44.31V35.34C141.037 33.74 140.627 32.5 139.807 31.62C139.007 30.72 137.717 30.27 135.937 30.27H129.607ZM132.307 28.8H133.057C133.357 28.8 133.577 28.88 133.717 29.04C133.877 29.18 133.947 29.36 133.927 29.58C133.767 30.42 133.627 31.18 133.507 31.86C133.407 32.54 133.337 33.22 133.297 33.9C133.257 34.56 133.237 35.31 133.237 36.15L133.297 44.31C133.297 44.51 133.237 44.68 133.117 44.82C132.997 44.94 132.837 45 132.637 45L128.377 44.94C128.177 44.94 128.007 44.88 127.867 44.76C127.747 44.64 127.687 44.47 127.687 44.25V43.29C127.687 43.09 127.747 42.93 127.867 42.81C128.007 42.67 128.177 42.6 128.377 42.6L130.687 42.63V36.27C130.687 35.45 130.697 34.7 130.717 34.02C130.737 33.32 130.797 32.62 130.897 31.92C130.997 31.22 131.157 30.43 131.377 29.55C131.437 29.33 131.527 29.15 131.647 29.01C131.787 28.87 132.007 28.8 132.307 28.8ZM159.881 45C159.661 45 159.491 44.94 159.371 44.82C159.251 44.7 159.141 44.6 159.041 44.52L148.031 29.04C147.891 28.82 147.821 28.63 147.821 28.47C147.821 28.31 147.881 28.17 148.001 28.05C148.141 27.93 148.291 27.87 148.451 27.87H149.831C150.071 27.87 150.251 27.93 150.371 28.05C150.511 28.17 150.621 28.28 150.701 28.38L161.741 43.83C161.821 43.97 161.871 44.08 161.891 44.16C161.931 44.24 161.951 44.32 161.951 44.4C161.951 44.56 161.891 44.7 161.771 44.82C161.651 44.94 161.501 45 161.321 45H159.881ZM148.181 45C147.981 45 147.811 44.94 147.671 44.82C147.551 44.68 147.491 44.51 147.491 44.31V39.81C147.491 38.89 147.581 38.02 147.761 37.2C147.941 36.36 148.291 35.57 148.811 34.83C149.351 34.07 150.151 33.36 151.211 32.7L152.591 34.71C151.871 35.17 151.331 35.7 150.971 36.3C150.611 36.88 150.371 37.49 150.251 38.13C150.131 38.75 150.071 39.35 150.071 39.93V44.31C150.071 44.51 150.001 44.68 149.861 44.82C149.741 44.94 149.581 45 149.381 45H148.181ZM157.481 39.51L156.251 37.44C157.231 36.98 157.921 36.5 158.321 36C158.741 35.5 158.991 34.98 159.071 34.44C159.151 33.88 159.191 33.3 159.191 32.7V28.56C159.191 28.36 159.251 28.2 159.371 28.08C159.511 27.94 159.681 27.87 159.881 27.87H161.141C161.341 27.87 161.501 27.94 161.621 28.08C161.761 28.2 161.831 28.36 161.831 28.56V32.85C161.831 33.69 161.731 34.5 161.531 35.28C161.331 36.06 160.921 36.8 160.301 37.5C159.701 38.2 158.761 38.87 157.481 39.51ZM176.218 45.27C176.038 45.33 175.868 45.3 175.708 45.18C175.548 45.08 175.468 44.93 175.468 44.73V43.35C175.468 43.17 175.518 43.01 175.618 42.87C175.738 42.73 175.908 42.62 176.128 42.54L177.298 42.09C178.078 41.77 178.788 41.37 179.428 40.89C180.088 40.39 180.598 39.72 180.958 38.88C181.338 38.04 181.528 36.94 181.528 35.58C181.528 34.28 181.368 33.25 181.048 32.49C180.748 31.71 180.228 31.16 179.488 30.84C178.768 30.5 177.778 30.33 176.518 30.33H175.618C175.418 30.33 175.248 30.27 175.108 30.15C174.988 30.01 174.928 29.84 174.928 29.64V28.56C174.928 28.36 174.988 28.2 175.108 28.08C175.248 27.94 175.418 27.87 175.618 27.87H176.938C178.758 27.87 180.208 28.13 181.288 28.65C182.368 29.17 183.138 30.01 183.598 31.17C184.078 32.31 184.318 33.81 184.318 35.67C184.318 37.07 184.128 38.28 183.748 39.3C183.368 40.32 182.848 41.19 182.188 41.91C181.548 42.63 180.818 43.23 179.998 43.71C179.178 44.17 178.328 44.55 177.448 44.85L176.218 45.27ZM176.278 30.33L172.708 30.3C172.508 30.3 172.338 30.24 172.198 30.12C172.078 30 172.018 29.84 172.018 29.64V24.39C172.018 24.19 172.078 24.03 172.198 23.91C172.338 23.77 172.508 23.7 172.708 23.7H173.968C174.168 23.7 174.328 23.77 174.448 23.91C174.588 24.03 174.658 24.19 174.658 24.39V27.87H176.338L176.278 30.33ZM188.74 38.04C188.54 38.04 188.37 37.98 188.23 37.86C188.11 37.72 188.05 37.55 188.05 37.35V28.56C188.05 28.36 188.11 28.2 188.23 28.08C188.37 27.94 188.54 27.87 188.74 27.87H190.15C190.37 27.87 190.54 27.94 190.66 28.08C190.78 28.2 190.84 28.36 190.84 28.56V37.35C190.84 37.55 190.78 37.72 190.66 37.86C190.54 37.98 190.37 38.04 190.15 38.04H188.74ZM195.141 46.65C194.941 46.73 194.751 46.71 194.571 46.59C194.391 46.49 194.301 46.34 194.301 46.14V45.12C194.301 44.94 194.341 44.77 194.421 44.61C194.501 44.45 194.631 44.35 194.811 44.31L201.141 42.21C202.281 41.83 203.161 41.34 203.781 40.74C204.401 40.14 204.831 39.44 205.071 38.64C205.331 37.84 205.461 36.97 205.461 36.03V28.56C205.461 28.36 205.521 28.2 205.641 28.08C205.781 27.94 205.951 27.87 206.151 27.87H207.501C207.701 27.87 207.861 27.94 207.981 28.08C208.121 28.2 208.191 28.36 208.191 28.56V36.87C208.191 38.03 207.921 39.13 207.381 40.17C206.861 41.19 206.121 42.09 205.161 42.87C204.201 43.63 203.061 44.21 201.741 44.61L195.141 46.65ZM199.071 44.28L194.841 29.07C194.801 28.91 194.761 28.79 194.721 28.71C194.701 28.63 194.691 28.55 194.691 28.47C194.691 28.31 194.751 28.17 194.871 28.05C194.991 27.93 195.131 27.87 195.291 27.87H196.761C197.141 27.87 197.371 28.02 197.451 28.32L201.621 43.59L199.071 44.28ZM215.065 30.33V32.67C215.085 33.39 215.175 33.99 215.335 34.47C215.495 34.95 215.805 35.25 216.265 35.37L217.375 35.67C217.535 35.71 217.655 35.82 217.735 36C217.835 36.16 217.885 36.36 217.885 36.6V37.35C217.885 37.57 217.775 37.73 217.555 37.83C217.335 37.93 217.095 37.96 216.835 37.92L215.665 37.68C215.025 37.52 214.475 37.24 214.015 36.84C213.555 36.42 213.205 35.86 212.965 35.16C212.745 34.44 212.635 33.58 212.635 32.58V28.56C212.635 28.36 212.695 28.2 212.815 28.08C212.935 27.94 213.105 27.87 213.325 27.87H218.875C220.375 27.87 221.625 28.17 222.625 28.77C223.625 29.35 224.385 30.2 224.905 31.32C225.425 32.42 225.705 33.75 225.745 35.31C225.765 35.61 225.775 35.99 225.775 36.45C225.775 36.89 225.765 37.26 225.745 37.56C225.705 39.1 225.425 40.43 224.905 41.55C224.385 42.67 223.625 43.53 222.625 44.13C221.625 44.71 220.375 45 218.875 45H213.685C213.485 45 213.315 44.94 213.175 44.82C213.055 44.68 212.995 44.51 212.995 44.31V43.23C212.995 43.03 213.055 42.87 213.175 42.75C213.315 42.61 213.485 42.54 213.685 42.54H218.725C220.105 42.54 221.165 42.1 221.905 41.22C222.665 40.32 223.085 39.07 223.165 37.47C223.185 37.17 223.195 36.83 223.195 36.45C223.195 36.05 223.185 35.7 223.165 35.4C223.125 33.8 222.715 32.56 221.935 31.68C221.175 30.78 220.105 30.33 218.725 30.33H215.065ZM241.805 45C241.605 45 241.435 44.94 241.295 44.82C241.175 44.68 241.115 44.51 241.115 44.31V35.34C241.115 33.74 240.715 32.5 239.915 31.62C239.115 30.72 237.825 30.27 236.045 30.27H230.405C230.205 30.27 230.035 30.21 229.895 30.09C229.775 29.95 229.715 29.78 229.715 29.58V28.56C229.715 28.36 229.775 28.2 229.895 28.08C230.035 27.94 230.205 27.87 230.405 27.87H236.195C238.795 27.87 240.715 28.5 241.955 29.76C243.215 31.02 243.845 32.85 243.845 35.25V44.31C243.845 44.51 243.775 44.68 243.635 44.82C243.515 44.94 243.355 45 243.155 45H241.805ZM230.405 45C230.205 45 230.035 44.94 229.895 44.82C229.775 44.68 229.715 44.51 229.715 44.31V34.29C229.715 34.09 229.775 33.93 229.895 33.81C230.035 33.67 230.205 33.6 230.405 33.6H231.755C231.975 33.6 232.145 33.67 232.265 33.81C232.385 33.93 232.445 34.09 232.445 34.29V44.31C232.445 44.51 232.385 44.68 232.265 44.82C232.145 44.94 231.975 45 231.755 45H230.405ZM251.423 45.27C251.243 45.33 251.073 45.3 250.913 45.18C250.753 45.08 250.673 44.93 250.673 44.73V43.35C250.673 43.17 250.723 43.01 250.823 42.87C250.943 42.73 251.113 42.62 251.333 42.54L252.503 42.09C253.283 41.77 253.993 41.37 254.633 40.89C255.293 40.39 255.803 39.72 256.163 38.88C256.543 38.04 256.733 36.94 256.733 35.58C256.733 34.28 256.573 33.25 256.253 32.49C255.953 31.71 255.433 31.16 254.693 30.84C253.973 30.5 252.983 30.33 251.723 30.33H250.823C250.623 30.33 250.453 30.27 250.313 30.15C250.193 30.01 250.133 29.84 250.133 29.64V28.56C250.133 28.36 250.193 28.2 250.313 28.08C250.453 27.94 250.623 27.87 250.823 27.87H252.143C253.963 27.87 255.413 28.13 256.493 28.65C257.573 29.17 258.343 30.01 258.803 31.17C259.283 32.31 259.523 33.81 259.523 35.67C259.523 37.07 259.333 38.28 258.953 39.3C258.573 40.32 258.053 41.19 257.393 41.91C256.753 42.63 256.023 43.23 255.203 43.71C254.383 44.17 253.533 44.55 252.653 44.85L251.423 45.27ZM251.483 30.33L247.913 30.3C247.713 30.3 247.543 30.24 247.403 30.12C247.283 30 247.223 29.84 247.223 29.64V24.39C247.223 24.19 247.283 24.03 247.403 23.91C247.543 23.77 247.713 23.7 247.913 23.7H249.173C249.373 23.7 249.533 23.77 249.653 23.91C249.793 24.03 249.863 24.19 249.863 24.39V27.87H251.543L251.483 30.33ZM271.509 48.72C271.309 48.72 271.139 48.65 270.999 48.51C270.879 48.39 270.819 48.23 270.819 48.03V28.56C270.819 28.36 270.879 28.2 270.999 28.08C271.139 27.94 271.309 27.87 271.509 27.87H272.859C273.079 27.87 273.249 27.94 273.369 28.08C273.489 28.2 273.549 28.36 273.549 28.56V48.03C273.549 48.23 273.489 48.39 273.369 48.51C273.249 48.65 273.079 48.72 272.859 48.72H271.509ZM278.652 38.04C278.452 38.04 278.282 37.98 278.142 37.86C278.022 37.72 277.962 37.55 277.962 37.35V28.56C277.962 28.36 278.022 28.2 278.142 28.08C278.282 27.94 278.452 27.87 278.652 27.87H280.062C280.282 27.87 280.452 27.94 280.572 28.08C280.692 28.2 280.752 28.36 280.752 28.56V37.35C280.752 37.55 280.692 37.72 280.572 37.86C280.452 37.98 280.282 38.04 280.062 38.04H278.652ZM296.874 45C296.654 45 296.484 44.94 296.364 44.82C296.244 44.7 296.134 44.6 296.034 44.52L285.024 29.04C284.884 28.82 284.814 28.63 284.814 28.47C284.814 28.31 284.874 28.17 284.994 28.05C285.134 27.93 285.284 27.87 285.444 27.87H286.824C287.064 27.87 287.244 27.93 287.364 28.05C287.504 28.17 287.614 28.28 287.694 28.38L298.734 43.83C298.814 43.97 298.864 44.08 298.884 44.16C298.924 44.24 298.944 44.32 298.944 44.4C298.944 44.56 298.884 44.7 298.764 44.82C298.644 44.94 298.494 45 298.314 45H296.874ZM285.174 45C284.974 45 284.804 44.94 284.664 44.82C284.544 44.68 284.484 44.51 284.484 44.31V39.81C284.484 38.89 284.574 38.02 284.754 37.2C284.934 36.36 285.284 35.57 285.804 34.83C286.344 34.07 287.144 33.36 288.204 32.7L289.584 34.71C288.864 35.17 288.324 35.7 287.964 36.3C287.604 36.88 287.364 37.49 287.244 38.13C287.124 38.75 287.064 39.35 287.064 39.93V44.31C287.064 44.51 286.994 44.68 286.854 44.82C286.734 44.94 286.574 45 286.374 45H285.174ZM294.474 39.51L293.244 37.44C294.224 36.98 294.914 36.5 295.314 36C295.734 35.5 295.984 34.98 296.064 34.44C296.144 33.88 296.184 33.3 296.184 32.7V28.56C296.184 28.36 296.244 28.2 296.364 28.08C296.504 27.94 296.674 27.87 296.874 27.87H298.134C298.334 27.87 298.494 27.94 298.614 28.08C298.754 28.2 298.824 28.36 298.824 28.56V32.85C298.824 33.69 298.724 34.5 298.524 35.28C298.324 36.06 297.914 36.8 297.294 37.5C296.694 38.2 295.754 38.87 294.474 39.51ZM323.047 38.94C322.467 38.94 321.927 38.8 321.427 38.52C320.927 38.22 320.527 37.83 320.227 37.35C319.947 36.85 319.807 36.31 319.807 35.73C319.807 35.13 319.947 34.59 320.227 34.11C320.527 33.61 320.927 33.22 321.427 32.94C321.927 32.64 322.467 32.49 323.047 32.49C323.647 32.49 324.187 32.64 324.667 32.94C325.147 33.22 325.527 33.61 325.807 34.11C326.107 34.59 326.257 35.13 326.257 35.73C326.257 36.31 326.107 36.85 325.807 37.35C325.527 37.83 325.147 38.22 324.667 38.52C324.187 38.8 323.647 38.94 323.047 38.94ZM72.0823 70.27C71.8823 70.27 71.7123 70.21 71.5723 70.09C71.4523 69.95 71.3923 69.78 71.3923 69.58V68.56C71.3923 68.36 71.4523 68.2 71.5723 68.08C71.7123 67.94 71.8823 67.87 72.0823 67.87H78.5923C80.3123 67.87 81.7323 68.15 82.8523 68.71C83.9923 69.25 84.8423 70.07 85.4023 71.17C85.9623 72.25 86.2423 73.59 86.2423 75.19V84.31C86.2423 84.51 86.1723 84.68 86.0323 84.82C85.9123 84.94 85.7523 85 85.5523 85H84.2023C83.9823 85 83.8123 84.94 83.6923 84.82C83.5723 84.68 83.5123 84.51 83.5123 84.31V75.34C83.5123 73.74 83.1023 72.5 82.2823 71.62C81.4823 70.72 80.1923 70.27 78.4123 70.27H72.0823ZM74.7823 68.8H75.5323C75.8323 68.8 76.0523 68.88 76.1923 69.04C76.3523 69.18 76.4223 69.36 76.4023 69.58C76.2423 70.42 76.1023 71.18 75.9823 71.86C75.8823 72.54 75.8123 73.22 75.7723 73.9C75.7323 74.56 75.7123 75.31 75.7123 76.15L75.7723 84.31C75.7723 84.51 75.7123 84.68 75.5923 84.82C75.4723 84.94 75.3123 85 75.1123 85L70.8523 84.94C70.6523 84.94 70.4823 84.88 70.3423 84.76C70.2223 84.64 70.1623 84.47 70.1623 84.25V83.29C70.1623 83.09 70.2223 82.93 70.3423 82.81C70.4823 82.67 70.6523 82.6 70.8523 82.6L73.1623 82.63V76.27C73.1623 75.45 73.1723 74.7 73.1923 74.02C73.2123 73.32 73.2723 72.62 73.3723 71.92C73.4723 71.22 73.6323 70.43 73.8523 69.55C73.9123 69.33 74.0023 69.15 74.1223 69.01C74.2623 68.87 74.4823 68.8 74.7823 68.8ZM91.377 85C91.177 85 91.007 84.94 90.867 84.82C90.747 84.68 90.687 84.51 90.687 84.31V68.56C90.687 68.36 90.747 68.2 90.867 68.08C91.007 67.94 91.177 67.87 91.377 67.87H92.787C93.007 67.87 93.177 67.94 93.297 68.08C93.417 68.2 93.477 68.36 93.477 68.56V84.31C93.477 84.51 93.417 84.68 93.297 84.82C93.177 84.94 93.007 85 92.787 85H91.377ZM98.0691 85C97.8691 85 97.6991 84.94 97.5591 84.82C97.4391 84.68 97.3791 84.51 97.3791 84.31V83.29C97.3791 83.09 97.4391 82.93 97.5591 82.81C97.6991 82.67 97.8691 82.6 98.0691 82.6H106.679V75.34C106.679 73.74 106.279 72.5 105.479 71.62C104.679 70.72 103.389 70.27 101.609 70.27H98.3691C98.1691 70.27 97.9991 70.21 97.8591 70.09C97.7391 69.95 97.6791 69.78 97.6791 69.58V68.56C97.6791 68.36 97.7391 68.2 97.8591 68.08C97.9991 67.94 98.1691 67.87 98.3691 67.87H101.759C103.479 67.87 104.909 68.15 106.049 68.71C107.189 69.27 108.039 70.1 108.599 71.2C109.179 72.28 109.469 73.63 109.469 75.25V82.6H110.579C110.779 82.6 110.939 82.67 111.059 82.81C111.199 82.93 111.269 83.09 111.269 83.29V84.31C111.269 84.51 111.199 84.68 111.059 84.82C110.939 84.94 110.779 85 110.579 85H98.0691ZM115.137 85C114.937 85 114.767 84.94 114.627 84.82C114.507 84.68 114.447 84.51 114.447 84.31V68.56C114.447 68.36 114.507 68.2 114.627 68.08C114.767 67.94 114.937 67.87 115.137 67.87H116.547C116.767 67.87 116.937 67.94 117.057 68.08C117.177 68.2 117.237 68.36 117.237 68.56V84.31C117.237 84.51 117.177 84.68 117.057 84.82C116.937 84.94 116.767 85 116.547 85H115.137ZM129.269 85.3C126.589 85.3 124.659 84.66 123.479 83.38C122.299 82.08 121.709 80.27 121.709 77.95V68.56C121.709 68.36 121.769 68.2 121.889 68.08C122.029 67.94 122.199 67.87 122.399 67.87H123.629C123.849 67.87 124.019 67.94 124.139 68.08C124.259 68.2 124.319 68.36 124.319 68.56V77.8C124.319 79.42 124.729 80.67 125.549 81.55C126.369 82.41 127.609 82.84 129.269 82.84C130.929 82.84 132.139 82.44 132.899 81.64C133.679 80.84 134.089 79.64 134.129 78.04C134.149 77.84 134.149 77.54 134.129 77.14C134.129 76.72 134.129 76.3 134.129 75.88C134.129 75.46 134.129 75.15 134.129 74.95C134.089 73.29 133.729 72.08 133.049 71.32C132.389 70.56 131.519 70.18 130.439 70.18C130.099 70.18 129.709 70.24 129.269 70.36C128.829 70.48 128.459 70.64 128.159 70.84C127.979 70.94 127.789 70.95 127.589 70.87C127.389 70.77 127.289 70.61 127.289 70.39V69.46C127.289 69.26 127.309 69.09 127.349 68.95C127.389 68.79 127.499 68.65 127.679 68.53C128.079 68.29 128.509 68.1 128.969 67.96C129.429 67.8 130.039 67.72 130.799 67.72C132.099 67.72 133.189 67.97 134.069 68.47C134.949 68.95 135.619 69.7 136.079 70.72C136.539 71.74 136.789 73.05 136.829 74.65C136.849 74.85 136.859 75.19 136.859 75.67C136.859 76.15 136.859 76.64 136.859 77.14C136.859 77.64 136.849 77.99 136.829 78.19C136.789 79.71 136.509 81.01 135.989 82.09C135.489 83.15 134.689 83.95 133.589 84.49C132.509 85.03 131.069 85.3 129.269 85.3ZM150.182 85C149.982 85 149.812 84.94 149.672 84.82C149.552 84.68 149.492 84.51 149.492 84.31V75.34C149.492 73.74 149.092 72.5 148.292 71.62C147.492 70.72 146.202 70.27 144.422 70.27H140.492C140.292 70.27 140.122 70.21 139.982 70.09C139.862 69.95 139.802 69.78 139.802 69.58V68.56C139.802 68.36 139.862 68.2 139.982 68.08C140.122 67.94 140.292 67.87 140.492 67.87H144.572C146.292 67.87 147.712 68.14 148.832 68.68C149.972 69.22 150.822 70.04 151.382 71.14C151.942 72.22 152.222 73.57 152.222 75.19V84.31C152.222 84.51 152.152 84.68 152.012 84.82C151.892 84.94 151.732 85 151.532 85H150.182ZM165.217 70.27C165.017 70.27 164.847 70.21 164.707 70.09C164.587 69.95 164.527 69.78 164.527 69.58V68.56C164.527 68.36 164.587 68.2 164.707 68.08C164.847 67.94 165.017 67.87 165.217 67.87H171.727C173.447 67.87 174.867 68.15 175.987 68.71C177.127 69.25 177.977 70.07 178.537 71.17C179.097 72.25 179.377 73.59 179.377 75.19V84.31C179.377 84.51 179.307 84.68 179.167 84.82C179.047 84.94 178.887 85 178.687 85H177.337C177.117 85 176.947 84.94 176.827 84.82C176.707 84.68 176.647 84.51 176.647 84.31V75.34C176.647 73.74 176.237 72.5 175.417 71.62C174.617 70.72 173.327 70.27 171.547 70.27H165.217ZM167.917 68.8H168.667C168.967 68.8 169.187 68.88 169.327 69.04C169.487 69.18 169.557 69.36 169.537 69.58C169.377 70.42 169.237 71.18 169.117 71.86C169.017 72.54 168.947 73.22 168.907 73.9C168.867 74.56 168.847 75.31 168.847 76.15L168.907 84.31C168.907 84.51 168.847 84.68 168.727 84.82C168.607 84.94 168.447 85 168.247 85L163.987 84.94C163.787 84.94 163.617 84.88 163.477 84.76C163.357 84.64 163.297 84.47 163.297 84.25V83.29C163.297 83.09 163.357 82.93 163.477 82.81C163.617 82.67 163.787 82.6 163.987 82.6L166.297 82.63V76.27C166.297 75.45 166.307 74.7 166.327 74.02C166.347 73.32 166.407 72.62 166.507 71.92C166.607 71.22 166.767 70.43 166.987 69.55C167.047 69.33 167.137 69.15 167.257 69.01C167.397 68.87 167.617 68.8 167.917 68.8ZM184.512 85C184.312 85 184.142 84.94 184.002 84.82C183.882 84.68 183.822 84.51 183.822 84.31V68.56C183.822 68.36 183.882 68.2 184.002 68.08C184.142 67.94 184.312 67.87 184.512 67.87H185.922C186.142 67.87 186.312 67.94 186.432 68.08C186.552 68.2 186.612 68.36 186.612 68.56V84.31C186.612 84.51 186.552 84.68 186.432 84.82C186.312 84.94 186.142 85 185.922 85H184.512ZM193.664 70.33V72.67C193.684 73.39 193.774 73.99 193.934 74.47C194.094 74.95 194.404 75.25 194.864 75.37L195.974 75.67C196.134 75.71 196.254 75.82 196.334 76C196.434 76.16 196.484 76.36 196.484 76.6V77.35C196.484 77.57 196.374 77.73 196.154 77.83C195.934 77.93 195.694 77.96 195.434 77.92L194.264 77.68C193.624 77.52 193.074 77.24 192.614 76.84C192.154 76.42 191.804 75.86 191.564 75.16C191.344 74.44 191.234 73.58 191.234 72.58V68.56C191.234 68.36 191.294 68.2 191.414 68.08C191.534 67.94 191.704 67.87 191.924 67.87H197.474C198.974 67.87 200.224 68.17 201.224 68.77C202.224 69.35 202.984 70.2 203.504 71.32C204.024 72.42 204.304 73.75 204.344 75.31C204.364 75.61 204.374 75.99 204.374 76.45C204.374 76.89 204.364 77.26 204.344 77.56C204.304 79.1 204.024 80.43 203.504 81.55C202.984 82.67 202.224 83.53 201.224 84.13C200.224 84.71 198.974 85 197.474 85H192.284C192.084 85 191.914 84.94 191.774 84.82C191.654 84.68 191.594 84.51 191.594 84.31V83.23C191.594 83.03 191.654 82.87 191.774 82.75C191.914 82.61 192.084 82.54 192.284 82.54H197.324C198.704 82.54 199.764 82.1 200.504 81.22C201.264 80.32 201.684 79.07 201.764 77.47C201.784 77.17 201.794 76.83 201.794 76.45C201.794 76.05 201.784 75.7 201.764 75.4C201.724 73.8 201.314 72.56 200.534 71.68C199.774 70.78 198.704 70.33 197.324 70.33H193.664ZM210.744 70.33V72.67C210.764 73.39 210.854 73.99 211.014 74.47C211.174 74.95 211.484 75.25 211.944 75.37L213.054 75.67C213.214 75.71 213.334 75.82 213.414 76C213.514 76.16 213.564 76.36 213.564 76.6V77.35C213.564 77.57 213.454 77.73 213.234 77.83C213.014 77.93 212.774 77.96 212.514 77.92L211.344 77.68C210.704 77.52 210.154 77.24 209.694 76.84C209.234 76.42 208.884 75.86 208.644 75.16C208.424 74.44 208.314 73.58 208.314 72.58V68.56C208.314 68.36 208.374 68.2 208.494 68.08C208.614 67.94 208.784 67.87 209.004 67.87H214.554C216.054 67.87 217.304 68.17 218.304 68.77C219.304 69.35 220.064 70.2 220.584 71.32C221.104 72.42 221.384 73.75 221.424 75.31C221.444 75.61 221.454 75.99 221.454 76.45C221.454 76.89 221.444 77.26 221.424 77.56C221.384 79.1 221.104 80.43 220.584 81.55C220.064 82.67 219.304 83.53 218.304 84.13C217.304 84.71 216.054 85 214.554 85H209.364C209.164 85 208.994 84.94 208.854 84.82C208.734 84.68 208.674 84.51 208.674 84.31V83.23C208.674 83.03 208.734 82.87 208.854 82.75C208.994 82.61 209.164 82.54 209.364 82.54H214.404C215.784 82.54 216.844 82.1 217.584 81.22C218.344 80.32 218.764 79.07 218.844 77.47C218.864 77.17 218.874 76.83 218.874 76.45C218.874 76.05 218.864 75.7 218.844 75.4C218.804 73.8 218.394 72.56 217.614 71.68C216.854 70.78 215.784 70.33 214.404 70.33H210.744ZM225.762 85C225.562 85 225.392 84.94 225.252 84.82C225.132 84.68 225.072 84.51 225.072 84.31V83.23C225.072 83.03 225.132 82.87 225.252 82.75C225.392 82.61 225.562 82.54 225.762 82.54H230.052C231.832 82.54 233.112 82.1 233.892 81.22C234.672 80.32 235.102 79.07 235.182 77.47C235.202 77.03 235.212 76.68 235.212 76.42C235.212 76.16 235.202 75.82 235.182 75.4C235.122 73.8 234.692 72.56 233.892 71.68C233.112 70.78 231.832 70.33 230.052 70.33H225.762C225.562 70.33 225.392 70.27 225.252 70.15C225.132 70.01 225.072 69.84 225.072 69.64V68.56C225.072 68.36 225.132 68.2 225.252 68.08C225.392 67.94 225.562 67.87 225.762 67.87H230.202C231.962 67.87 233.392 68.17 234.492 68.77C235.592 69.35 236.412 70.2 236.952 71.32C237.512 72.42 237.812 73.75 237.852 75.31C237.872 75.71 237.882 76.08 237.882 76.42C237.882 76.76 237.872 77.14 237.852 77.56C237.812 79.1 237.512 80.43 236.952 81.55C236.412 82.67 235.592 83.53 234.492 84.13C233.392 84.71 231.962 85 230.202 85H225.762ZM241.36 85C241.16 85 240.99 84.94 240.85 84.82C240.73 84.68 240.67 84.51 240.67 84.31V83.29C240.67 83.09 240.73 82.93 240.85 82.81C240.99 82.67 241.16 82.6 241.36 82.6H249.97V75.34C249.97 73.74 249.57 72.5 248.77 71.62C247.97 70.72 246.68 70.27 244.9 70.27H241.66C241.46 70.27 241.29 70.21 241.15 70.09C241.03 69.95 240.97 69.78 240.97 69.58V68.56C240.97 68.36 241.03 68.2 241.15 68.08C241.29 67.94 241.46 67.87 241.66 67.87H245.05C246.77 67.87 248.2 68.15 249.34 68.71C250.48 69.27 251.33 70.1 251.89 71.2C252.47 72.28 252.76 73.63 252.76 75.25V82.6H253.87C254.07 82.6 254.23 82.67 254.35 82.81C254.49 82.93 254.56 83.09 254.56 83.29V84.31C254.56 84.51 254.49 84.68 254.35 84.82C254.23 84.94 254.07 85 253.87 85H241.36Z" fill="black"/>
<defs>
<filter id="filter0_d_124_142" x="0" y="0" width="378" height="118" filterUnits="userSpaceOnUse" color-interpolation-filters="sRGB">
<feFlood flood-opacity="0" result="BackgroundImageFix"/>
<feColorMatrix in="SourceAlpha" type="matrix" values="0 0 0 0 0 0 0 0 0 0 0 0 0 0 0 0 0 0 127 0" result="hardAlpha"/>
<feOffset dx="4" dy="4"/>
<feGaussianBlur stdDeviation="2"/>
<feComposite in2="hardAlpha" operator="out"/>
<feColorMatrix type="matrix" values="0 0 0 0 0 0 0 0 0 0 0 0 0 0 0 0 0 0 0.25 0"/>
<feBlend mode="normal" in2="BackgroundImageFix" result="effect1_dropShadow_124_142"/>
<feBlend mode="normal" in="SourceGraphic" in2="effect1_dropShadow_124_142" result="shape"/>
</filter>
</defs>
</svg>
